<svg width="1917" height="1116" viewBox="0 0 1917 1116" fill="none" xmlns="http://www.w3.org/2000/svg">
<g opacity="0.91" clip-path="url(#clip0_485_2)">
<path d="M2.77687 510.977H-14.5312L-14.5312 544.34H2.77687L2.77687 510.977Z" fill="#EBF7FF"/>
<path d="M48.4097 514.352H31.1016L31.1016 600.534H48.4097L48.4097 514.352Z" fill="#00BED4" fill-opacity="0.3"/>
<path d="M41.0449 473.549H38.4883L38.4883 514.352H41.0449L41.0449 473.549Z" fill="#00BED4" fill-opacity="0.3"/>
<path d="M41.0449 600.535H38.4883L38.4883 641.338H41.0449L41.0449 600.535Z" fill="#00BED4" fill-opacity="0.3"/>
<path d="M96.9097 504.33H79.6016V529.334H96.9097V504.33Z" fill="#00BED4" fill-opacity="0.3"/>
<path d="M89.5214 463.553H86.9648V504.356H89.5214V463.553Z" fill="#00BED4" fill-opacity="0.3"/>
<path d="M89.5214 529.334H86.9648V570.137H89.5214V529.334Z" fill="#00BED4" fill-opacity="0.3"/>
<path d="M139.734 539.688H122.426L122.426 652.152H139.734L139.734 539.688Z" fill="#00BED4" fill-opacity="0.3"/>
<path d="M132.346 498.885H129.789V539.688H132.346V498.885Z" fill="#00BED4" fill-opacity="0.3"/>
<path d="M132.346 652.152H129.789V692.956H132.346V652.152Z" fill="#00BED4" fill-opacity="0.3"/>
<path d="M185.367 585.143H168.059V627.25H185.367V585.143Z" fill="#00BED4" fill-opacity="0.2"/>
<path d="M178.002 544.34H175.445V585.143H178.002V544.34Z" fill="#00BED4" fill-opacity="0.2"/>
<path d="M178.002 627.225H175.445V668.028H178.002V627.225Z" fill="#00BED4" fill-opacity="0.2"/>
<path d="M233.226 534.549H215.918V614.442H233.226V534.549Z" fill="#00BED4" fill-opacity="0.2"/>
<path d="M225.838 493.771H223.281V534.575H225.838V493.771Z" fill="#00BED4" fill-opacity="0.2"/>
<path d="M225.838 614.469H223.281V655.272H225.838V614.469Z" fill="#00BED4" fill-opacity="0.2"/>
<path d="M276.691 409.709H259.383V509.979H276.691V409.709Z" fill="#00BED4" fill-opacity="0.2"/>
<path d="M269.303 368.906H266.746V409.709H269.303V368.906Z" fill="#00BED4" fill-opacity="0.2"/>
<path d="M269.303 509.979H266.746V550.782H269.303V509.979Z" fill="#00BED4" fill-opacity="0.2"/>
<path d="M322.351 444.838H305.043V469.765H322.351V444.838Z" fill="#00BED4" fill-opacity="0.2"/>
<path d="M314.963 404.035H312.406V444.838H314.963V404.035Z" fill="#00BED4" fill-opacity="0.2"/>
<path d="M314.963 469.766H312.406V510.569H314.963V469.766Z" fill="#00BED4" fill-opacity="0.2"/>
<path d="M367.988 404.035H350.68V504.586H367.988V404.035Z" fill="#00BED4" fill-opacity="0.2"/>
<path d="M360.623 363.258H358.066V404.061H360.623V363.258Z" fill="#00BED4" fill-opacity="0.2"/>
<path d="M360.623 504.586H358.066V545.389H360.623V504.586Z" fill="#00BED4" fill-opacity="0.2"/>
<path d="M413.644 391.48H396.336V484.182H413.644V391.48Z" fill="#00BED4" fill-opacity="0.2"/>
<path d="M406.256 350.678H403.699V391.481H406.256V350.678Z" fill="#00BED4" fill-opacity="0.2"/>
<path d="M406.256 484.184H403.699V524.987H406.256V484.184Z" fill="#00BED4" fill-opacity="0.2"/>
<path d="M459.308 340.094H442V365.839H459.308V340.094Z" fill="#00BED4" fill-opacity="0.2"/>
<path d="M451.92 299.291H449.363V340.094H451.92V299.291Z" fill="#00BED4" fill-opacity="0.2"/>
<path d="M451.92 365.84H449.363V406.643H451.92V365.84Z" fill="#00BED4" fill-opacity="0.2"/>
<path d="M504.941 471.375H487.633V530.867H504.941V471.375Z" fill="#00BED4" fill-opacity="0.2"/>
<path d="M497.576 430.572H495.02V471.375H497.576V430.572Z" fill="#00BED4" fill-opacity="0.2"/>
<path d="M497.576 530.867H495.02V571.67H497.576V530.867Z" fill="#00BED4" fill-opacity="0.2"/>
<path d="M550.605 449.566H533.297V473.547H550.605V449.566Z" fill="#00BED4" fill-opacity="0.2"/>
<path d="M543.217 408.764H540.66V449.567H543.217V408.764Z" fill="#00BED4" fill-opacity="0.2"/>
<path d="M543.217 473.547H540.66V514.35H543.217V473.547Z" fill="#00BED4" fill-opacity="0.2"/>
<path d="M596.261 626.738H578.953V715.554H596.261V626.738Z" fill="#00BED4" fill-opacity="0.2"/>
<path d="M588.873 585.961H586.316V626.764H588.873V585.961Z" fill="#00BED4" fill-opacity="0.2"/>
<path d="M588.873 715.555H586.316V756.358H588.873V715.555Z" fill="#00BED4" fill-opacity="0.2"/>
<path d="M641.925 616.309H624.617V636.071H641.925V616.309Z" fill="#00BED4" fill-opacity="0.2"/>
<path d="M634.537 575.506H631.98V616.309H634.537V575.506Z" fill="#00BED4" fill-opacity="0.2"/>
<path d="M634.537 636.072H631.98V676.876H634.537V636.072Z" fill="#00BED4" fill-opacity="0.2"/>
<path d="M687.558 567.912H670.25V598.566H687.558V567.912Z" fill="#00BED4" fill-opacity="0.2"/>
<path d="M680.193 527.109H677.637V567.913H680.193V527.109Z" fill="#00BED4" fill-opacity="0.2"/>
<path d="M680.193 598.566H677.637V639.37H680.193V598.566Z" fill="#00BED4" fill-opacity="0.2"/>
<path d="M733.222 608.613H715.914V639.343H733.222V608.613Z" fill="#00BED4" fill-opacity="0.2"/>
<path d="M725.834 567.836H723.277V608.639H725.834V567.836Z" fill="#00BED4" fill-opacity="0.2"/>
<path d="M725.834 639.344H723.277V680.147H725.834V639.344Z" fill="#00BED4" fill-opacity="0.2"/>
<path d="M778.628 615.285H761.32V704.101H778.628V615.285Z" fill="#00BED4" fill-opacity="0.2"/>
<path d="M771.24 574.482H768.684V615.286H771.24V574.482Z" fill="#00BED4" fill-opacity="0.2"/>
<path d="M771.24 704.102H768.684V744.905H771.24V704.102Z" fill="#00BED4" fill-opacity="0.2"/>
<path d="M824.519 696.918H807.211V736.008H824.519V696.918Z" fill="#00BED4" fill-opacity="0.2"/>
<path d="M817.154 656.115H814.598V696.918H817.154V656.115Z" fill="#00BED4" fill-opacity="0.2"/>
<path d="M817.154 736.008H814.598V776.811H817.154V736.008Z" fill="#00BED4" fill-opacity="0.2"/>
<path d="M870.175 745.236H852.867V778.753H870.175V745.236Z" fill="#00BED4" fill-opacity="0.2"/>
<path d="M862.787 704.434H860.23V745.237H862.787V704.434Z" fill="#00BED4" fill-opacity="0.2"/>
<path d="M862.787 778.754H860.23V819.557H862.787V778.754Z" fill="#00BED4" fill-opacity="0.2"/>
<path d="M915.839 692.623H898.531V840.496H915.839V692.623Z" fill="#00BED4" fill-opacity="0.2"/>
<path d="M908.451 651.846H905.895V692.649H908.451V651.846Z" fill="#00BED4" fill-opacity="0.2"/>
<path d="M908.451 840.521H905.895V881.325H908.451V840.521Z" fill="#00BED4" fill-opacity="0.2"/>
<path d="M962.417 801.941H945.109V861.433H962.417V801.941Z" fill="#00BED4" fill-opacity="0.2"/>
<path d="M955.029 761.139H952.473V801.942H955.029V761.139Z" fill="#00BED4" fill-opacity="0.2"/>
<path d="M955.029 861.408H952.473V902.211H955.029V861.408Z" fill="#00BED4" fill-opacity="0.2"/>
<path d="M1007.14 720.182H989.828V808.103H1007.14V720.182Z" fill="#00BED4" fill-opacity="0.2"/>
<path d="M999.771 679.379H997.215V720.182H999.771V679.379Z" fill="#00BED4" fill-opacity="0.2"/>
<path d="M999.771 808.104H997.215V848.907H999.771V808.104Z" fill="#00BED4" fill-opacity="0.2"/>
<path d="M1052.79 688.25H1035.48V800.893H1052.79V688.25Z" fill="#00BED4" fill-opacity="0.2"/>
<path d="M1045.4 647.473H1042.85V688.276H1045.4V647.473Z" fill="#00BED4" fill-opacity="0.2"/>
<path d="M1045.4 800.895H1042.85V841.698H1045.4V800.895Z" fill="#00BED4" fill-opacity="0.2"/>
<path d="M1098.69 671.531H1081.38V703.259H1098.69V671.531Z" fill="#00BED4" fill-opacity="0.2"/>
<path d="M1091.3 630.754H1088.74V671.557H1091.3V630.754Z" fill="#00BED4" fill-opacity="0.2"/>
<path d="M1091.3 703.258H1088.74V744.061H1091.3V703.258Z" fill="#00BED4" fill-opacity="0.2"/>
<path d="M1144.09 663.043H1126.78V760.833H1144.09V663.043Z" fill="#00BED4" fill-opacity="0.2"/>
<path d="M1136.72 622.266H1134.17V663.069H1136.72V622.266Z" fill="#00BED4" fill-opacity="0.2"/>
<path d="M1136.72 760.859H1134.17V801.663H1136.72V760.859Z" fill="#00BED4" fill-opacity="0.2"/>
<path d="M1189.75 587.24H1172.45V682.448H1189.75V587.24Z" fill="#00BED4" fill-opacity="0.2"/>
<path d="M1182.37 546.463H1179.81V587.266H1182.37V546.463Z" fill="#00BED4" fill-opacity="0.2"/>
<path d="M1182.37 682.447H1179.81V723.25H1182.37V682.447Z" fill="#00BED4" fill-opacity="0.2"/>
<path d="M1235.41 653.941H1218.11V687.126H1235.41V653.941Z" fill="#00BED4" fill-opacity="0.2"/>
<path d="M1228.03 613.164H1225.47V653.967H1228.03V613.164Z" fill="#00BED4" fill-opacity="0.2"/>
<path d="M1228.03 687.127H1225.47V727.93H1228.03V687.127Z" fill="#00BED4" fill-opacity="0.2"/>
<path d="M1281.07 685.643H1263.77V713.944H1281.07V685.643Z" fill="#00BED4" fill-opacity="0.2"/>
<path d="M1273.69 644.84H1271.13V685.643H1273.69V644.84Z" fill="#00BED4" fill-opacity="0.2"/>
<path d="M1273.69 713.945H1271.13V754.748H1273.69V713.945Z" fill="#00BED4" fill-opacity="0.2"/>
<path d="M1326.71 579.264H1309.4V721.18H1326.71V579.264Z" fill="#00BED4" fill-opacity="0.2"/>
<path d="M1319.35 538.461H1316.79V579.264H1319.35V538.461Z" fill="#00BED4" fill-opacity="0.2"/>
<path d="M1319.35 721.18H1316.79V761.983H1319.35V721.18Z" fill="#00BED4" fill-opacity="0.2"/>
<path d="M1373.72 650.566H1356.41V675.519H1373.72V650.566Z" fill="#00BED4" fill-opacity="0.2"/>
<path d="M1366.33 609.764H1363.78V650.567H1366.33V609.764Z" fill="#00BED4" fill-opacity="0.2"/>
<path d="M1366.33 675.52H1363.78V716.323H1366.33V675.52Z" fill="#00BED4" fill-opacity="0.2"/>
<path d="M1418.16 614.441H1400.85V639.419H1418.16V614.441Z" fill="#00BED4" fill-opacity="0.2"/>
<path d="M1410.77 573.639H1408.21V614.442H1410.77V573.639Z" fill="#00BED4" fill-opacity="0.2"/>
<path d="M1410.77 639.395H1408.21V680.198H1410.77V639.395Z" fill="#00BED4" fill-opacity="0.2"/>
<path d="M1463.66 519.285H1446.36V671.147H1463.66V519.285Z" fill="#00BED4" fill-opacity="0.2"/>
<path d="M1456.3 478.482H1453.74V519.286H1456.3V478.482Z" fill="#00BED4" fill-opacity="0.2"/>
<path d="M1456.3 671.146H1453.74V711.95H1456.3V671.146Z" fill="#00BED4" fill-opacity="0.2"/>
<path d="M1509.32 589.156H1492.02V629.397H1509.32V589.156Z" fill="#00BED4" fill-opacity="0.2"/>
<path d="M1501.94 548.354H1499.38V589.157H1501.94V548.354Z" fill="#00BED4" fill-opacity="0.2"/>
<path d="M1501.94 629.398H1499.38V670.202H1501.94V629.398Z" fill="#00BED4" fill-opacity="0.2"/>
<path d="M1554.98 639.777H1537.68V685.438H1554.98V639.777Z" fill="#00BED4" fill-opacity="0.2"/>
<path d="M1547.6 598.975H1545.04V639.778H1547.6V598.975Z" fill="#00BED4" fill-opacity="0.2"/>
<path d="M1547.6 685.438H1545.04V726.241H1547.6V685.438Z" fill="#00BED4" fill-opacity="0.2"/>
<path d="M1600.72 623.979H1583.41V756.614H1600.72V623.979Z" fill="#00BED4" fill-opacity="0.2"/>
<path d="M1593.33 583.176H1590.78V623.979H1593.33V583.176Z" fill="#00BED4" fill-opacity="0.2"/>
<path d="M1593.33 756.615H1590.78V797.418H1593.33V756.615Z" fill="#00BED4" fill-opacity="0.2"/>
<path d="M1646.28 534.217H1628.97V566.839H1646.28V534.217Z" fill="#00BED4" fill-opacity="0.2"/>
<path d="M1638.92 493.414H1636.36V534.217H1638.92V493.414Z" fill="#00BED4" fill-opacity="0.2"/>
<path d="M1638.92 566.84H1636.36V607.643H1638.92V566.84Z" fill="#00BED4" fill-opacity="0.2"/>
<path d="M1691.94 502.053H1674.63V567.629H1691.94V502.053Z" fill="#00BED4" fill-opacity="0.2"/>
<path d="M1684.55 461.25H1682V502.053H1684.55V461.25Z" fill="#00BED4" fill-opacity="0.2"/>
<path d="M1684.55 567.629H1682V608.432H1684.55V567.629Z" fill="#00BED4" fill-opacity="0.2"/>
<path d="M1737.61 465.93H1720.3V496.711H1737.61V465.93Z" fill="#00BED4" fill-opacity="0.2"/>
<path d="M1730.22 425.127H1727.66V465.93H1730.22V425.127Z" fill="#00BED4" fill-opacity="0.2"/>
<path d="M1730.22 496.711H1727.66V537.514H1730.22V496.711Z" fill="#00BED4" fill-opacity="0.2"/>
<path d="M1783.24 477H1765.93V511.207H1783.24V477Z" fill="#00BED4" fill-opacity="0.2"/>
<path d="M1775.87 436.197H1773.32V477H1775.87V436.197Z" fill="#00BED4" fill-opacity="0.2"/>
<path d="M1775.87 511.207H1773.32V552.01H1775.87V511.207Z" fill="#00BED4" fill-opacity="0.2"/>
<path d="M1828.9 354.334H1811.59V477.766H1828.9V354.334Z" fill="#00BED4" fill-opacity="0.2"/>
<path d="M1821.51 313.557H1818.96V354.36H1821.51V313.557Z" fill="#00BED4" fill-opacity="0.2"/>
<path d="M1821.51 477.766H1818.96V518.569H1821.51V477.766Z" fill="#00BED4" fill-opacity="0.2"/>
<path d="M1874.56 418.299H1857.25V536.72H1874.56V418.299Z" fill="#00BED4" fill-opacity="0.2"/>
<path d="M1867.17 377.496H1864.61V418.299H1867.17V377.496Z" fill="#00BED4" fill-opacity="0.2"/>
<path d="M1867.17 536.721H1864.61V577.524H1867.17V536.721Z" fill="#00BED4" fill-opacity="0.2"/>
<path d="M1917 704H1914.3V701.443H1917V704ZM1906.49 703.923C1903.9 703.898 1901.3 703.821 1898.68 703.77L1898.76 701.213C1901.36 701.29 1903.95 701.341 1906.55 701.366L1906.49 703.923ZM1890.88 703.54C1888.28 703.437 1885.69 703.335 1883.09 703.207L1883.22 700.65C1885.82 700.778 1888.41 700.88 1890.98 700.957L1890.88 703.514V703.54ZM1875.31 702.824C1872.72 702.67 1870.12 702.517 1867.53 702.338L1867.71 699.781C1870.3 699.96 1872.87 700.113 1875.47 700.267L1875.31 702.824ZM1859.74 701.801C1857.15 701.596 1854.58 701.392 1851.99 701.162L1852.22 698.605C1854.82 698.835 1857.38 699.039 1859.98 699.244L1859.77 701.801H1859.74ZM1844.21 700.471C1841.64 700.216 1839.04 699.96 1836.45 699.679L1836.73 697.147C1839.33 697.428 1841.9 697.684 1844.46 697.914L1844.21 700.471ZM1828.72 698.835C1826.15 698.528 1823.56 698.221 1820.99 697.914L1821.3 695.383C1823.87 695.689 1826.43 696.022 1829 696.303L1828.69 698.835H1828.72ZM1813.26 696.917C1810.69 696.584 1808.12 696.226 1805.53 695.868L1805.89 693.337C1808.46 693.695 1811.02 694.053 1813.59 694.385L1813.26 696.917ZM1797.82 694.743C1795.25 694.36 1792.68 693.951 1790.12 693.542L1790.53 691.01C1793.1 691.419 1795.67 691.803 1798.21 692.186L1797.82 694.718V694.743ZM1782.44 692.289C1779.87 691.854 1777.33 691.419 1774.76 690.985L1775.22 688.479C1777.77 688.939 1780.33 689.374 1782.88 689.783L1782.44 692.314V692.289ZM1767.1 689.604C1764.56 689.143 1761.99 688.658 1759.45 688.172L1759.94 685.666C1762.49 686.152 1765.03 686.637 1767.57 687.098L1767.1 689.604ZM1751.8 686.663C1749.26 686.152 1746.71 685.64 1744.17 685.103L1744.72 682.597C1747.26 683.134 1749.8 683.646 1752.32 684.157L1751.8 686.663ZM1736.54 683.492C1734 682.955 1731.49 682.393 1728.94 681.83L1729.51 679.35C1732.06 679.912 1734.57 680.475 1737.09 681.012L1736.54 683.518V683.492ZM1721.34 680.091C1718.83 679.503 1716.28 678.915 1713.77 678.327L1714.36 675.847C1716.88 676.46 1719.4 677.048 1721.94 677.611L1721.34 680.091ZM1706.19 676.486C1703.67 675.872 1701.16 675.233 1698.64 674.594L1699.29 672.113C1701.81 672.753 1704.32 673.366 1706.81 673.98L1706.19 676.46V676.486ZM1691.09 672.676C1688.58 672.037 1686.09 671.372 1683.57 670.681L1684.24 668.226C1686.76 668.891 1689.25 669.556 1691.74 670.195L1691.07 672.676H1691.09ZM1676.05 668.661C1673.56 667.971 1671.04 667.28 1668.55 666.59L1669.25 664.135C1671.74 664.826 1674.23 665.516 1676.72 666.206L1676.02 668.661H1676.05ZM1661.05 664.468C1658.56 663.752 1656.07 663.036 1653.58 662.294L1654.33 659.839C1656.82 660.581 1659.31 661.297 1661.78 662.013L1661.05 664.468ZM1646.11 660.069C1643.64 659.328 1641.15 658.586 1638.66 657.819L1639.44 655.364C1641.93 656.131 1644.4 656.873 1646.86 657.615L1646.11 660.069ZM1631.24 655.518C1628.78 654.751 1626.29 653.958 1623.82 653.165L1624.63 650.736C1627.09 651.529 1629.56 652.296 1632.02 653.089L1631.24 655.518ZM1616.43 650.787C1613.97 649.995 1611.5 649.176 1609.04 648.358L1609.87 645.929C1612.33 646.747 1614.8 647.54 1617.23 648.358L1616.43 650.787ZM1601.67 645.903C1599.2 645.085 1596.77 644.241 1594.3 643.397L1595.16 640.968C1597.62 641.812 1600.06 642.656 1602.5 643.474L1601.67 645.903ZM1586.96 640.866C1584.52 639.996 1582.08 639.152 1579.62 638.283L1580.5 635.879C1582.94 636.749 1585.38 637.593 1587.82 638.462L1586.96 640.866ZM1572.3 635.675C1569.86 634.805 1567.42 633.91 1564.99 633.015L1565.89 630.612C1568.33 631.507 1570.77 632.376 1573.18 633.271L1572.3 635.675ZM1557.7 630.331C1555.26 629.436 1552.84 628.515 1550.41 627.62L1551.34 625.242C1553.75 626.162 1556.19 627.057 1558.6 627.952L1557.7 630.356V630.331ZM1543.14 624.858C1540.73 623.938 1538.32 623.017 1535.88 622.071L1536.84 619.693C1539.25 620.639 1541.66 621.56 1544.08 622.48L1543.14 624.858ZM1528.64 619.258C1526.23 618.312 1523.82 617.366 1521.4 616.394L1522.39 614.016C1524.8 614.988 1527.21 615.934 1529.6 616.88L1528.64 619.258ZM1514.19 613.505C1511.8 612.533 1509.39 611.562 1506.98 610.59L1507.96 608.237C1510.35 609.209 1512.76 610.181 1515.15 611.152L1514.16 613.531L1514.19 613.505ZM1499.79 607.649C1497.41 606.652 1495.02 605.68 1492.61 604.683L1493.62 602.33C1496 603.328 1498.39 604.325 1500.78 605.297L1499.77 607.649H1499.79ZM1485.45 601.666C1483.06 600.668 1480.67 599.646 1478.29 598.623L1479.32 596.27C1481.71 597.293 1484.1 598.29 1486.46 599.313L1485.45 601.666ZM1471.15 595.58C1468.77 594.557 1466.4 593.534 1464.02 592.486L1465.06 590.159C1467.44 591.207 1469.8 592.23 1472.16 593.253L1471.13 595.605L1471.15 595.58ZM1456.91 589.366L1449.8 586.221L1450.86 583.894L1457.97 587.039L1456.91 589.366ZM1442.72 583.05C1440.36 582.002 1438 580.928 1435.64 579.854L1436.73 577.527C1439.09 578.601 1441.45 579.649 1443.81 580.723L1442.74 583.05H1442.72ZM1428.58 576.632L1421.52 573.384L1422.61 571.057L1429.67 574.305L1428.58 576.632ZM1414.49 570.111C1412.16 569.012 1409.8 567.912 1407.46 566.813L1408.58 564.511C1410.91 565.611 1413.27 566.71 1415.61 567.81L1414.49 570.111ZM1400.43 563.488C1398.1 562.389 1395.76 561.264 1393.43 560.139L1394.57 557.837C1396.9 558.962 1399.24 560.062 1401.57 561.187L1400.46 563.488H1400.43ZM1386.42 556.789C1384.09 555.664 1381.78 554.539 1379.45 553.414L1380.59 551.112C1382.92 552.237 1385.23 553.362 1387.57 554.487L1386.42 556.789ZM1372.47 549.987L1365.49 546.561L1366.66 544.285L1373.61 547.711L1372.44 549.987H1372.47ZM1358.54 543.108L1351.58 539.631L1352.75 537.355L1359.68 540.833L1358.51 543.108H1358.54ZM1344.66 536.153L1337.73 532.65L1338.92 530.374L1345.85 533.877L1344.66 536.153ZM1330.83 529.121C1328.52 527.945 1326.24 526.769 1323.93 525.567L1325.12 523.291C1327.43 524.467 1329.71 525.669 1332.02 526.845L1330.83 529.121ZM1317.03 522.013C1314.74 520.836 1312.44 519.634 1310.15 518.433L1311.37 516.182C1313.65 517.384 1315.96 518.586 1318.25 519.762L1317.05 522.013H1317.03ZM1303.28 514.827L1296.4 511.196L1297.62 508.946L1304.47 512.551L1303.25 514.802L1303.28 514.827ZM1289.55 507.565L1282.71 503.908L1283.95 501.658L1290.8 505.315L1289.55 507.565ZM1275.88 500.226L1269.06 496.518L1270.3 494.268L1277.13 497.95L1275.88 500.201V500.226ZM1262.24 492.811L1255.44 489.077L1256.71 486.853L1263.51 490.586L1262.26 492.836L1262.24 492.811ZM1248.64 485.344L1241.85 481.585L1243.12 479.36L1249.89 483.119L1248.62 485.344H1248.64ZM1235.08 477.801L1228.3 474.016L1229.58 471.791L1236.35 475.576L1235.08 477.801ZM1221.53 470.206L1214.79 466.396L1216.09 464.171L1222.83 467.981L1221.53 470.206ZM1208.04 462.56L1201.3 458.725L1202.59 456.526L1209.31 460.361L1208.02 462.586L1208.04 462.56ZM1194.58 454.838L1187.86 450.951L1189.18 448.752L1195.9 452.613L1194.6 454.812L1194.58 454.838ZM1181.14 447.065L1174.45 443.152L1175.77 440.953L1182.46 444.84L1181.14 447.039V447.065ZM1167.75 439.24L1161.06 435.302L1162.38 433.103L1169.08 437.041L1167.75 439.24ZM1154.39 431.364L1147.73 427.401L1149.08 425.201L1155.74 429.139L1154.42 431.338L1154.39 431.364ZM1141.06 423.437L1134.39 419.448L1135.74 417.275L1142.38 421.238L1141.03 423.437H1141.06ZM1127.75 415.459L1121.11 411.47L1122.46 409.296L1129.1 413.285L1127.75 415.459ZM1114.47 407.455L1107.85 403.441L1109.23 401.267L1115.84 405.282L1114.49 407.455H1114.47ZM1101.21 399.401L1094.6 395.36L1095.97 393.187L1102.59 397.227L1101.21 399.401ZM1087.98 391.295L1081.39 387.229L1082.77 385.055L1089.36 389.121L1087.98 391.295ZM1074.8 383.137L1068.21 379.046L1069.59 376.873L1076.18 380.964L1074.8 383.137ZM1061.62 374.955L1055.03 370.838L1056.43 368.69L1063 372.807L1061.6 374.955H1061.62ZM1048.47 366.721L1041.91 362.579L1043.31 360.431L1049.87 364.547L1048.47 366.695V366.721ZM1035.37 358.462L1028.81 354.319L1030.21 352.171L1036.74 356.314L1035.34 358.462H1035.37ZM1022.27 350.151L1015.73 345.983L1017.13 343.835L1023.67 348.003L1022.27 350.151ZM1009.19 341.815L1002.68 337.621L1004.08 335.473L1010.59 339.667L1009.19 341.815ZM996.144 333.428L989.633 329.234L991.06 327.086L997.571 331.28L996.144 333.428ZM983.121 325.015L976.61 320.796L978.037 318.673L984.522 322.893L983.095 325.041L983.121 325.015ZM970.124 316.577L963.639 312.383L965.065 310.235L971.551 314.454L970.124 316.577ZM957.127 308.164L950.615 303.97L952.042 301.822L958.554 306.016L957.127 308.164ZM944.104 299.777L937.592 295.609L938.993 293.461L945.531 297.654L944.104 299.802V299.777ZM931.055 291.441L924.517 287.272L925.918 285.125L932.456 289.293L931.055 291.441ZM917.98 283.13L911.442 278.988L912.843 276.84L919.406 280.982L918.006 283.13H917.98ZM904.879 274.871L898.315 270.754L899.716 268.606L906.28 272.723L904.879 274.871ZM891.752 266.662L885.162 262.571L886.537 260.398L893.127 264.489L891.752 266.662ZM878.573 258.505L871.984 254.44L873.359 252.266L879.974 256.332L878.599 258.505H878.573ZM865.368 250.399L858.753 246.359L860.102 244.186L866.717 248.226L865.342 250.399H865.368ZM852.138 242.345L845.496 238.356L846.845 236.182L853.487 240.197L852.138 242.37V242.345ZM838.855 234.366L832.188 230.403L833.537 228.204L840.204 232.167L838.855 234.366ZM825.521 226.465L818.853 222.527L820.176 220.328L826.87 224.266L825.546 226.465H825.521ZM812.16 218.64L805.467 214.754L806.79 212.555L813.509 216.441L812.186 218.64H812.16ZM798.748 210.892C796.491 209.614 794.26 208.335 792.029 207.057L793.326 204.832C795.557 206.111 797.814 207.389 800.071 208.668L798.774 210.867L798.748 210.892ZM785.284 203.221C783.027 201.943 780.77 200.69 778.539 199.437L779.81 197.212C782.067 198.465 784.324 199.744 786.581 201.022L785.284 203.247V203.221ZM771.768 195.652C769.511 194.399 767.254 193.146 764.971 191.893L766.242 189.669C768.499 190.922 770.756 192.175 773.039 193.428L771.768 195.652ZM758.174 188.186C755.891 186.958 753.634 185.705 751.351 184.478L752.596 182.228C754.879 183.455 757.136 184.682 759.419 185.935L758.174 188.186ZM744.528 180.821C742.245 179.594 739.962 178.392 737.679 177.19L738.898 174.94C741.181 176.142 743.464 177.369 745.747 178.597L744.502 180.847L744.528 180.821ZM730.83 173.559C728.547 172.357 726.239 171.155 723.956 169.979L725.149 167.729C727.432 168.905 729.741 170.107 732.024 171.309L730.804 173.559H730.83ZM717.055 166.425C714.746 165.249 712.437 164.072 710.154 162.896L711.348 160.62C713.656 161.797 715.965 162.973 718.274 164.149L717.081 166.425H717.055ZM703.228 159.418C700.919 158.268 698.584 157.117 696.275 155.966L697.442 153.691C699.751 154.841 702.086 155.992 704.395 157.143L703.228 159.418ZM689.322 152.54C686.987 151.415 684.679 150.264 682.344 149.165L683.485 146.863C685.82 147.988 688.155 149.113 690.464 150.264L689.322 152.565V152.54ZM675.365 145.815C673.03 144.715 670.696 143.59 668.361 142.516L669.476 140.215C671.811 141.314 674.146 142.414 676.507 143.539L675.391 145.84L675.365 145.815ZM661.33 139.243C658.97 138.169 656.635 137.07 654.274 136.021L655.364 133.694C657.724 134.768 660.059 135.842 662.42 136.942L661.33 139.269V139.243ZM647.218 132.825C644.857 131.776 642.496 130.728 640.135 129.68L641.199 127.353C643.56 128.401 645.92 129.449 648.307 130.498L647.244 132.825H647.218ZM633.027 126.56C630.64 125.537 628.28 124.514 625.893 123.491L626.931 121.139C629.317 122.162 631.678 123.185 634.065 124.207L633.027 126.56ZM618.759 120.474C616.372 119.477 613.985 118.48 611.599 117.508L612.584 115.155C614.971 116.127 617.358 117.124 619.77 118.147L618.759 120.5V120.474ZM604.412 114.567C602 113.596 599.613 112.649 597.2 111.678L598.16 109.3C600.573 110.246 602.96 111.217 605.372 112.189L604.387 114.567H604.412ZM589.988 108.865C587.576 107.919 585.163 106.998 582.75 106.078L583.684 103.7C586.097 104.62 588.536 105.541 590.948 106.487L589.988 108.865ZM575.487 103.342C573.074 102.447 570.635 101.552 568.197 100.657L569.105 98.253C571.543 99.148 573.982 100.043 576.395 100.938L575.487 103.342ZM560.907 98.0485C558.468 97.1791 556.03 96.3352 553.591 95.4658L554.447 93.0622C556.886 93.906 559.35 94.7754 561.789 95.6448L560.907 98.0485ZM546.249 92.9599C543.785 92.1161 541.346 91.2978 538.882 90.5051L539.712 88.0759C542.176 88.8941 544.641 89.7124 547.08 90.5562L546.223 92.9855L546.249 92.9599ZM531.514 88.0759C529.049 87.2832 526.611 86.516 524.146 85.7233L524.925 83.2941C527.389 84.0613 529.854 84.8539 532.318 85.6466L531.514 88.0759ZM516.753 83.4475C514.288 82.706 511.824 81.9644 509.333 81.2229L510.085 78.7681C512.576 79.5096 515.04 80.2512 517.505 80.9927L516.727 83.4475H516.753ZM501.914 79.0494C499.423 78.3334 496.959 77.643 494.468 76.927L495.169 74.4722C497.659 75.1626 500.149 75.8786 502.64 76.5946L501.914 79.0494ZM-28.4033 77.6174L-29 75.137C-26.4576 74.5489 -23.9412 73.9863 -21.3988 73.4238L-20.8281 75.9297C-23.3445 76.4923 -25.8869 77.0548 -28.4033 77.643V77.6174ZM486.893 74.8557C484.402 74.1909 481.912 73.5261 479.395 72.8612L480.07 70.3809C482.586 71.0457 485.077 71.7105 487.593 72.3754L486.919 74.8302L486.893 74.8557ZM-13.227 74.2421L-13.7977 71.7361C-11.2553 71.1736 -8.71295 70.6366 -6.19653 70.0996L-5.65174 72.6055C-8.16816 73.1425 -10.7105 73.6795 -13.2529 74.2421H-13.227ZM1.97536 70.9946L1.43057 68.4886C3.97294 67.9516 6.5153 67.4402 9.05767 66.9288L9.57652 69.4347C7.03415 69.9462 4.51773 70.4576 1.97536 70.9946ZM471.898 70.9434C469.382 70.3041 466.891 69.6905 464.375 69.0768L464.997 66.5964C467.514 67.2101 470.03 67.8238 472.547 68.463L471.898 70.9434ZM17.2036 67.9005L16.6848 65.3946C19.2271 64.8831 21.7955 64.3973 24.3378 63.9114L24.8307 66.4174C22.2884 66.9032 19.746 67.3891 17.2036 67.9005ZM456.825 67.2612C454.309 66.6731 451.793 66.085 449.25 65.5224L449.821 63.042C452.363 63.6046 454.88 64.1927 457.422 64.7809L456.825 67.2612ZM32.4578 64.9598L31.9649 62.4539C34.5332 61.9681 37.0756 61.5078 39.618 61.0475L40.0849 63.5535C37.5426 64.0137 35.0002 64.474 32.4319 64.9598H32.4578ZM441.649 63.8603C439.107 63.3233 436.59 62.7863 434.048 62.2493L434.593 59.7434C437.135 60.2804 439.677 60.8174 442.22 61.3544L441.675 63.8603H441.649ZM47.738 62.1982L47.271 59.6923C49.8393 59.232 52.3817 58.7973 54.95 58.3626L55.391 60.8941C52.8486 61.3288 50.2803 61.7635 47.738 62.2238V62.1982ZM426.421 60.7151C423.878 60.2037 421.336 59.7178 418.794 59.232L419.287 56.726C421.855 57.2119 424.397 57.6977 426.94 58.2092L426.421 60.7151ZM63.044 59.59L62.629 57.0585C65.1973 56.6238 67.7656 56.2146 70.3079 55.8055L70.723 58.337C68.1807 58.7461 65.6124 59.1553 63.044 59.5644V59.59ZM411.115 57.8256C408.572 57.3653 406.004 56.905 403.436 56.4703L403.877 53.9388C406.445 54.3735 409.013 54.8338 411.556 55.2941L411.089 57.8L411.115 57.8256ZM78.402 57.1608L78.0129 54.6292C80.5812 54.2457 83.1495 53.8621 85.7178 53.4786L86.1069 56.0101C83.5646 56.3936 80.9963 56.7772 78.428 57.1608H78.402ZM395.783 55.1918C393.214 54.7827 390.646 54.3735 388.078 53.99L388.467 51.4585C391.035 51.842 393.63 52.2512 396.198 52.6859L395.783 55.2174V55.1918ZM93.7859 54.885L93.4227 52.3534C95.991 51.9954 98.5594 51.6375 101.128 51.2795L101.491 53.811C98.9225 54.1434 96.3542 54.5014 93.7859 54.8594V54.885ZM380.373 52.8137C377.805 52.4557 375.262 52.0977 372.694 51.7397L373.057 49.2082C375.625 49.5662 378.194 49.9242 380.762 50.2822L380.399 52.8137H380.373ZM109.196 52.8137L108.859 50.2822C111.453 49.9498 114.021 49.6174 116.589 49.3105L116.901 51.842C114.332 52.1489 111.764 52.4813 109.196 52.8137ZM124.632 50.9215L124.32 48.39C126.915 48.0831 129.483 47.8018 132.051 47.5206L132.337 50.0521C129.768 50.3333 127.2 50.6146 124.606 50.9215H124.632ZM364.989 50.7425C362.421 50.4101 359.852 50.1032 357.284 49.7964L357.595 47.2649C360.19 47.5717 362.758 47.8785 365.326 48.211L364.989 50.7425ZM140.093 49.2594L139.834 46.7279C142.428 46.4721 145.022 46.2164 147.591 45.9607L147.85 48.5178C145.282 48.7735 142.688 49.0292 140.119 49.2849L140.093 49.2594ZM349.553 48.9269C346.985 48.6457 344.417 48.3644 341.822 48.1087L342.082 45.5516C344.676 45.8073 347.244 46.0886 349.839 46.3699L349.553 48.9014V48.9269ZM155.555 47.7763L155.322 45.2192C157.916 44.989 160.51 44.7589 163.078 44.5543L163.286 47.1114C160.718 47.316 158.123 47.5461 155.555 47.7763ZM334.091 47.3927C331.523 47.1626 328.929 46.9324 326.361 46.7279L326.568 44.1708C329.162 44.3753 331.757 44.6055 334.325 44.8356L334.091 47.3927ZM171.043 46.5233L170.835 43.9662C173.429 43.7616 176.024 43.5826 178.618 43.4037L178.8 45.9607C176.231 46.1397 173.637 46.3187 171.043 46.5233ZM318.604 46.1142C316.035 45.9096 313.441 45.7306 310.847 45.5772L311.029 43.0201C313.623 43.1991 316.217 43.3781 318.811 43.5571L318.604 46.1142ZM186.556 45.4749L186.401 42.9178C188.995 42.7644 191.589 42.611 194.183 42.4831L194.313 45.0402C191.745 45.168 189.151 45.3215 186.556 45.4749ZM303.09 45.0913C300.522 44.9379 297.928 44.81 295.333 44.6822L295.463 42.1251C298.057 42.253 300.652 42.3808 303.246 42.5342L303.09 45.0913ZM202.07 44.6311L201.94 42.074C204.535 41.9461 207.129 41.8438 209.723 41.7416L209.827 44.2986C207.233 44.4009 204.664 44.5032 202.07 44.6311ZM287.577 44.3242C284.982 44.2219 282.414 44.1196 279.82 44.0429L279.898 41.4858C282.492 41.5626 285.086 41.6648 287.68 41.7671L287.577 44.3242ZM217.61 44.0429L217.532 41.4858C220.126 41.4091 222.72 41.3324 225.315 41.2813L225.366 43.8384C222.772 43.8895 220.204 43.9662 217.61 44.0429ZM272.037 43.8384C269.443 43.7872 266.874 43.7361 264.28 43.6849L264.332 41.1279C266.926 41.179 269.521 41.2301 272.115 41.2813L272.063 43.8384H272.037ZM233.175 43.6849L233.123 41.1279C235.743 41.0767 238.338 41.0511 240.932 41.0256V43.5826C238.364 43.5826 235.769 43.6338 233.149 43.6849H233.175ZM256.497 43.5826C253.929 43.5826 251.335 43.5571 248.741 43.5571V41H248.948C251.335 41 253.929 41 256.497 41V43.5571V43.5826Z" fill="#CBE3FE"/>
<path d="M310.313 872.478C308.563 872.478 306.813 872.427 305.063 872.351L305.192 869.794C307.714 869.922 310.261 869.947 312.809 869.871L312.886 872.427C312.037 872.427 311.188 872.453 310.313 872.453V872.478ZM320.632 871.941L320.349 869.41C322.845 869.155 325.367 868.771 327.811 868.311L328.3 870.817C325.778 871.302 323.205 871.686 320.632 871.967V871.941ZM297.292 871.711C294.719 871.405 292.12 870.996 289.598 870.51L290.087 868.004C292.557 868.49 295.079 868.873 297.601 869.18L297.292 871.711ZM335.866 869.027L335.171 866.573C337.59 865.908 340.009 865.115 342.376 864.272L343.251 866.675C340.832 867.57 338.336 868.362 335.84 869.052L335.866 869.027ZM282.007 868.771C279.51 868.107 277.014 867.34 274.57 866.496L275.419 864.067C277.812 864.885 280.257 865.627 282.701 866.291L282.032 868.746L282.007 868.771ZM267.313 863.76C264.946 862.763 262.552 861.69 260.237 860.539L261.369 858.238C263.659 859.363 265.975 860.437 268.317 861.408L267.313 863.76ZM350.482 863.735L349.427 861.408C351.717 860.386 353.982 859.235 356.22 858.034L357.456 860.283C355.165 861.511 352.824 862.687 350.482 863.735ZM253.366 856.909C251.153 855.656 248.914 854.301 246.727 852.895L248.116 850.747C250.278 852.128 252.465 853.457 254.652 854.684L253.366 856.909ZM364.146 856.372L362.757 854.199C364.867 852.869 367.002 851.438 369.061 849.955L370.579 852.026C368.469 853.534 366.282 855.017 364.146 856.372ZM240.319 848.549C238.235 847.066 236.15 845.506 234.118 843.896L235.713 841.876C237.72 843.461 239.779 844.969 241.837 846.452L240.345 848.523L240.319 848.549ZM376.755 847.321L375.134 845.327C377.064 843.793 379.02 842.132 380.95 840.393L382.674 842.311C380.692 844.075 378.711 845.736 376.755 847.321ZM228.096 839.013C226.14 837.351 224.21 835.638 222.306 833.899L224.056 832.033C225.96 833.771 227.864 835.459 229.794 837.095L228.122 839.038L228.096 839.013ZM388.335 837.044L386.534 835.229C388.335 833.465 390.111 831.65 391.886 829.783L393.765 831.547C391.963 833.439 390.162 835.28 388.335 837.07V837.044ZM216.671 828.556C214.844 826.766 213.017 824.926 211.241 823.059L213.094 821.295C214.869 823.136 216.671 824.951 218.472 826.741L216.671 828.556ZM398.963 825.795L397.033 824.108C398.705 822.216 400.352 820.273 401.974 818.279L403.955 819.889C402.308 821.909 400.635 823.878 398.963 825.795ZM205.966 817.409C204.242 815.517 202.543 813.6 200.845 811.631L202.801 809.97C204.473 811.913 206.172 813.83 207.896 815.696L205.991 817.409H205.966ZM408.793 813.856L406.76 812.296C408.304 810.302 409.822 808.257 411.34 806.186L413.425 807.694C411.881 809.791 410.337 811.862 408.793 813.881V813.856ZM195.853 805.726C194.232 803.757 192.61 801.763 190.989 799.743L193.022 798.158C194.618 800.178 196.239 802.147 197.86 804.115L195.878 805.726H195.853ZM417.902 801.38L415.792 799.922C417.233 797.851 418.648 795.729 420.09 793.582L422.251 794.988C420.81 797.161 419.395 799.283 417.928 801.38H417.902ZM186.254 793.659C184.71 791.639 183.141 789.568 181.622 787.497L183.707 785.989C185.225 788.06 186.769 790.105 188.313 792.125L186.254 793.684V793.659ZM426.394 788.494L424.207 787.139C425.545 784.992 426.909 782.819 428.221 780.62L430.434 781.924C429.096 784.148 427.732 786.321 426.394 788.494ZM177.068 781.259C175.575 779.188 174.083 777.092 172.616 774.97L174.726 773.513C176.193 775.609 177.685 777.706 179.178 779.776L177.093 781.259H177.068ZM434.371 775.302L432.133 774.024C433.393 771.825 434.68 769.601 435.941 767.351L438.18 768.604C436.919 770.854 435.632 773.104 434.371 775.302ZM168.216 768.63C166.774 766.508 165.333 764.386 163.892 762.238L166.028 760.832C167.444 762.954 168.885 765.076 170.326 767.198L168.19 768.63H168.216ZM441.911 761.855L439.647 760.653C440.856 758.429 442.065 756.179 443.249 753.878L445.539 755.054C444.33 757.355 443.12 759.605 441.911 761.855ZM159.646 755.821C158.231 753.674 156.842 751.526 155.452 749.378L157.614 747.998C159.003 750.145 160.418 752.293 161.808 754.441L159.646 755.847V755.821ZM449.065 748.202L446.775 747.052C447.933 744.777 449.065 742.501 450.223 740.2L452.539 741.325C451.406 743.652 450.249 745.927 449.091 748.202H449.065ZM151.283 742.91C149.894 740.763 148.53 738.59 147.14 736.417L149.328 735.062C150.691 737.235 152.081 739.382 153.445 741.555L151.283 742.936V742.91ZM455.884 734.397L453.568 733.297C454.675 730.997 455.755 728.696 456.862 726.369L459.204 727.443C458.097 729.769 457.016 732.096 455.91 734.397H455.884ZM143.023 729.872L138.931 723.352L141.119 721.997L145.21 728.517L143.023 729.872ZM462.42 720.463L460.078 719.415C461.134 717.089 462.189 714.762 463.244 712.436L465.585 713.484C464.53 715.836 463.475 718.163 462.394 720.489L462.42 720.463ZM134.866 716.833L130.8 710.314L132.987 708.959L137.053 715.478L134.866 716.833ZM468.725 706.428L466.357 705.405C467.387 703.079 468.416 700.726 469.42 698.374L471.787 699.372C470.758 701.749 469.754 704.101 468.725 706.428ZM126.76 703.794L122.694 697.275L124.881 695.92L128.973 702.439L126.786 703.794H126.76ZM474.823 692.315L472.456 691.318C473.46 688.966 474.437 686.614 475.441 684.236L477.808 685.208C476.831 687.586 475.827 689.938 474.823 692.29V692.315ZM118.577 690.781C117.213 688.608 115.823 686.435 114.459 684.288L116.621 682.907C117.985 685.055 119.374 687.228 120.738 689.401L118.551 690.756L118.577 690.781ZM1113.67 682.242C1112.02 682.242 1110.38 682.242 1108.73 682.166L1108.81 679.609C1111.33 679.686 1113.93 679.711 1116.45 679.66L1116.5 682.217C1115.55 682.217 1114.6 682.242 1113.64 682.242H1113.67ZM1124.27 681.859L1124.09 679.302C1126.64 679.123 1129.19 678.868 1131.66 678.535L1131.99 681.066C1129.47 681.399 1126.87 681.654 1124.27 681.859ZM1100.98 681.757C1098.38 681.552 1095.78 681.296 1093.26 680.964L1093.6 678.433C1096.09 678.74 1098.64 679.021 1101.21 679.226L1101.01 681.782L1100.98 681.757ZM1139.63 679.839L1139.14 677.334C1141.64 676.848 1144.14 676.311 1146.58 675.697L1147.23 678.177C1144.75 678.817 1142.18 679.353 1139.66 679.839H1139.63ZM1085.57 679.788C1083.05 679.328 1080.5 678.817 1077.98 678.203L1078.57 675.723C1081.04 676.311 1083.56 676.822 1086.03 677.257L1085.57 679.762V679.788ZM480.742 678.126L478.349 677.155C479.327 674.803 480.279 672.425 481.257 670.047L483.65 670.993C482.698 673.371 481.72 675.749 480.742 678.126ZM110.316 677.845C108.927 675.672 107.512 673.55 106.122 671.402L108.284 669.996C109.699 672.118 111.088 674.266 112.504 676.439L110.342 677.819L110.316 677.845ZM1070.46 676.26C1067.99 675.544 1065.5 674.752 1063.08 673.908L1063.93 671.505C1066.29 672.323 1068.74 673.115 1071.18 673.831L1070.46 676.286V676.26ZM1154.66 676.081L1153.89 673.652C1156.31 672.885 1158.7 672.042 1161.07 671.147L1162 673.524C1159.6 674.445 1157.13 675.288 1154.66 676.081ZM1055.82 671.147C1053.43 670.175 1051.06 669.127 1048.72 668.028L1049.83 665.727C1052.12 666.801 1054.46 667.849 1056.8 668.795L1055.82 671.147ZM1169.15 670.559L1168.09 668.232C1170.41 667.184 1172.7 666.085 1174.94 664.934L1176.12 667.21C1173.83 668.386 1171.49 669.536 1169.15 670.584V670.559ZM101.85 665.011C100.409 662.863 98.9682 660.767 97.5272 658.671L99.663 657.239C101.104 659.335 102.545 661.457 103.986 663.605L101.85 665.011ZM1041.8 664.525C1039.56 663.324 1037.29 662.045 1035.06 660.69L1036.39 658.492C1038.58 659.796 1040.82 661.074 1043.03 662.25L1041.82 664.5L1041.8 664.525ZM486.506 663.886L484.113 662.94C485.065 660.562 485.992 658.185 486.944 655.807L489.337 656.753C488.385 659.131 487.458 661.534 486.506 663.886ZM1182.94 663.451L1181.63 661.253C1183.79 659.974 1185.98 658.619 1188.09 657.213L1189.5 659.335C1187.34 660.767 1185.13 662.148 1182.92 663.451H1182.94ZM1028.54 656.574C1026.41 655.143 1024.27 653.66 1022.19 652.126L1023.71 650.08C1025.77 651.589 1027.85 653.046 1029.99 654.452L1028.54 656.574ZM1195.89 654.912L1194.37 652.867C1196.4 651.384 1198.43 649.825 1200.41 648.214L1202.04 650.208C1200 651.844 1197.94 653.43 1195.89 654.912ZM93.1783 652.381C91.6858 650.285 90.1933 648.189 88.7008 646.143L90.7852 644.635C92.2777 646.706 93.7959 648.777 95.2884 650.899L93.1783 652.381ZM492.167 649.595L489.774 648.674C490.701 646.297 491.627 643.919 492.553 641.516L494.947 642.436C494.02 644.839 493.094 647.217 492.167 649.595ZM1016.04 647.447C1014.03 645.837 1012.05 644.2 1010.09 642.487L1011.79 640.57C1013.72 642.232 1015.68 643.868 1017.66 645.453L1016.04 647.447ZM1207.95 645.223L1206.26 643.306C1208.16 641.644 1210.04 639.905 1211.89 638.141L1213.67 639.982C1211.79 641.772 1209.88 643.51 1207.95 645.197V645.223ZM84.1203 639.982C82.5506 637.937 81.0066 635.891 79.4369 633.923L81.4698 632.338C83.0395 634.332 84.635 636.377 86.179 638.448L84.1203 639.982ZM1004.33 637.298C1002.45 635.559 1000.6 633.744 998.772 631.929L1000.6 630.113C1002.4 631.929 1004.25 633.693 1006.11 635.431L1004.33 637.298ZM497.7 635.252L495.307 634.332L498.035 627.148L500.453 628.043L497.726 635.227L497.7 635.252ZM1219.15 634.536L1217.3 632.747C1219.07 630.932 1220.8 629.091 1222.52 627.173L1224.42 628.886C1222.67 630.804 1220.92 632.696 1219.12 634.511L1219.15 634.536ZM74.5991 627.94C72.9522 625.946 71.3053 624.003 69.6327 622.111L71.5627 620.424C73.2353 622.341 74.9079 624.31 76.5806 626.304L74.5991 627.94ZM993.394 626.355C991.644 624.489 989.92 622.572 988.195 620.629L990.125 618.941C991.824 620.859 993.548 622.75 995.272 624.591L993.394 626.33V626.355ZM1229.54 623.083L1227.59 621.421C1229.24 619.504 1230.86 617.535 1232.45 615.515L1234.46 617.1C1232.84 619.12 1231.19 621.114 1229.54 623.057V623.083ZM503.155 620.859L500.737 619.964L503.413 612.805L505.832 613.7L503.13 620.859H503.155ZM64.5118 616.436C62.762 614.544 60.9864 612.703 59.1851 610.939L61.0121 609.124C62.8135 610.914 64.6148 612.78 66.3903 614.697L64.5118 616.436ZM983.178 614.774C981.531 612.805 979.909 610.811 978.314 608.792L980.347 607.206C981.942 609.226 983.538 611.195 985.159 613.138L983.178 614.774ZM1239.22 611.016L1237.16 609.482C1238.68 607.462 1240.2 605.417 1241.69 603.32L1243.8 604.803C1242.28 606.925 1240.76 608.996 1239.22 611.016ZM508.534 606.516L506.115 605.621L508.791 598.437L511.21 599.332L508.534 606.516ZM53.6525 605.647C51.7226 603.883 49.7926 602.196 47.8883 600.636L49.5353 598.667C51.4652 600.252 53.4209 601.965 55.3766 603.755L53.6268 605.647H53.6525ZM973.579 602.656C972.035 600.61 970.517 598.54 968.999 596.443L971.083 594.96C972.576 597.031 974.094 599.102 975.612 601.122L973.553 602.656H973.579ZM1248.18 598.463L1246.04 597.031C1247.45 594.935 1248.87 592.813 1250.26 590.64L1252.42 592.02C1251.01 594.193 1249.59 596.341 1248.15 598.463H1248.18ZM41.8926 595.932C39.8082 594.398 37.6981 592.941 35.6395 591.611L37.0291 589.464C39.1649 590.819 41.3007 592.301 43.4366 593.861L41.8926 595.906V595.932ZM513.86 592.097L511.441 591.228L514.118 584.018L516.537 584.887L513.86 592.097ZM964.573 590.128C963.132 588.006 961.691 585.884 960.275 583.737L962.437 582.331C963.852 584.478 965.268 586.6 966.709 588.697L964.573 590.128ZM29.0776 587.776C26.8131 586.549 24.5228 585.45 22.2583 584.453L23.2877 582.101C25.6036 583.098 27.9711 584.248 30.287 585.501L29.0518 587.751L29.0776 587.776ZM1256.56 585.527L1254.38 584.197C1255.72 582.05 1257.03 579.851 1258.34 577.652L1260.55 578.956C1259.24 581.18 1257.9 583.379 1256.56 585.552V585.527ZM15.2075 581.794C12.7886 581.001 10.344 580.337 7.9251 579.825L8.46549 577.32C10.9616 577.857 13.5091 578.547 16.0052 579.365L15.2075 581.794ZM0.514017 578.624C-1.98208 578.343 -4.50391 578.215 -7 578.215L-7 575.658C-4.40097 575.658 -1.77621 575.811 0.797079 576.067L0.514017 578.598V578.624ZM519.187 577.678L516.768 576.809L519.444 569.573L521.863 570.443L519.187 577.678ZM956.081 577.269C954.717 575.121 953.353 572.923 951.989 570.724L954.177 569.394C955.515 571.593 956.879 573.741 958.242 575.888L956.055 577.269H956.081ZM1264.44 572.258L1262.2 571.005C1263.46 568.806 1264.7 566.557 1265.93 564.307L1268.2 565.534C1266.96 567.809 1265.7 570.059 1264.44 572.258ZM948.026 564.128C946.714 561.929 945.427 559.705 944.141 557.481L946.379 556.202C947.666 558.427 948.953 560.625 950.239 562.824L948.026 564.128ZM524.514 563.207L522.095 562.338L524.745 555.129L527.164 555.998L524.514 563.207ZM1271.82 558.733L1269.53 557.557C1270.72 555.308 1271.9 553.032 1273.06 550.757L1275.35 551.907C1274.17 554.208 1273.01 556.484 1271.82 558.759V558.733ZM940.332 550.782C939.071 548.558 937.836 546.308 936.601 544.033L938.865 542.806C940.101 545.056 941.336 547.305 942.571 549.53L940.332 550.782ZM529.84 548.814L527.422 547.945L530.098 540.735L532.517 541.63L529.84 548.839V548.814ZM1278.82 545.005L1276.51 543.88C1277.64 541.604 1278.75 539.303 1279.85 536.977L1282.17 538.076C1281.06 540.403 1279.96 542.729 1278.82 545.005ZM932.973 537.258C931.763 535.008 930.58 532.733 929.396 530.458L931.686 529.282C932.87 531.557 934.053 533.807 935.263 536.082L932.998 537.284L932.973 537.258ZM535.193 534.395L532.774 533.5L535.45 526.29L537.869 527.185L535.193 534.369V534.395ZM1285.46 531.097L1283.12 530.023C1284.18 527.722 1285.26 525.395 1286.29 523.043L1288.63 524.092C1287.57 526.444 1286.52 528.77 1285.44 531.097H1285.46ZM925.87 523.606C924.712 521.331 923.554 519.03 922.396 516.729L924.712 515.578C925.87 517.879 927.003 520.154 928.186 522.43L925.896 523.58L925.87 523.606ZM540.571 520.001L538.152 519.106L540.854 511.922L543.273 512.817L540.571 520.001ZM1291.74 517.035L1289.37 516.013C1290.38 513.686 1291.41 511.334 1292.41 508.957L1294.78 509.954C1293.77 512.331 1292.77 514.683 1291.74 517.035ZM918.974 509.851C917.842 507.55 916.709 505.25 915.603 502.949L917.919 501.824C919.051 504.125 920.158 506.426 921.29 508.727L918.974 509.851ZM546.001 505.633L543.582 504.738L546.335 497.554L548.728 498.475L545.975 505.633H546.001ZM1297.76 502.872L1295.37 501.9C1296.35 499.548 1297.3 497.171 1298.28 494.793L1300.67 495.739C1299.72 498.117 1298.74 500.494 1297.76 502.872ZM912.232 496.02C911.125 493.719 910.019 491.393 908.912 489.092L911.228 487.993C912.335 490.319 913.441 492.62 914.548 494.921L912.232 496.02ZM551.508 491.316L549.114 490.396L551.919 483.237L554.313 484.158L551.508 491.316ZM1303.53 488.632L1301.13 487.686C1302.06 485.308 1303.01 482.931 1303.91 480.553L1306.31 481.473C1305.38 483.876 1304.45 486.254 1303.5 488.632H1303.53ZM905.619 482.112L902.35 475.133L904.692 474.059L907.96 481.013L905.619 482.087V482.112ZM557.143 477.025L554.75 476.079C555.702 473.701 556.654 471.298 557.606 468.946L559.999 469.892C559.047 472.27 558.095 474.622 557.143 477.025ZM1309.09 474.264L1306.67 473.369C1307.57 470.991 1308.47 468.588 1309.37 466.185L1311.79 467.08C1310.89 469.483 1309.99 471.886 1309.09 474.289V474.264ZM899.108 468.179L895.866 461.225L898.207 460.151L901.45 467.105L899.108 468.179ZM562.882 462.785L560.488 461.813C561.466 459.435 562.444 457.058 563.422 454.706L565.789 455.677C564.812 458.029 563.834 460.407 562.882 462.785ZM1314.44 459.87L1312.02 459.001C1312.89 456.598 1313.77 454.194 1314.62 451.791L1317.04 452.66C1316.16 455.089 1315.31 457.492 1314.41 459.896L1314.44 459.87ZM892.623 454.297L889.381 447.343L891.723 446.269L894.965 453.223L892.623 454.297ZM568.774 448.621L566.407 447.624C567.411 445.246 568.414 442.894 569.418 440.542L571.785 441.539C570.782 443.891 569.778 446.243 568.774 448.596V448.621ZM1319.64 445.4L1317.22 444.556C1318.07 442.153 1318.92 439.724 1319.74 437.321L1322.18 438.165C1321.33 440.593 1320.48 442.997 1319.64 445.425V445.4ZM886.113 440.363L882.845 433.409L885.187 432.336L888.455 439.29L886.113 440.363ZM574.796 434.509L572.428 433.486C573.458 431.134 574.487 428.782 575.542 426.455L577.91 427.478C576.88 429.805 575.851 432.157 574.822 434.509H574.796ZM1324.65 430.878L1322.21 430.06C1323.03 427.631 1323.86 425.228 1324.68 422.799L1327.12 423.618C1326.3 426.046 1325.48 428.475 1324.65 430.904V430.878ZM879.525 426.481C878.419 424.154 877.312 421.854 876.206 419.553L878.522 418.453C879.628 420.754 880.735 423.081 881.841 425.382L879.525 426.481ZM581.023 420.499L578.682 419.45C579.762 417.098 580.817 414.772 581.898 412.471L584.24 413.545C583.159 415.846 582.104 418.172 581.023 420.524V420.499ZM1329.57 416.331L1327.12 415.539C1327.92 413.11 1328.75 410.681 1329.54 408.253L1331.99 409.045C1331.19 411.474 1330.37 413.903 1329.57 416.331ZM872.861 412.65C871.728 410.349 870.596 408.048 869.489 405.747L871.805 404.622C872.938 406.923 874.07 409.224 875.202 411.525L872.886 412.65H872.861ZM587.508 406.591L585.192 405.491C586.299 403.165 587.431 400.864 588.537 398.563L590.853 399.688C589.721 401.963 588.614 404.264 587.508 406.591ZM1334.38 401.733L1331.94 400.941L1334.3 393.68L1336.75 394.472L1334.38 401.759V401.733ZM866.067 398.895C864.909 396.594 863.751 394.319 862.593 392.044L864.883 390.868C866.041 393.143 867.225 395.418 868.383 397.719L866.093 398.87L866.067 398.895ZM594.276 392.836L591.986 391.686C593.144 389.385 594.327 387.084 595.485 384.834L597.775 386.01C596.592 388.26 595.434 390.535 594.276 392.836ZM1339.09 387.161L1336.65 386.394L1338.99 379.082L1341.43 379.849L1339.09 387.161ZM859.042 385.243C857.832 382.968 856.649 380.718 855.439 378.468L857.704 377.267C858.913 379.516 860.123 381.766 861.332 384.067L859.042 385.243ZM601.352 379.235L599.088 378.034C600.323 375.758 601.532 373.508 602.793 371.284L605.032 372.511C603.797 374.736 602.562 376.96 601.352 379.235ZM1916.92 378.008C1914.3 377.931 1911.72 377.778 1909.18 377.599L1909.36 375.042C1911.88 375.221 1914.43 375.375 1917 375.451L1916.92 378.008ZM1901.43 376.858C1898.86 376.551 1896.29 376.167 1893.74 375.758L1894.17 373.227C1896.67 373.636 1899.22 374.02 1901.74 374.301L1901.43 376.832V376.858ZM1886.12 374.275C1883.57 373.713 1881.05 373.099 1878.58 372.435L1879.28 369.98C1881.67 370.645 1884.16 371.259 1886.69 371.795L1886.12 374.301V374.275ZM1343.72 372.562L1341.28 371.795L1343.59 364.458L1346.04 365.225L1343.72 372.562ZM851.708 371.77C850.447 369.52 849.186 367.296 847.925 365.097L850.164 363.819C851.425 366.043 852.712 368.267 853.972 370.517L851.734 371.744L851.708 371.77ZM1871.14 370.185C1868.7 369.392 1866.25 368.497 1863.84 367.552L1864.79 365.174C1867.16 366.094 1869.57 366.964 1871.97 367.756L1871.17 370.185H1871.14ZM608.789 365.839L606.55 364.56C607.837 362.311 609.149 360.112 610.462 357.913L612.675 359.217C611.362 361.39 610.076 363.589 608.789 365.813V365.839ZM1856.71 364.535C1854.37 363.487 1852.02 362.336 1849.73 361.16L1850.92 358.885C1853.18 360.061 1855.47 361.186 1857.76 362.208L1856.71 364.535ZM844.065 358.45C842.753 356.251 841.415 354.053 840.077 351.905L842.264 350.55C843.602 352.723 844.94 354.922 846.278 357.146L844.065 358.45ZM1348.35 357.862L1345.91 357.095L1348.2 349.732L1350.64 350.499L1348.35 357.862ZM1842.97 357.402C1840.75 356.098 1838.54 354.743 1836.38 353.311L1837.79 351.189C1839.93 352.595 1842.09 353.951 1844.25 355.203L1842.94 357.402H1842.97ZM616.689 352.698L614.502 351.343C615.866 349.144 617.255 346.971 618.671 344.849L620.832 346.255C619.443 348.377 618.079 350.525 616.715 352.698H616.689ZM1830.02 348.888C1827.96 347.38 1825.91 345.795 1823.9 344.159L1825.52 342.165C1827.5 343.775 1829.53 345.335 1831.57 346.818L1830.05 348.863L1830.02 348.888ZM835.985 345.437C834.596 343.289 833.18 341.142 831.739 339.046L833.875 337.614C835.316 339.71 836.731 341.858 838.147 344.031L835.985 345.411V345.437ZM1352.93 343.162L1350.46 342.42L1352.73 335.083L1355.2 335.824L1352.93 343.162ZM625.104 339.864L622.968 338.432C624.435 336.284 625.927 334.188 627.42 332.117L629.504 333.6C628.012 335.645 626.545 337.716 625.078 339.838L625.104 339.864ZM1818.01 339.122C1816.08 337.409 1814.17 335.645 1812.32 333.856L1814.12 332.015C1815.95 333.805 1817.83 335.517 1819.73 337.205L1818.01 339.122ZM827.365 332.756C825.872 330.66 824.354 328.615 822.81 326.595L824.869 325.061C826.413 327.081 827.957 329.152 829.475 331.274L827.39 332.756H827.365ZM1357.49 328.487L1355.02 327.745L1357.28 320.408L1359.75 321.149L1357.49 328.487ZM1806.86 328.385C1805.09 326.518 1803.34 324.626 1801.64 322.683L1803.57 320.996C1805.27 322.913 1806.99 324.78 1808.74 326.621L1806.86 328.385ZM634.11 327.515L632.077 325.956C633.673 323.885 635.268 321.865 636.889 319.897L638.897 321.507C637.301 323.45 635.706 325.444 634.136 327.49L634.11 327.515ZM818.101 320.638C816.48 318.644 814.833 316.701 813.186 314.783L815.141 313.096C816.814 315.014 818.487 316.982 820.134 319.002L818.127 320.612L818.101 320.638ZM1796.62 316.829C1795 314.86 1793.38 312.84 1791.81 310.795L1793.84 309.236C1795.41 311.255 1796.98 313.25 1798.6 315.218L1796.62 316.829ZM643.786 315.704L641.856 314.017C643.58 312.048 645.304 310.156 647.054 308.29L648.932 310.028C647.208 311.869 645.484 313.735 643.786 315.678V315.704ZM1362.04 313.863L1359.57 313.122L1361.84 305.784L1364.31 306.526L1362.04 313.863ZM808.039 309.133C806.264 307.267 804.462 305.426 802.687 303.713L804.488 301.873C806.315 303.637 808.142 305.477 809.918 307.395L808.039 309.133ZM654.285 304.634L652.484 302.819C654.362 301.003 656.266 299.214 658.145 297.552L659.869 299.47C658.016 301.106 656.138 302.87 654.285 304.659V304.634ZM1787.2 304.634C1785.71 302.563 1784.22 300.467 1782.78 298.319L1784.91 296.887C1786.35 299.009 1787.82 301.08 1789.31 303.151L1787.23 304.634H1787.2ZM1366.6 299.214L1364.13 298.447L1366.42 291.109L1368.86 291.876L1366.57 299.214H1366.6ZM797.077 298.549C795.147 296.862 793.166 295.226 791.21 293.692L792.805 291.697C794.787 293.257 796.794 294.919 798.775 296.657L797.077 298.575V298.549ZM665.685 294.535L664.063 292.541C666.122 290.905 668.206 289.32 670.239 287.888L671.732 289.959C669.725 291.391 667.666 292.925 665.659 294.535H665.685ZM1778.48 291.876C1777.09 289.729 1775.73 287.556 1774.36 285.357L1776.55 284.028C1777.89 286.201 1779.25 288.374 1780.62 290.496L1778.45 291.876H1778.48ZM785.085 289.166C782.975 287.709 780.839 286.329 778.704 285.05L780.042 282.852C782.229 284.156 784.416 285.562 786.578 287.07L785.111 289.166H785.085ZM678.062 285.766L676.698 283.593C678.911 282.213 681.176 280.934 683.415 279.733L684.624 281.982C682.437 283.133 680.224 284.411 678.062 285.766ZM1371.18 284.539L1368.71 283.772L1371.02 276.435L1373.49 277.202L1371.18 284.513V284.539ZM772.065 281.369C769.8 280.218 767.484 279.145 765.168 278.199L766.172 275.847C768.539 276.818 770.907 277.917 773.223 279.093L772.065 281.369ZM1770.43 278.736C1769.14 276.537 1767.85 274.287 1766.59 272.037L1768.83 270.785C1770.09 273.009 1771.35 275.233 1772.64 277.432L1770.4 278.71L1770.43 278.736ZM691.469 278.71L690.44 276.358C692.833 275.31 695.252 274.364 697.671 273.52L698.52 275.923C696.178 276.741 693.811 277.662 691.495 278.684L691.469 278.71ZM758.092 275.591C755.698 274.824 753.254 274.134 750.809 273.546L751.401 271.066C753.897 271.654 756.419 272.37 758.889 273.162L758.092 275.591ZM705.751 273.776L705.108 271.296C707.604 270.657 710.177 270.094 712.724 269.685L713.162 272.216C710.692 272.625 708.195 273.162 705.751 273.801V273.776ZM743.372 272.088C740.902 271.705 738.354 271.424 735.858 271.219L736.064 268.663C738.638 268.867 741.237 269.148 743.784 269.557L743.398 272.088H743.372ZM720.676 271.245L720.47 268.688C723.043 268.484 725.668 268.356 728.267 268.356V270.912C725.745 270.912 723.172 271.015 720.676 271.219V271.245ZM1375.81 269.915L1373.37 269.148L1375.71 261.836L1378.15 262.603L1375.81 269.915ZM1762.91 265.288C1761.7 263.038 1760.52 260.763 1759.33 258.462L1761.62 257.286C1762.81 259.561 1763.99 261.811 1765.2 264.061L1762.94 265.262L1762.91 265.288ZM1380.49 255.292L1378.05 254.499L1380.42 247.187L1382.86 247.98L1380.49 255.292ZM1755.83 251.61C1754.7 249.309 1753.57 247.008 1752.44 244.682L1754.75 243.582C1755.86 245.883 1756.99 248.184 1758.12 250.46L1755.81 251.585L1755.83 251.61ZM1385.25 240.693L1382.81 239.901C1383.61 237.472 1384.43 235.043 1385.23 232.615L1387.67 233.407C1386.88 235.836 1386.05 238.265 1385.25 240.693ZM1749.14 237.728C1748.06 235.401 1746.98 233.075 1745.93 230.748L1748.27 229.7C1749.32 232.027 1750.4 234.353 1751.49 236.654L1749.14 237.728ZM1390.12 226.121L1387.67 225.303L1390.14 218.017L1392.59 218.835L1390.12 226.095V226.121ZM1742.74 223.718C1741.68 221.366 1740.65 219.039 1739.62 216.687L1741.99 215.664C1743.02 218.017 1744.05 220.343 1745.08 222.695L1742.74 223.718ZM1395.11 211.599L1392.67 210.756C1393.51 208.327 1394.36 205.924 1395.21 203.495L1397.63 204.339C1396.78 206.742 1395.93 209.145 1395.08 211.574L1395.11 211.599ZM1736.59 209.605C1735.58 207.253 1734.58 204.901 1733.58 202.524L1735.94 201.526C1736.95 203.879 1737.95 206.231 1738.95 208.583L1736.59 209.58V209.605ZM1400.23 197.129L1397.81 196.26C1398.69 193.831 1399.56 191.428 1400.44 189.025L1402.86 189.894C1401.98 192.272 1401.11 194.675 1400.23 197.104V197.129ZM1730.56 195.442L1727.61 188.334L1729.97 187.363L1732.93 194.47L1730.56 195.442ZM1405.53 182.736L1403.11 181.841C1404.01 179.438 1404.94 177.034 1405.84 174.657L1408.26 175.577C1407.36 177.955 1406.43 180.332 1405.53 182.761V182.736ZM1724.65 181.227L1721.71 174.145L1724.11 173.174L1727.04 180.256L1724.65 181.227ZM1411.01 168.393L1408.62 167.473C1409.57 165.069 1410.5 162.692 1411.45 160.314L1413.84 161.26C1412.89 163.612 1411.94 165.99 1411.01 168.393ZM1718.78 167.038L1715.82 159.956L1718.19 158.985L1721.15 166.092L1718.78 167.064V167.038ZM1416.75 154.153L1414.36 153.181C1415.34 150.804 1416.34 148.426 1417.34 146.1L1419.71 147.097C1418.71 149.423 1417.73 151.801 1416.75 154.178V154.153ZM1712.86 152.849C1711.88 150.471 1710.88 148.119 1709.88 145.767L1712.24 144.77C1713.25 147.122 1714.25 149.474 1715.23 151.852L1712.86 152.823V152.849ZM1422.75 140.04L1420.38 139.018C1421.41 136.64 1422.46 134.314 1423.52 131.987L1425.86 133.035C1424.81 135.336 1423.78 137.688 1422.75 140.04ZM1706.84 138.737C1705.84 136.385 1704.81 134.032 1703.78 131.706L1706.14 130.683C1707.17 133.01 1708.2 135.362 1709.23 137.74L1706.86 138.737H1706.84ZM1429.05 126.081L1426.71 125.008C1427.79 122.656 1428.9 120.355 1430.03 118.054L1432.35 119.153C1431.24 121.428 1430.13 123.755 1429.05 126.081ZM1700.64 124.701C1699.58 122.349 1698.53 120.022 1697.45 117.721L1699.79 116.648C1700.87 118.974 1701.92 121.301 1702.98 123.653L1700.64 124.701ZM1435.72 112.276L1433.43 111.125C1434.58 108.824 1435.77 106.524 1436.95 104.274L1439.24 105.45C1438.06 107.7 1436.9 109.975 1435.74 112.276H1435.72ZM1694.18 110.768C1693.07 108.441 1691.94 106.14 1690.83 103.865L1693.15 102.74C1694.28 105.015 1695.41 107.342 1696.52 109.668L1694.2 110.768H1694.18ZM1442.82 98.7004L1440.55 97.4732C1441.79 95.1979 1443.05 92.9481 1444.31 90.7494L1446.55 92.0021C1445.29 94.2008 1444.05 96.425 1442.82 98.7004ZM1687.36 97.0386C1686.18 94.7633 1684.99 92.4879 1683.78 90.2636L1686.05 89.062C1687.26 91.3118 1688.44 93.5872 1689.65 95.8881L1687.36 97.0642V97.0386ZM1450.41 85.4061L1448.2 84.1023C1449.54 81.878 1450.87 79.6794 1452.24 77.5318L1454.42 78.8868C1453.09 81.0344 1451.75 83.2075 1450.41 85.4061ZM1680.1 83.5654C1678.84 81.3156 1677.56 79.1169 1676.24 76.9438L1678.46 75.6399C1679.77 77.8386 1681.05 80.0628 1682.32 82.3126L1680.08 83.5654H1680.1ZM1458.59 72.4698L1456.46 71.0636C1457.9 68.8905 1459.34 66.7686 1460.81 64.6977L1462.92 66.155C1461.48 68.2258 1460.03 70.3222 1458.59 72.4698ZM1672.28 70.4245C1670.89 68.2514 1669.5 66.1039 1668.11 64.0074L1670.25 62.5758C1671.66 64.6977 1673.08 66.8453 1674.47 69.0439L1672.28 70.3989V70.4245ZM1467.42 59.9936L1465.36 58.4596C1466.93 56.3888 1468.5 54.3435 1470.1 52.375L1472.1 53.9601C1470.53 55.9286 1468.96 57.9228 1467.42 59.9936ZM1663.71 57.7694C1662.22 55.6985 1660.67 53.6533 1659.13 51.6591L1661.16 50.0996C1662.73 52.1193 1664.28 54.1646 1665.8 56.2866L1663.71 57.7694ZM1476.99 48.1055L1475.04 46.4437C1476.74 44.4751 1478.46 42.5577 1480.21 40.6913L1482.09 42.4298C1480.36 44.2706 1478.67 46.1624 1476.99 48.1055ZM1654.32 45.7278C1652.65 43.7593 1650.92 41.8418 1649.25 40.0266L1651.13 38.2881C1652.85 40.1289 1654.58 42.0719 1656.27 44.066L1654.32 45.7278ZM1487.44 36.9843L1485.64 35.1691C1487.52 33.3284 1489.42 31.5643 1491.3 29.9025L1493 31.82C1491.15 33.4562 1489.27 35.1947 1487.44 37.0099V36.9843ZM1643.9 34.5811C1642.04 32.7915 1640.17 31.053 1638.29 29.4423L1639.99 27.5249C1641.89 29.1867 1643.82 30.9507 1645.7 32.7659L1643.9 34.6067V34.5811ZM1498.81 26.9113L1497.22 24.9172C1499.25 23.3065 1501.34 21.747 1503.42 20.2642L1504.91 22.3606C1502.88 23.7923 1500.85 25.3262 1498.84 26.9113H1498.81ZM1632.39 24.6359C1630.36 23.0764 1628.28 21.5936 1626.22 20.213L1627.66 18.0911C1629.77 19.4972 1631.9 21.0056 1633.96 22.6162L1632.39 24.6359ZM1511.24 18.1933L1509.88 16.0202C1512.09 14.6652 1514.36 13.3614 1516.62 12.1598L1517.83 14.4096C1515.62 15.5856 1513.4 16.8383 1511.24 18.1678V18.1933ZM1619.76 16.2248C1617.57 14.972 1615.31 13.796 1613.04 12.6967L1614.15 10.3957C1616.47 11.4951 1618.78 12.7222 1621.05 14.0005L1619.76 16.2248ZM1524.65 11.1371L1523.59 8.81065C1525.96 7.76244 1528.38 6.79094 1530.8 5.94726L1531.68 8.35046C1529.33 9.19414 1526.97 10.1145 1524.65 11.1371ZM1606.07 9.70546C1603.73 8.78508 1601.33 7.96697 1598.92 7.22556L1599.66 4.77123C1602.13 5.53821 1604.6 6.38189 1607 7.32782L1606.04 9.70546H1606.07ZM1538.88 6.0751L1538.19 3.62077C1540.68 2.93049 1543.23 2.34247 1545.75 1.85672L1546.24 4.36218C1543.77 4.84793 1541.27 5.41038 1538.85 6.0751H1538.88ZM1591.56 5.25699C1589.14 4.69454 1586.61 4.23435 1584.09 3.82529L1584.48 1.29427C1587.05 1.70332 1589.63 2.18907 1592.12 2.75152L1591.56 5.23142V5.25699ZM1553.75 3.18614L1553.45 0.65512C1556.02 0.348329 1558.62 0.143802 1561.22 0.0415384L1561.32 2.59813C1558.8 2.70039 1556.22 2.90492 1553.73 3.21171L1553.75 3.18614ZM1576.55 2.93049C1574.06 2.72596 1571.51 2.57257 1568.96 2.52144L1569.01 -0.0351563C1571.61 0.0159756 1574.21 0.169371 1576.76 0.373898L1576.53 2.93049H1576.55Z" fill="#00BED4" fill-opacity="0.2"/>
<path d="M199.222 1025.18H16.9375L16.9375 1116.45H199.222L199.222 1025.18Z" fill="url(#paint0_linear_485_2)"/>
<path d="M427.652 911.031H245.367L245.367 1116.48H427.652V911.031Z" fill="url(#paint1_linear_485_2)"/>
<path d="M656.086 806.928H473.801L473.801 1116.48H656.086V806.928Z" fill="url(#paint2_linear_485_2)"/>
<path d="M884.519 888.201H702.234V1116.48H884.519V888.201Z" fill="url(#paint3_linear_485_2)"/>
<path d="M1112.95 1025.18H930.664V1116.45H1112.95V1025.18Z" fill="url(#paint4_linear_485_2)"/>
<path d="M1341.38 731.688H1159.09V1116.48H1341.38V731.688Z" fill="url(#paint5_linear_485_2)"/>
<path d="M1569.84 861.689H1387.55V1116.48H1569.84V861.689Z" fill="url(#paint6_linear_485_2)"/>
<path d="M1902.29 537H1720V1113.79H1902.29V537Z" fill="url(#paint7_linear_485_2)"/>
</g>
<defs>
<linearGradient id="paint0_linear_485_2" x1="108.08" y1="1027" x2="108.08" y2="1119.96" gradientUnits="userSpaceOnUse">
<stop stop-color="white" stop-opacity="0"/>
<stop offset="0.1" stop-color="#F3F7FE" stop-opacity="0.13"/>
<stop offset="0.1001" stop-color="#00BED4" stop-opacity="0.141029"/>
<stop offset="0.27" stop-color="#00BED4" stop-opacity="0.33"/>
<stop offset="0.43" stop-color="#00BED4" stop-opacity="0.5"/>
<stop offset="0.59" stop-color="#00BED4" stop-opacity="0.63"/>
<stop offset="0.74" stop-color="#00BED4" stop-opacity="0.72"/>
<stop offset="0.88" stop-color="#00BED4" stop-opacity="0.78"/>
<stop offset="1" stop-color="#00BED4" stop-opacity="0.8"/>
</linearGradient>
<linearGradient id="paint1_linear_485_2" x1="336.51" y1="915.096" x2="336.51" y2="1124.33" gradientUnits="userSpaceOnUse">
<stop stop-color="white" stop-opacity="0"/>
<stop offset="0.1" stop-color="#F3F7FE" stop-opacity="0.13"/>
<stop offset="0.27" stop-color="#E0EDFD" stop-opacity="0.33"/>
<stop offset="0.43" stop-color="#D1E4FC" stop-opacity="0.5"/>
<stop offset="0.59" stop-color="#C6DDFB" stop-opacity="0.63"/>
<stop offset="0.74" stop-color="#BDD8FB" stop-opacity="0.72"/>
<stop offset="0.88" stop-color="#B8D5FB" stop-opacity="0.78"/>
<stop offset="1" stop-color="#B7D4FB" stop-opacity="0.8"/>
</linearGradient>
<linearGradient id="paint2_linear_485_2" x1="564.943" y1="813.038" x2="564.943" y2="1128.29" gradientUnits="userSpaceOnUse">
<stop stop-color="white" stop-opacity="0"/>
<stop offset="0.1" stop-color="#F3F7FE" stop-opacity="0.13"/>
<stop offset="0.27" stop-color="#E0EDFD" stop-opacity="0.33"/>
<stop offset="0.43" stop-color="#D1E4FC" stop-opacity="0.5"/>
<stop offset="0.59" stop-color="#C6DDFB" stop-opacity="0.63"/>
<stop offset="0.74" stop-color="#BDD8FB" stop-opacity="0.72"/>
<stop offset="0.88" stop-color="#B8D5FB" stop-opacity="0.78"/>
<stop offset="1" stop-color="#B7D4FB" stop-opacity="0.8"/>
</linearGradient>
<linearGradient id="paint3_linear_485_2" x1="793.377" y1="892.726" x2="793.377" y2="1125.2" gradientUnits="userSpaceOnUse">
<stop stop-color="white" stop-opacity="0"/>
<stop offset="0.1" stop-color="#F3F7FE" stop-opacity="0.13"/>
<stop offset="0.27" stop-color="#E0EDFD" stop-opacity="0.33"/>
<stop offset="0.43" stop-color="#D1E4FC" stop-opacity="0.5"/>
<stop offset="0.59" stop-color="#C6DDFB" stop-opacity="0.63"/>
<stop offset="0.74" stop-color="#BDD8FB" stop-opacity="0.72"/>
<stop offset="0.88" stop-color="#B8D5FB" stop-opacity="0.78"/>
<stop offset="1" stop-color="#B7D4FB" stop-opacity="0.8"/>
</linearGradient>
<linearGradient id="paint4_linear_485_2" x1="1021.81" y1="-46.9992" x2="1021.81" y2="-46.9992" gradientUnits="userSpaceOnUse">
<stop stop-color="white" stop-opacity="0"/>
<stop offset="0.1" stop-color="#F3F7FE" stop-opacity="0.13"/>
<stop offset="0.27" stop-color="#E0EDFD" stop-opacity="0.33"/>
<stop offset="0.43" stop-color="#D1E4FC" stop-opacity="0.5"/>
<stop offset="0.59" stop-color="#C6DDFB" stop-opacity="0.63"/>
<stop offset="0.74" stop-color="#BDD8FB" stop-opacity="0.72"/>
<stop offset="0.88" stop-color="#B8D5FB" stop-opacity="0.78"/>
<stop offset="1" stop-color="#B7D4FB" stop-opacity="0.8"/>
</linearGradient>
<linearGradient id="paint5_linear_485_2" x1="1250.24" y1="739.281" x2="1250.24" y2="1131.18" gradientUnits="userSpaceOnUse">
<stop stop-color="white" stop-opacity="0"/>
<stop offset="0.1" stop-color="#F3F7FE" stop-opacity="0.13"/>
<stop offset="0.27" stop-color="#E0EDFD" stop-opacity="0.33"/>
<stop offset="0.43" stop-color="#D1E4FC" stop-opacity="0.5"/>
<stop offset="0.59" stop-color="#C6DDFB" stop-opacity="0.63"/>
<stop offset="0.74" stop-color="#BDD8FB" stop-opacity="0.72"/>
<stop offset="0.88" stop-color="#B8D5FB" stop-opacity="0.78"/>
<stop offset="1" stop-color="#B7D4FB" stop-opacity="0.8"/>
</linearGradient>
<linearGradient id="paint6_linear_485_2" x1="1478.67" y1="866.726" x2="1478.67" y2="1126.19" gradientUnits="userSpaceOnUse">
<stop stop-color="white" stop-opacity="0"/>
<stop offset="0.1" stop-color="#F3F7FE" stop-opacity="0.13"/>
<stop offset="0.27" stop-color="#E0EDFD" stop-opacity="0.33"/>
<stop offset="0.43" stop-color="#D1E4FC" stop-opacity="0.5"/>
<stop offset="0.59" stop-color="#C6DDFB" stop-opacity="0.63"/>
<stop offset="0.74" stop-color="#BDD8FB" stop-opacity="0.72"/>
<stop offset="0.88" stop-color="#B8D5FB" stop-opacity="0.78"/>
<stop offset="1" stop-color="#B7D4FB" stop-opacity="0.8"/>
</linearGradient>
<linearGradient id="paint7_linear_485_2" x1="1811.14" y1="548.402" x2="1811.14" y2="1135.8" gradientUnits="userSpaceOnUse">
<stop stop-color="white" stop-opacity="0"/>
<stop offset="0.1" stop-color="#00BED4" stop-opacity="0.13"/>
<stop offset="0.27" stop-color="#00BED4" stop-opacity="0.33"/>
<stop offset="0.43" stop-color="#00BED4" stop-opacity="0.5"/>
<stop offset="0.59" stop-color="#00BED4" stop-opacity="0.63"/>
<stop offset="0.74" stop-color="#00BED4" stop-opacity="0.72"/>
<stop offset="0.88" stop-color="#00BED4" stop-opacity="0.78"/>
<stop offset="1" stop-color="#00BED4" stop-opacity="0.8"/>
</linearGradient>
<clipPath id="clip0_485_2">
<rect width="1917" height="1116" fill="white"/>
</clipPath>
</defs>
</svg>
