<svg width="1918" height="841" viewBox="0 0 1918 841" fill="none" xmlns="http://www.w3.org/2000/svg">
<g clip-path="url(#clip0_366_5094)">
<path d="M0 225.747L94.2104 159.922L254.56 342.565L386.787 263.521L670.619 539.252L845.874 444.013L1085.78 169.254L1299.69 50.6957L1523.86 123.682L1736.92 0L1917.44 132.527L1917.44 840.565L0 840.565L0 225.747Z" fill="url(#paint0_linear_366_5094)"/>
<path d="M263.653 912.427C261.907 912.427 260.161 912.373 258.415 912.292L258.543 909.592C261.059 909.727 263.602 909.754 266.144 909.673L266.221 912.373C265.374 912.373 264.526 912.4 263.653 912.4V912.427ZM273.951 911.86L273.668 909.187C276.159 908.917 278.676 908.512 281.115 908.026L281.603 910.672C279.086 911.185 276.519 911.59 273.951 911.887V911.86ZM250.659 911.617C248.091 911.293 245.498 910.861 242.981 910.348L243.469 907.702C245.934 908.215 248.451 908.62 250.967 908.944L250.659 911.617ZM289.153 908.782L288.459 906.19C290.873 905.488 293.287 904.651 295.65 903.76L296.523 906.298C294.109 907.243 291.618 908.08 289.127 908.809L289.153 908.782ZM235.406 908.512C232.915 907.81 230.424 907 227.984 906.109L228.832 903.544C231.22 904.408 233.66 905.191 236.099 905.893L235.431 908.485L235.406 908.512ZM220.743 903.22C218.38 902.167 215.992 901.034 213.681 899.819L214.811 897.389C217.096 898.577 219.407 899.711 221.744 900.737L220.743 903.22ZM303.739 903.193L302.686 900.737C304.971 899.657 307.231 898.442 309.465 897.173L310.698 899.549C308.412 900.845 306.076 902.086 303.739 903.193ZM206.825 895.985C204.616 894.662 202.382 893.231 200.199 891.746L201.586 889.478C203.743 890.936 205.926 892.34 208.109 893.636L206.825 895.985ZM317.374 895.418L315.988 893.123C318.094 891.719 320.225 890.207 322.279 888.641L323.794 890.828C321.689 892.421 319.506 893.987 317.374 895.418ZM193.805 887.156C191.725 885.59 189.645 883.943 187.616 882.242L189.208 880.109C191.211 881.783 193.266 883.376 195.32 884.942L193.831 887.129L193.805 887.156ZM329.957 885.86L328.34 883.754C330.266 882.134 332.217 880.379 334.143 878.543L335.864 880.568C333.886 882.431 331.909 884.186 329.957 885.86ZM181.607 877.085C179.656 875.33 177.73 873.521 175.829 871.685L177.576 869.714C179.476 871.55 181.376 873.332 183.302 875.06L181.633 877.112L181.607 877.085ZM341.513 875.006L339.716 873.089C341.513 871.226 343.285 869.31 345.057 867.339L346.932 869.202C345.134 871.199 343.336 873.143 341.513 875.033V875.006ZM170.206 866.043C168.382 864.153 166.559 862.209 164.787 860.238L166.636 858.375C168.408 860.319 170.206 862.236 172.003 864.126L170.206 866.043ZM352.119 863.127L350.193 861.345C351.862 859.347 353.505 857.295 355.123 855.189L357.101 856.89C355.457 859.023 353.788 861.102 352.119 863.127ZM159.523 854.271C157.802 852.273 156.108 850.248 154.413 848.169L156.364 846.414C158.034 848.466 159.728 850.491 161.449 852.462L159.549 854.271H159.523ZM361.928 850.518L359.9 848.871C361.44 846.765 362.956 844.605 364.471 842.418L366.551 844.011C365.01 846.225 363.469 848.412 361.928 850.545V850.518ZM149.431 841.932C147.813 839.853 146.195 837.748 144.578 835.615L146.606 833.941C148.198 836.074 149.816 838.152 151.434 840.231L149.457 841.932H149.431ZM371.019 837.342L368.913 835.804C370.351 833.617 371.764 831.376 373.202 829.108L375.359 830.593C373.921 832.888 372.508 835.129 371.045 837.342H371.019ZM139.853 829.189C138.312 827.056 136.745 824.869 135.23 822.682L137.31 821.089C138.825 823.276 140.366 825.436 141.907 827.569L139.853 829.216V829.189ZM379.493 823.735L377.31 822.304C378.646 820.036 380.007 817.741 381.316 815.419L383.525 816.796C382.189 819.145 380.828 821.44 379.493 823.735ZM130.685 816.094C129.196 813.907 127.706 811.693 126.242 809.452L128.348 807.913C129.812 810.127 131.301 812.341 132.791 814.528L130.711 816.094H130.685ZM387.454 809.803L385.22 808.453C386.478 806.132 387.762 803.783 389.02 801.407L391.254 802.73C389.996 805.105 388.712 807.481 387.454 809.803ZM121.851 802.757C120.413 800.516 118.975 798.275 117.537 796.007L119.669 794.522C121.081 796.763 122.519 799.004 123.957 801.245L121.826 802.757H121.851ZM394.978 795.602L392.718 794.333C393.925 791.984 395.132 789.608 396.313 787.178L398.599 788.42C397.392 790.85 396.185 793.226 394.978 795.602ZM113.3 789.23C111.888 786.962 110.501 784.694 109.114 782.426L111.271 780.968C112.658 783.236 114.07 785.504 115.457 787.772L113.3 789.257V789.23ZM402.117 781.184L399.831 779.969C400.987 777.566 402.117 775.163 403.272 772.734L405.583 773.921C404.453 776.378 403.298 778.781 402.142 781.184H402.117ZM104.954 775.595C103.568 773.328 102.207 771.033 100.82 768.738L103.003 767.307C104.364 769.602 105.75 771.87 107.111 774.164L104.954 775.622V775.595ZM408.922 766.605L406.611 765.444C407.715 763.014 408.793 760.584 409.897 758.127L412.234 759.261C411.13 761.718 410.052 764.175 408.947 766.605H408.922ZM96.7111 761.826L92.6281 754.941L94.8108 753.51L98.8939 760.395L96.7111 761.826ZM415.444 751.89L413.107 750.783C414.16 748.326 415.213 745.869 416.266 743.412L418.603 744.519C417.55 747.003 416.497 749.46 415.419 751.917L415.444 751.89ZM88.5707 748.056L84.5134 741.172L86.6961 739.741L90.7535 746.625L88.5707 748.056ZM421.736 737.068L419.373 735.988C420.4 733.531 421.428 731.047 422.429 728.563L424.792 729.616C423.764 732.127 422.763 734.611 421.736 737.068ZM80.4817 734.287L76.4244 727.402L78.6071 725.971L82.6901 732.856L80.5074 734.287H80.4817ZM427.822 722.164L425.459 721.111C426.461 718.627 427.437 716.143 428.438 713.632L430.801 714.658C429.825 717.169 428.823 719.653 427.822 722.137V722.164ZM72.3156 720.544C70.9546 718.249 69.5679 715.954 68.2069 713.686L70.364 712.228C71.725 714.496 73.1117 716.791 74.4727 719.086L72.29 720.517L72.3156 720.544ZM1065.34 711.526C1063.7 711.526 1062.05 711.526 1060.41 711.445L1060.49 708.746C1063 708.826 1065.6 708.854 1068.11 708.8L1068.16 711.499C1067.21 711.499 1066.26 711.526 1065.31 711.526H1065.34ZM1075.92 711.121L1075.74 708.422C1078.28 708.233 1080.82 707.963 1083.29 707.612L1083.62 710.284C1081.11 710.635 1078.51 710.905 1075.92 711.121ZM1052.68 711.013C1050.09 710.797 1047.49 710.527 1044.98 710.176L1045.31 707.504C1047.8 707.828 1050.34 708.125 1052.91 708.341L1052.71 711.04L1052.68 711.013ZM1091.25 708.988L1090.76 706.343C1093.25 705.83 1095.74 705.263 1098.18 704.615L1098.83 707.234C1096.36 707.909 1093.79 708.476 1091.28 708.988H1091.25ZM1037.3 708.935C1034.78 708.449 1032.24 707.909 1029.72 707.261L1030.31 704.642C1032.78 705.263 1035.29 705.803 1037.76 706.262L1037.3 708.907V708.935ZM433.728 707.18L431.34 706.154C432.316 703.67 433.266 701.159 434.242 698.648L436.63 699.647C435.68 702.158 434.704 704.669 433.728 707.18ZM64.0725 706.883C62.6859 704.588 61.2735 702.347 59.8868 700.079L62.0439 698.594C63.4562 700.835 64.8429 703.103 66.2553 705.398L64.0982 706.856L64.0725 706.883ZM1022.22 705.209C1019.76 704.453 1017.27 703.616 1014.85 702.725L1015.7 700.187C1018.06 701.051 1020.5 701.888 1022.94 702.644L1022.22 705.236V705.209ZM1106.25 705.02L1105.48 702.455C1107.89 701.645 1110.28 700.754 1112.64 699.809L1113.57 702.32C1111.18 703.292 1108.71 704.183 1106.25 705.02ZM1007.61 699.809C1005.22 698.783 1002.86 697.676 1000.52 696.515L1001.63 694.085C1003.91 695.219 1006.25 696.326 1008.59 697.325L1007.61 699.809ZM1120.7 699.188L1119.65 696.731C1121.96 695.624 1124.25 694.463 1126.48 693.248L1127.66 695.651C1125.38 696.893 1123.04 698.108 1120.7 699.215V699.188ZM55.624 693.329C54.186 691.061 52.7479 688.847 51.3099 686.633L53.4413 685.121C54.8793 687.335 56.3174 689.576 57.7554 691.844L55.624 693.329ZM993.617 692.816C991.383 691.547 989.123 690.197 986.889 688.766L988.224 686.444C990.407 687.821 992.641 689.171 994.849 690.413L993.642 692.789L993.617 692.816ZM439.48 692.141L437.092 691.142C438.042 688.631 438.967 686.12 439.917 683.609L442.305 684.608C441.355 687.119 440.43 689.657 439.48 692.141ZM1134.47 691.682L1133.16 689.36C1135.32 688.01 1137.5 686.579 1139.6 685.094L1141.02 687.335C1138.86 688.847 1136.65 690.305 1134.44 691.682H1134.47ZM980.392 684.419C978.26 682.907 976.129 681.341 974.049 679.721L975.564 677.562C977.618 679.154 979.699 680.693 981.83 682.178L980.392 684.419ZM1147.39 682.664L1145.87 680.504C1147.9 678.938 1149.93 677.291 1151.9 675.591L1153.52 677.696C1151.49 679.424 1149.44 681.098 1147.39 682.664ZM46.97 679.991C45.4806 677.777 43.9912 675.564 42.5018 673.404L44.5819 671.811C46.0713 673.998 47.5863 676.185 49.0758 678.426L46.97 679.991ZM445.13 677.049L442.742 676.077C443.666 673.566 444.59 671.055 445.515 668.517L447.903 669.489C446.979 672.027 446.054 674.538 445.13 677.049ZM967.912 674.781C965.909 673.08 963.931 671.352 961.98 669.543L963.675 667.518C965.601 669.273 967.552 671.001 969.529 672.675L967.912 674.781ZM1159.43 672.432L1157.73 670.407C1159.63 668.652 1161.51 666.816 1163.36 664.953L1165.13 666.897C1163.26 668.787 1161.35 670.623 1159.43 672.405V672.432ZM37.9309 666.897C36.3644 664.737 34.8237 662.577 33.2572 660.498L35.2859 658.824C36.8523 660.93 38.4445 663.09 39.9852 665.277L37.9309 666.897ZM956.228 664.062C954.353 662.226 952.504 660.309 950.681 658.392L952.504 656.475C954.302 658.392 956.15 660.255 957.999 662.091L956.228 664.062ZM450.651 661.902L448.263 660.93L450.985 653.343L453.398 654.288L450.676 661.875L450.651 661.902ZM1170.6 661.146L1168.75 659.256C1170.52 657.339 1172.24 655.395 1173.96 653.37L1175.86 655.179C1174.12 657.204 1172.37 659.202 1170.57 661.119L1170.6 661.146ZM28.4295 654.18C26.786 652.074 25.1425 650.022 23.4734 648.024L25.3993 646.242C27.0685 648.267 28.7376 650.346 30.4068 652.452L28.4295 654.18ZM945.314 652.506C943.568 650.535 941.847 648.51 940.126 646.459L942.052 644.677C943.747 646.701 945.468 648.699 947.188 650.643L945.314 652.479V652.506ZM1180.97 649.05L1179.02 647.295C1180.67 645.271 1182.28 643.192 1183.88 641.059L1185.88 642.733C1184.26 644.866 1182.62 646.971 1180.97 649.023V649.05ZM456.095 646.701L453.681 645.757L456.352 638.197L458.765 639.142L456.069 646.701H456.095ZM18.3632 642.031C16.617 640.033 14.8451 638.089 13.0475 636.226L14.8707 634.309C16.6683 636.199 18.4659 638.17 20.2378 640.195L18.3632 642.031ZM935.119 640.276C933.476 638.197 931.858 636.091 930.266 633.958L932.294 632.284C933.886 634.417 935.479 636.496 937.096 638.548L935.119 640.276ZM1190.63 636.307L1188.58 634.687C1190.09 632.554 1191.61 630.394 1193.09 628.18L1195.2 629.746C1193.69 631.987 1192.17 634.174 1190.63 636.307ZM461.462 631.555L459.048 630.61L461.719 623.023L464.132 623.968L461.462 631.555ZM7.52643 630.637C5.60047 628.774 3.67451 626.992 1.77424 625.345L3.41772 623.266C5.34368 624.94 7.29531 626.749 9.24695 628.639L7.50075 630.637H7.52643ZM925.541 627.478C924 625.318 922.485 623.131 920.97 620.917L923.05 619.351C924.539 621.538 926.054 623.725 927.569 625.858L925.515 627.478H925.541ZM1199.57 623.05L1197.43 621.538C1198.85 619.324 1200.26 617.083 1201.65 614.788L1203.8 616.246C1202.39 618.541 1200.98 620.809 1199.54 623.05H1199.57ZM-4.20907 620.377C-6.28911 618.757 -8.39482 617.218 -10.4492 615.814L-9.06248 613.546C-6.93109 614.977 -4.7997 616.543 -2.6683 618.19L-4.20907 620.35V620.377ZM466.777 616.327L464.364 615.409L467.034 607.796L469.448 608.714L466.777 616.327ZM916.553 614.249C915.115 612.008 913.677 609.767 912.264 607.499L914.421 606.014C915.834 608.282 917.246 610.523 918.684 612.737L916.553 614.249ZM-16.9974 611.765C-19.2572 610.469 -21.5427 609.308 -23.8025 608.255L-22.7753 605.771C-20.4642 606.824 -18.1016 608.039 -15.7905 609.362L-17.0231 611.738L-16.9974 611.765ZM1207.94 609.389L1205.75 607.985C1207.09 605.717 1208.4 603.395 1209.71 601.073L1211.92 602.45C1210.61 604.799 1209.27 607.121 1207.94 609.416V609.389ZM-30.8386 605.447C-33.2525 604.61 -35.6921 603.908 -38.1059 603.368L-37.5667 600.722C-35.0758 601.289 -32.5335 602.018 -30.0426 602.882L-30.8386 605.447ZM-45.5016 602.099C-47.9925 601.802 -50.5091 601.667 -53 601.667V598.967C-50.4064 598.967 -47.7871 599.129 -45.2191 599.399L-45.5016 602.072V602.099ZM472.093 601.1L469.679 600.182L472.35 592.541L474.764 593.459L472.093 601.1ZM908.079 600.668C906.718 598.4 905.357 596.078 903.996 593.756L906.178 592.352C907.514 594.674 908.875 596.942 910.236 599.21L908.053 600.668H908.079ZM1215.8 595.376L1213.56 594.053C1214.82 591.731 1216.05 589.355 1217.28 586.979L1219.54 588.275C1218.31 590.678 1217.05 593.054 1215.8 595.376ZM900.041 586.79C898.731 584.468 897.447 582.119 896.163 579.771L898.397 578.421C899.681 580.77 900.965 583.091 902.249 585.413L900.041 586.79ZM477.409 585.818L474.995 584.9L477.64 577.287L480.054 578.205L477.409 585.818ZM1223.17 581.094L1220.88 579.852C1222.06 577.476 1223.24 575.073 1224.4 572.67L1226.68 573.885C1225.5 576.315 1224.35 578.718 1223.17 581.121V581.094ZM892.363 572.697C891.104 570.348 889.872 567.972 888.639 565.569L890.899 564.273C892.132 566.649 893.364 569.025 894.597 571.374L892.363 572.697ZM482.724 570.618L480.311 569.7L482.981 562.086L485.395 563.031L482.724 570.645V570.618ZM1230.15 566.595L1227.84 565.407C1228.97 563.004 1230.07 560.574 1231.18 558.117L1233.49 559.278C1232.38 561.735 1231.28 564.192 1230.15 566.595ZM885.018 558.414C883.811 556.038 882.63 553.635 881.449 551.232L883.734 549.991C884.916 552.393 886.097 554.769 887.304 557.172L885.044 558.441L885.018 558.414ZM488.066 555.39L485.652 554.445L488.323 546.832L490.736 547.777L488.066 555.363V555.39ZM1236.78 551.907L1234.44 550.773C1235.49 548.344 1236.57 545.887 1237.6 543.403L1239.93 544.51C1238.88 546.994 1237.83 549.451 1236.75 551.907H1236.78ZM877.931 543.997C876.775 541.594 875.62 539.164 874.464 536.734L876.775 535.519C877.931 537.949 879.061 540.352 880.242 542.755L877.957 543.97L877.931 543.997ZM493.433 540.19L491.019 539.245L493.715 531.658L496.129 532.603L493.433 540.19ZM1243.04 537.058L1240.68 535.978C1241.68 533.521 1242.71 531.037 1243.71 528.526L1246.07 529.579C1245.07 532.09 1244.07 534.574 1243.04 537.058ZM871.049 529.471C869.919 527.041 868.789 524.611 867.685 522.181L869.996 520.993C871.126 523.423 872.23 525.853 873.36 528.283L871.049 529.471ZM498.851 525.016L496.437 524.071L499.185 516.485L501.573 517.457L498.825 525.016H498.851ZM1249.05 522.1L1246.66 521.074C1247.64 518.59 1248.59 516.08 1249.56 513.569L1251.95 514.568C1251 517.079 1250.03 519.589 1249.05 522.1ZM864.321 514.865C863.217 512.435 862.112 509.978 861.008 507.548L863.319 506.387C864.423 508.844 865.528 511.274 866.632 513.704L864.321 514.865ZM504.346 509.897L501.958 508.925L504.757 501.365L507.146 502.337L504.346 509.897ZM1254.8 507.062L1252.41 506.063C1253.34 503.552 1254.29 501.041 1255.19 498.53L1257.58 499.502C1256.65 502.04 1255.73 504.551 1254.78 507.062H1254.8ZM857.721 500.177L854.46 492.806L856.797 491.672L860.058 499.016L857.721 500.15V500.177ZM509.97 494.804L507.582 493.805C508.532 491.294 509.482 488.756 510.433 486.272L512.821 487.271C511.871 489.782 510.92 492.266 509.97 494.804ZM1260.35 491.888L1257.94 490.943C1258.83 488.432 1259.73 485.894 1260.63 483.357L1263.05 484.302C1262.15 486.839 1261.25 489.377 1260.35 491.915V491.888ZM851.224 485.463L847.989 478.119L850.325 476.985L853.561 484.329L851.224 485.463ZM515.697 479.766L513.309 478.74C514.284 476.229 515.26 473.718 516.236 471.234L518.599 472.26C517.623 474.744 516.647 477.255 515.697 479.766ZM1265.69 476.688L1263.28 475.77C1264.15 473.232 1265.02 470.694 1265.87 468.156L1268.28 469.074C1267.41 471.639 1266.56 474.177 1265.66 476.715L1265.69 476.688ZM844.753 470.802L841.517 463.458L843.854 462.324L847.09 469.668L844.753 470.802ZM521.577 464.808L519.215 463.755C520.216 461.244 521.218 458.76 522.219 456.276L524.582 457.329C523.58 459.813 522.579 462.297 521.577 464.781V464.808ZM1270.88 461.406L1268.46 460.515C1269.31 457.977 1270.16 455.412 1270.98 452.875L1273.42 453.766C1272.57 456.33 1271.72 458.868 1270.88 461.433V461.406ZM838.256 456.087L834.995 448.744L837.332 447.61L840.593 454.953L838.256 456.087ZM527.586 449.905L525.224 448.825C526.251 446.341 527.278 443.857 528.331 441.4L530.694 442.48C529.666 444.937 528.639 447.421 527.612 449.905H527.586ZM1275.89 446.071L1273.45 445.207C1274.27 442.642 1275.09 440.104 1275.91 437.539L1278.35 438.403C1277.53 440.968 1276.71 443.533 1275.89 446.098V446.071ZM831.682 441.427C830.578 438.97 829.474 436.54 828.37 434.11L830.681 432.949C831.785 435.379 832.889 437.836 833.993 440.266L831.682 441.427ZM533.801 435.109L531.464 434.002C532.543 431.518 533.595 429.061 534.674 426.631L537.011 427.765C535.932 430.195 534.879 432.652 533.801 435.136V435.109ZM1280.79 430.708L1278.35 429.871C1279.15 427.306 1279.97 424.741 1280.76 422.177L1283.2 423.013C1282.41 425.578 1281.59 428.143 1280.79 430.708ZM825.031 426.82C823.901 424.39 822.771 421.961 821.667 419.531L823.978 418.343C825.108 420.773 826.238 423.202 827.368 425.632L825.057 426.82H825.031ZM540.272 420.422L537.961 419.261C539.065 416.804 540.195 414.374 541.299 411.944L543.61 413.132C542.48 415.535 541.376 417.965 540.272 420.422ZM1285.59 415.292L1283.15 414.455L1285.51 406.787L1287.95 407.624L1285.59 415.319V415.292ZM818.252 412.295C817.096 409.865 815.941 407.462 814.785 405.059L817.071 403.817C818.226 406.22 819.407 408.623 820.563 411.053L818.278 412.268L818.252 412.295ZM547.026 405.896L544.74 404.681C545.896 402.251 547.077 399.821 548.233 397.445L550.518 398.687C549.337 401.063 548.181 403.466 547.026 405.896ZM1290.29 399.902L1287.85 399.092L1290.19 391.37L1292.63 392.18L1290.29 399.902ZM811.241 397.877C810.034 395.474 808.853 393.098 807.646 390.722L809.906 389.454C811.113 391.829 812.32 394.205 813.527 396.635L811.241 397.877ZM554.088 391.532L551.828 390.264C553.06 387.861 554.267 385.485 555.526 383.136L557.76 384.432C556.527 386.781 555.294 389.13 554.088 391.532ZM1866.92 390.237C1864.3 390.156 1861.74 389.994 1859.19 389.805L1859.37 387.105C1861.89 387.294 1864.43 387.456 1867 387.537L1866.92 390.237ZM1851.46 389.022C1848.9 388.698 1846.33 388.293 1843.79 387.861L1844.22 385.188C1846.71 385.62 1849.26 386.025 1851.77 386.322L1851.46 388.995V389.022ZM1836.18 386.295C1833.64 385.701 1831.13 385.053 1828.66 384.351L1829.35 381.759C1831.74 382.461 1834.23 383.109 1836.75 383.676L1836.18 386.322V386.295ZM1294.91 384.486L1292.47 383.676L1294.79 375.927L1297.22 376.737L1294.91 384.486ZM803.923 383.649C802.665 381.273 801.406 378.924 800.148 376.602L802.382 375.252C803.64 377.601 804.924 379.95 806.183 382.326L803.948 383.622L803.923 383.649ZM1821.24 381.975C1818.8 381.138 1816.36 380.193 1813.95 379.194L1814.9 376.683C1817.26 377.655 1819.67 378.573 1822.06 379.41L1821.26 381.975H1821.24ZM561.509 377.385L559.275 376.035C560.559 373.659 561.868 371.337 563.178 369.015L565.386 370.392C564.077 372.687 562.793 375.009 561.509 377.358V377.385ZM1806.83 376.008C1804.5 374.901 1802.16 373.686 1799.87 372.444L1801.06 370.041C1803.32 371.283 1805.6 372.471 1807.89 373.551L1806.83 376.008ZM796.296 369.582C794.986 367.26 793.651 364.938 792.316 362.67L794.498 361.239C795.834 363.534 797.169 365.856 798.504 368.205L796.296 369.582ZM1299.54 368.961L1297.1 368.151L1299.38 360.375L1301.82 361.185L1299.54 368.961ZM1793.12 368.475C1790.91 367.098 1788.7 365.667 1786.55 364.155L1787.96 361.914C1790.09 363.399 1792.25 364.83 1794.4 366.153L1793.09 368.475H1793.12ZM569.392 363.507L567.21 362.076C568.571 359.754 569.957 357.46 571.37 355.219L573.527 356.704C572.14 358.945 570.779 361.212 569.418 363.507H569.392ZM1780.2 359.484C1778.15 357.892 1776.09 356.218 1774.09 354.49L1775.71 352.384C1777.69 354.085 1779.72 355.732 1781.74 357.298L1780.23 359.457L1780.2 359.484ZM788.233 355.84C786.846 353.572 785.434 351.304 783.996 349.09L786.127 347.578C787.565 349.792 788.977 352.06 790.39 354.355L788.233 355.813V355.84ZM1304.11 353.437L1301.64 352.654L1303.9 344.905L1306.37 345.688L1304.11 353.437ZM577.79 349.954L575.658 348.442C577.122 346.174 578.611 343.96 580.101 341.773L582.181 343.339C580.691 345.499 579.228 347.686 577.764 349.927L577.79 349.954ZM1768.21 349.171C1766.29 347.362 1764.39 345.499 1762.54 343.609L1764.33 341.665C1766.16 343.555 1768.03 345.364 1769.93 347.146L1768.21 349.171ZM779.63 342.448C778.141 340.234 776.626 338.074 775.085 335.941L777.139 334.321C778.68 336.454 780.221 338.641 781.736 340.882L779.656 342.448H779.63ZM1308.65 337.939L1306.19 337.156L1308.45 329.407L1310.91 330.19L1308.65 337.939ZM1757.09 337.831C1755.32 335.86 1753.57 333.862 1751.88 331.81L1753.81 330.028C1755.5 332.053 1757.22 334.024 1758.97 335.968L1757.09 337.831ZM586.777 336.913L584.749 335.266C586.341 333.079 587.933 330.946 589.551 328.867L591.554 330.568C589.962 332.62 588.37 334.726 586.803 336.886L586.777 336.913ZM770.385 329.65C768.768 327.544 767.124 325.492 765.481 323.468L767.432 321.686C769.101 323.711 770.771 325.79 772.414 327.922L770.411 329.623L770.385 329.65ZM1746.87 325.628C1745.25 323.549 1743.64 321.416 1742.07 319.256L1744.1 317.609C1745.66 319.742 1747.23 321.848 1748.85 323.927L1746.87 325.628ZM596.433 324.44L594.507 322.658C596.227 320.579 597.948 318.581 599.694 316.61L601.569 318.446C599.848 320.39 598.128 322.361 596.433 324.413V324.44ZM1313.2 322.496L1310.73 321.713L1312.99 313.964L1315.46 314.747L1313.2 322.496ZM760.345 317.501C758.573 315.53 756.775 313.586 755.003 311.777L756.801 309.833C758.624 311.696 760.447 313.64 762.219 315.665L760.345 317.501ZM606.91 312.749L605.113 310.832C606.987 308.915 608.887 307.025 610.762 305.27L612.483 307.295C610.634 309.023 608.759 310.886 606.91 312.776V312.749ZM1737.47 312.749C1735.98 310.562 1734.49 308.348 1733.06 306.08L1735.19 304.568C1736.63 306.809 1738.09 308.996 1739.58 311.183L1737.5 312.749H1737.47ZM1317.74 307.025L1315.28 306.215L1317.56 298.466L1320 299.276L1317.72 307.025H1317.74ZM749.405 306.323C747.479 304.541 745.502 302.813 743.55 301.193L745.143 299.087C747.12 300.734 749.123 302.489 751.1 304.325L749.405 306.35V306.323ZM618.286 302.084L616.668 299.978C618.723 298.25 620.803 296.576 622.831 295.064L624.321 297.251C622.318 298.763 620.263 300.383 618.26 302.084H618.286ZM1728.77 299.276C1727.38 297.008 1726.02 294.713 1724.66 292.392L1726.84 290.988C1728.18 293.283 1729.54 295.577 1730.9 297.818L1728.74 299.276H1728.77ZM737.439 296.414C735.333 294.875 733.202 293.418 731.07 292.068L732.406 289.746C734.588 291.123 736.771 292.608 738.928 294.2L737.464 296.414H737.439ZM630.638 292.824L629.277 290.529C631.485 289.071 633.745 287.721 635.979 286.452L637.186 288.828C635.003 290.043 632.795 291.393 630.638 292.824ZM1322.31 291.528L1319.85 290.718L1322.16 282.969L1324.62 283.779L1322.31 291.501V291.528ZM724.445 288.18C722.185 286.965 719.874 285.831 717.563 284.832L718.564 282.348C720.927 283.374 723.289 284.535 725.601 285.777L724.445 288.18ZM1720.73 285.399C1719.45 283.077 1718.16 280.701 1716.9 278.325L1719.14 277.002C1720.4 279.351 1721.65 281.7 1722.94 284.022L1720.7 285.372L1720.73 285.399ZM644.017 285.372L642.99 282.888C645.378 281.781 647.792 280.782 650.206 279.891L651.053 282.429C648.716 283.293 646.354 284.265 644.043 285.345L644.017 285.372ZM710.501 282.078C708.113 281.268 705.673 280.539 703.234 279.918L703.824 277.299C706.315 277.92 708.832 278.676 711.297 279.513L710.501 282.078ZM658.269 280.161L657.627 277.542C660.118 276.867 662.686 276.273 665.228 275.841L665.665 278.514C663.199 278.946 660.709 279.513 658.269 280.188V280.161ZM695.812 278.379C693.347 277.974 690.805 277.677 688.314 277.461L688.519 274.761C691.087 274.977 693.681 275.274 696.223 275.706L695.838 278.379H695.812ZM673.163 277.488L672.958 274.788C675.526 274.572 678.145 274.437 680.739 274.437V277.137C678.222 277.137 675.654 277.245 673.163 277.461V277.488ZM1326.94 276.084L1324.5 275.274L1326.83 267.552L1329.27 268.362L1326.94 276.084ZM1713.23 271.197C1712.02 268.821 1710.84 266.418 1709.66 263.988L1711.95 262.746C1713.13 265.149 1714.31 267.525 1715.52 269.901L1713.26 271.17L1713.23 271.197ZM1331.61 260.641L1329.17 259.804L1331.53 252.082L1333.97 252.919L1331.61 260.641ZM1706.17 256.753C1705.04 254.323 1703.91 251.893 1702.78 249.436L1705.09 248.275C1706.2 250.705 1707.33 253.135 1708.46 255.538L1706.14 256.726L1706.17 256.753ZM1336.36 245.224L1333.92 244.387C1334.72 241.822 1335.54 239.257 1336.33 236.692L1338.77 237.529C1337.98 240.094 1337.16 242.659 1336.36 245.224ZM1699.49 242.092C1698.41 239.635 1697.34 237.178 1696.28 234.721L1698.62 233.614C1699.67 236.071 1700.75 238.528 1701.83 240.958L1699.49 242.092ZM1341.21 229.835L1338.77 228.971L1341.24 221.276L1343.68 222.14L1341.21 229.808V229.835ZM1693.1 227.297C1692.05 224.813 1691.02 222.356 1689.99 219.872L1692.35 218.792C1693.38 221.276 1694.41 223.733 1695.44 226.217L1693.1 227.297ZM1346.2 214.499L1343.76 213.608C1344.6 211.043 1345.45 208.505 1346.3 205.94L1348.71 206.831C1347.86 209.369 1347.02 211.907 1346.17 214.472L1346.2 214.499ZM1686.96 212.393C1685.96 209.909 1684.96 207.425 1683.96 204.914L1686.32 203.861C1687.32 206.345 1688.32 208.829 1689.32 211.313L1686.96 212.366V212.393ZM1351.31 199.217L1348.89 198.3C1349.76 195.735 1350.64 193.197 1351.51 190.659L1353.92 191.577C1353.05 194.088 1352.18 196.626 1351.31 199.19V199.217ZM1680.95 197.436L1678 189.93L1680.36 188.904L1683.32 196.41L1680.95 197.436ZM1356.6 184.017L1354.18 183.072C1355.08 180.534 1356 177.996 1356.9 175.485L1359.32 176.457C1358.42 178.968 1357.49 181.479 1356.6 184.044V184.017ZM1675.05 182.424L1672.12 174.945L1674.51 173.919L1677.43 181.398L1675.05 182.424ZM1362.07 168.87L1359.68 167.898C1360.63 165.361 1361.55 162.85 1362.5 160.339L1364.89 161.338C1363.94 163.822 1362.99 166.332 1362.07 168.87ZM1669.19 167.439L1666.24 159.961L1668.6 158.935L1671.55 166.44L1669.19 167.466V167.439ZM1367.79 153.832L1365.4 152.806C1366.38 150.295 1367.38 147.784 1368.38 145.327L1370.74 146.38C1369.74 148.837 1368.77 151.348 1367.79 153.859V153.832ZM1663.29 152.455C1662.31 149.944 1661.31 147.46 1660.31 144.976L1662.67 143.923C1663.67 146.407 1664.67 148.891 1665.65 151.402L1663.29 152.428V152.455ZM1373.78 138.928L1371.41 137.848C1372.44 135.337 1373.49 132.881 1374.55 130.424L1376.88 131.531C1375.83 133.961 1374.8 136.444 1373.78 138.928ZM1657.28 137.551C1656.27 135.067 1655.25 132.584 1654.22 130.127L1656.58 129.047C1657.61 131.504 1658.64 133.988 1659.66 136.498L1657.3 137.551H1657.28ZM1380.07 124.187L1377.73 123.053C1378.81 120.569 1379.91 118.139 1381.04 115.709L1383.35 116.87C1382.25 119.273 1381.15 121.73 1380.07 124.187ZM1651.09 122.729C1650.03 120.245 1648.98 117.788 1647.9 115.358L1650.24 114.224C1651.32 116.681 1652.37 119.138 1653.42 121.622L1651.09 122.729ZM1386.72 109.607L1384.43 108.392C1385.59 105.962 1386.77 103.532 1387.95 101.157L1390.24 102.399C1389.05 104.774 1387.9 107.177 1386.74 109.607H1386.72ZM1644.64 108.014C1643.54 105.557 1642.41 103.127 1641.3 100.725L1643.61 99.5366C1644.74 101.94 1645.87 104.396 1646.98 106.853L1644.67 108.014H1644.64ZM1393.81 95.2707L1391.55 93.9748C1392.78 91.5718 1394.04 89.1959 1395.29 86.874L1397.53 88.197C1396.27 90.5189 1395.04 92.8678 1393.81 95.2707ZM1637.84 93.5158C1636.66 91.1129 1635.47 88.7099 1634.27 86.361L1636.53 85.092C1637.73 87.468 1638.92 89.8709 1640.12 92.3008L1637.84 93.5428V93.5158ZM1401.38 81.2312L1399.17 79.8542C1400.51 77.5053 1401.84 75.1834 1403.2 72.9154L1405.39 74.3464C1404.05 76.6143 1402.72 78.9092 1401.38 81.2312ZM1630.6 79.2872C1629.34 76.9113 1628.05 74.5894 1626.74 72.2944L1628.95 70.9175C1630.26 73.2394 1631.55 75.5883 1632.8 77.9643L1630.57 79.2872H1630.6ZM1409.55 67.5696L1407.42 66.0846C1408.85 63.7897 1410.29 61.5488 1411.76 59.3619L1413.86 60.9008C1412.42 63.0877 1410.98 65.3017 1409.55 67.5696ZM1622.79 65.4097C1621.4 63.1147 1620.02 60.8468 1618.63 58.6329L1620.76 57.1209C1622.17 59.3619 1623.58 61.6298 1624.97 63.9517L1622.79 65.3827V65.4097ZM1418.35 54.394L1416.3 52.7741C1417.87 50.5871 1419.43 48.4272 1421.03 46.3483L1423.03 48.0222C1421.46 50.1012 1419.9 52.2071 1418.35 54.394ZM1614.24 52.0451C1612.75 49.8582 1611.21 47.6982 1609.67 45.5923L1611.7 43.9453C1613.26 46.0783 1614.8 48.2382 1616.32 50.4791L1614.24 52.0451ZM1427.91 41.8394L1425.96 40.0845C1427.65 38.0055 1429.37 35.9806 1431.12 34.0096L1432.99 35.8456C1431.27 37.7895 1429.58 39.7875 1427.91 41.8394ZM1604.86 39.3285C1603.2 37.2495 1601.47 35.2246 1599.81 33.3077L1601.68 31.4717C1603.4 33.4157 1605.12 35.4676 1606.82 37.5735L1604.86 39.3285ZM1438.33 30.0948L1436.54 28.1778C1438.41 26.2339 1440.31 24.371 1442.19 22.616L1443.88 24.6409C1442.03 26.3689 1440.16 28.2048 1438.33 30.1218V30.0948ZM1594.46 27.5569C1592.62 25.6669 1590.74 23.831 1588.87 22.13L1590.56 20.1051C1592.46 21.86 1594.39 23.723 1596.26 25.6399L1594.46 27.5839V27.5569ZM1449.68 19.4571L1448.09 17.3512C1450.12 15.6502 1452.2 14.0033 1454.28 12.4373L1455.77 14.6513C1453.74 16.1632 1451.71 17.7832 1449.71 19.4571H1449.68ZM1582.99 17.0542C1580.96 15.4072 1578.88 13.8413 1576.82 12.3833L1578.26 10.1424C1580.37 11.6273 1582.5 13.2203 1584.55 14.9212L1582.99 17.0542ZM1462.09 10.2504L1460.73 7.95547C1462.93 6.52451 1465.19 5.14755 1467.45 3.87859L1468.66 6.25452C1466.45 7.49648 1464.24 8.81944 1462.09 10.2234V10.2504ZM1570.38 8.17146C1568.19 6.8485 1565.93 5.60654 1563.67 4.44558L1564.78 2.01565C1567.09 3.17662 1569.4 4.47258 1571.66 5.82253L1570.38 8.17146ZM1475.47 2.79863L1474.41 0.341705C1476.78 -0.76526 1479.19 -1.79123 1481.6 -2.6822L1482.48 -0.144281C1480.14 0.746691 1477.78 1.71866 1475.47 2.79863ZM1556.72 1.28668C1554.38 0.314707 1551.99 -0.54927 1549.58 -1.33224L1550.32 -3.92416C1552.79 -3.11419 1555.25 -2.22321 1557.64 -1.22425L1556.69 1.28668H1556.72ZM1489.67 -2.5472L1488.97 -5.13913C1491.46 -5.8681 1494.01 -6.48908 1496.52 -7.00206L1497.01 -4.35615C1494.55 -3.84316 1492.05 -3.24918 1489.64 -2.5472H1489.67ZM1542.23 -3.41118C1539.82 -4.00516 1537.3 -4.49115 1534.79 -4.92313L1535.17 -7.59605C1537.74 -7.16406 1540.31 -6.65108 1542.8 -6.0571L1542.23 -3.43818V-3.41118ZM1504.51 -5.59811L1504.2 -8.27103C1506.77 -8.59502 1509.36 -8.81101 1511.96 -8.91901L1512.06 -6.21909C1509.54 -6.11109 1506.97 -5.8951 1504.48 -5.57111L1504.51 -5.59811ZM1527.26 -5.8681C1524.77 -6.08409 1522.23 -6.24609 1519.69 -6.30008L1519.74 -9C1522.33 -8.946 1524.92 -8.78401 1527.47 -8.56801L1527.24 -5.8681H1527.26Z" fill="#FE1C04" fill-opacity="0.2"/>
</g>
<defs>
<linearGradient id="paint0_linear_366_5094" x1="817.674" y1="33.0429" x2="962.039" y2="900.603" gradientUnits="userSpaceOnUse">
<stop offset="0.0677083" stop-color="#52AA32" stop-opacity="0.1"/>
<stop offset="0.2" stop-color="#52AA32" stop-opacity="0.09"/>
<stop offset="0.322917" stop-color="#52AA32" stop-opacity="0.08"/>
<stop offset="0.5" stop-color="#52AA32" stop-opacity="0.07"/>
<stop offset="0.8" stop-color="#52AA32" stop-opacity="0.06"/>
<stop offset="1" stop-color="white" stop-opacity="0"/>
</linearGradient>
<clipPath id="clip0_366_5094">
<rect width="1917.44" height="840.565" fill="white"/>
</clipPath>
</defs>
</svg>
