<svg width="29" height="28" viewBox="0 0 29 28" fill="none" xmlns="http://www.w3.org/2000/svg">
<path d="M14.6641 1.61804L17.5562 10.5193L17.6685 10.8647H18.0318H27.3911L19.8192 16.366L19.5253 16.5795L19.6376 16.925L22.5298 25.8262L14.958 20.325L14.6641 20.1115L14.3702 20.325L6.79834 25.8262L9.69052 16.925L9.80278 16.5795L9.50889 16.366L1.93706 10.8647H11.2964H11.6596L11.7719 10.5193L14.6641 1.61804Z" fill="#333333" stroke="#0070BB"/>
<svg width="30" height="28" viewBox="0 0 30 28" fill="none" xmlns="http://www.w3.org/2000/svg">
<path d="M15 1.61804L17.8922 10.5193L18.0044 10.8647H18.3677H27.727L20.1552 16.366L19.8613 16.5795L19.9735 16.925L22.8657 25.8262L15.2939 20.325L15 20.1115L14.7061 20.325L7.13428 25.8262L10.0265 16.925L10.1387 16.5795L9.84482 16.366L2.27299 10.8647H11.6323H11.9956L12.1078 10.5193L15 1.61804Z" fill="#333333" stroke="#0070BB"/>
</svg>
