<svg width="60" height="60" viewBox="0 0 60 60" fill="none" xmlns="http://www.w3.org/2000/svg">
<path d="M43.3327 20.9521H38.8882V34.2855H33.3327V56.1902H26.666V34.2855H21.1105V20.9521H16.666V38.095H22.2216V59.9998H37.7771V38.095H43.3327V20.9521Z" fill="#0644BD"/>
<path d="M22.2227 6.66667C22.2227 10.3333 25.7227 13.3333 30.0004 13.3333C34.2782 13.3333 37.7782 10.3333 37.7782 6.66667C37.7782 3 34.2782 0 30.0004 0C25.7227 0 22.2227 3 22.2227 6.66667ZM33.3338 6.66667C33.3338 8.2381 31.8338 9.52381 30.0004 9.52381C28.1671 9.52381 26.6671 8.2381 26.6671 6.66667C26.6671 5.09524 28.1671 3.80952 30.0004 3.80952C31.8338 3.80952 33.3338 5.09524 33.3338 6.66667Z" fill="#0644BD"/>
<path d="M3.33398 11.4284C3.33398 15.0951 6.83398 18.0951 11.1118 18.0951C15.3895 18.0951 18.8895 15.0951 18.8895 11.4284C18.8895 7.76172 15.3895 4.76172 11.1118 4.76172C6.83398 4.76172 3.33398 7.76172 3.33398 11.4284ZM14.4451 11.4284C14.4451 12.9998 12.9451 14.2855 11.1118 14.2855C9.27843 14.2855 7.77843 12.9998 7.77843 11.4284C7.77843 9.85696 9.27843 8.57124 11.1118 8.57124C12.9451 8.57124 14.4451 9.85696 14.4451 11.4284Z" fill="#0644BD"/>
<path d="M55.5558 39.0477H50.0002V56.1905H41.1113V60H54.4447V42.8572H60.0002V23.8096H55.5558V39.0477Z" fill="#0644BD"/>
<path d="M41.1113 11.4284C41.1113 15.0951 44.6113 18.0951 48.8891 18.0951C53.1669 18.0951 56.6669 15.0951 56.6669 11.4284C56.6669 7.76172 53.1669 4.76172 48.8891 4.76172C44.6113 4.76172 41.1113 7.76172 41.1113 11.4284ZM48.8891 8.57124C50.7224 8.57124 52.2224 9.85696 52.2224 11.4284C52.2224 12.9998 50.7224 14.2855 48.8891 14.2855C47.0558 14.2855 45.5558 12.9998 45.5558 11.4284C45.5558 9.85696 47.0558 8.57124 48.8891 8.57124Z" fill="#0644BD"/>
<path d="M10 39.0477H4.44444V23.8096H0V42.8572H5.55556V60H18.8889V56.1905H10V39.0477Z" fill="#0644BD"/>
</svg>
