<svg width="60" height="50" viewBox="0 0 60 50" fill="none" xmlns="http://www.w3.org/2000/svg">
<path d="M33.868 36.6504C33.7873 36.6502 33.7074 36.6699 33.6328 36.7084C33.5582 36.7469 33.4905 36.8035 33.4334 36.8748C33.3764 36.9461 33.3311 37.0308 33.3003 37.124C33.2695 37.2172 33.2538 37.3171 33.2539 37.418V46.5996C33.2539 46.8032 33.3186 46.9984 33.4338 47.1424C33.5489 47.2863 33.7051 47.3672 33.868 47.3672C34.0308 47.3672 34.187 47.2863 34.3022 47.1424C34.4173 46.9984 34.482 46.8032 34.482 46.5996V37.4194C34.4823 37.3185 34.4667 37.2184 34.4359 37.125C34.4052 37.0316 34.36 36.9468 34.3029 36.8753C34.2459 36.8038 34.1781 36.7472 34.1034 36.7086C34.0288 36.67 33.9488 36.6502 33.868 36.6504Z" fill="#50C9C0"/>
<path d="M26.1746 36.6504C26.0939 36.6502 26.014 36.6699 25.9394 36.7084C25.8649 36.7469 25.7971 36.8035 25.7401 36.8748C25.683 36.9461 25.6378 37.0308 25.607 37.124C25.5762 37.2172 25.5604 37.3171 25.5605 37.418V46.5996C25.5605 46.8032 25.6252 46.9984 25.7404 47.1424C25.8556 47.2863 26.0118 47.3672 26.1746 47.3672C26.3375 47.3672 26.4937 47.2863 26.6088 47.1424C26.724 46.9984 26.7887 46.8032 26.7887 46.5996V37.4194C26.789 37.3185 26.7733 37.2184 26.7426 37.125C26.7118 37.0316 26.6666 36.9468 26.6096 36.8753C26.5525 36.8038 26.4847 36.7472 26.4101 36.7086C26.3354 36.67 26.2554 36.6502 26.1746 36.6504Z" fill="#50C9C0"/>
<path d="M46.741 30.2139C46.6603 30.2139 46.5803 30.2338 46.5058 30.2724C46.4312 30.3111 46.3634 30.3678 46.3064 30.4392C46.2494 30.5106 46.2042 30.5954 46.1734 30.6887C46.1426 30.782 46.1268 30.882 46.127 30.9829V38.3276C46.127 38.5312 46.1917 38.7264 46.3068 38.8704C46.422 39.0143 46.5782 39.0952 46.741 39.0952C46.9039 39.0952 47.0601 39.0143 47.1752 38.8704C47.2904 38.7264 47.3551 38.5312 47.3551 38.3276V30.9829C47.3552 30.882 47.3395 30.782 47.3087 30.6887C47.2779 30.5954 47.2327 30.5106 47.1756 30.4392C47.1186 30.3678 47.0509 30.3111 46.9763 30.2724C46.9017 30.2338 46.8218 30.2139 46.741 30.2139Z" fill="#50C9C0"/>
<path d="M40.5848 30.2139C40.504 30.2139 40.4241 30.2338 40.3495 30.2724C40.2749 30.3111 40.2072 30.3678 40.1501 30.4392C40.0931 30.5106 40.0479 30.5954 40.0171 30.6887C39.9863 30.782 39.9706 30.882 39.9707 30.9829V38.3276C39.9707 38.5312 40.0354 38.7264 40.1506 38.8704C40.2657 39.0143 40.4219 39.0952 40.5848 39.0952C40.7476 39.0952 40.9038 39.0143 41.019 38.8704C41.1341 38.7264 41.1988 38.5312 41.1988 38.3276V30.9829C41.199 30.882 41.1832 30.782 41.1524 30.6887C41.1216 30.5954 41.0764 30.5106 41.0194 30.4392C40.9624 30.3678 40.8946 30.3111 40.82 30.2724C40.7455 30.2338 40.6655 30.2139 40.5848 30.2139Z" fill="#50C9C0"/>
<path d="M19.4598 30.2139C19.379 30.2139 19.2991 30.2338 19.2245 30.2724C19.1499 30.3111 19.0822 30.3678 19.0251 30.4392C18.9681 30.5106 18.9229 30.5954 18.8921 30.6887C18.8613 30.782 18.8456 30.882 18.8457 30.9829V38.3276C18.8457 38.5312 18.9104 38.7264 19.0256 38.8704C19.1407 39.0143 19.2969 39.0952 19.4598 39.0952C19.6226 39.0952 19.7788 39.0143 19.894 38.8704C20.0091 38.7264 20.0738 38.5312 20.0738 38.3276V30.9829C20.074 30.882 20.0582 30.782 20.0274 30.6887C19.9966 30.5954 19.9514 30.5106 19.8944 30.4392C19.8374 30.3678 19.7696 30.3111 19.695 30.2724C19.6205 30.2338 19.5405 30.2139 19.4598 30.2139Z" fill="#50C9C0"/>
<path d="M13.3047 30.2139C13.1415 30.2139 12.985 30.2949 12.8697 30.4391C12.7543 30.5833 12.6895 30.7789 12.6895 30.9829V38.3276C12.6964 38.5256 12.7642 38.7126 12.8787 38.8496C12.9932 38.9866 13.1456 39.0631 13.3041 39.0631C13.4626 39.0631 13.615 38.9866 13.7295 38.8496C13.8441 38.7126 13.9118 38.5256 13.9187 38.3276V30.9829C13.9189 30.882 13.9031 30.782 13.8723 30.6887C13.8416 30.5954 13.7963 30.5106 13.7393 30.4392C13.6823 30.3678 13.6145 30.3111 13.54 30.2724C13.4654 30.2338 13.3854 30.2139 13.3047 30.2139Z" fill="#50C9C0"/>
<path d="M54.1203 11.772H54.0805C54.5538 11.0528 54.8141 10.1515 54.8176 9.22021C54.8014 8.14912 54.4496 7.12873 53.8379 6.37842C53.2261 5.62811 52.4033 5.20777 51.5463 5.20777C50.6893 5.20777 49.8664 5.62811 49.2547 6.37842C48.643 7.12873 48.2912 8.14912 48.275 9.22021C48.278 10.1513 48.5379 11.0526 49.0109 11.772H48.9723C48.2059 11.7727 47.4711 12.1535 46.9291 12.8308C46.3871 13.508 46.0822 14.4263 46.0812 15.3843V19.4404C45.5005 18.854 44.7951 18.4929 44.0522 18.4015C43.3092 18.3101 42.561 18.4926 41.9 18.9263V15.3843C41.8994 14.4267 41.5949 13.5086 41.0533 12.8314C40.5118 12.1541 39.7774 11.7731 39.0113 11.772H38.9703C39.4436 11.0528 39.704 10.1515 39.7074 9.22021C39.7074 8.13591 39.3628 7.09601 38.7495 6.32929C38.1361 5.56257 37.3042 5.13184 36.4367 5.13184C35.5693 5.13184 34.7374 5.56257 34.124 6.32929C33.5106 7.09601 33.166 8.13591 33.166 9.22021C33.169 10.1513 33.429 11.0526 33.902 11.772H33.868C33.1017 11.7727 32.367 12.1536 31.8252 12.8308C31.2834 13.5081 30.9787 14.4265 30.9781 15.3843V21.9761C30.6661 21.8971 30.3485 21.8573 30.0301 21.8574C29.2963 21.8642 28.5739 22.0855 27.9207 22.5034V15.3843C27.9201 14.4265 27.6154 13.5081 27.0736 12.8308C26.5318 12.1536 25.7971 11.7727 25.0309 11.772H24.991C25.464 11.0526 25.7239 10.1513 25.727 9.22021C25.727 8.13591 25.3824 7.09601 24.769 6.32929C24.1556 5.56257 23.3237 5.13184 22.4562 5.13184C21.5888 5.13184 20.7569 5.56257 20.1435 6.32929C19.5301 7.09601 19.1855 8.13591 19.1855 9.22021C19.189 10.1515 19.4493 11.0528 19.9227 11.772H19.8828C19.1165 11.7727 18.3817 12.1535 17.8397 12.8308C17.2977 13.508 16.9927 14.4263 16.9918 15.3843V18.4487C16.4518 18.3248 15.8965 18.3539 15.3668 18.5339C14.837 18.7139 14.3463 19.0402 13.9309 19.4888V15.3872C13.9299 14.4293 13.625 13.5109 13.083 12.8337C12.541 12.1565 11.8062 11.7757 11.0398 11.7749H11.0012C11.4742 11.0556 11.7341 10.1543 11.7371 9.22314C11.7209 8.15205 11.3691 7.13166 10.7574 6.38135C10.1457 5.63104 9.32285 5.2107 8.46582 5.2107C7.60879 5.2107 6.78597 5.63104 6.17425 6.38135C5.56253 7.13166 5.21075 8.15205 5.19453 9.22314C5.19797 10.1544 5.45831 11.0557 5.93164 11.7749H5.8918C5.12565 11.7761 4.39115 12.157 3.8494 12.8342C3.30765 13.5114 3.00288 14.4295 3.00195 15.3872V21.2466C3.00195 21.4502 3.06665 21.6454 3.18181 21.7893C3.29697 21.9333 3.45316 22.0142 3.61602 22.0142C3.77888 22.0142 3.93506 21.9333 4.05022 21.7893C4.16538 21.6454 4.23008 21.4502 4.23008 21.2466V15.3872C4.2307 14.8367 4.40601 14.309 4.71754 13.9198C5.02907 13.5307 5.45138 13.3119 5.8918 13.3115H11.0293C11.4699 13.3115 11.8925 13.5301 12.2043 13.9193C12.5161 14.3085 12.6916 14.8364 12.6922 15.3872V21.2466C12.6942 21.3298 12.7072 21.4119 12.7309 21.4897C12.4505 22.3587 12.3778 23.3107 12.5215 24.2303C12.6652 25.1499 13.0192 25.9977 13.5406 26.6709H13.1656C12.2484 26.6721 11.3691 27.128 10.7205 27.9387C10.0719 28.7494 9.70718 29.8486 9.70625 30.9951V38.3193C9.70625 38.4201 9.72213 38.5199 9.75299 38.6131C9.78385 38.7062 9.82908 38.7908 9.8861 38.8621C9.94313 38.9334 10.0108 38.9899 10.0853 39.0285C10.1598 39.0671 10.2397 39.0869 10.3203 39.0869C10.401 39.0869 10.4808 39.0671 10.5553 39.0285C10.6298 38.9899 10.6975 38.9334 10.7545 38.8621C10.8115 38.7908 10.8568 38.7062 10.8876 38.6131C10.9185 38.5199 10.9344 38.4201 10.9344 38.3193V30.9951C10.9359 30.2576 11.171 29.5508 11.5882 29.0292C12.0055 28.5077 12.5709 28.2138 13.1609 28.2119H19.5969C20.1874 28.2119 20.7537 28.5051 21.1713 29.0271C21.5889 29.549 21.8234 30.257 21.8234 30.9951V46.6016C21.8304 46.7995 21.8981 46.9865 22.0126 47.1235C22.1272 47.2606 22.2796 47.337 22.4381 47.337C22.5966 47.337 22.749 47.2606 22.8635 47.1235C22.978 46.9865 23.0458 46.7995 23.0527 46.6016V37.4375C23.054 36.463 23.3643 35.5288 23.9157 34.8399C24.4671 34.1509 25.2145 33.7634 25.9941 33.7622H34.0379C34.8175 33.7634 35.565 34.1509 36.1163 34.8399C36.6677 35.5288 36.9781 36.463 36.9793 37.4375V46.6016C36.9862 46.7995 37.054 46.9865 37.1685 47.1235C37.283 47.2606 37.4354 47.337 37.5939 47.337C37.7525 47.337 37.9049 47.2606 38.0194 47.1235C38.1339 46.9865 38.2017 46.7995 38.2086 46.6016V30.998C38.2086 30.2599 38.4432 29.552 38.8607 29.03C39.2783 28.5081 39.8446 28.2148 40.4352 28.2148H46.8711C47.4616 28.2148 48.028 28.5081 48.4455 29.03C48.8631 29.552 49.0977 30.2599 49.0977 30.998V38.3223C49.0977 38.5258 49.1624 38.7211 49.2775 38.865C49.3927 39.009 49.5489 39.0898 49.7117 39.0898C49.8746 39.0898 50.0308 39.009 50.1459 38.865C50.2611 38.7211 50.3258 38.5258 50.3258 38.3223V30.998C50.3249 29.8518 49.9602 28.7528 49.3119 27.9422C48.6636 27.1315 47.7846 26.6754 46.8676 26.6738H46.4926C47.023 25.9835 47.3797 25.1139 47.5186 24.1726C47.6576 23.2314 47.5726 22.2599 47.2742 21.3784C47.2838 21.3362 47.2904 21.2931 47.2941 21.2495V15.3901C47.2948 14.8394 47.4702 14.3114 47.782 13.9222C48.0938 13.533 48.5164 13.3145 48.957 13.3145H54.1051C54.324 13.3121 54.5412 13.3639 54.7441 13.4668C54.9471 13.5696 55.1317 13.7216 55.2875 13.9139C55.4433 14.1062 55.5672 14.3351 55.6521 14.5874C55.737 14.8398 55.7811 15.1106 55.782 15.3843V21.2437C55.782 21.4472 55.8467 21.6425 55.9619 21.7864C56.077 21.9304 56.2332 22.0112 56.3961 22.0112C56.559 22.0112 56.7151 21.9304 56.8303 21.7864C56.9455 21.6425 57.0102 21.4472 57.0102 21.2437V15.3843C57.0092 14.4266 56.7045 13.5085 56.1627 12.8313C55.621 12.1541 54.8865 11.7731 54.1203 11.772ZM6.41328 9.22021C6.41305 8.71517 6.53265 8.22139 6.75695 7.80132C6.98125 7.38125 7.30017 7.05377 7.67339 6.8603C8.0466 6.66683 8.45733 6.61606 8.85363 6.71441C9.24993 6.81276 9.61399 7.05581 9.89977 7.41283C10.1855 7.76985 10.3802 8.22478 10.4591 8.7201C10.538 9.21542 10.4976 9.72886 10.3431 10.1955C10.1885 10.6621 9.9267 11.061 9.59078 11.3416C9.25485 11.6222 8.85989 11.772 8.45586 11.772C7.91453 11.7712 7.39553 11.5022 7.01264 11.0238C6.62975 10.5455 6.41421 9.89688 6.41328 9.22021ZM34.3941 9.22021C34.3939 8.71517 34.5135 8.22139 34.7378 7.80132C34.9621 7.38125 35.281 7.05377 35.6542 6.8603C36.0275 6.66683 36.4382 6.61606 36.8345 6.71441C37.2308 6.81276 37.5948 7.05581 37.8806 7.41283C38.1664 7.76985 38.3611 8.22478 38.44 8.7201C38.5189 9.21542 38.4785 9.72886 38.3239 10.1955C38.1694 10.6621 37.9076 11.061 37.5716 11.3416C37.2357 11.6222 36.8408 11.772 36.4367 11.772C35.8955 11.7708 35.3767 11.5016 34.9938 11.0234C34.611 10.5451 34.3954 9.89676 34.3941 9.22021ZM33.5609 27.8061C33.5609 28.6805 33.3535 29.5353 32.9649 30.2623C32.5763 30.9893 32.0239 31.5559 31.3777 31.8905C30.7314 32.2251 30.0203 32.3127 29.3342 32.1421C28.6482 31.9715 28.018 31.5505 27.5234 30.9322C27.0288 30.3139 26.6919 29.5262 26.5555 28.6686C26.419 27.8111 26.489 26.9222 26.7567 26.1143C27.0244 25.3065 27.4777 24.6161 28.0593 24.1303C28.6409 23.6445 29.3247 23.3853 30.0242 23.3853C30.9619 23.3864 31.861 23.8526 32.524 24.6814C33.1871 25.5102 33.56 26.634 33.5609 27.8061ZM20.4043 9.22021C20.4043 8.71552 20.524 8.22217 20.7483 7.80253C20.9726 7.3829 21.2915 7.05583 21.6645 6.8627C22.0375 6.66956 22.448 6.61903 22.844 6.71749C23.24 6.81595 23.6037 7.05898 23.8892 7.41585C24.1747 7.77272 24.3691 8.2274 24.4479 8.72239C24.5267 9.21738 24.4862 9.73046 24.3317 10.1967C24.1772 10.663 23.9156 11.0615 23.5798 11.3419C23.2441 11.6223 22.8495 11.772 22.4457 11.772C21.9046 11.7708 21.3859 11.5016 21.0032 11.0233C20.6206 10.545 20.4052 9.89663 20.4043 9.22021ZM13.6777 23.2915C13.6777 22.6225 13.8364 21.9686 14.1338 21.4124C14.4311 20.8562 14.8537 20.4226 15.3481 20.1666C15.8425 19.9106 16.3866 19.8437 16.9115 19.9742C17.4364 20.1047 17.9185 20.4268 18.2969 20.8998C18.6753 21.3729 18.9331 21.9755 19.0375 22.6316C19.1419 23.2877 19.0883 23.9678 18.8835 24.5859C18.6787 25.2039 18.3319 25.7321 17.8869 26.1038C17.4419 26.4755 16.9188 26.6738 16.3836 26.6738C15.6662 26.6727 14.9785 26.3159 14.4713 25.6819C13.964 25.0478 13.6787 24.1882 13.6777 23.2915ZM26.0023 32.227C25.4561 32.2269 24.9152 32.3612 24.4105 32.6223C23.9058 32.8835 23.4472 33.2663 23.0609 33.749V30.998C23.06 29.8515 22.6952 28.7523 22.0467 27.9416C21.3981 27.1309 20.5188 26.675 19.6016 26.6738H19.2266C19.6482 26.1273 19.9618 25.4653 20.1425 24.7404C20.3232 24.0156 20.3659 23.248 20.2672 22.4989C20.1685 21.7497 19.9312 21.0398 19.5741 20.4256C19.217 19.8115 18.7501 19.3101 18.2105 18.9614V15.3843C18.2112 14.8338 18.3865 14.306 18.698 13.9169C19.0095 13.5277 19.4318 13.309 19.8723 13.3086H25.0203C25.4606 13.309 25.8828 13.5278 26.1942 13.917C26.5055 14.3062 26.6805 14.8339 26.6809 15.3843V23.2944C26.6834 23.3761 26.6965 23.4567 26.7195 23.5332C26.2464 24.098 25.8724 24.7796 25.6212 25.5347C25.37 26.2898 25.2471 27.1019 25.2603 27.9195C25.2735 28.7371 25.4226 29.5424 25.698 30.2842C25.9734 31.0259 26.3692 31.6881 26.8602 32.2285L26.0023 32.227ZM36.9875 30.9995V33.749C36.6012 33.2663 36.1426 32.8835 35.6379 32.6223C35.1332 32.3612 34.5923 32.2269 34.0461 32.227H33.1883C33.7672 31.5905 34.2124 30.7862 34.485 29.8847C34.7575 28.9831 34.849 28.0118 34.7515 27.0557C34.654 26.0997 34.3705 25.1881 33.9257 24.4009C33.481 23.6136 32.8886 22.9747 32.2004 22.54V15.3843C32.2007 15.1111 32.2441 14.8406 32.3281 14.5884C32.4121 14.3361 32.535 14.1071 32.6899 13.9143C32.8448 13.7215 33.0286 13.5688 33.2307 13.4649C33.4328 13.3609 33.6494 13.3078 33.868 13.3086H39.0172C39.4575 13.309 39.8797 13.5278 40.191 13.917C40.5024 14.3062 40.6774 14.8339 40.6777 15.3843V20.1362C40.045 21.0525 39.7095 22.2315 39.7373 23.4414C39.7651 24.6513 40.1541 25.8044 40.8277 26.6738H40.4527C39.5345 26.6731 38.6537 27.1282 38.0038 27.9391C37.354 28.75 36.9884 29.8503 36.9875 30.998V30.9995ZM40.959 23.293C40.959 22.624 41.1177 21.9701 41.415 21.4138C41.7123 20.8576 42.1349 20.4241 42.6294 20.1681C43.1238 19.9121 43.6678 19.8451 44.1927 19.9756C44.7176 20.1061 45.1998 20.4283 45.5782 20.9013C45.9566 21.3743 46.2143 21.977 46.3187 22.6331C46.4231 23.2892 46.3695 23.9693 46.1647 24.5873C45.9599 25.2054 45.6131 25.7336 45.1681 26.1053C44.7232 26.4769 44.2 26.6753 43.6648 26.6753C42.9473 26.6741 42.2594 26.3172 41.7521 25.6828C41.2448 25.0485 40.9596 24.1884 40.959 23.2915V23.293ZM49.5031 9.22168C49.5029 8.71664 49.6225 8.22285 49.8468 7.80279C50.0711 7.38272 50.39 7.05524 50.7632 6.86176C51.1364 6.66829 51.5472 6.61752 51.9435 6.71587C52.3398 6.81422 52.7038 7.05728 52.9896 7.41429C53.2754 7.77131 53.47 8.22625 53.5489 8.72157C53.6279 9.21688 53.5875 9.73033 53.4329 10.197C53.2783 10.6636 53.0165 11.0624 52.6806 11.343C52.3447 11.6237 51.9497 11.7734 51.5457 11.7734C51.0043 11.7723 50.4853 11.5029 50.1024 11.0243C49.7196 10.5458 49.5041 9.89701 49.5031 9.22021V9.22168Z" fill="#50C9C0"/>
</svg>
