<svg width="19" height="18" viewBox="0 0 19 18" fill="none" xmlns="http://www.w3.org/2000/svg">
<path d="M9.75391 0C4.80391 0 0.753906 4.05 0.753906 9C0.753906 13.95 4.80391 18 9.75391 18C14.7039 18 18.7539 13.95 18.7539 9C18.7539 4.05 14.7039 0 9.75391 0ZM13.5339 7.47L9.21391 11.79C8.85391 12.15 8.31391 12.15 7.95391 11.79L5.97391 9.81C5.61391 9.45 5.61391 8.91 5.97391 8.55C6.33391 8.19 6.87391 8.19 7.23391 8.55L8.58391 9.9L12.2739 6.21C12.6339 5.85 13.1739 5.85 13.5339 6.21C13.8939 6.57 13.8939 7.11 13.5339 7.47Z" fill="#0077B6"/>
</svg>
