<svg width="26" height="25" viewBox="0 0 26 25" fill="none" xmlns="http://www.w3.org/2000/svg">
<g clip-path="url(#clip0_502_3576)">
<path d="M13 25C19.9036 25 25.5 19.4036 25.5 12.5C25.5 5.59644 19.9036 0 13 0C6.09644 0 0.5 5.59644 0.5 12.5C0.5 19.4036 6.09644 25 13 25Z" fill="#3B5998"/>
<path d="M16.1428 12.9896H13.9124V21.161H10.533V12.9896H8.92578V10.1178H10.533V8.25949C10.533 6.93057 11.1643 4.84961 13.9424 4.84961L16.4457 4.86008V7.64761H14.6294C14.3315 7.64761 13.9126 7.79646 13.9126 8.4304V10.1205H16.4381L16.1428 12.9896Z" fill="white"/>
</g>
<defs>
<clipPath id="clip0_502_3576">
<rect width="25" height="25" fill="white" transform="translate(0.5)"/>
</clipPath>
</defs>
</svg>
