<svg width="376" height="333" viewBox="0 0 376 333" fill="none" xmlns="http://www.w3.org/2000/svg">
<path d="M216.112 83.0103L171.905 188.387L203.832 178.585L230.848 111.192L251.723 157.754L273.827 143.051L248.039 83.0103H216.112Z" fill="#76AF28"/>
<path d="M165.765 201.865C211.2 198.19 337.681 119.945 357.328 79.3343C340.137 114.868 320.258 147.906 288.562 177.007L315.949 238.573L298.432 260.318L266.459 194.965C248.539 207.939 225.999 221.041 196.465 234.949H152.258L165.765 201.865Z" fill="#76AF28"/>
<path d="M367.152 63.4053L331.541 75.6584L357.328 78.109L375.748 98.9393L367.152 63.4053Z" fill="#76AF28"/>
<rect x="189.125" y="111.718" width="140.766" height="28.9702" transform="rotate(-179.989 189.125 111.718)" fill="#03445E"/>
<rect x="109.969" y="234.948" width="136.51" height="30.2013" transform="rotate(-90 109.969 234.948)" fill="#03445E"/>
<path d="M71.6328 24.7461L65.1129 64.7799L105.147 71.2998L71.6328 24.7461Z" fill="#76AF28"/>
<path fill-rule="evenodd" clip-rule="evenodd" d="M322.272 156.709C322.272 189.76 310.197 220.115 290.115 243.631L300.547 264.497C327.49 236.409 344.017 198.466 344.017 156.709C344.017 143.314 342.316 130.311 339.117 117.9L321.614 143.403C322.05 147.782 322.272 152.22 322.272 156.709ZM316.804 118.835L326.784 110.518L334.795 103.921C312.868 43.3438 254.275 0 185.437 0C137.414 0 94.3774 21.0942 65.2969 54.4178L79.0013 41.2576L94.1714 56.1459C118.35 34.7722 150.305 21.745 185.437 21.745C247.847 21.745 300.23 62.8544 316.804 118.835Z" fill="#76AF28"/>
<path fill-rule="evenodd" clip-rule="evenodd" d="M29.2216 136.347C32.0823 116.383 38.7568 98.5119 48.3325 83.0528L64.6147 98.3797C57.7176 110.546 52.9133 124.311 50.7467 139.431L50.6625 140.019L50.5464 140.601C36.8778 209.121 81.3439 275.748 149.864 289.417C184.795 296.385 219.233 288.245 246.414 269.512L262.557 284.708C230.147 308.573 188.191 319.236 145.61 310.742C65.3126 294.724 13.2036 216.645 29.2216 136.347Z" fill="#03445E"/>
<path d="M271.641 300.362L273.695 259.853L233.186 257.799L271.641 300.362Z" fill="#03445E"/>
</svg>
