<svg width="312" height="275" viewBox="0 0 312 275" fill="none" xmlns="http://www.w3.org/2000/svg">
<path d="M178.865 68.7129L142.272 155.942L168.7 147.827L191.063 92.0415L208.343 130.584L226.64 118.413L205.294 68.7129H178.865Z" fill="#52AA32"/>
<path d="M137.189 167.099C174.799 164.056 279.497 99.2864 295.761 65.6701C281.53 95.0844 265.075 122.432 238.837 146.521L261.508 197.484L247.008 215.484L220.541 161.387C205.707 172.126 187.049 182.972 162.601 194.484H126.008L137.189 167.099Z" fill="#52AA32"/>
<path d="M303.892 52.4844L274.414 62.6272L295.761 64.6558L311.008 81.8987L303.892 52.4844Z" fill="#52AA32"/>
<rect x="156.531" y="92.4766" width="116.523" height="23.9809" transform="rotate(-179.989 156.531 92.4766)" fill="#FE1C04"/>
<rect x="91.0078" y="194.484" width="113" height="25" transform="rotate(-90 91.0078 194.484)" fill="#FE1C04"/>
<path d="M59.2734 20.4844L53.8764 53.6235L87.0155 59.0205L59.2734 20.4844Z" fill="#52AA32"/>
<path fill-rule="evenodd" clip-rule="evenodd" d="M266.773 129.72C266.773 157.081 256.776 182.208 240.151 201.675L248.787 218.948C271.091 195.696 284.773 164.287 284.773 129.72C284.773 118.632 283.365 107.869 280.716 97.5951L266.228 118.706C266.588 122.331 266.773 126.005 266.773 129.72ZM262.246 98.369L270.508 91.4844L277.139 86.0235C258.989 35.8792 210.486 0 153.504 0C113.765 0 78.15 17.4498 54.0781 45.0185L65.3942 34.1517L77.9539 46.4781C97.9685 28.7843 124.421 18 153.504 18C205.165 18 248.527 52.0296 262.246 98.369Z" fill="#52AA32"/>
<path fill-rule="evenodd" clip-rule="evenodd" d="M24.1882 112.866C26.5563 96.34 32.0814 81.5465 40.0082 68.7496L53.4863 81.4369C47.7768 91.5082 43.7997 102.903 42.0062 115.419L41.9365 115.906L41.8404 116.387C30.5258 173.107 67.3338 228.26 124.053 239.574C152.968 245.342 181.476 238.604 203.976 223.097L217.339 235.675C190.511 255.431 155.78 264.258 120.532 257.226C54.0635 243.967 10.9288 179.335 24.1882 112.866Z" fill="#FE1C04"/>
<path d="M224.836 248.633L226.537 215.1L193.004 213.4L224.836 248.633Z" fill="#FE1C04"/>
</svg>
