<svg width="144" height="110" viewBox="0 0 144 110" fill="none" xmlns="http://www.w3.org/2000/svg">
<path d="M12.9438 101.103C4.85393 92.2059 0 82.5 0 66.3235C0 38.0147 20.2247 12.9412 48.5393 0L55.8202 10.5147C29.1236 25.0735 23.4607 43.6765 21.8427 55.8088C25.8876 53.3824 31.5506 52.5735 37.2135 53.3824C51.7753 55 63.1011 66.3235 63.1011 81.6912C63.1011 88.9706 59.8652 96.25 55.0112 101.912C49.3483 107.574 42.8764 110 34.7865 110C25.8876 110 17.7978 105.956 12.9438 101.103ZM93.8427 101.103C85.7528 92.2059 80.8989 82.5 80.8989 66.3235C80.8989 38.0147 101.124 12.9412 129.438 0L136.719 10.5147C110.022 25.0735 104.36 43.6765 102.742 55.8088C106.787 53.3824 112.449 52.5735 118.112 53.3824C132.674 55 144 66.3235 144 81.6912C144 88.9706 140.764 96.25 135.91 101.912C131.056 107.574 123.775 110 115.685 110C106.787 110 98.6966 105.956 93.8427 101.103Z" fill="#52AA32"/>
</svg>
