<svg width="26" height="25" viewBox="0 0 26 25" fill="none" xmlns="http://www.w3.org/2000/svg">
<path d="M13.002 23.4863C19.0695 23.4863 23.9883 18.5676 23.9883 12.5C23.9883 6.43242 19.0695 1.51367 13.002 1.51367C6.93437 1.51367 2.01562 6.43242 2.01562 12.5C2.01562 18.5676 6.93437 23.4863 13.002 23.4863Z" fill="url(#paint0_linear_502_3569)"/>
<path d="M15.335 6.39648H10.6719C8.5918 6.39648 6.90234 8.08594 6.90234 10.166V14.8291C6.90234 16.9092 8.5918 18.5986 10.6719 18.5986H15.335C17.415 18.5986 19.1045 16.9092 19.1045 14.8291V10.166C19.1045 8.08594 17.415 6.39648 15.335 6.39648ZM17.7422 14.834C17.7422 16.1621 16.6631 17.2461 15.3301 17.2461H10.667C9.33887 17.2461 8.25488 16.167 8.25488 14.834V10.1709C8.25488 8.84277 9.33398 7.75879 10.667 7.75879H15.3301C16.6582 7.75879 17.7422 8.83789 17.7422 10.1709V14.834Z" fill="white"/>
<path d="M12.999 9.38086C11.2803 9.38086 9.87891 10.7822 9.87891 12.501C9.87891 14.2197 11.2803 15.6211 12.999 15.6211C14.7178 15.6211 16.1191 14.2197 16.1191 12.501C16.1191 10.7822 14.7178 9.38086 12.999 9.38086ZM12.999 14.3955C11.9541 14.3955 11.1045 13.5459 11.1045 12.501C11.1045 11.4561 11.9541 10.6064 12.999 10.6064C14.0439 10.6064 14.8936 11.4561 14.8936 12.501C14.8936 13.5459 14.0439 14.3955 12.999 14.3955Z" fill="white"/>
<path d="M16.3572 9.72223C16.6447 9.67563 16.8399 9.40482 16.7933 9.11736C16.7467 8.8299 16.4759 8.63465 16.1885 8.68125C15.901 8.72785 15.7057 8.99865 15.7523 9.28611C15.7989 9.57357 16.0698 9.76882 16.3572 9.72223Z" fill="white"/>
<defs>
<linearGradient id="paint0_linear_502_3569" x1="4.63667" y1="20.8653" x2="20.2495" y2="5.25249" gradientUnits="userSpaceOnUse">
<stop stop-color="#FEE411"/>
<stop offset="0.0518459" stop-color="#FEDB16"/>
<stop offset="0.1381" stop-color="#FEC125"/>
<stop offset="0.2481" stop-color="#FE983D"/>
<stop offset="0.3762" stop-color="#FE5F5E"/>
<stop offset="0.5" stop-color="#FE2181"/>
<stop offset="1" stop-color="#9000DC"/>
</linearGradient>
</defs>
</svg>
