<svg width="1917" height="758" viewBox="0 0 1917 758" fill="none" xmlns="http://www.w3.org/2000/svg">
<g opacity="0.91" clip-path="url(#clip0_357_5473)">
<path d="M2.77687 292.977H-14.5312L-14.5312 326.34H2.77687L2.77687 292.977Z" fill="#EBF7FF"/>
<path d="M48.4097 296.352H31.1016L31.1016 382.534H48.4097L48.4097 296.352Z" fill="#428828" fill-opacity="0.3"/>
<path d="M41.0449 255.547H38.4883L38.4883 296.35H41.0449L41.0449 255.547Z" fill="#428828" fill-opacity="0.3"/>
<path d="M41.0449 382.531H38.4883L38.4883 423.334H41.0449L41.0449 382.531Z" fill="#428828" fill-opacity="0.3"/>
<path d="M96.9097 286.328H79.6016V311.332H96.9097V286.328Z" fill="#428828" fill-opacity="0.3"/>
<path d="M89.5214 245.547H86.9648V286.35H89.5214V245.547Z" fill="#428828" fill-opacity="0.3"/>
<path d="M89.5214 311.328H86.9648V352.131H89.5214V311.328Z" fill="#428828" fill-opacity="0.3"/>
<path d="M139.734 321.688H122.426L122.426 434.152H139.734L139.734 321.688Z" fill="#FFB2A4"/>
<path d="M132.346 280.883H129.789V321.686H132.346V280.883Z" fill="#FFB2A4"/>
<path d="M132.346 434.148H129.789V474.952H132.346V434.148Z" fill="#FFB2A4"/>
<path d="M185.367 367.141H168.059V409.248H185.367V367.141Z" fill="#428828" fill-opacity="0.3"/>
<path d="M178.002 326.336H175.445V367.139H178.002V326.336Z" fill="#428828" fill-opacity="0.3"/>
<path d="M178.002 409.219H175.445V450.022H178.002V409.219Z" fill="#428828" fill-opacity="0.3"/>
<path d="M233.226 316.547H215.918V396.44H233.226V316.547Z" fill="#A5DF55" fill-opacity="0.62"/>
<path d="M225.838 275.766H223.281V316.569H225.838V275.766Z" fill="#A5DF55" fill-opacity="0.62"/>
<path d="M225.838 396.461H223.281V437.264H225.838V396.461Z" fill="#A5DF55" fill-opacity="0.62"/>
<path d="M276.691 191.711H259.383V291.98H276.691V191.711Z" fill="#FE2A04" fill-opacity="0.4"/>
<path d="M269.303 150.906H266.746V191.709H269.303V150.906Z" fill="#FFB9AC"/>
<path d="M269.303 291.977H266.746V332.78H269.303V291.977Z" fill="#CCED9F"/>
<path d="M322.351 226.836H305.043V251.763H322.351V226.836Z" fill="#CCED9F"/>
<path d="M314.963 186.031H312.406V226.834H314.963V186.031Z" fill="#CCED9F"/>
<path d="M314.963 251.758H312.406V292.561H314.963V251.758Z" fill="#CCED9F"/>
<path d="M367.988 186.039H350.68V286.59H367.988V186.039Z" fill="#FE2A04" fill-opacity="0.4"/>
<path d="M360.623 145.258H358.066V186.061H360.623V145.258Z" fill="#FFB9AC"/>
<path d="M360.623 286.586H358.066V327.389H360.623V286.586Z" fill="#CCED9F"/>
<path d="M413.644 173.484H396.336V266.186H413.644V173.484Z" fill="#CCED9F"/>
<path d="M406.256 132.68H403.699V173.483H406.256V132.68Z" fill="#CCED9F"/>
<path d="M406.256 266.188H403.699V306.991H406.256V266.188Z" fill="#CCED9F"/>
<path d="M459.308 122.094H442V147.839H459.308V122.094Z" fill="#CCED9F"/>
<path d="M451.92 81.2891H449.363V122.092H451.92V81.2891Z" fill="#CCED9F"/>
<path d="M451.92 147.836H449.363V188.639H451.92V147.836Z" fill="#CCED9F"/>
<path d="M504.941 253.375H487.633V312.867H504.941V253.375Z" fill="#FE2A04" fill-opacity="0.4"/>
<path d="M497.576 212.57H495.02V253.373H497.576V212.57Z" fill="#FFB9AC"/>
<path d="M497.576 312.867H495.02V353.67H497.576V312.867Z" fill="#CCED9F"/>
<path d="M550.605 231.57H533.297V255.551H550.605V231.57Z" fill="#FE2A04" fill-opacity="0.4"/>
<path d="M543.217 190.766H540.66V231.569H543.217V190.766Z" fill="#FFB9AC"/>
<path d="M543.217 255.547H540.66V296.35H543.217V255.547Z" fill="#CCED9F"/>
<path d="M596.261 408.742H578.953V497.558H596.261V408.742Z" fill="#CCED9F"/>
<path d="M588.873 367.961H586.316V408.764H588.873V367.961Z" fill="#CCED9F"/>
<path d="M588.873 497.555H586.316V538.358H588.873V497.555Z" fill="#CCED9F"/>
<path d="M641.925 398.305H624.617V418.067H641.925V398.305Z" fill="#CCED9F"/>
<path d="M634.537 357.5H631.98V398.303H634.537V357.5Z" fill="#CCED9F"/>
<path d="M634.537 418.062H631.98V458.866H634.537V418.062Z" fill="#CCED9F"/>
<path d="M687.558 349.914H670.25V380.568H687.558V349.914Z" fill="#CCED9F"/>
<path d="M680.193 309.109H677.637V349.913H680.193V309.109Z" fill="#CCED9F"/>
<path d="M680.193 380.562H677.637V421.366H680.193V380.562Z" fill="#CCED9F"/>
<path d="M733.222 390.617H715.914V421.347H733.222V390.617Z" fill="#CCED9F"/>
<path d="M725.834 349.836H723.277V390.639H725.834V349.836Z" fill="#CCED9F"/>
<path d="M725.834 421.344H723.277V462.147H725.834V421.344Z" fill="#CCED9F"/>
<path d="M778.628 397.289H761.32V486.105H778.628V397.289Z" fill="#CCED9F"/>
<path d="M771.24 356.484H768.684V397.288H771.24V356.484Z" fill="#CCED9F"/>
<path d="M771.24 486.102H768.684V526.905H771.24V486.102Z" fill="#CCED9F"/>
<path d="M824.519 478.914H807.211V518.004H824.519V478.914Z" fill="#CCED9F"/>
<path d="M817.154 438.109H814.598V478.913H817.154V438.109Z" fill="#CCED9F"/>
<path d="M817.154 518H814.598V558.803H817.154V518Z" fill="#CCED9F"/>
<path d="M870.175 527.234H852.867V560.751H870.175V527.234Z" fill="#CCED9F"/>
<path d="M862.787 486.43H860.23V527.233H862.787V486.43Z" fill="#CCED9F"/>
<path d="M862.787 560.75H860.23V601.553H862.787V560.75Z" fill="#CCED9F"/>
<path d="M915.839 474.625H898.531V622.498H915.839V474.625Z" fill="#CCED9F"/>
<path d="M908.451 433.844H905.895V474.647H908.451V433.844Z" fill="#CCED9F"/>
<path d="M908.451 622.523H905.895V663.327H908.451V622.523Z" fill="#CCED9F"/>
<path d="M962.417 583.945H945.109V643.437H962.417V583.945Z" fill="#CCED9F"/>
<path d="M955.029 543.141H952.473V583.944H955.029V543.141Z" fill="#CCED9F"/>
<path d="M955.029 643.406H952.473V684.209H955.029V643.406Z" fill="#CCED9F"/>
<path d="M1007.14 502.18H989.828V590.101H1007.14V502.18Z" fill="#CCED9F"/>
<path d="M999.771 461.375H997.215V502.178H999.771V461.375Z" fill="#CCED9F"/>
<path d="M999.771 590.102H997.215V630.905H999.771V590.102Z" fill="#CCED9F"/>
<path d="M1052.79 470.25H1035.48V582.893H1052.79V470.25Z" fill="#CCED9F"/>
<path d="M1045.4 429.469H1042.85V470.272H1045.4V429.469Z" fill="#CCED9F"/>
<path d="M1045.4 582.891H1042.85V623.694H1045.4V582.891Z" fill="#CCED9F"/>
<path d="M1098.69 453.531H1081.38V485.259H1098.69V453.531Z" fill="#CCED9F"/>
<path d="M1091.3 412.75H1088.74V453.553H1091.3V412.75Z" fill="#CCED9F"/>
<path d="M1091.3 485.258H1088.74V526.061H1091.3V485.258Z" fill="#CCED9F"/>
<path d="M1144.09 445.047H1126.78V542.836H1144.09V445.047Z" fill="#CCED9F"/>
<path d="M1136.72 404.266H1134.17V445.069H1136.72V404.266Z" fill="#CCED9F"/>
<path d="M1136.72 542.859H1134.17V583.663H1136.72V542.859Z" fill="#CCED9F"/>
<path d="M1189.75 369.242H1172.45V464.45H1189.75V369.242Z" fill="#CCED9F"/>
<path d="M1182.37 328.461H1179.81V369.264H1182.37V328.461Z" fill="#CCED9F"/>
<path d="M1182.37 464.445H1179.81V505.248H1182.37V464.445Z" fill="#CCED9F"/>
<path d="M1235.41 435.945H1218.11V469.13H1235.41V435.945Z" fill="#CCED9F"/>
<path d="M1228.03 395.164H1225.47V435.967H1228.03V395.164Z" fill="#CCED9F"/>
<path d="M1228.03 469.125H1225.47V509.928H1228.03V469.125Z" fill="#CCED9F"/>
<path d="M1281.07 467.641H1263.77V495.942H1281.07V467.641Z" fill="#CCED9F"/>
<path d="M1273.69 426.836H1271.13V467.639H1273.69V426.836Z" fill="#CCED9F"/>
<path d="M1273.69 495.938H1271.13V536.741H1273.69V495.938Z" fill="#CCED9F"/>
<path d="M1326.71 361.266H1309.4V503.182H1326.71V361.266Z" fill="#CCED9F"/>
<path d="M1319.35 320.461H1316.79V361.264H1319.35V320.461Z" fill="#CCED9F"/>
<path d="M1319.35 503.18H1316.79V543.983H1319.35V503.18Z" fill="#CCED9F"/>
<path d="M1373.72 432.562H1356.41V457.515H1373.72V432.562Z" fill="#CCED9F"/>
<path d="M1366.33 391.758H1363.78V432.561H1366.33V391.758Z" fill="#CCED9F"/>
<path d="M1366.33 457.516H1363.78V498.319H1366.33V457.516Z" fill="#CCED9F"/>
<path d="M1418.16 396.445H1400.85V421.423H1418.16V396.445Z" fill="#CCED9F"/>
<path d="M1410.77 355.641H1408.21V396.444H1410.77V355.641Z" fill="#CCED9F"/>
<path d="M1410.77 421.398H1408.21V462.202H1410.77V421.398Z" fill="#CCED9F"/>
<path d="M1463.66 301.289H1446.36V453.151H1463.66V301.289Z" fill="#CCED9F"/>
<path d="M1456.3 260.484H1453.74V301.288H1456.3V260.484Z" fill="#CCED9F"/>
<path d="M1456.3 453.148H1453.74V493.952H1456.3V453.148Z" fill="#CCED9F"/>
<path d="M1509.32 371.156H1492.02V411.397H1509.32V371.156Z" fill="#CCED9F"/>
<path d="M1501.94 330.352H1499.38V371.155H1501.94V330.352Z" fill="#CCED9F"/>
<path d="M1501.94 411.398H1499.38V452.202H1501.94V411.398Z" fill="#CCED9F"/>
<path d="M1554.98 421.781H1537.68V467.442H1554.98V421.781Z" fill="#CCED9F"/>
<path d="M1547.6 380.977H1545.04V421.78H1547.6V380.977Z" fill="#CCED9F"/>
<path d="M1547.6 467.438H1545.04V508.241H1547.6V467.438Z" fill="#CCED9F"/>
<path d="M1600.72 405.977H1583.41V538.612H1600.72V405.977Z" fill="#CCED9F"/>
<path d="M1593.33 365.172H1590.78V405.975H1593.33V365.172Z" fill="#CCED9F"/>
<path d="M1593.33 538.609H1590.78V579.413H1593.33V538.609Z" fill="#CCED9F"/>
<path d="M1646.28 316.219H1628.97V348.841H1646.28V316.219Z" fill="#CCED9F"/>
<path d="M1638.92 275.414H1636.36V316.217H1638.92V275.414Z" fill="#CCED9F"/>
<path d="M1638.92 348.836H1636.36V389.639H1638.92V348.836Z" fill="#CCED9F"/>
<path d="M1691.94 284.055H1674.63V349.631H1691.94V284.055Z" fill="#FFB2A4"/>
<path d="M1684.55 243.25H1682V284.053H1684.55V243.25Z" fill="#FFB9AC"/>
<path d="M1684.55 349.633H1682V390.436H1684.55V349.633Z" fill="#FFB9AC"/>
<path d="M1737.61 247.93H1720.3V278.711H1737.61V247.93Z" fill="#428828" fill-opacity="0.3"/>
<path d="M1730.22 207.125H1727.66V247.928H1730.22V207.125Z" fill="#428828" fill-opacity="0.3"/>
<path d="M1730.22 278.711H1727.66V319.514H1730.22V278.711Z" fill="#428828" fill-opacity="0.3"/>
<path d="M1783.24 259H1765.93V293.207H1783.24V259Z" fill="#FFB2A4"/>
<path d="M1775.87 218.195H1773.32V258.999H1775.87V218.195Z" fill="#FFB9AC"/>
<path d="M1775.87 293.203H1773.32V334.006H1775.87V293.203Z" fill="#FFB9AC"/>
<path d="M1828.9 136.336H1811.59V259.768H1828.9V136.336Z" fill="#428828" fill-opacity="0.3"/>
<path d="M1821.51 95.5547H1818.96V136.358H1821.51V95.5547Z" fill="#428828" fill-opacity="0.3"/>
<path d="M1821.51 259.766H1818.96V300.569H1821.51V259.766Z" fill="#428828" fill-opacity="0.3"/>
<path d="M1874.56 200.297H1857.25V318.718H1874.56V200.297Z" fill="#FFB2A4"/>
<path d="M1867.17 159.492H1864.61V200.295H1867.17V159.492Z" fill="#FFB9AC"/>
<path d="M1867.17 318.719H1864.61V359.522H1867.17V318.719Z" fill="#FFB9AC"/>
</g>
<defs>
<clipPath id="clip0_357_5473">
<rect width="1917" height="758" fill="white"/>
</clipPath>
</defs>
</svg>
