<svg width="60" height="60" viewBox="0 0 60 60" fill="none" xmlns="http://www.w3.org/2000/svg">
<g clip-path="url(#clip0_451_124)">
<path d="M25.103 50.4274C24.8426 49.1232 24.3055 47.8899 23.5279 46.8109C22.7503 45.7318 21.7504 44.8321 20.5955 44.1724C19.4853 43.5418 18.2975 43.0589 17.0621 42.7362C18.1633 41.9093 18.9765 40.7571 19.3866 39.4425C19.7966 38.1279 19.7828 36.7176 19.347 35.4114C18.9111 34.1051 18.0755 32.969 16.9582 32.164C15.841 31.359 14.4988 30.9258 13.1218 30.9258C11.7447 30.9258 10.4026 31.359 9.28533 32.164C8.1681 32.969 7.33241 34.1051 6.8966 35.4114C6.46079 36.7176 6.44693 38.1279 6.857 39.4425C7.26706 40.7571 8.08027 41.9093 9.18147 42.7362C7.94707 43.0591 6.76016 43.542 5.65084 44.1724C4.49612 44.8321 3.49626 45.7317 2.7187 46.8105C1.94114 47.8894 1.40394 49.1224 1.14334 50.4265L0.0183416 56.0637C-0.0252 56.2806 0.00935492 56.5059 0.115896 56.6997C0.222437 56.8936 0.3941 57.0435 0.600529 57.123C8.66122 60.2281 17.588 60.2281 25.6487 57.123C25.8551 57.0435 26.0267 56.8936 26.1333 56.6997C26.2398 56.5059 26.2744 56.2806 26.2308 56.0637L25.103 50.4274ZM8.43709 37.5012C8.43709 36.5741 8.71201 35.6678 9.22708 34.8969C9.74215 34.1261 10.4742 33.5253 11.3308 33.1705C12.1873 32.8157 13.1298 32.7229 14.0391 32.9037C14.9484 33.0846 15.7836 33.531 16.4392 34.1866C17.0947 34.8422 17.5412 35.6774 17.722 36.5867C17.9029 37.496 17.8101 38.4385 17.4553 39.295C17.1005 40.1515 16.4997 40.8836 15.7288 41.3987C14.958 41.9138 14.0517 42.1887 13.1246 42.1887C11.8818 42.1872 10.6904 41.6928 9.81167 40.8141C8.93292 39.9353 8.43858 38.7439 8.43709 37.5012ZM2.0124 55.6502L2.98459 50.794C3.19254 49.7527 3.62143 48.7682 4.2423 47.9069C4.86317 47.0455 5.66158 46.3274 6.58365 45.8009C8.58264 44.6835 10.8345 44.0969 13.1246 44.0969C15.4147 44.0969 17.6665 44.6835 19.6655 45.8009C20.5877 46.3274 21.3863 47.0457 22.0071 47.9072C22.628 48.7688 23.0568 49.7535 23.2646 50.7949L24.2368 55.6502C17.0522 58.2237 9.19703 58.2237 2.0124 55.6502Z" fill="#50C9C0"/>
<path d="M59.9808 56.0637L58.8558 50.4237C58.5954 49.1194 58.0583 47.8862 57.2807 46.8071C56.5032 45.7281 55.5032 44.8284 54.3483 44.1687C53.2371 43.5391 52.0482 43.0575 50.8121 42.7362C51.9133 41.9093 52.7265 40.7571 53.1366 39.4425C53.5466 38.1279 53.5328 36.7176 53.097 35.4114C52.6611 34.1051 51.8255 32.969 50.7082 32.164C49.591 31.359 48.2488 30.9258 46.8718 30.9258C45.4947 30.9258 44.1526 31.359 43.0353 32.164C41.9181 32.969 41.0824 34.1051 40.6466 35.4114C40.2108 36.7176 40.1969 38.1279 40.607 39.4425C41.0171 40.7571 41.8303 41.9093 42.9315 42.7362C41.6971 43.0591 40.5102 43.542 39.4008 44.1724C38.2461 44.8321 37.2463 45.7317 36.4687 46.8105C35.6911 47.8894 35.1539 49.1224 34.8933 50.4265L33.7683 56.0637C33.7248 56.2806 33.7594 56.5059 33.8659 56.6997C33.9724 56.8936 34.1441 57.0435 34.3505 57.123C42.4112 60.2281 51.338 60.2281 59.3987 57.123C59.6051 57.0435 59.7767 56.8936 59.8833 56.6997C59.9898 56.5059 60.0244 56.2806 59.9808 56.0637ZM42.1871 37.5012C42.1871 36.5741 42.462 35.6678 42.9771 34.8969C43.4921 34.1261 44.2242 33.5253 45.0808 33.1705C45.9373 32.8157 46.8798 32.7229 47.7891 32.9037C48.6984 33.0846 49.5336 33.531 50.1892 34.1866C50.8447 34.8422 51.2912 35.6774 51.472 36.5867C51.6529 37.496 51.5601 38.4385 51.2053 39.295C50.8505 40.1515 50.2497 40.8836 49.4788 41.3987C48.708 41.9138 47.8017 42.1887 46.8746 42.1887C45.6318 42.1872 44.4404 41.6928 43.5617 40.8141C42.6829 39.9353 42.1886 38.7439 42.1871 37.5012ZM35.7624 55.6502L36.7346 50.794C36.9425 49.7527 37.3714 48.7682 37.9923 47.9069C38.6132 47.0455 39.4116 46.3274 40.3337 45.8009C42.3326 44.6835 44.5845 44.0969 46.8746 44.0969C49.1647 44.0969 51.4165 44.6835 53.4155 45.8009C54.3377 46.3274 55.1363 47.0457 55.7571 47.9072C56.378 48.7688 56.8068 49.7535 57.0146 50.7949L57.9868 55.6502C50.8022 58.2237 42.947 58.2237 35.7624 55.6502Z" fill="#50C9C0"/>
<path d="M36.5044 22.4475L40.4597 28.635C40.5599 28.7921 40.7046 28.9158 40.8754 28.9903C41.0463 29.0648 41.2354 29.0867 41.4187 29.0532C41.602 29.0197 41.7712 28.9323 41.9046 28.8022C42.038 28.6721 42.1297 28.5052 42.1678 28.3228L43.5169 21.9187C50.5997 20.385 55.3125 16.1503 55.3125 11.25C55.3125 5.04656 47.5312 0 37.9688 0C28.4063 0 20.625 5.04656 20.625 11.25C20.625 17.1075 27.5625 21.9656 36.5044 22.4475ZM37.9688 1.875C46.5 1.875 53.4375 6.08063 53.4375 11.25C53.4375 15.2981 48.9609 18.9778 42.5522 20.1975C42.3705 20.232 42.203 20.3195 42.0709 20.4489C41.9388 20.5784 41.8479 20.744 41.8097 20.925L40.8047 25.6875L37.8225 21.0244C37.7406 20.8965 37.6289 20.7905 37.4969 20.7154C37.365 20.6402 37.2167 20.5983 37.065 20.5931C28.8975 20.3053 22.5 16.2 22.5 11.25C22.5 6.08063 29.4375 1.875 37.9688 1.875Z" fill="#50C9C0"/>
<path d="M35.5969 24.3479C35.5669 24.2285 35.5136 24.1161 35.4402 24.0173C35.3667 23.9184 35.2745 23.835 35.1688 23.7718C35.0631 23.7086 34.946 23.6668 34.8242 23.6489C34.7023 23.631 34.5782 23.6372 34.4588 23.6673C31.4196 24.4174 28.2646 24.5765 25.1653 24.136C24.9446 24.1039 24.7198 24.1529 24.5325 24.2738L20.1562 27.0545L20.8463 23.9476C20.8948 23.7294 20.8637 23.501 20.7587 23.3036C20.6537 23.1063 20.4816 22.953 20.2734 22.8713C15.7978 21.1163 13.125 18.1726 13.125 14.9982C13.125 11.881 15.7106 8.96728 20.0409 7.20478C20.155 7.15837 20.2588 7.08994 20.3464 7.00341C20.4341 6.91688 20.5038 6.81393 20.5516 6.70046C20.5994 6.58698 20.6245 6.46519 20.6252 6.34205C20.626 6.2189 20.6025 6.09681 20.5561 5.98275C20.5097 5.86868 20.4413 5.76488 20.3547 5.67726C20.2682 5.58964 20.1652 5.51992 20.0518 5.47208C19.9383 5.42424 19.8165 5.39923 19.6934 5.39846C19.5702 5.39769 19.4481 5.42118 19.3341 5.46759C14.2725 7.52822 11.25 11.0917 11.25 14.9982C11.25 18.781 14.0728 22.217 18.8438 24.3085L17.8322 28.8573C17.7917 29.0384 17.8059 29.2275 17.873 29.4006C17.9401 29.5737 18.0571 29.723 18.2091 29.8295C18.3611 29.936 18.5413 29.995 18.7269 29.999C18.9125 30.003 19.0951 29.9518 19.2516 29.852L25.2516 26.0345C28.4793 26.4524 31.7567 26.2661 34.9162 25.4851C35.1573 25.4245 35.3643 25.2706 35.492 25.0574C35.6196 24.8441 35.6573 24.589 35.5969 24.3479Z" fill="#50C9C0"/>
<path d="M31.875 6.5625H36.5625V8.4375H31.875V6.5625Z" fill="#50C9C0"/>
<path d="M38.4375 6.5625H40.3125V8.4375H38.4375V6.5625Z" fill="#50C9C0"/>
<path d="M42.1875 6.5625H46.875V8.4375H42.1875V6.5625Z" fill="#50C9C0"/>
<path d="M29.0625 10.3125H40.3125V12.1875H29.0625V10.3125Z" fill="#50C9C0"/>
<path d="M42.1875 10.3125H46.875V12.1875H42.1875V10.3125Z" fill="#50C9C0"/>
<path d="M29.0625 14.0625H32.8125V15.9375H29.0625V14.0625Z" fill="#50C9C0"/>
<path d="M34.6875 14.0625H45V15.9375H34.6875V14.0625Z" fill="#50C9C0"/>
</g>
<defs>
<clipPath id="clip0_451_124">
<rect width="60" height="60" fill="white"/>
</clipPath>
</defs>
</svg>
