<svg width="50" height="44" viewBox="0 0 50 44" fill="none" xmlns="http://www.w3.org/2000/svg">
<g clip-path="url(#clip0_498_2)">
<path d="M45.605 37.0557C48.4275 33.9509 50.1211 30.5638 50.1211 24.9186C50.1211 15.0396 43.0646 6.28957 33.1856 1.77344L30.6453 5.44279C39.9598 10.5234 41.9356 17.0154 42.5001 21.2492C41.0888 20.4025 39.113 20.1202 37.1372 20.4025C32.0566 20.967 28.105 24.9186 28.105 30.2815C28.105 32.8218 29.234 35.3621 30.9275 37.338C32.9034 39.3138 35.1614 40.1605 37.984 40.1605C41.0888 40.1605 43.9114 38.7492 45.605 37.0557ZM17.3792 37.0557C20.2017 33.9509 21.8953 30.5638 21.8953 24.9186C21.8953 15.0396 14.8388 6.28957 4.9598 1.77344L2.41948 5.44279C11.734 10.5234 13.7098 17.0154 14.2743 21.2492C12.863 20.4025 10.8872 20.1202 8.91141 20.4025C3.83077 20.967 -0.120843 24.9186 -0.120843 30.2815C-0.120843 32.8218 1.00819 35.3621 2.70174 37.338C4.39529 39.3138 6.93561 40.1605 9.75819 40.1605C12.863 40.1605 15.6856 38.7492 17.3792 37.0557Z" fill="#34D8C2"/>
</g>
<defs>
<clipPath id="clip0_498_2">
<rect width="50" height="43.5484" fill="white" transform="matrix(-1 0 0 1 50 0)"/>
</clipPath>
</defs>
</svg>
