<svg width="543" height="388" viewBox="0 0 543 388" fill="none" xmlns="http://www.w3.org/2000/svg">
<g clip-path="url(#clip0_87_2)">
<path d="M278.233 22.3647H160.784C159.009 22.3647 157.57 23.8041 157.57 25.5797V94.0156C157.57 95.7911 159.009 97.2305 160.784 97.2305H278.233C280.007 97.2305 281.446 95.7911 281.446 94.0156V25.5797C281.446 23.8041 280.007 22.3647 278.233 22.3647Z" stroke="#4CAF50" stroke-miterlimit="10"/>
<path d="M157.57 35.9258H281.446" stroke="#4CAF50" stroke-miterlimit="10"/>
<path d="M165.568 31.2083C166.663 31.2083 167.55 30.3205 167.55 29.2253C167.55 28.13 166.663 27.2422 165.568 27.2422C164.473 27.2422 163.586 28.13 163.586 29.2253C163.586 30.3205 164.473 31.2083 165.568 31.2083Z" stroke="#4CAF50" stroke-miterlimit="10"/>
<path d="M175.688 29.215C175.688 29.6112 175.57 29.9985 175.35 30.3279C175.13 30.6573 174.818 30.914 174.452 31.0656C174.086 31.2172 173.683 31.2569 173.295 31.1796C172.907 31.1023 172.55 30.9116 172.27 30.6314C171.99 30.3513 171.799 29.9944 171.722 29.6058C171.645 29.2172 171.684 28.8145 171.836 28.4485C171.988 28.0824 172.244 27.7696 172.573 27.5495C172.903 27.3294 173.29 27.2119 173.686 27.2119C174.217 27.2119 174.726 27.423 175.101 27.7986C175.477 28.1743 175.688 28.6838 175.688 29.215Z" stroke="#4CAF50" stroke-miterlimit="10"/>
<path d="M183.836 29.215C183.836 29.6112 183.719 29.9985 183.499 30.3279C183.279 30.6573 182.966 30.914 182.6 31.0656C182.234 31.2172 181.832 31.2569 181.443 31.1796C181.055 31.1023 180.698 30.9116 180.418 30.6314C180.138 30.3513 179.948 29.9944 179.871 29.6058C179.793 29.2172 179.833 28.8145 179.984 28.4485C180.136 28.0824 180.393 27.7696 180.722 27.5495C181.051 27.3294 181.438 27.2119 181.834 27.2119C182.365 27.2119 182.874 27.423 183.25 27.7986C183.625 28.1743 183.836 28.6838 183.836 29.215Z" stroke="#4CAF50" stroke-miterlimit="10"/>
<path d="M121.874 65.501H92.5842C89.7536 65.501 87.459 67.7968 87.459 70.6289V99.9342C87.459 102.766 89.7536 105.062 92.5842 105.062H121.874C124.704 105.062 126.999 102.766 126.999 99.9342V70.6289C126.999 67.7968 124.704 65.501 121.874 65.501Z" stroke="#4CAF50" stroke-linejoin="round"/>
<path d="M107.228 96.6091C113.48 96.6091 118.549 91.5376 118.549 85.2816C118.549 79.0256 113.48 73.9541 107.228 73.9541C100.975 73.9541 95.9062 79.0256 95.9062 85.2816C95.9062 91.5376 100.975 96.6091 107.228 96.6091Z" stroke="#4CAF50" stroke-width="3" stroke-miterlimit="10"/>
<path d="M114.877 77.2793L98.8809 93.274" stroke="#4CAF50" stroke-width="3" stroke-miterlimit="10"/>
<path d="M389.145 96.0587L380.947 87.5556H254.769C253.365 87.5556 251.975 87.2789 250.678 86.7414C249.381 86.2038 248.202 85.4159 247.209 84.4226C246.217 83.4294 245.429 82.2502 244.892 80.9524C244.355 79.6547 244.078 78.2637 244.078 76.8591V11.1975C244.078 8.36062 245.204 5.63991 247.209 3.63392C249.214 1.62793 251.934 0.500977 254.769 0.500977H381.507C384.343 0.500977 387.062 1.62793 389.067 3.63392C391.072 5.63991 392.198 8.36062 392.198 11.1975V94.8268C392.2 95.1816 392.095 95.5286 391.897 95.823C391.699 96.1175 391.418 96.3458 391.089 96.4785C390.76 96.6111 390.399 96.6421 390.053 96.5672C389.706 96.4924 389.39 96.3153 389.145 96.0587Z" fill="white" stroke="#4CAF50" stroke-linejoin="round"/>
<path d="M294.808 58.2H289.373V67.7548H276.179V58.2H256.52V48.4148L277.03 18.4185H289.333V48.2446H294.808V58.2ZM276.219 48.2446V42.5057C276.219 41.4341 276.219 39.9718 276.34 38.139C276.35 37.1747 276.413 36.2117 276.53 35.2545H276.159C275.419 36.9387 274.549 38.5627 273.557 40.112L268.091 48.2446H276.219Z" fill="#FE1C04"/>
<path d="M335.85 43.1469C335.85 51.8804 334.389 58.2769 331.466 62.3365C328.543 66.3961 324.068 68.4259 318.042 68.4259C312.143 68.4259 307.702 66.306 304.719 62.0661C301.736 57.8262 300.241 51.5198 300.234 43.1469C300.234 34.3733 301.696 27.94 304.619 23.847C307.542 19.754 312.016 17.7075 318.042 17.7075C323.908 17.7075 328.343 19.8408 331.346 24.1074C334.349 28.374 335.85 34.7205 335.85 43.1469ZM313.488 43.1469C313.488 48.7355 313.838 52.5614 314.489 54.6547C315.139 56.7479 316.361 57.7995 318.002 57.7995C319.644 57.7995 320.835 56.7178 321.526 54.5545C322.217 52.3912 322.527 48.5452 322.527 43.1469C322.527 37.7485 322.177 33.8525 321.526 31.6591C320.875 29.4657 319.664 28.374 318.022 28.374C316.381 28.374 315.21 29.3756 314.509 31.5389C313.808 33.7023 313.498 37.5282 313.498 43.1469H313.488Z" fill="#FE1C04"/>
<path d="M379.716 58.2H374.28V67.7548H361.127V58.2H341.467V48.4148L361.978 18.4185H374.28V48.2446H379.716V58.2ZM361.127 48.2446V42.5057C361.127 41.4341 361.127 39.9718 361.247 38.139C361.257 37.1747 361.321 36.2117 361.437 35.2545H361.067C360.326 36.9387 359.456 38.5627 358.464 40.112L352.998 48.2446H361.127Z" fill="#FE1C04"/>
<path d="M537.364 180.689H508.074C505.244 180.689 502.949 182.985 502.949 185.817V215.123C502.949 217.955 505.244 220.251 508.074 220.251H537.364C540.195 220.251 542.489 217.955 542.489 215.123V185.817C542.489 182.985 540.195 180.689 537.364 180.689Z" stroke="#4CAF50" stroke-linejoin="round"/>
<path d="M535.461 211.577C535.31 211.629 535.151 211.656 534.991 211.657H510.446C510.194 211.656 509.946 211.588 509.728 211.461C509.51 211.334 509.329 211.152 509.203 210.933C509.077 210.714 509.011 210.466 509.012 210.213C509.012 209.961 509.079 209.713 509.205 209.494L521.467 188.231C521.592 188.011 521.772 187.829 521.99 187.702C522.208 187.575 522.456 187.509 522.709 187.51C522.961 187.51 523.208 187.576 523.428 187.701C523.647 187.825 523.83 188.004 523.96 188.221L536.232 209.484C536.338 209.667 536.403 209.872 536.421 210.084C536.439 210.295 536.41 210.508 536.336 210.707C536.263 210.906 536.146 211.086 535.995 211.235C535.844 211.383 535.662 211.497 535.461 211.567V211.577ZM511.127 209.834H534.31L522.709 189.743L511.127 209.834Z" fill="#4CAF50"/>
<path d="M522.72 205.608C522.495 205.611 522.278 205.525 522.116 205.37C521.953 205.214 521.857 205.002 521.849 204.777L521.349 196.414C521.341 196.229 521.37 196.045 521.435 195.872C521.499 195.7 521.598 195.542 521.725 195.408C521.852 195.274 522.005 195.168 522.174 195.094C522.344 195.021 522.526 194.983 522.71 194.981C522.895 194.981 523.077 195.018 523.247 195.09C523.417 195.163 523.57 195.268 523.698 195.401C523.826 195.534 523.926 195.691 523.992 195.863C524.058 196.035 524.088 196.219 524.082 196.404L523.581 204.777C523.573 205 523.479 205.211 523.319 205.366C523.158 205.521 522.944 205.608 522.72 205.608Z" fill="#4CAF50"/>
<path d="M523.6 207.631C523.598 207.804 523.544 207.974 523.446 208.118C523.348 208.261 523.21 208.373 523.049 208.438C522.888 208.503 522.711 208.519 522.541 208.484C522.371 208.449 522.215 208.364 522.092 208.24C521.97 208.117 521.887 207.96 521.854 207.789C521.821 207.618 521.839 207.442 521.906 207.281C521.973 207.121 522.086 206.984 522.23 206.887C522.375 206.791 522.545 206.739 522.719 206.739C522.835 206.739 522.951 206.762 523.058 206.807C523.166 206.852 523.263 206.918 523.345 207.001C523.427 207.084 523.492 207.182 523.535 207.29C523.579 207.398 523.601 207.514 523.6 207.631Z" fill="#4CAF50"/>
<path d="M4.95476 149.551C4.95476 149.993 4.82384 150.424 4.57855 150.792C4.33327 151.159 3.98464 151.445 3.57675 151.614C3.16885 151.783 2.72002 151.828 2.287 151.741C1.85399 151.655 1.45623 151.442 1.14404 151.13C0.831857 150.818 0.61926 150.42 0.533128 149.987C0.446995 149.553 0.491202 149.104 0.660156 148.696C0.829111 148.288 1.11522 147.939 1.48232 147.694C1.84941 147.448 2.28099 147.317 2.72249 147.317C3.31453 147.317 3.88231 147.553 4.30094 147.972C4.71957 148.39 4.95476 148.958 4.95476 149.551Z" stroke="#4CAF50" stroke-linecap="round" stroke-linejoin="round"/>
<path d="M379.715 268.546C379.716 268.988 379.587 269.421 379.343 269.789C379.099 270.158 378.751 270.446 378.343 270.616C377.936 270.787 377.487 270.833 377.053 270.747C376.619 270.662 376.221 270.451 375.907 270.139C375.594 269.827 375.381 269.429 375.294 268.995C375.207 268.562 375.25 268.112 375.419 267.703C375.588 267.295 375.874 266.945 376.241 266.699C376.608 266.454 377.04 266.322 377.482 266.322C378.073 266.322 378.639 266.556 379.057 266.973C379.476 267.39 379.712 267.955 379.715 268.546Z" stroke="#4CAF50" stroke-linecap="round" stroke-linejoin="round"/>
<path d="M532.99 85.2723C532.992 85.7144 532.863 86.1472 532.619 86.5158C532.374 86.8844 532.027 87.1723 531.619 87.3428C531.211 87.5134 530.762 87.5591 530.328 87.474C529.895 87.389 529.496 87.1771 529.183 86.8651C528.87 86.5532 528.656 86.1552 528.569 85.7217C528.482 85.2882 528.526 84.8386 528.694 84.4299C528.863 84.0212 529.149 83.6718 529.516 83.4259C529.884 83.1801 530.316 83.0488 530.758 83.0488C531.348 83.0488 531.914 83.2828 532.333 83.6994C532.751 84.1161 532.987 84.6817 532.99 85.2723Z" stroke="#4CAF50" stroke-linecap="round" stroke-linejoin="round"/>
<path d="M412.588 16.2449C412.59 16.6871 412.46 17.1199 412.216 17.4885C411.972 17.8571 411.624 18.1449 411.216 18.3155C410.809 18.4861 410.36 18.5317 409.926 18.4467C409.492 18.3616 409.094 18.1497 408.78 17.8378C408.467 17.5258 408.254 17.1279 408.167 16.6944C408.08 16.2608 408.123 15.8113 408.292 15.4026C408.461 14.9939 408.747 14.6445 409.114 14.3986C409.481 14.1527 409.913 14.0215 410.355 14.0215C410.946 14.0215 411.512 14.2554 411.93 14.6721C412.349 15.0888 412.585 15.6543 412.588 16.2449Z" stroke="#4CAF50" stroke-linecap="round" stroke-linejoin="round"/>
<path d="M528.535 158.274V165.185" stroke="#4CAF50" stroke-linecap="round" stroke-linejoin="round"/>
<path d="M531.989 161.73H525.082" stroke="#4CAF50" stroke-linecap="round" stroke-linejoin="round"/>
<path d="M347.973 291.41V298.321" stroke="#4CAF50" stroke-linecap="round" stroke-linejoin="round"/>
<path d="M351.427 294.866H344.51" stroke="#4CAF50" stroke-linecap="round" stroke-linejoin="round"/>
<path d="M201.885 3.50537V10.4161" stroke="#4CAF50" stroke-linecap="round" stroke-linejoin="round"/>
<path d="M205.339 6.96094H198.432" stroke="#4CAF50" stroke-linecap="round" stroke-linejoin="round"/>
<path d="M47.2578 70.3086V77.2193" stroke="#4CAF50" stroke-linecap="round" stroke-linejoin="round"/>
<path d="M50.7117 73.7637H43.8047" stroke="#4CAF50" stroke-linecap="round" stroke-linejoin="round"/>
<path d="M36.0156 229.425V236.335" stroke="#4CAF50" stroke-linecap="round" stroke-linejoin="round"/>
<path d="M39.4695 232.88H32.5625" stroke="#4CAF50" stroke-linecap="round" stroke-linejoin="round"/>
<path d="M427.562 42.6357V49.5464" stroke="#4CAF50" stroke-linecap="round" stroke-linejoin="round"/>
<path d="M431.016 46.0908H424.109" stroke="#4CAF50" stroke-linecap="round" stroke-linejoin="round"/>
<path d="M87.3979 190.114H18.2779C17.7 190.111 17.1464 189.881 16.7378 189.472C16.3291 189.063 16.0983 188.509 16.0957 187.931C16.0957 187.351 16.3253 186.794 16.7342 186.383C17.1432 185.972 17.6982 185.74 18.2779 185.737H87.3979C87.9793 185.737 88.5369 185.968 88.948 186.38C89.3592 186.791 89.5901 187.349 89.5901 187.931C89.5875 188.511 89.3554 189.066 88.9445 189.475C88.5337 189.884 87.9776 190.114 87.3979 190.114Z" stroke="#4CAF50" stroke-miterlimit="10"/>
<path d="M494.381 134.848H425.311C424.732 134.848 424.176 134.619 423.765 134.21C423.354 133.8 423.122 133.245 423.119 132.665C423.119 132.377 423.176 132.092 423.286 131.826C423.396 131.56 423.558 131.318 423.761 131.114C423.965 130.91 424.206 130.749 424.472 130.639C424.738 130.528 425.023 130.472 425.311 130.472H494.381C494.961 130.474 495.516 130.707 495.925 131.118C496.334 131.529 496.564 132.085 496.564 132.665C496.561 133.243 496.33 133.797 495.921 134.206C495.513 134.615 494.959 134.846 494.381 134.848Z" stroke="#4CAF50" stroke-miterlimit="10"/>
<path d="M504.491 149.552H478.995C478.706 149.552 478.429 149.437 478.224 149.232C478.019 149.027 477.904 148.749 477.904 148.46C477.904 148.17 478.019 147.893 478.224 147.688C478.429 147.483 478.706 147.368 478.995 147.368H504.541C504.685 147.367 504.828 147.394 504.962 147.448C505.095 147.503 505.217 147.583 505.319 147.684C505.422 147.786 505.503 147.907 505.558 148.04C505.614 148.173 505.642 148.316 505.642 148.46C505.643 148.608 505.613 148.755 505.554 148.892C505.495 149.029 505.41 149.152 505.302 149.254C505.194 149.356 505.067 149.435 504.927 149.486C504.788 149.538 504.639 149.56 504.491 149.552Z" fill="#4CAF50"/>
<path d="M436.883 97.4405H411.327C411.183 97.4405 411.041 97.4119 410.908 97.3564C410.775 97.3009 410.654 97.2196 410.552 97.1172C410.451 97.0147 410.371 96.8932 410.317 96.7596C410.262 96.626 410.235 96.483 410.236 96.3388C410.236 96.0492 410.351 95.7716 410.556 95.5668C410.761 95.3621 411.038 95.2471 411.327 95.2471H436.883C437.173 95.2471 437.45 95.3621 437.655 95.5668C437.86 95.7716 437.974 96.0492 437.974 96.3388C437.976 96.483 437.949 96.626 437.894 96.7596C437.84 96.8932 437.76 97.0147 437.658 97.1172C437.557 97.2196 437.436 97.3009 437.303 97.3564C437.17 97.4119 437.027 97.4405 436.883 97.4405Z" fill="#4CAF50"/>
<path d="M61.7132 170.744H42.1634C42.0193 170.744 41.8766 170.716 41.7435 170.66C41.6105 170.605 41.4898 170.523 41.3883 170.421C41.2869 170.318 41.2067 170.197 41.1525 170.063C41.0982 169.93 41.071 169.787 41.0723 169.642C41.0723 169.353 41.1873 169.075 41.3919 168.871C41.5965 168.666 41.874 168.551 42.1634 168.551H61.7132C62.0026 168.551 62.2801 168.666 62.4847 168.871C62.6894 169.075 62.8043 169.353 62.8043 169.642C62.8056 169.787 62.7784 169.93 62.7242 170.063C62.6699 170.197 62.5898 170.318 62.4883 170.421C62.3869 170.523 62.2661 170.605 62.1331 170.66C62.0001 170.716 61.8573 170.744 61.7132 170.744Z" fill="#4CAF50"/>
<path d="M456.223 74.2246H477.384C479.43 74.2246 481.088 72.5655 481.088 70.5189V49.3461C481.088 47.2995 479.43 45.6404 477.384 45.6404H456.223C454.177 45.6404 452.519 47.2995 452.519 49.3461V70.5189C452.519 72.5655 454.177 74.2246 456.223 74.2246Z" stroke="#4CAF50" stroke-linejoin="round"/>
<path d="M470.847 58.7212L470.356 61.175H473.079V63.3484H469.986L469.175 67.6451H466.853L467.673 63.3484H464.67L463.86 67.6451H461.587L462.368 63.3484H459.855V61.175H462.788L463.279 58.7212H460.616V56.5078H463.619L464.44 52.2012H466.752L465.942 56.5078H468.945L469.775 52.2012H472.048L471.217 56.5078H473.76V58.7212H470.847ZM465.031 61.175H468.034L468.534 58.7212H465.531L465.031 61.175Z" fill="#4CAF50"/>
<path d="M226.239 271.96L206.169 140.267H115.777L137.449 279.812C138.126 284.35 140.429 288.486 143.928 291.451C147.427 294.416 151.884 296.007 156.469 295.927H308.513L309.624 283.148H239.433C236.25 283.208 233.154 282.105 230.725 280.046C228.296 277.987 226.701 275.112 226.239 271.96Z" fill="#85182A"/>
<path d="M140.653 271.961L121.363 145.134C121.161 143.761 120.465 142.508 119.405 141.612C118.345 140.716 116.995 140.237 115.607 140.267H115.437C114.454 140.279 113.484 140.499 112.591 140.912C111.697 141.324 110.901 141.92 110.253 142.661C109.606 143.401 109.121 144.27 108.831 145.21C108.541 146.151 108.452 147.142 108.57 148.119L129.021 279.813C129.699 284.359 132.009 288.502 135.518 291.468C139.028 294.434 143.497 296.019 148.09 295.928H245.979L247.101 283.148H153.886C150.696 283.22 147.589 282.123 145.151 280.062C142.714 278.002 141.114 275.12 140.653 271.961Z" fill="#C71F37"/>
<path d="M201.885 295.938V367.819" stroke="#544943" stroke-width="1.5" stroke-miterlimit="10"/>
<path d="M161.604 374.168C161.604 372.484 162.272 370.869 163.462 369.678C164.653 368.487 166.267 367.818 167.95 367.818H235.809C237.492 367.818 239.106 368.487 240.296 369.678C241.486 370.869 242.155 372.484 242.155 374.168" stroke="#544943" stroke-width="1.5" stroke-miterlimit="10"/>
<path d="M194.938 374.168C194.938 372.484 195.606 370.869 196.796 369.678C197.987 368.487 199.601 367.818 201.284 367.818" stroke="#544943" stroke-width="1.5" stroke-miterlimit="10"/>
<path d="M168.011 380.579C168.013 381.849 167.638 383.092 166.934 384.149C166.229 385.207 165.227 386.031 164.054 386.518C162.881 387.005 161.591 387.133 160.345 386.886C159.099 386.639 157.955 386.027 157.057 385.128C156.159 384.23 155.548 383.085 155.301 381.839C155.053 380.593 155.181 379.301 155.668 378.127C156.155 376.954 156.979 375.951 158.036 375.247C159.092 374.542 160.334 374.167 161.604 374.169C163.303 374.169 164.933 374.844 166.134 376.046C167.336 377.248 168.011 378.879 168.011 380.579Z" fill="#717A91"/>
<g opacity="0.45">
<path d="M163.955 380.578C163.957 381.047 163.82 381.505 163.561 381.895C163.302 382.285 162.934 382.59 162.502 382.77C162.069 382.95 161.594 382.998 161.134 382.907C160.675 382.816 160.253 382.591 159.922 382.26C159.591 381.928 159.366 381.506 159.275 381.047C159.185 380.587 159.232 380.111 159.412 379.679C159.592 379.247 159.897 378.878 160.287 378.619C160.677 378.36 161.135 378.223 161.603 378.225C162.227 378.225 162.825 378.473 163.266 378.914C163.707 379.355 163.955 379.954 163.955 380.578Z" fill="#1E460F"/>
</g>
<path d="M201.345 380.579C201.347 381.849 200.972 383.092 200.268 384.149C199.563 385.207 198.561 386.031 197.388 386.518C196.215 387.005 194.924 387.133 193.679 386.886C192.433 386.639 191.289 386.027 190.391 385.128C189.493 384.23 188.882 383.085 188.635 381.839C188.387 380.593 188.515 379.301 189.002 378.127C189.489 376.954 190.313 375.951 191.37 375.247C192.426 374.542 193.668 374.167 194.938 374.169C196.637 374.169 198.267 374.844 199.468 376.046C200.67 377.248 201.345 378.879 201.345 380.579Z" fill="#717A91"/>
<g opacity="0.45">
<path d="M197.289 380.578C197.291 381.047 197.154 381.505 196.895 381.895C196.636 382.285 196.268 382.59 195.836 382.77C195.403 382.95 194.928 382.998 194.468 382.907C194.009 382.816 193.587 382.591 193.256 382.26C192.925 381.928 192.7 381.506 192.609 381.047C192.519 380.587 192.566 380.111 192.746 379.679C192.926 379.247 193.231 378.878 193.621 378.619C194.011 378.36 194.469 378.223 194.937 378.225C195.561 378.225 196.159 378.473 196.6 378.914C197.041 379.355 197.289 379.954 197.289 380.578Z" fill="#1E460F"/>
</g>
<path d="M248.561 380.579C248.561 381.847 248.185 383.086 247.481 384.14C246.777 385.194 245.777 386.016 244.606 386.501C243.436 386.986 242.147 387.113 240.905 386.866C239.662 386.618 238.52 386.008 237.624 385.111C236.728 384.215 236.118 383.073 235.871 381.829C235.624 380.586 235.751 379.297 236.236 378.126C236.721 376.955 237.542 375.954 238.595 375.249C239.649 374.545 240.887 374.169 242.155 374.169C243.854 374.169 245.483 374.844 246.685 376.046C247.886 377.248 248.561 378.879 248.561 380.579Z" fill="#717A91"/>
<g opacity="0.45">
<path d="M244.508 380.578C244.508 381.044 244.37 381.499 244.111 381.886C243.853 382.273 243.485 382.575 243.055 382.753C242.626 382.931 242.153 382.977 241.696 382.887C241.24 382.796 240.821 382.572 240.492 382.243C240.163 381.913 239.939 381.494 239.848 381.037C239.757 380.581 239.804 380.108 239.982 379.678C240.16 379.247 240.461 378.88 240.848 378.621C241.235 378.363 241.69 378.225 242.155 378.225C242.779 378.225 243.377 378.473 243.819 378.914C244.26 379.355 244.508 379.954 244.508 380.578Z" fill="#1E460F"/>
</g>
<path d="M272.525 154.399L295.429 120.156L302.536 121.629C297.11 139.917 293.527 147.148 293.527 147.148" fill="#FFCBBB"/>
<path d="M298.882 127.306L302.536 121.628C302.536 121.628 309.333 120.065 311.795 118.803C314.002 117.656 315.712 115.739 316.6 113.415C317.131 111.973 316.901 107.716 316.28 107.646C314.818 107.486 311.905 112.934 310.544 113.265C309.183 113.595 304.748 113.265 302.316 113.565C301.068 113.782 299.889 114.292 298.877 115.052C297.864 115.813 297.046 116.803 296.49 117.942L292.746 124.742" fill="#FFCBBB"/>
<path d="M287.502 130.182L291.526 124.353L301.927 129.02L298.623 137.883" fill="#E6E8EF"/>
<path d="M203.906 118.002C203.906 118.002 220.873 110.19 235.819 123.491C250.764 136.791 260.844 149.15 266.35 153.146L288.862 127.236L301.435 133.145C298.122 151.904 288.812 181.831 266.049 184.916C241.414 188.241 205.288 157.874 205.288 157.874" fill="#52A67A"/>
<path d="M259.053 161.73L266.36 153.117" stroke="#28704A" stroke-miterlimit="10"/>
<path d="M295.038 376.162L293.137 383.473C293.028 383.888 293.016 384.323 293.101 384.743C293.187 385.164 293.367 385.559 293.629 385.898C293.891 386.238 294.228 386.513 294.613 386.702C294.997 386.891 295.421 386.989 295.849 386.989H318.012C318.652 386.989 319.265 386.735 319.718 386.282C320.17 385.829 320.424 385.215 320.424 384.575C320.423 384.063 320.26 383.563 319.958 383.15C319.656 382.736 319.23 382.428 318.742 382.272L303.597 376.162" fill="#9E2C2C"/>
<path d="M282.265 261.845C278.722 299.052 295.038 376.162 295.038 376.162C295.038 376.162 298.912 380.849 303.597 376.162C303.597 376.162 307.531 302.638 311.665 269.587" fill="#FFCBBB"/>
<path d="M229.392 218.258L254.828 231.608V231.869C254.828 231.869 306.731 228.383 314.579 246.892C326.841 275.957 328.963 370.393 328.963 370.393H290.975C290.975 370.393 276.84 291.08 272.005 286.263C267.171 281.446 247.24 281.776 210.583 281.776C169.412 281.776 189.512 228.694 204.837 224.107" fill="#388E3C"/>
<path d="M293.607 370.393C293.607 370.393 282.316 288.547 274.018 282.547C263.887 275.216 216.049 280.003 216.049 280.003" stroke="#52A67A" stroke-miterlimit="10"/>
<path d="M215.378 376.162L213.476 383.473C213.368 383.888 213.356 384.323 213.441 384.743C213.526 385.164 213.707 385.559 213.969 385.898C214.231 386.238 214.568 386.513 214.952 386.702C215.337 386.891 215.76 386.989 216.189 386.989H238.352C238.991 386.989 239.605 386.735 240.057 386.282C240.51 385.829 240.764 385.215 240.764 384.575C240.763 384.063 240.6 383.563 240.298 383.15C239.996 382.736 239.57 382.428 239.082 382.272L223.937 376.162" fill="#9E2C2C"/>
<path d="M219.063 261.845C215.529 299.052 215.379 376.162 215.379 376.162C215.379 376.162 219.253 380.849 223.938 376.162C223.938 376.162 237.271 302.638 241.415 269.587" fill="#FFCBBB"/>
<path d="M184.527 229.945C184.527 229.945 251.255 231.017 259.973 251.248C270.714 276.117 253.016 370.433 253.016 370.433H212.806V286.102C212.819 285.312 212.521 284.548 211.976 283.977C211.431 283.405 210.682 283.071 209.893 283.047C204.327 283.198 191.874 283.198 176.118 283.198C134.947 283.198 155.047 219.099 170.373 214.521" fill="#52AA32"/>
<path d="M184.527 229.945C184.527 229.945 251.255 231.017 259.974 251.248C262.887 257.989 264.398 269.466 263.617 283.148" stroke="#52A67A" stroke-miterlimit="10"/>
<path d="M218.411 370.393C218.411 370.393 218.821 285.742 216.879 281.255C214.176 274.975 204.957 278.06 183.565 278.06C142.394 278.06 159.171 219.089 174.496 214.521" stroke="#357C1B" stroke-miterlimit="10"/>
<path d="M158.9 240.252C158.9 240.252 180.032 240.762 183.235 237.557C186.438 234.353 183.235 219.83 183.235 219.83" stroke="#357C1B" stroke-miterlimit="10"/>
<path d="M158.381 243.086C158.381 243.086 182.515 243.607 186.169 240.392C189.823 237.177 186.169 222.635 186.169 222.635" stroke="#357C1B" stroke-miterlimit="10" stroke-dasharray="3 2"/>
<path d="M154.307 141.83C154.307 141.83 149.242 231.869 156.91 231.869C164.577 231.869 249.834 231.608 254.829 231.608C259.824 231.608 248.132 154.609 231.295 138.344C231.295 138.344 206.32 111.232 195.308 113.826C184.297 116.42 154.307 141.83 154.307 141.83Z" fill="#52A67A"/>
<path d="M249.423 182.782L238.832 139.365" stroke="#28704A" stroke-miterlimit="10"/>
<path d="M111.182 158.135L88.2691 123.892L81.1719 125.364C86.5974 143.642 90.181 150.883 90.181 150.883" fill="#FFCBBB"/>
<path d="M84.8263 131.023L81.1726 125.354C81.1726 125.354 74.3757 123.792 71.9032 122.53C69.6988 121.38 67.9901 119.463 67.0983 117.142C66.5678 115.699 66.798 111.443 67.4187 111.373C68.8801 111.212 71.7931 116.661 73.1545 116.991C74.5159 117.322 78.9503 116.991 81.3828 117.292C82.6306 117.508 83.8093 118.018 84.822 118.779C85.8348 119.54 86.6527 120.53 87.2087 121.669L90.9525 128.469" fill="#FFCBBB"/>
<path d="M96.2078 133.917L92.1837 128.088L81.7832 132.755L85.0866 141.619" fill="#E6E8EF"/>
<path d="M185.809 118.483C185.809 118.483 169.042 106.564 151.774 121.207C135.638 134.858 124.887 162.411 121.283 162.411C118.771 162.411 103.265 142.61 93.9858 130.481L82.9746 136.38C89.9216 157.603 105.077 193.709 127.74 193.709C145.518 193.709 182.035 152.035 182.035 152.035" fill="#52A67A"/>
<path d="M152.846 180.379L179.873 157.834" stroke="#28704A" stroke-miterlimit="10"/>
<path d="M187.43 120.616L203.536 137.883L205.648 117.922" fill="#E6E8EF"/>
<path d="M187.43 120.616L203.536 137.883L205.648 117.922" stroke="#846A6A" stroke-linejoin="round"/>
<path d="M200.363 103.18L204.898 113.115C204.898 113.115 206.72 118.814 199.162 121.388C196.893 122.241 194.426 122.421 192.057 121.906C189.688 121.39 187.519 120.202 185.808 118.484L184.617 102.899" fill="#FFCBBB"/>
<path d="M185.378 112.805C185.378 112.805 191.335 120.286 199.162 121.388L193.477 129.831C188.872 127.237 183.236 117.161 183.236 117.161L185.378 112.805Z" fill="white"/>
<path d="M204.417 111.753C203.596 115.391 201.776 118.728 199.162 121.388L205.639 126.285C207.13 122.62 206.96 116.911 206.96 116.911L204.417 111.753Z" fill="white"/>
<path d="M207.081 87.1349C207.081 87.1349 211.355 103.52 204.928 107.667C198.502 111.813 187.341 105.503 186.69 103.45C186.039 101.397 183.136 83.8999 187.321 82.5779C194.768 80.2543 204.888 80.1441 207.081 87.1349Z" fill="#FFCBBB"/>
<path d="M206.939 92.453C206.979 92.6153 206.969 92.7857 206.912 92.9425C206.854 93.0994 206.751 93.2356 206.616 93.3337C206.481 93.4319 206.32 93.4875 206.153 93.4936C205.986 93.4997 205.821 93.4559 205.679 93.3679C205.537 93.2798 205.425 93.1515 205.356 92.9993C205.287 92.847 205.265 92.6777 205.293 92.513C205.321 92.3482 205.397 92.1955 205.512 92.0742C205.627 91.9529 205.775 91.8686 205.938 91.832C206.044 91.8067 206.155 91.8028 206.263 91.8203C206.371 91.8379 206.474 91.8767 206.567 91.9344C206.66 91.9921 206.741 92.0676 206.805 92.1566C206.869 92.2456 206.914 92.3463 206.939 92.453Z" fill="#173789"/>
<path d="M205.507 87.5655C205.787 87.5655 207.049 87.7357 206.778 88.3567C206.658 88.6371 206.218 88.6271 205.978 88.6171C205.727 88.562 205.467 88.562 205.217 88.6171C205.287 88.6922 205.342 88.7808 205.377 88.8775C205.457 89.0578 204.836 89.0778 204.766 89.0778C204.039 88.9728 203.296 89.11 202.654 89.4684C202.852 88.88 203.24 88.374 203.756 88.0296C204.272 87.6852 204.888 87.522 205.507 87.5655Z" fill="#173789"/>
<path d="M196.64 94.7168C196.648 94.8833 196.705 95.0436 196.805 95.1774C196.904 95.3112 197.041 95.4123 197.198 95.4681C197.355 95.5239 197.525 95.5317 197.687 95.4906C197.848 95.4495 197.994 95.3614 198.105 95.2373C198.217 95.1132 198.289 94.9589 198.312 94.7938C198.335 94.6288 198.309 94.4605 198.237 94.3103C198.165 94.1601 198.05 94.0347 197.906 93.9502C197.762 93.8656 197.597 93.8257 197.431 93.8354C197.209 93.8483 197.002 93.9482 196.854 94.1133C196.706 94.2783 196.629 94.4952 196.64 94.7168Z" fill="#173789"/>
<path d="M194.166 91.4109C193.566 91.7314 193.065 92.1721 193.165 92.6728C193.265 93.1736 193.666 92.9733 193.916 92.773C194.324 92.4495 194.789 92.2049 195.287 92.0519C195.176 92.142 195.088 92.2568 195.028 92.3872C194.969 92.5176 194.941 92.66 194.947 92.803C195.728 92.7043 196.454 92.3504 197.014 91.7963C197.573 91.2421 197.934 90.5186 198.04 89.7383C197.683 90.0507 197.29 90.3197 196.869 90.5395C196.018 90.9602 195.047 90.9602 194.166 91.4109Z" fill="#173789"/>
<path d="M202.775 93.4248C202.775 93.4248 205.057 99.1837 204.246 99.6845C203.435 100.185 200.562 100.105 200.562 100.105" stroke="#EF977F" stroke-miterlimit="10"/>
<path d="M202.865 108.618C200.82 109.316 198.635 109.498 196.503 109.149C194.371 108.799 192.358 107.929 190.643 106.615" stroke="#EF977F" stroke-miterlimit="10"/>
<path d="M199.162 104.772C199.162 104.772 199.743 102.238 203.907 102.238" stroke="#EF977F" stroke-miterlimit="10"/>
<path d="M210.723 78.3411C210.732 77.5533 210.479 76.7849 210.002 76.1578C209.659 75.8683 209.262 75.6501 208.834 75.516C208.406 75.3819 207.956 75.3345 207.509 75.3766C204.343 75.3537 201.251 76.3393 198.681 78.1909L200.773 76.3681C201.333 75.8873 202.564 75.1262 201.974 74.2248C201.383 73.3234 199.972 73.8843 199.191 73.8742C195.607 73.8742 192.184 75.1162 188.851 76.3781C187.204 76.951 185.618 77.6857 184.116 78.5715C182.606 79.466 181.395 80.7865 180.632 82.3674C180.07 83.7935 179.818 85.323 179.892 86.8543C179.98 89.6001 180.275 92.3353 180.772 95.037C181.243 98.0416 181.954 103.821 185.928 104.181C186.688 104.337 187.48 104.216 188.16 103.841C188.442 103.587 188.67 103.278 188.83 102.934C188.99 102.59 189.079 102.217 189.091 101.837C189.235 100.602 189.157 99.3501 188.861 98.1418C189.601 98.5424 190.302 99.2234 191.143 99.0932C191.281 99.0809 191.414 99.0329 191.528 98.9539C191.642 98.8749 191.733 98.7676 191.794 98.6425C191.834 98.4713 191.834 98.293 191.794 98.1217C191.483 95.2873 191.323 92.473 191.133 89.6286C195.197 88.7673 199.284 88.0261 203.395 87.4052C205.217 87.1347 207.149 86.8343 208.561 85.6524C210.573 83.9498 210.923 80.9452 210.723 78.3411Z" fill="#173789"/>
<path d="M189.702 99.2135C189.022 97.5509 187.851 95.5378 185.999 96.6695C185.351 97.1993 184.902 97.934 184.727 98.7528C183.887 101.507 185.859 105.764 188.561 105.363C189.873 105.163 190.563 103.6 191.144 102.358" fill="#FFCBBB"/>
<path d="M435.102 278.14C435.086 271.429 437.135 264.877 440.972 259.372C444.808 253.867 450.245 249.678 456.543 247.372C458.876 246.521 470.007 245.68 470.007 245.68C470.007 245.68 468.716 254.183 466.493 258.469C461.318 268.485 451.088 276.858 435.102 278.14Z" fill="#28704A"/>
<path d="M467.863 303.529C471.93 298.532 477.642 295.148 483.977 293.985C490.311 292.821 496.853 293.954 502.428 297.179C502.619 297.263 502.77 297.417 502.849 297.61C502.854 297.733 502.831 297.855 502.782 297.967C502.734 298.08 502.661 298.18 502.568 298.261C499.946 301.149 496.69 303.388 493.057 304.802C489.423 306.217 485.51 306.769 481.627 306.414C476.972 305.809 472.37 304.845 467.863 303.529Z" fill="#388E3C"/>
<path d="M476.812 289.959C476.812 282.187 479.405 275.206 483.97 270.629C486.327 268.341 489.176 266.623 492.299 265.606C495.422 264.588 498.736 264.299 501.988 264.76C502.235 264.768 502.471 264.868 502.649 265.04C502.835 265.301 502.911 265.625 502.859 265.942C502.469 275.306 497.774 283.058 490.616 286.163C486.16 287.896 481.538 289.168 476.823 289.959" fill="#28704A"/>
<path d="M488.885 276.047C491.98 271.078 495.723 266.544 500.016 262.566C501.702 260.925 503.589 259.505 505.632 258.34C512.328 254.744 520.587 255.856 527.784 258.34C524.921 263.778 521.187 269.106 515.692 271.86C513.221 273.001 510.619 273.832 507.944 274.334C502.679 275.506 494.26 275.386 488.925 276.087" fill="#388E3C"/>
<path d="M485.051 263.057C471.657 256.046 469.685 241.393 469.345 236.015C469.135 232.63 469.345 228.854 472.178 226.41C488.775 232.259 493.019 243.497 485.051 263.097" fill="#28704A"/>
<path d="M427.333 260.943C428.334 253.812 429.335 246.15 426.092 239.72C424.875 237.433 423.316 235.346 421.467 233.531C417.113 229.044 411.457 225.338 405.161 225.328C404.022 232.084 405.352 239.024 408.906 244.879C412.461 250.734 418.004 255.114 424.52 257.217" fill="#28704A"/>
<path d="M466.293 307.596C462.541 306.344 459.085 304.335 456.139 301.694C453.192 299.053 450.819 295.836 449.164 292.241C447.509 288.646 446.608 284.75 446.517 280.794C446.427 276.837 447.147 272.903 448.635 269.236C448.654 269.063 448.721 268.898 448.829 268.761C448.937 268.624 449.082 268.521 449.247 268.463C449.411 268.405 449.589 268.396 449.759 268.435C449.929 268.474 450.084 268.561 450.207 268.686C461.759 275.326 469.667 294.666 466.293 307.566" fill="#388E3C"/>
<path d="M434.89 268.235C432.707 261.934 432.815 255.065 435.196 248.836C437.576 242.607 442.076 237.418 447.903 234.182C450.255 232.88 452.818 231.898 454.91 230.176C455.614 233.312 456.089 236.495 456.332 239.701C456.667 242.867 456.46 246.068 455.721 249.165C453.549 257.087 446.251 262.476 438.924 266.191" fill="#388E3C"/>
<path d="M425.211 267.003C413.199 268.455 398.374 263.598 391.938 252.26C412.508 241.804 425.211 257.809 425.211 267.003Z" fill="#388E3C"/>
<path d="M432.229 293.854C429.536 284.61 422.439 277.028 413.88 274.264C409.56 272.926 404.968 272.728 400.548 273.688C396.129 274.648 392.032 276.733 388.655 279.743C388.488 279.853 388.349 280.002 388.25 280.176C388.151 280.35 388.094 280.544 388.084 280.744C388.12 280.975 388.217 281.193 388.364 281.375C392.969 288.035 400.306 291.962 407.804 293.614C415.302 295.267 423.049 294.876 430.687 294.305" fill="#388E3C"/>
<path d="M416.762 244.568C421.346 249.28 424.98 254.834 427.462 260.923C430.137 267.406 432.306 274.086 433.949 280.904C437.473 295.33 439.906 310 441.226 324.792C442.057 333.085 442.608 341.418 443.549 349.7C443.549 349.961 443.989 349.981 443.979 349.7C443.649 342.179 442.978 334.677 442.247 327.165C441.517 319.654 440.656 312.272 439.525 304.871C438.394 297.47 436.982 290.058 435.17 282.777C433.533 275.915 431.402 269.18 428.794 262.626C426.001 255.875 422.317 249.395 416.942 244.367C416.802 244.237 416.601 244.438 416.732 244.568H416.762Z" fill="#28704A"/>
<path d="M438.885 301.606C435.341 295.737 429.746 291.731 423.699 288.736C416.993 285.403 409.816 283.116 402.418 281.956C398.336 281.236 394.183 280.994 390.045 281.235C390.004 281.245 389.966 281.268 389.94 281.302C389.913 281.335 389.898 281.377 389.898 281.42C389.898 281.463 389.913 281.505 389.94 281.538C389.966 281.572 390.004 281.596 390.045 281.605C393.759 281.786 397.443 281.896 401.127 282.417C404.69 282.93 408.213 283.696 411.667 284.71C415.182 285.749 418.615 287.048 421.938 288.596C425.033 289.98 427.978 291.678 430.727 293.664C433.724 295.964 436.333 298.73 438.454 301.857C438.625 302.117 439.045 301.857 438.875 301.606H438.885Z" fill="#28704A"/>
<path d="M435.242 284.039C435.242 278.501 434.681 273.022 435.172 267.464C435.623 262.261 436.978 257.177 439.176 252.44C440.426 249.906 441.897 247.486 443.57 245.209C443.68 245.049 443.43 244.869 443.3 244.999C441.595 246.878 440.175 248.997 439.086 251.288C437.94 253.568 437.009 255.948 436.303 258.399C434.862 263.552 434.23 268.897 434.431 274.244C434.501 277.499 434.671 280.784 435.022 284.019C435.022 284.048 435.033 284.076 435.054 284.097C435.074 284.118 435.102 284.129 435.132 284.129C435.161 284.129 435.189 284.118 435.209 284.097C435.23 284.076 435.242 284.048 435.242 284.019V284.039Z" fill="#28704A"/>
<path d="M407.333 256.136C410.997 256.517 414.34 258.57 417.343 260.663C420.817 263.219 424.121 266 427.233 268.986C428.855 270.488 430.436 272.071 432.148 273.473C432.298 273.593 432.519 273.393 432.368 273.243C429.365 270.238 426.212 267.414 422.999 264.689C419.896 261.869 416.432 259.475 412.698 257.569C411.031 256.728 409.222 256.209 407.363 256.036C407.293 256.036 407.293 256.126 407.363 256.136H407.333Z" fill="#28704A"/>
<path d="M461.598 325.222C462.595 319.555 464.137 313.997 466.203 308.627C468.325 303.305 471.009 298.225 474.211 293.473C480.635 283.926 488.986 275.831 498.726 269.707C501.441 268.007 504.259 266.478 507.164 265.13C510.167 263.757 513.17 262.676 516.173 261.544C516.236 261.527 516.289 261.485 516.321 261.429C516.353 261.373 516.361 261.306 516.344 261.244C516.326 261.181 516.285 261.128 516.229 261.096C516.172 261.064 516.106 261.056 516.043 261.073C513.272 261.848 510.57 262.853 507.965 264.078C505.313 265.267 502.729 266.604 500.227 268.084C495.243 271.017 490.591 274.483 486.353 278.42C477.795 286.313 470.997 295.923 466.403 306.624C463.785 312.543 462.026 318.806 461.178 325.222C461.178 325.433 461.498 325.483 461.538 325.222H461.598Z" fill="#28704A"/>
<path d="M477.873 237.707C483.229 248.884 486.422 262.035 483.949 274.394C483.195 277.932 481.997 281.361 480.386 284.6C480.351 284.661 480.342 284.733 480.361 284.801C480.38 284.868 480.425 284.926 480.486 284.96C480.547 284.995 480.619 285.004 480.687 284.985C480.754 284.966 480.812 284.921 480.846 284.86C484.22 279.352 485.481 272.501 485.501 266.111C485.456 259.591 484.344 253.122 482.208 246.961C481.105 243.713 479.766 240.55 478.203 237.497C478.073 237.256 477.723 237.497 477.843 237.707H477.873Z" fill="#28704A"/>
<path d="M487.004 315.498V327.226C487.004 373.758 474.762 386.989 474.762 386.989H436.883C436.883 386.989 424.631 373.758 424.631 327.226V315.498H487.004Z" fill="#C9C9C9"/>
<path d="M79.9512 386.998L112.094 232.77" stroke="#544943" stroke-width="1.5" stroke-miterlimit="10"/>
<path d="M144.246 386.998L112.094 232.77" stroke="#544943" stroke-width="1.5" stroke-miterlimit="10"/>
<path d="M404.65 386.998L436.803 232.77" stroke="#544943" stroke-width="1.5" stroke-miterlimit="10"/>
<path d="M468.945 386.998L436.803 232.77" stroke="#544943" stroke-width="1.5" stroke-miterlimit="10"/>
<path d="M465.001 223.536H80.9922V232.76H465.001V223.536Z" fill="#BFBFBF"/>
<path d="M446.483 205.949H310.825C310.256 205.949 309.694 205.824 309.179 205.583C308.663 205.342 308.207 204.991 307.841 204.555C307.476 204.119 307.21 203.608 307.063 203.058C306.917 202.508 306.892 201.932 306.992 201.371L322.587 113.626C322.825 112.279 323.529 111.059 324.576 110.18C325.623 109.301 326.946 108.819 328.313 108.818H463.981C464.55 108.818 465.112 108.943 465.627 109.184C466.143 109.425 466.599 109.776 466.965 110.212C467.33 110.648 467.596 111.159 467.743 111.709C467.889 112.259 467.914 112.835 467.815 113.395L452.219 201.131C451.983 202.481 451.278 203.705 450.229 204.586C449.18 205.468 447.853 205.95 446.483 205.949Z" fill="#28704A"/>
<path d="M449.646 205.949H313.939C313.37 205.949 312.808 205.824 312.292 205.583C311.776 205.342 311.32 204.991 310.954 204.555C310.589 204.119 310.323 203.608 310.177 203.058C310.03 202.508 310.005 201.932 310.105 201.372L325.701 113.626C325.938 112.279 326.642 111.059 327.689 110.18C328.737 109.301 330.06 108.819 331.426 108.818H467.134C467.705 108.815 468.269 108.938 468.787 109.178C469.305 109.417 469.764 109.768 470.132 110.204C470.5 110.641 470.767 111.153 470.915 111.705C471.063 112.256 471.088 112.833 470.988 113.395L455.372 201.131C455.137 202.48 454.433 203.702 453.386 204.583C452.339 205.464 451.015 205.948 449.646 205.949Z" fill="#4CAF50"/>
<path opacity="0.45" d="M424.671 205.948H346.291C345.963 205.947 345.639 205.875 345.341 205.735C345.044 205.596 344.781 205.393 344.57 205.141C344.359 204.889 344.206 204.594 344.121 204.277C344.037 203.96 344.022 203.628 344.079 203.304L353.088 152.626C353.229 151.849 353.637 151.145 354.243 150.638C354.848 150.131 355.612 149.853 356.401 149.852H434.781C435.109 149.852 435.433 149.925 435.731 150.064C436.028 150.204 436.291 150.407 436.502 150.659C436.713 150.91 436.866 151.205 436.951 151.523C437.036 151.84 437.05 152.172 436.993 152.496L427.944 203.134C427.813 203.912 427.414 204.619 426.816 205.133C426.218 205.648 425.459 205.936 424.671 205.948Z" fill="#1E460F"/>
<path d="M426.551 205.948H348.172C347.843 205.949 347.518 205.878 347.22 205.739C346.922 205.6 346.658 205.397 346.447 205.145C346.236 204.893 346.083 204.597 345.998 204.279C345.914 203.961 345.901 203.628 345.96 203.304L354.969 152.626C355.106 151.849 355.512 151.144 356.116 150.637C356.72 150.13 357.484 149.851 358.272 149.852H436.652C436.981 149.851 437.306 149.922 437.604 150.061C437.902 150.2 438.166 150.403 438.377 150.655C438.588 150.907 438.741 151.203 438.825 151.521C438.91 151.839 438.923 152.172 438.864 152.496L429.855 203.174C429.718 203.951 429.312 204.656 428.708 205.163C428.104 205.67 427.34 205.948 426.551 205.948Z" fill="#C6D2E0"/>
<path d="M409.185 176.143H377.373V205.949H409.185V176.143Z" fill="#1E460F"/>
<path d="M407.353 176.143H377.373V184.706L385.551 218.698H417.384L407.353 176.143ZM399.656 209.624C396.092 209.624 392.328 205.468 391.237 200.34C390.146 195.212 392.168 191.046 395.732 191.046C399.295 191.046 403.069 195.202 404.15 200.34C405.231 205.478 403.219 209.624 399.656 209.624Z" fill="#475577"/>
<path d="M359.874 218.698H431.126V223.536H355.049C355.049 222.254 355.557 221.026 356.461 220.119C357.366 219.212 358.593 218.701 359.874 218.698Z" fill="#28704A"/>
<path d="M431.087 218.698H374.119V223.536H431.087V218.698Z" fill="#4CAF50"/>
<path d="M409.195 176.143H377.373L387.383 218.698H419.215L409.195 176.143ZM401.387 209.624C397.824 209.624 394.05 205.468 392.969 200.34C391.888 195.212 393.89 191.046 397.453 191.046C401.017 191.046 404.791 195.202 405.872 200.34C406.953 205.478 404.921 209.624 401.387 209.624Z" fill="#4CAF50"/>
<g opacity="0.65">
<path d="M334.878 117.462L332.986 128.078H334.878L336.76 117.462H334.878Z" fill="#1E460F"/>
<path d="M340.333 117.462L338.441 128.078H340.333L342.215 117.462H340.333Z" fill="#1E460F"/>
<path d="M345.788 117.462L343.896 128.078H345.788L347.67 117.462H345.788Z" fill="#1E460F"/>
<path d="M351.235 117.462L349.354 128.078H351.235L353.127 117.462H351.235Z" fill="#1E460F"/>
<path d="M356.69 117.462L354.809 128.078H356.69L358.582 117.462H356.69Z" fill="#1E460F"/>
</g>
<g opacity="0.65">
<path d="M406.472 117.462L404.59 128.078H406.472L408.364 117.462H406.472Z" fill="#1E460F"/>
<path d="M412.208 117.462L410.326 128.078H412.208L414.1 117.462H412.208Z" fill="#1E460F"/>
<path d="M417.942 117.462L416.061 128.078H417.942L419.824 117.462H417.942Z" fill="#1E460F"/>
<path d="M423.679 117.462L421.787 128.078H423.679L425.561 117.462H423.679Z" fill="#1E460F"/>
<path d="M429.405 117.462L427.523 128.078H429.405L431.297 117.462H429.405Z" fill="#1E460F"/>
<path d="M435.142 117.462L433.26 128.078H435.142L437.024 117.462H435.142Z" fill="#1E460F"/>
<path d="M440.876 117.462L438.994 128.078H440.876L442.758 117.462H440.876Z" fill="#1E460F"/>
<path d="M446.603 117.462L444.721 128.078H446.603L448.495 117.462H446.603Z" fill="#1E460F"/>
<path d="M452.339 117.462L450.457 128.078H452.339L454.221 117.462H452.339Z" fill="#1E460F"/>
<path d="M458.073 117.462L456.191 128.078H458.073L459.955 117.462H458.073Z" fill="#1E460F"/>
</g>
<g opacity="0.55">
<path d="M189.151 199.488C189.627 199.406 190.065 199.175 190.402 198.827C191.143 197.826 189.911 196.704 189.111 196.183C188.11 195.532 186.668 195.312 186.168 194.04C185.667 192.768 186.578 191.035 187.749 190.264C188.779 189.671 189.874 189.2 191.013 188.862C192.312 188.44 193.44 187.607 194.226 186.488C195.137 185.036 194.957 183.173 195.067 181.54C195.537 175.15 202.074 171.976 207.569 171.845C210.322 171.785 214.516 172.767 216.348 174.91C216.979 175.621 217.414 176.484 217.61 177.414C217.714 178.107 217.658 178.814 217.444 179.481C217.23 180.148 216.866 180.757 216.378 181.26C215.335 182.212 214.242 183.107 213.105 183.944C212.044 184.946 212.805 186.007 212.554 187.209C212.304 188.411 211.393 189.112 210.242 189.753C207.8 191.115 204.927 191.456 202.234 192.197C201.397 192.371 200.604 192.712 199.902 193.198C199.123 193.99 198.45 194.879 197.9 195.842C196.68 197.488 194.899 198.629 192.895 199.047" fill="url(#paint0_linear_87_2)"/>
</g>
<path d="M204.457 215.584H199.242V213.09H204.457C204.856 213.096 205.252 213.024 205.622 212.876C205.992 212.728 206.329 212.507 206.613 212.228C206.898 211.948 207.123 211.615 207.277 211.247C207.431 210.879 207.511 210.484 207.511 210.085V205.789C207.511 205.39 207.431 204.995 207.277 204.627C207.123 204.259 206.898 203.926 206.613 203.646C206.329 203.366 205.992 203.146 205.622 202.998C205.252 202.85 204.856 202.777 204.457 202.784H199.242V200.29H204.457C205.925 200.293 207.331 200.877 208.369 201.915C209.406 202.953 209.99 204.36 209.993 205.829V210.125C209.969 211.579 209.376 212.966 208.341 213.987C207.306 215.008 205.911 215.581 204.457 215.584Z" fill="#E8EAEF"/>
<path d="M182.094 196.685H203.116V216.004C203.116 217.63 202.47 219.189 201.321 220.339C200.173 221.488 198.614 222.134 196.99 222.134H188.191C186.566 222.134 185.008 221.488 183.859 220.339C182.71 219.189 182.064 217.63 182.064 216.004V196.685H182.094Z" fill="#E8EAEF"/>
<path d="M178.691 218.578C178.691 218.578 178.902 223.536 186.599 223.536H198.712C206.409 223.536 206.61 218.578 206.61 218.578H178.691Z" fill="#B9C5D2"/>
<path d="M347.903 221.562H236.51V223.546H347.903V221.562Z" fill="#475577"/>
<path d="M248.291 219.96H240.312V221.552H248.291V219.96Z" fill="#475577"/>
<path d="M260.375 219.96H252.396V221.552H260.375V219.96Z" fill="#475577"/>
<path d="M272.457 219.96H264.479V221.552H272.457V219.96Z" fill="#475577"/>
<path d="M284.539 219.96H276.561V221.552H284.539V219.96Z" fill="#475577"/>
<path d="M296.63 219.96H288.652V221.552H296.63V219.96Z" fill="#475577"/>
<path d="M308.712 219.96H300.734V221.552H308.712V219.96Z" fill="#475577"/>
<path d="M320.794 219.96H312.816V221.552H320.794V219.96Z" fill="#475577"/>
<path d="M332.877 219.96H324.898V221.552H332.877V219.96Z" fill="#475577"/>
<path d="M344.959 219.96H336.98V221.552H344.959V219.96Z" fill="#475577"/>
<path d="M349.354 221.562H237.961V223.546H349.354V221.562Z" fill="#4CAF50"/>
<path d="M249.753 219.96H241.775V221.552H249.753V219.96Z" fill="#4CAF50"/>
<path d="M261.836 219.96H253.857V221.552H261.836V219.96Z" fill="#4CAF50"/>
<path d="M273.918 219.96H265.939V221.552H273.918V219.96Z" fill="#4CAF50"/>
<path d="M286 219.96H278.021V221.552H286V219.96Z" fill="#4CAF50"/>
<path d="M298.082 219.96H290.104V221.552H298.082V219.96Z" fill="#4CAF50"/>
<path d="M310.164 219.96H302.186V221.552H310.164V219.96Z" fill="#4CAF50"/>
<path d="M322.246 219.96H314.268V221.552H322.246V219.96Z" fill="#4CAF50"/>
<path d="M334.339 219.96H326.361V221.552H334.339V219.96Z" fill="#4CAF50"/>
<path d="M346.421 219.96H338.443V221.552H346.421V219.96Z" fill="#4CAF50"/>
<path d="M79.4506 298.281C80.8484 292.73 80.2433 286.864 77.7419 281.715C75.2405 276.567 71.0032 272.467 65.7767 270.138C63.6746 269.196 61.4123 268.545 59.5004 267.243C59.1304 269.978 58.9597 272.736 58.9898 275.496C58.9312 278.234 59.3444 280.961 60.2111 283.558C62.6536 290.179 69.3003 294.245 75.8469 296.869" fill="#388E3C"/>
<path d="M80.2522 316.049C80.4024 310.999 80.2921 305.944 79.9218 300.906C79.7837 298.684 79.4487 296.478 78.9208 294.315C78.231 291.691 77.2681 289.147 76.0479 286.724C74.7059 283.847 72.827 281.253 70.5123 279.082C70.4818 279.051 70.4404 279.034 70.3972 279.034C70.354 279.034 70.3126 279.051 70.2821 279.082C70.2515 279.112 70.2344 279.154 70.2344 279.197C70.2344 279.24 70.2515 279.282 70.2821 279.312C72.0933 281.403 73.6896 283.672 75.0469 286.083C76.3692 288.568 77.4229 291.186 78.1901 293.895C79.5114 298.462 79.5314 303.399 79.6716 308.107C79.7517 310.751 79.7416 313.415 79.9919 316.049C79.9919 316.078 80.0035 316.106 80.0242 316.127C80.0448 316.148 80.0728 316.159 80.102 316.159C80.1312 316.159 80.1592 316.148 80.1799 316.127C80.2005 316.106 80.2121 316.078 80.2121 316.049H80.2522Z" fill="#357C1B"/>
<path d="M63.8955 332.844C63.3984 329.04 62.1385 325.374 60.1914 322.068C58.2442 318.762 55.65 315.883 52.5641 313.605C49.4976 311.385 46.0145 309.807 42.3237 308.968C40.2516 308.487 30.6719 308.968 30.6719 308.968C30.6719 308.968 32.6739 316.069 35.0563 319.484C40.5519 327.436 50.1816 333.505 63.9456 332.824" fill="#388E3C"/>
<path d="M55.566 308.357C55.3138 303.757 54.4693 299.209 53.0534 294.826C52.5248 293.072 51.7817 291.39 50.8412 289.818C47.688 284.81 41.762 282.447 36.0662 281.415C35.9962 286.263 36.5467 291.36 39.2194 295.347C40.4457 297.067 41.8815 298.628 43.4938 299.994C46.5769 302.798 52.2426 305.893 55.566 308.397" fill="#28704A"/>
<path d="M87.8493 291.611C86.9584 285.482 86.1276 278.902 88.9204 273.373C89.9724 271.404 91.3231 269.61 92.9244 268.055C96.6682 264.209 101.563 261.044 106.939 261.044C107.895 266.845 106.752 272.797 103.715 277.83C100.712 282.838 93.435 289.848 87.8993 291.641" fill="#28704A"/>
<path d="M78.0098 327.206C80.8676 327.799 83.8166 327.8 86.6749 327.209C89.5331 326.618 92.2401 325.448 94.6289 323.77C97.0177 322.092 99.0377 319.943 100.564 317.454C102.091 314.965 103.092 312.19 103.506 309.299C103.557 309.181 103.575 309.051 103.556 308.924C103.537 308.797 103.482 308.678 103.398 308.581C103.315 308.483 103.205 308.412 103.082 308.374C102.96 308.336 102.829 308.334 102.705 308.367C92.8648 308.307 80.6825 317.712 78.0098 327.206Z" fill="#28704A"/>
<path d="M57.7578 305.052C65.866 300.485 71.0813 291.341 71.2315 281.395C65.3755 281.065 60.9711 284.67 58.4185 287.775C54.8749 292.102 54.5746 299.703 57.7578 305.052Z" fill="#28704A"/>
<path d="M63.6545 321.097C62.5674 318.385 62.1595 315.449 62.4663 312.543C62.7732 309.638 63.7855 306.852 65.415 304.427C67.0446 302.003 69.2419 300.014 71.8156 298.634C74.3893 297.254 77.2612 296.524 80.1812 296.509C80.4315 296.509 80.7118 296.509 80.8419 296.729C80.9179 296.852 80.9562 296.995 80.952 297.14C81.1722 302.147 78.95 306.985 75.8368 310.861C72.7237 314.737 68.6495 317.762 64.5954 320.656" fill="#28704A"/>
<path d="M96.7382 277.349C92.689 281.308 89.4786 286.043 87.2986 291.271C84.9491 296.735 83.0411 302.378 81.5928 308.147C78.4658 320.599 76.3204 333.277 75.1763 346.065C74.4356 353.297 73.7449 360.568 73.4746 367.839C73.4746 368.12 73.875 368.11 73.9051 367.839C74.6658 361.469 75.0862 355.049 75.7069 348.67C76.3275 342.29 77.0382 335.98 77.9892 329.64C78.9401 323.3 80.0913 317.191 81.5928 311.061C82.9699 305.158 84.7389 299.353 86.8882 293.684C89.2206 287.745 92.3537 282.036 96.8983 277.53C97.0385 277.399 96.8283 277.199 96.6981 277.319L96.7382 277.349Z" fill="#357C1B"/>
<path d="M63.6447 329.68C63.6447 328.559 63.5446 327.437 63.5846 326.315C63.6213 325.028 63.7283 323.744 63.905 322.469C64.0751 321.267 64.2954 320.075 64.5756 318.894C64.8559 317.712 65.2664 316.75 65.4065 315.669C65.4065 315.468 65.1562 315.448 65.0561 315.578C64.4893 316.581 64.1062 317.676 63.925 318.813C63.6312 320.021 63.4072 321.245 63.2543 322.479C63.0892 323.752 62.989 325.032 62.954 326.315C62.8736 327.464 62.9443 328.619 63.1642 329.75C63.1854 329.802 63.2233 329.845 63.2718 329.873C63.3202 329.9 63.3766 329.911 63.4318 329.903C63.487 329.895 63.538 329.869 63.5766 329.828C63.6151 329.788 63.6391 329.736 63.6447 329.68Z" fill="#357C1B"/>
<path d="M64.3143 288.266C61.9903 290.524 60.3049 293.357 59.4294 296.478C58.2012 300.193 57.642 304.096 57.7777 308.006C57.7884 310.191 58.1258 312.361 58.7787 314.446C58.7894 314.487 58.8159 314.523 58.8525 314.544C58.8891 314.566 58.9328 314.572 58.9739 314.561C59.0151 314.551 59.0503 314.524 59.0719 314.487C59.0935 314.451 59.0997 314.407 59.089 314.366C58.1849 310.662 57.9209 306.831 58.3083 303.038C58.6592 299.366 59.6769 295.789 61.3113 292.482C62.0678 290.938 63.0835 289.536 64.3143 288.336C64.3143 288.336 64.3143 288.226 64.2343 288.266H64.3143Z" fill="#357C1B"/>
<path d="M66.6778 357.913C66.7465 353.61 66.5291 349.308 66.0271 345.033C65.591 340.568 64.9228 336.129 64.0251 331.733C62.2548 322.746 59.1543 314.074 54.8258 306.003C53.6095 303.804 52.2727 301.675 50.8217 299.623C49.3995 297.528 47.7768 295.575 45.9768 293.794C45.7466 293.574 45.4463 293.904 45.6365 294.135C47.0579 295.897 48.5494 297.59 49.8908 299.413C51.2021 301.216 52.4215 303.085 53.5445 305.012C55.8067 308.937 57.7225 313.052 59.2703 317.311C62.3379 325.778 64.3714 334.585 65.3264 343.541C65.877 348.319 66.0271 353.096 66.3274 357.893C66.3372 357.935 66.3608 357.972 66.3944 357.999C66.428 358.026 66.4697 358.04 66.5126 358.04C66.5555 358.04 66.5972 358.026 66.6308 357.999C66.6644 357.972 66.688 357.935 66.6978 357.893L66.6778 357.913Z" fill="#357C1B"/>
<path d="M99.8016 338.223V346.235C99.8016 377.974 89.2809 386.998 89.2809 386.998H56.7179C56.7179 386.998 46.1973 377.984 46.1973 346.235V338.223H99.8016Z" fill="#C9C9C9"/>
<path d="M28.3184 386.998H539.286" stroke="#475577" stroke-width="2" stroke-miterlimit="10"/>
</g>
<defs>
<linearGradient id="paint0_linear_87_2" x1="201.844" y1="199.488" x2="201.844" y2="171.845" gradientUnits="userSpaceOnUse">
<stop stop-color="white" stop-opacity="0.1"/>
<stop offset="1" stop-color="white" stop-opacity="0.4"/>
</linearGradient>
<clipPath id="clip0_87_2">
<rect width="543" height="388" fill="white"/>
</clipPath>
</defs>
</svg>
