<svg width="543" height="388" viewBox="0 0 543 388" fill="none" xmlns="http://www.w3.org/2000/svg">
<g clip-path="url(#clip0_83_2)">
<path d="M277.95 22.3301H160.62C158.847 22.3301 157.41 23.7672 157.41 25.5401V93.8701C157.41 95.6429 158.847 97.0801 160.62 97.0801H277.95C279.723 97.0801 281.16 95.6429 281.16 93.8701V25.5401C281.16 23.7672 279.723 22.3301 277.95 22.3301Z" stroke="#4CAF50" stroke-miterlimit="10"/>
<path d="M157.41 35.8701H281.16" stroke="#4CAF50" stroke-miterlimit="10"/>
<path d="M165.4 31.1602C166.493 31.1602 167.38 30.2737 167.38 29.1802C167.38 28.0867 166.493 27.2002 165.4 27.2002C164.306 27.2002 163.42 28.0867 163.42 29.1802C163.42 30.2737 164.306 31.1602 165.4 31.1602Z" stroke="#4CAF50" stroke-miterlimit="10"/>
<path d="M175.51 29.1699C175.51 29.5655 175.392 29.9522 175.173 30.2811C174.953 30.61 174.641 30.8663 174.275 31.0177C173.91 31.1691 173.508 31.2087 173.12 31.1315C172.732 31.0543 172.375 30.8638 172.096 30.5841C171.816 30.3044 171.625 29.9481 171.548 29.5601C171.471 29.1721 171.511 28.77 171.662 28.4046C171.813 28.0391 172.07 27.7267 172.399 27.507C172.728 27.2872 173.114 27.1699 173.51 27.1699C174.04 27.1699 174.549 27.3806 174.924 27.7557C175.299 28.1308 175.51 28.6395 175.51 29.1699Z" stroke="#4CAF50" stroke-miterlimit="10"/>
<path d="M183.65 29.1699C183.65 29.5655 183.533 29.9522 183.313 30.2811C183.094 30.61 182.781 30.8663 182.416 31.0177C182.05 31.1691 181.648 31.2087 181.26 31.1315C180.872 31.0543 180.516 30.8638 180.236 30.5841C179.956 30.3044 179.766 29.9481 179.689 29.5601C179.612 29.1721 179.651 28.77 179.803 28.4046C179.954 28.0391 180.21 27.7267 180.539 27.507C180.868 27.2872 181.255 27.1699 181.65 27.1699C182.181 27.1699 182.69 27.3806 183.065 27.7557C183.44 28.1308 183.65 28.6395 183.65 29.1699Z" stroke="#4CAF50" stroke-miterlimit="10"/>
<path d="M121.749 65.4004H92.4891C89.6614 65.4004 87.3691 67.6927 87.3691 70.5204V99.7804C87.3691 102.608 89.6614 104.9 92.4891 104.9H121.749C124.577 104.9 126.869 102.608 126.869 99.7804V70.5204C126.869 67.6927 124.577 65.4004 121.749 65.4004Z" stroke="#4CAF50" stroke-linejoin="round"/>
<path d="M107.121 96.4598C113.367 96.4598 118.431 91.3962 118.431 85.1498C118.431 78.9035 113.367 73.8398 107.121 73.8398C100.874 73.8398 95.8105 78.9035 95.8105 85.1498C95.8105 91.3962 100.874 96.4598 107.121 96.4598Z" stroke="#4CAF50" stroke-width="3" stroke-miterlimit="10"/>
<path d="M114.759 77.1602L98.7793 93.1301" stroke="#4CAF50" stroke-width="3" stroke-miterlimit="10"/>
<path d="M388.75 95.91L380.56 87.42H254.51C253.108 87.42 251.719 87.1438 250.423 86.607C249.127 86.0703 247.95 85.2836 246.958 84.2919C245.966 83.3002 245.18 82.1228 244.643 80.8271C244.106 79.5313 243.83 78.1425 243.83 76.74V11.18C243.83 8.34749 244.955 5.63099 246.958 3.6281C248.961 1.62521 251.678 0.5 254.51 0.5H381.12C383.953 0.5 386.669 1.62521 388.672 3.6281C390.675 5.63099 391.8 8.34749 391.8 11.18V94.68C391.802 95.0342 391.697 95.3807 391.499 95.6746C391.302 95.9686 391.021 96.1966 390.692 96.3291C390.364 96.4615 390.003 96.4924 389.657 96.4177C389.311 96.343 388.995 96.1661 388.75 95.91Z" fill="white" stroke="#4CAF50" stroke-linejoin="round"/>
<path d="M294.51 58.1101H289.08V67.6501H275.9V58.1101H256.26V48.3401L276.75 18.3901H289.04V48.1701H294.51V58.1101ZM275.94 48.1701V42.4401C275.94 41.3701 275.94 39.9101 276.06 38.0801C276.07 37.1174 276.133 36.1559 276.25 35.2001H275.88C275.14 36.8817 274.271 38.5032 273.28 40.0501L267.82 48.1701H275.94Z" fill="#FE1C04"/>
<path d="M335.51 43.0802C335.51 51.8002 334.05 58.1868 331.13 62.2402C328.21 66.2935 323.74 68.3202 317.72 68.3202C311.826 68.3202 307.39 66.2035 304.41 61.9702C301.43 57.7368 299.936 51.4402 299.93 43.0802C299.93 34.3202 301.39 27.8968 304.31 23.8102C307.23 19.7235 311.7 17.6802 317.72 17.6802C323.58 17.6802 328.01 19.8102 331.01 24.0702C334.01 28.3302 335.51 34.6668 335.51 43.0802ZM313.17 43.0802C313.17 48.6602 313.52 52.4802 314.17 54.5702C314.82 56.6602 316.04 57.7102 317.68 57.7102C319.32 57.7102 320.51 56.6302 321.2 54.4702C321.89 52.3102 322.2 48.4702 322.2 43.0802C322.2 37.6902 321.85 33.8002 321.2 31.6102C320.55 29.4202 319.34 28.3302 317.7 28.3302C316.06 28.3302 314.89 29.3302 314.19 31.4902C313.49 33.6502 313.18 37.4702 313.18 43.0802H313.17Z" fill="#FE1C04"/>
<path d="M379.329 58.1101H373.899V67.6501H360.759V58.1101H341.119V48.3401L361.609 18.3901H373.899V48.1701H379.329V58.1101ZM360.759 48.1701V42.4401C360.759 41.3701 360.759 39.9101 360.879 38.0801C360.889 37.1174 360.953 36.1559 361.069 35.2001H360.699C359.959 36.8817 359.09 38.5032 358.099 40.0501L352.639 48.1701H360.759Z" fill="#FE1C04"/>
<path d="M536.819 180.41H507.559C504.732 180.41 502.439 182.702 502.439 185.53V214.79C502.439 217.618 504.732 219.91 507.559 219.91H536.819C539.647 219.91 541.939 217.618 541.939 214.79V185.53C541.939 182.702 539.647 180.41 536.819 180.41Z" stroke="#4CAF50" stroke-linejoin="round"/>
<path d="M534.919 211.25C534.768 211.301 534.609 211.328 534.449 211.33H509.929C509.677 211.329 509.429 211.261 509.211 211.134C508.994 211.007 508.813 210.825 508.687 210.607C508.562 210.388 508.496 210.14 508.496 209.888C508.496 209.636 508.563 209.388 508.689 209.17L520.939 187.94C521.063 187.72 521.244 187.538 521.461 187.412C521.679 187.285 521.927 187.219 522.179 187.22C522.431 187.22 522.678 187.286 522.897 187.41C523.116 187.535 523.3 187.714 523.429 187.93L535.689 209.16C535.795 209.343 535.859 209.548 535.877 209.759C535.895 209.97 535.867 210.182 535.793 210.381C535.719 210.579 535.603 210.759 535.452 210.908C535.301 211.056 535.119 211.17 534.919 211.24V211.25ZM510.609 209.51H533.769L522.179 189.45L510.609 209.51Z" fill="#4CAF50"/>
<path d="M522.19 205.29C521.965 205.292 521.748 205.207 521.586 205.052C521.423 204.897 521.327 204.684 521.32 204.46L520.82 196.11C520.812 195.926 520.841 195.742 520.905 195.569C520.97 195.397 521.069 195.239 521.196 195.106C521.323 194.972 521.475 194.866 521.644 194.792C521.813 194.719 521.995 194.681 522.18 194.68C522.364 194.68 522.546 194.717 522.716 194.789C522.885 194.86 523.039 194.966 523.167 195.098C523.294 195.231 523.394 195.388 523.46 195.56C523.526 195.732 523.556 195.916 523.55 196.1L523.05 204.46C523.042 204.683 522.948 204.894 522.787 205.049C522.627 205.203 522.413 205.29 522.19 205.29Z" fill="#4CAF50"/>
<path d="M523.071 207.31C523.069 207.484 523.015 207.653 522.917 207.796C522.819 207.939 522.681 208.051 522.52 208.116C522.359 208.181 522.183 208.197 522.013 208.162C521.843 208.127 521.687 208.042 521.565 207.919C521.443 207.795 521.36 207.638 521.327 207.468C521.294 207.298 521.312 207.121 521.378 206.961C521.445 206.801 521.558 206.664 521.703 206.568C521.847 206.471 522.017 206.42 522.191 206.42C522.307 206.42 522.422 206.443 522.53 206.488C522.637 206.533 522.734 206.598 522.816 206.681C522.898 206.764 522.963 206.862 523.006 206.97C523.05 207.078 523.072 207.194 523.071 207.31Z" fill="#4CAF50"/>
<path d="M4.95024 149.32C4.95024 149.761 4.81945 150.192 4.57441 150.559C4.32938 150.925 3.9811 151.211 3.57362 151.38C3.16614 151.549 2.71776 151.593 2.28518 151.507C1.8526 151.421 1.45525 151.209 1.14338 150.897C0.831511 150.585 0.619129 150.187 0.533084 149.755C0.447039 149.322 0.491201 148.874 0.659984 148.466C0.828767 148.059 1.11459 147.711 1.48131 147.466C1.84803 147.221 2.27918 147.09 2.72023 147.09C3.31167 147.09 3.87888 147.325 4.29708 147.743C4.71529 148.161 4.95024 148.728 4.95024 149.32Z" stroke="#4CAF50" stroke-linecap="round" stroke-linejoin="round"/>
<path d="M379.329 268.13C379.331 268.572 379.202 269.004 378.958 269.372C378.714 269.74 378.367 270.027 377.959 270.198C377.552 270.368 377.103 270.413 376.67 270.329C376.237 270.244 375.839 270.032 375.526 269.721C375.213 269.409 375 269.012 374.913 268.579C374.826 268.146 374.869 267.697 375.038 267.289C375.206 266.881 375.492 266.532 375.859 266.287C376.226 266.041 376.658 265.91 377.099 265.91C377.689 265.91 378.255 266.144 378.672 266.56C379.09 266.976 379.326 267.54 379.329 268.13Z" stroke="#4CAF50" stroke-linecap="round" stroke-linejoin="round"/>
<path d="M532.45 85.1399C532.452 85.5814 532.323 86.0135 532.079 86.3815C531.835 86.7496 531.488 87.037 531.081 87.2073C530.673 87.3776 530.225 87.4232 529.791 87.3383C529.358 87.2534 528.96 87.0418 528.647 86.7303C528.334 86.4188 528.121 86.0215 528.034 85.5887C527.947 85.1558 527.991 84.7069 528.159 84.2989C528.327 83.8908 528.613 83.5419 528.98 83.2964C529.347 83.051 529.779 82.9199 530.22 82.9199C530.81 82.9199 531.376 83.1535 531.794 83.5695C532.211 83.9856 532.448 84.5502 532.45 85.1399Z" stroke="#4CAF50" stroke-linecap="round" stroke-linejoin="round"/>
<path d="M412.171 16.22C412.173 16.6615 412.044 17.0936 411.8 17.4616C411.556 17.8297 411.209 18.1171 410.801 18.2874C410.394 18.4577 409.945 18.5033 409.512 18.4184C409.079 18.3335 408.68 18.1219 408.368 17.8104C408.055 17.4989 407.841 17.1016 407.755 16.6687C407.668 16.2359 407.711 15.787 407.88 15.3789C408.048 14.9709 408.334 14.622 408.701 14.3765C409.068 14.131 409.499 14 409.941 14C410.531 14 411.096 14.2336 411.514 14.6496C411.932 15.0657 412.168 15.6303 412.171 16.22Z" stroke="#4CAF50" stroke-linecap="round" stroke-linejoin="round"/>
<path d="M528 158.03V164.93" stroke="#4CAF50" stroke-linecap="round" stroke-linejoin="round"/>
<path d="M531.451 161.48H524.551" stroke="#4CAF50" stroke-linecap="round" stroke-linejoin="round"/>
<path d="M347.619 290.96V297.86" stroke="#4CAF50" stroke-linecap="round" stroke-linejoin="round"/>
<path d="M351.07 294.41H344.16" stroke="#4CAF50" stroke-linecap="round" stroke-linejoin="round"/>
<path d="M201.68 3.5V10.4" stroke="#4CAF50" stroke-linecap="round" stroke-linejoin="round"/>
<path d="M205.13 6.9502H198.23" stroke="#4CAF50" stroke-linecap="round" stroke-linejoin="round"/>
<path d="M47.2109 70.2002V77.1002" stroke="#4CAF50" stroke-linecap="round" stroke-linejoin="round"/>
<path d="M50.6598 73.6504H43.7598" stroke="#4CAF50" stroke-linecap="round" stroke-linejoin="round"/>
<path d="M35.9805 229.07V235.97" stroke="#4CAF50" stroke-linecap="round" stroke-linejoin="round"/>
<path d="M39.4293 232.52H32.5293" stroke="#4CAF50" stroke-linecap="round" stroke-linejoin="round"/>
<path d="M427.131 42.5703V49.4703" stroke="#4CAF50" stroke-linecap="round" stroke-linejoin="round"/>
<path d="M430.58 46.0195H423.68" stroke="#4CAF50" stroke-linecap="round" stroke-linejoin="round"/>
<path d="M87.3101 189.82H18.2601C17.6827 189.818 17.1297 189.587 16.7215 189.179C16.3132 188.771 16.0827 188.218 16.0801 187.64C16.0801 187.061 16.3094 186.506 16.718 186.095C17.1265 185.685 17.681 185.453 18.2601 185.45H87.3101C87.8909 185.45 88.4479 185.681 88.8586 186.092C89.2693 186.502 89.5001 187.059 89.5001 187.64C89.4974 188.219 89.2655 188.774 88.8551 189.182C88.4447 189.591 87.8892 189.82 87.3101 189.82Z" stroke="#4CAF50" stroke-miterlimit="10"/>
<path d="M493.879 134.64H424.879C424.3 134.64 423.745 134.41 423.334 134.002C422.924 133.593 422.692 133.039 422.689 132.46C422.689 132.172 422.746 131.887 422.856 131.621C422.966 131.356 423.128 131.114 423.331 130.911C423.534 130.708 423.776 130.546 424.041 130.436C424.307 130.326 424.592 130.27 424.879 130.27H493.879C494.459 130.272 495.013 130.504 495.422 130.914C495.83 131.325 496.059 131.88 496.059 132.46C496.057 133.037 495.826 133.59 495.418 133.998C495.01 134.406 494.457 134.637 493.879 134.64Z" stroke="#4CAF50" stroke-miterlimit="10"/>
<path d="M503.98 149.32H478.51C478.221 149.32 477.944 149.205 477.739 149C477.535 148.796 477.42 148.519 477.42 148.23C477.42 147.941 477.535 147.663 477.739 147.459C477.944 147.255 478.221 147.14 478.51 147.14H504.03C504.174 147.138 504.317 147.166 504.45 147.22C504.584 147.274 504.705 147.354 504.807 147.455C504.909 147.557 504.991 147.677 505.046 147.81C505.101 147.943 505.13 148.086 505.13 148.23C505.13 148.378 505.1 148.525 505.042 148.661C504.983 148.797 504.897 148.92 504.79 149.022C504.682 149.124 504.555 149.203 504.416 149.255C504.276 149.306 504.128 149.328 503.98 149.32Z" fill="#4CAF50"/>
<path d="M436.44 97.2896H410.91C410.766 97.2896 410.624 97.2611 410.491 97.2057C410.358 97.1503 410.237 97.0691 410.136 96.9668C410.035 96.8645 409.955 96.7432 409.9 96.6098C409.846 96.4764 409.819 96.3336 409.82 96.1896C409.82 95.9005 409.935 95.6233 410.14 95.4189C410.344 95.2145 410.621 95.0996 410.91 95.0996H436.44C436.729 95.0996 437.007 95.2145 437.211 95.4189C437.416 95.6233 437.53 95.9005 437.53 96.1896C437.532 96.3336 437.504 96.4764 437.45 96.6098C437.396 96.7432 437.316 96.8645 437.215 96.9668C437.113 97.0691 436.993 97.1503 436.86 97.2057C436.727 97.2611 436.584 97.2896 436.44 97.2896Z" fill="#4CAF50"/>
<path d="M61.6493 170.48H42.1193C41.9754 170.48 41.8328 170.452 41.6999 170.396C41.567 170.341 41.4464 170.26 41.345 170.157C41.2437 170.055 41.1636 169.934 41.1094 169.8C41.0552 169.667 41.028 169.524 41.0293 169.38C41.0293 169.091 41.1442 168.814 41.3486 168.609C41.553 168.405 41.8303 168.29 42.1193 168.29H61.6493C61.9384 168.29 62.2157 168.405 62.4201 168.609C62.6245 168.814 62.7393 169.091 62.7393 169.38C62.7407 169.524 62.7134 169.667 62.6593 169.8C62.6051 169.934 62.525 170.055 62.4236 170.157C62.3223 170.26 62.2017 170.341 62.0688 170.396C61.9359 170.452 61.7933 170.48 61.6493 170.48Z" fill="#4CAF50"/>
<path d="M455.76 74.1104H476.9C478.943 74.1104 480.6 72.4538 480.6 70.4103V49.2703C480.6 47.2269 478.943 45.5704 476.9 45.5704H455.76C453.716 45.5704 452.06 47.2269 452.06 49.2703V70.4103C452.06 72.4538 453.716 74.1104 455.76 74.1104Z" stroke="#4CAF50" stroke-linejoin="round"/>
<path d="M470.371 58.6301L469.881 61.0801H472.601V63.2501H469.511L468.701 67.5401H466.381L467.201 63.2501H464.201L463.391 67.5401H461.121L461.901 63.2501H459.391V61.0801H462.321L462.811 58.6301H460.151V56.4201H463.151L463.971 52.1201H466.281L465.471 56.4201H468.471L469.301 52.1201H471.571L470.741 56.4201H473.281V58.6301H470.371ZM464.561 61.0801H467.561L468.061 58.6301H465.061L464.561 61.0801Z" fill="#4CAF50"/>
<path d="M226.01 271.54L205.96 140.05H115.66L137.31 279.38C137.986 283.91 140.287 288.04 143.782 291C147.278 293.961 151.73 295.549 156.31 295.47H308.2L309.31 282.71H239.19C236.01 282.77 232.918 281.669 230.491 279.613C228.065 277.557 226.472 274.686 226.01 271.54Z" fill="#85182A"/>
<path d="M140.511 271.54L121.241 144.91C121.039 143.539 120.343 142.288 119.285 141.393C118.226 140.498 116.877 140.021 115.491 140.05H115.321C114.338 140.063 113.369 140.282 112.477 140.694C111.585 141.105 110.789 141.7 110.142 142.44C109.495 143.18 109.011 144.047 108.721 144.986C108.432 145.925 108.343 146.915 108.461 147.89L128.891 279.38C129.568 283.919 131.876 288.056 135.382 291.018C138.888 293.979 143.352 295.562 147.941 295.47H245.731L246.851 282.71H153.731C150.544 282.783 147.44 281.687 145.005 279.629C142.57 277.572 140.971 274.695 140.511 271.54Z" fill="#C71F37"/>
<path d="M201.68 295.48V367.25" stroke="#544943" stroke-width="1.5" stroke-miterlimit="10"/>
<path d="M161.439 373.59C161.439 371.909 162.107 370.296 163.296 369.107C164.485 367.918 166.098 367.25 167.779 367.25H235.569C237.251 367.25 238.864 367.918 240.053 369.107C241.242 370.296 241.909 371.909 241.909 373.59" stroke="#544943" stroke-width="1.5" stroke-miterlimit="10"/>
<path d="M194.74 373.59C194.74 371.909 195.408 370.296 196.597 369.107C197.786 367.918 199.399 367.25 201.08 367.25" stroke="#544943" stroke-width="1.5" stroke-miterlimit="10"/>
<path d="M167.84 379.99C167.841 381.259 167.467 382.499 166.763 383.555C166.06 384.61 165.059 385.434 163.887 385.92C162.715 386.406 161.426 386.534 160.181 386.287C158.937 386.04 157.794 385.429 156.897 384.532C156 383.635 155.389 382.492 155.142 381.248C154.895 380.004 155.023 378.714 155.509 377.542C155.996 376.371 156.819 375.37 157.875 374.666C158.93 373.962 160.171 373.588 161.44 373.59C163.137 373.59 164.765 374.264 165.965 375.464C167.165 376.665 167.84 378.292 167.84 379.99Z" fill="#717A91"/>
<g opacity="0.45">
<path d="M163.79 379.99C163.792 380.457 163.655 380.915 163.397 381.305C163.138 381.694 162.77 381.998 162.338 382.178C161.906 382.358 161.431 382.406 160.972 382.315C160.514 382.224 160.092 381.999 159.762 381.668C159.431 381.338 159.206 380.916 159.115 380.458C159.024 379.999 159.072 379.524 159.252 379.092C159.432 378.66 159.736 378.292 160.125 378.033C160.515 377.775 160.973 377.638 161.44 377.64C162.064 377.64 162.661 377.887 163.102 378.328C163.543 378.769 163.79 379.366 163.79 379.99Z" fill="#1E460F"/>
</g>
<path d="M201.14 379.99C201.142 381.259 200.768 382.499 200.064 383.555C199.361 384.61 198.36 385.434 197.188 385.92C196.016 386.406 194.727 386.534 193.482 386.287C192.238 386.04 191.095 385.429 190.198 384.532C189.301 383.635 188.69 382.492 188.443 381.248C188.196 380.004 188.324 378.714 188.81 377.542C189.297 376.371 190.12 375.37 191.175 374.666C192.231 373.962 193.472 373.588 194.74 373.59C196.438 373.59 198.066 374.264 199.266 375.464C200.466 376.665 201.14 378.292 201.14 379.99Z" fill="#717A91"/>
<g opacity="0.45">
<path d="M197.089 379.99C197.091 380.457 196.954 380.915 196.696 381.305C196.437 381.694 196.069 381.998 195.637 382.178C195.205 382.358 194.73 382.406 194.271 382.315C193.812 382.224 193.391 381.999 193.06 381.668C192.73 381.338 192.505 380.916 192.414 380.458C192.323 379.999 192.371 379.524 192.551 379.092C192.731 378.66 193.035 378.292 193.424 378.033C193.814 377.775 194.272 377.638 194.739 377.64C195.362 377.64 195.96 377.887 196.401 378.328C196.842 378.769 197.089 379.366 197.089 379.99Z" fill="#1E460F"/>
</g>
<path d="M248.31 379.99C248.31 381.256 247.934 382.493 247.231 383.546C246.528 384.598 245.528 385.418 244.359 385.903C243.189 386.387 241.903 386.514 240.661 386.267C239.42 386.02 238.279 385.41 237.384 384.515C236.489 383.62 235.88 382.48 235.633 381.238C235.386 379.997 235.513 378.71 235.997 377.541C236.481 376.371 237.302 375.372 238.354 374.668C239.407 373.965 240.644 373.59 241.91 373.59C243.607 373.59 245.235 374.264 246.435 375.464C247.635 376.665 248.31 378.292 248.31 379.99Z" fill="#717A91"/>
<g opacity="0.45">
<path d="M244.261 379.99C244.261 380.454 244.123 380.909 243.864 381.295C243.606 381.682 243.239 381.983 242.81 382.161C242.38 382.339 241.908 382.385 241.452 382.294C240.996 382.204 240.578 381.98 240.249 381.651C239.92 381.323 239.696 380.904 239.606 380.448C239.515 379.992 239.562 379.52 239.739 379.09C239.917 378.661 240.219 378.294 240.605 378.036C240.991 377.777 241.446 377.64 241.911 377.64C242.534 377.64 243.132 377.887 243.572 378.328C244.013 378.769 244.261 379.366 244.261 379.99Z" fill="#1E460F"/>
</g>
<path d="M272.25 154.16L295.13 119.97L302.23 121.44C296.81 139.7 293.23 146.92 293.23 146.92" fill="#FFCBBB"/>
<path d="M298.579 127.11L302.229 121.44C302.229 121.44 309.019 119.88 311.479 118.62C313.684 117.475 315.392 115.56 316.279 113.24C316.809 111.8 316.579 107.55 315.959 107.48C314.499 107.32 311.589 112.76 310.229 113.09C308.869 113.42 304.439 113.09 302.009 113.39C300.763 113.606 299.585 114.115 298.573 114.875C297.562 115.635 296.745 116.623 296.189 117.76L292.449 124.55" fill="#FFCBBB"/>
<path d="M287.211 129.98L291.231 124.16L301.621 128.82L298.321 137.67" fill="#E6E8EF"/>
<path d="M203.699 117.82C203.699 117.82 220.649 110.02 235.579 123.3C250.509 136.58 260.579 148.92 266.079 152.91L288.569 127.04L301.129 132.94C297.819 151.67 288.519 181.55 265.779 184.63C241.169 187.95 205.079 157.63 205.079 157.63" fill="#52A67A"/>
<path d="M258.789 161.48L266.089 152.88" stroke="#28704A" stroke-miterlimit="10"/>
<path d="M294.74 375.58L292.84 382.88C292.731 383.294 292.719 383.728 292.804 384.148C292.89 384.568 293.07 384.962 293.332 385.301C293.594 385.64 293.93 385.915 294.314 386.103C294.699 386.292 295.121 386.39 295.55 386.39H317.69C318.329 386.39 318.942 386.136 319.394 385.684C319.846 385.232 320.1 384.619 320.1 383.98C320.099 383.468 319.936 382.97 319.634 382.557C319.332 382.143 318.907 381.837 318.42 381.68L303.29 375.58" fill="#9E2C2C"/>
<path d="M281.98 261.44C278.44 298.59 294.74 375.58 294.74 375.58C294.74 375.58 298.61 380.26 303.29 375.58C303.29 375.58 307.22 302.17 311.35 269.17" fill="#FFCBBB"/>
<path d="M229.159 217.92L254.569 231.25V231.51C254.569 231.51 306.419 228.03 314.259 246.51C326.509 275.53 328.629 369.82 328.629 369.82H290.679C290.679 369.82 276.559 290.63 271.729 285.82C266.899 281.01 246.989 281.34 210.369 281.34C169.239 281.34 189.319 228.34 204.629 223.76" fill="#388E3C"/>
<path d="M293.31 369.82C293.31 369.82 282.03 288.1 273.74 282.11C263.62 274.79 215.83 279.57 215.83 279.57" stroke="#52A67A" stroke-miterlimit="10"/>
<path d="M215.159 375.58L213.259 382.88C213.151 383.294 213.139 383.728 213.224 384.148C213.309 384.568 213.49 384.962 213.752 385.301C214.013 385.64 214.35 385.915 214.734 386.103C215.118 386.292 215.541 386.39 215.969 386.39H238.109C238.749 386.39 239.362 386.136 239.814 385.684C240.266 385.232 240.519 384.619 240.519 383.98C240.519 383.468 240.356 382.97 240.054 382.557C239.752 382.143 239.327 381.837 238.839 381.68L223.71 375.58" fill="#9E2C2C"/>
<path d="M218.84 261.44C215.31 298.59 215.16 375.58 215.16 375.58C215.16 375.58 219.03 380.26 223.71 375.58C223.71 375.58 237.03 302.17 241.17 269.17" fill="#FFCBBB"/>
<path d="M184.339 229.59C184.339 229.59 250.999 230.66 259.709 250.86C270.439 275.69 252.759 369.86 252.759 369.86H212.589V285.66C212.603 284.872 212.305 284.109 211.76 283.538C211.216 282.967 210.468 282.634 209.679 282.61C204.119 282.76 191.679 282.76 175.939 282.76C134.809 282.76 154.889 218.76 170.199 214.19" fill="#52AA32"/>
<path d="M184.34 229.59C184.34 229.59 251 230.66 259.71 250.86C262.62 257.59 264.13 269.05 263.35 282.71" stroke="#52A67A" stroke-miterlimit="10"/>
<path d="M218.189 369.82C218.189 369.82 218.599 285.3 216.659 280.82C213.959 274.55 204.749 277.63 183.379 277.63C142.249 277.63 159.009 218.75 174.319 214.19" stroke="#357C1B" stroke-miterlimit="10"/>
<path d="M158.74 239.88C158.74 239.88 179.85 240.39 183.05 237.19C186.25 233.99 183.05 219.49 183.05 219.49" stroke="#357C1B" stroke-miterlimit="10"/>
<path d="M158.221 242.71C158.221 242.71 182.331 243.23 185.981 240.02C189.631 236.81 185.981 222.29 185.981 222.29" stroke="#357C1B" stroke-miterlimit="10" stroke-dasharray="3 2"/>
<path d="M154.151 141.61C154.151 141.61 149.091 231.51 156.751 231.51C164.411 231.51 249.581 231.25 254.571 231.25C259.561 231.25 247.881 154.37 231.061 138.13C231.061 138.13 206.111 111.06 195.111 113.65C184.111 116.24 154.151 141.61 154.151 141.61Z" fill="#52A67A"/>
<path d="M249.17 182.5L238.59 139.15" stroke="#28704A" stroke-miterlimit="10"/>
<path d="M111.07 157.89L88.1798 123.7L81.0898 125.17C86.5098 143.42 90.0898 150.65 90.0898 150.65" fill="#FFCBBB"/>
<path d="M84.7397 130.82L81.0897 125.16C81.0897 125.16 74.2997 123.6 71.8297 122.34C69.6275 121.191 67.9206 119.278 67.0297 116.96C66.4997 115.52 66.7297 111.27 67.3497 111.2C68.8097 111.04 71.7197 116.48 73.0797 116.81C74.4397 117.14 78.8697 116.81 81.2997 117.11C82.5462 117.326 83.7237 117.835 84.7354 118.595C85.7471 119.354 86.5642 120.343 87.1197 121.48L90.8597 128.27" fill="#FFCBBB"/>
<path d="M96.1092 133.71L92.0892 127.89L81.6992 132.55L84.9992 141.4" fill="#E6E8EF"/>
<path d="M185.621 118.3C185.621 118.3 168.871 106.4 151.621 121.02C135.501 134.65 124.761 162.16 121.161 162.16C118.651 162.16 103.161 142.39 93.8906 130.28L82.8906 136.17C89.8306 157.36 104.971 193.41 127.611 193.41C145.371 193.41 181.851 151.8 181.851 151.8" fill="#52A67A"/>
<path d="M152.689 180.1L179.689 157.59" stroke="#28704A" stroke-miterlimit="10"/>
<path d="M187.24 120.43L203.33 137.67L205.44 117.74" fill="#E6E8EF"/>
<path d="M187.24 120.43L203.33 137.67L205.44 117.74" stroke="#846A6A" stroke-linejoin="round"/>
<path d="M200.16 103.02L204.69 112.94C204.69 112.94 206.51 118.63 198.96 121.2C196.693 122.052 194.228 122.232 191.862 121.717C189.496 121.203 187.328 120.016 185.62 118.3L184.43 102.74" fill="#FFCBBB"/>
<path d="M185.191 112.63C185.191 112.63 191.141 120.1 198.961 121.2L193.281 129.63C188.681 127.04 183.051 116.98 183.051 116.98L185.191 112.63Z" fill="white"/>
<path d="M204.211 111.58C203.391 115.213 201.573 118.545 198.961 121.2L205.431 126.09C206.921 122.43 206.751 116.73 206.751 116.73L204.211 111.58Z" fill="white"/>
<path d="M206.871 86.9997C206.871 86.9997 211.141 103.36 204.721 107.5C198.301 111.64 187.151 105.34 186.501 103.29C185.851 101.24 182.951 83.7697 187.131 82.4497C194.571 80.1297 204.681 80.0197 206.871 86.9997Z" fill="#FFCBBB"/>
<path d="M206.73 92.3104C206.77 92.4724 206.76 92.6426 206.703 92.7992C206.645 92.9558 206.543 93.0918 206.408 93.1898C206.273 93.2878 206.112 93.3433 205.945 93.3494C205.778 93.3555 205.613 93.3118 205.472 93.2239C205.33 93.136 205.217 93.0078 205.149 92.8558C205.08 92.7038 205.058 92.5348 205.086 92.3703C205.114 92.2058 205.19 92.0533 205.304 91.9322C205.419 91.8111 205.567 91.7269 205.73 91.6904C205.837 91.6651 205.947 91.6612 206.055 91.6787C206.163 91.6963 206.266 91.735 206.359 91.7926C206.452 91.8502 206.533 91.9256 206.596 92.0144C206.66 92.1033 206.705 92.2039 206.73 92.3104Z" fill="#173789"/>
<path d="M205.299 87.4297C205.579 87.4297 206.839 87.5997 206.569 88.2197C206.449 88.4997 206.009 88.4897 205.769 88.4797C205.519 88.4247 205.26 88.4247 205.009 88.4797C205.08 88.5547 205.134 88.6431 205.169 88.7397C205.249 88.9197 204.629 88.9397 204.559 88.9397C203.832 88.8349 203.091 88.9719 202.449 89.3297C202.647 88.7422 203.034 88.237 203.55 87.8931C204.066 87.5493 204.681 87.3863 205.299 87.4297Z" fill="#173789"/>
<path d="M196.44 94.5699C196.449 94.7362 196.506 94.8962 196.605 95.0298C196.705 95.1634 196.842 95.2644 196.998 95.3201C197.155 95.3758 197.325 95.3836 197.487 95.3426C197.648 95.3015 197.793 95.2135 197.905 95.0896C198.016 94.9658 198.088 94.8116 198.111 94.6468C198.135 94.482 198.108 94.314 198.036 94.164C197.964 94.0141 197.849 93.8889 197.705 93.8045C197.562 93.7201 197.397 93.6802 197.23 93.6899C197.009 93.7028 196.802 93.8025 196.654 93.9673C196.506 94.1321 196.43 94.3487 196.44 94.5699Z" fill="#173789"/>
<path d="M193.97 91.2696C193.37 91.5896 192.87 92.0296 192.97 92.5296C193.07 93.0296 193.47 92.8296 193.72 92.6296C194.128 92.3066 194.592 92.0625 195.09 91.9096C194.979 91.9996 194.89 92.1143 194.831 92.2444C194.772 92.3746 194.744 92.5168 194.75 92.6596C195.53 92.5611 196.256 92.2077 196.815 91.6544C197.373 91.1011 197.734 90.3788 197.84 89.5996C197.483 89.9116 197.09 90.1801 196.67 90.3996C195.82 90.8196 194.85 90.8196 193.97 91.2696Z" fill="#173789"/>
<path d="M202.569 93.2803C202.569 93.2803 204.849 99.0303 204.039 99.5303C203.229 100.03 200.359 99.9503 200.359 99.9503" stroke="#EF977F" stroke-miterlimit="10"/>
<path d="M202.659 108.45C200.617 109.147 198.433 109.329 196.304 108.98C194.174 108.631 192.163 107.762 190.449 106.45" stroke="#EF977F" stroke-miterlimit="10"/>
<path d="M198.961 104.61C198.961 104.61 199.541 102.08 203.701 102.08" stroke="#EF977F" stroke-miterlimit="10"/>
<path d="M210.51 78.2197C210.519 77.4331 210.266 76.6659 209.79 76.0397C209.447 75.7507 209.051 75.5329 208.623 75.399C208.196 75.265 207.746 75.2177 207.3 75.2597C204.136 75.2369 201.047 76.221 198.48 78.0697L200.57 76.2497C201.13 75.7697 202.36 75.0097 201.77 74.1097C201.18 73.2097 199.77 73.7697 198.99 73.7597C195.41 73.7597 191.99 74.9997 188.66 76.2597C187.015 76.8317 185.43 77.5653 183.93 78.4497C182.422 79.3429 181.211 80.6613 180.45 82.2397C179.888 83.6637 179.636 85.1908 179.71 86.7197C179.799 89.4612 180.093 92.1922 180.59 94.8897C181.06 97.8897 181.77 103.66 185.74 104.02C186.5 104.175 187.291 104.055 187.97 103.68C188.252 103.426 188.479 103.119 188.639 102.775C188.799 102.431 188.888 102.059 188.9 101.68C189.044 100.446 188.966 99.1962 188.67 97.9897C189.41 98.3897 190.11 99.0697 190.95 98.9397C191.088 98.9274 191.22 98.8795 191.334 98.8006C191.448 98.7217 191.54 98.6146 191.6 98.4897C191.64 98.3187 191.64 98.1407 191.6 97.9697C191.29 95.1397 191.13 92.3297 190.94 89.4897C195 88.6297 199.083 87.8897 203.19 87.2697C205.01 86.9997 206.94 86.6997 208.35 85.5197C210.36 83.8197 210.71 80.8197 210.51 78.2197Z" fill="#173789"/>
<path d="M189.51 99.0596C188.83 97.3996 187.66 95.3896 185.81 96.5196C185.162 97.0486 184.714 97.7822 184.54 98.5996C183.7 101.35 185.67 105.6 188.37 105.2C189.68 105 190.37 103.44 190.95 102.2" fill="#FFCBBB"/>
<path d="M434.66 277.71C434.645 271.01 436.692 264.467 440.524 258.971C444.357 253.475 449.788 249.292 456.08 246.99C458.41 246.14 469.53 245.3 469.53 245.3C469.53 245.3 468.24 253.79 466.02 258.07C460.85 268.07 450.63 276.43 434.66 277.71Z" fill="#28704A"/>
<path d="M467.391 303.06C471.453 298.07 477.16 294.692 483.488 293.53C489.816 292.368 496.351 293.499 501.921 296.72C502.111 296.803 502.262 296.957 502.341 297.15C502.345 297.272 502.323 297.394 502.274 297.506C502.226 297.619 502.153 297.719 502.061 297.8C499.441 300.683 496.188 302.918 492.558 304.331C488.928 305.743 485.02 306.294 481.141 305.94C476.49 305.336 471.893 304.373 467.391 303.06Z" fill="#388E3C"/>
<path d="M476.33 289.51C476.33 281.75 478.92 274.78 483.48 270.21C485.835 267.926 488.681 266.21 491.801 265.195C494.921 264.179 498.232 263.89 501.48 264.35C501.727 264.359 501.962 264.459 502.14 264.63C502.326 264.891 502.402 265.214 502.35 265.53C501.96 274.88 497.27 282.62 490.12 285.72C485.668 287.45 481.051 288.72 476.34 289.51" fill="#28704A"/>
<path d="M488.391 275.619C491.482 270.658 495.222 266.132 499.511 262.16C501.195 260.521 503.08 259.103 505.121 257.94C511.811 254.35 520.061 255.46 527.251 257.94C524.391 263.37 520.661 268.69 515.171 271.44C512.702 272.579 510.102 273.408 507.431 273.91C502.171 275.08 493.761 274.96 488.431 275.66" fill="#388E3C"/>
<path d="M484.56 262.65C471.18 255.65 469.21 241.02 468.87 235.65C468.66 232.27 468.87 228.5 471.7 226.06C488.28 231.9 492.52 243.12 484.56 262.69" fill="#28704A"/>
<path d="M426.9 260.54C427.9 253.42 428.9 245.77 425.66 239.35C424.445 237.067 422.887 234.982 421.04 233.17C416.69 228.69 411.04 224.99 404.75 224.98C403.613 231.726 404.941 238.655 408.492 244.501C412.043 250.347 417.58 254.72 424.09 256.82" fill="#28704A"/>
<path d="M465.82 307.12C462.071 305.87 458.619 303.864 455.676 301.228C452.732 298.591 450.361 295.378 448.708 291.789C447.055 288.2 446.155 284.31 446.064 280.359C445.973 276.409 446.694 272.481 448.18 268.82C448.198 268.647 448.265 268.482 448.373 268.345C448.482 268.209 448.626 268.105 448.791 268.048C448.955 267.99 449.133 267.98 449.303 268.02C449.473 268.059 449.628 268.146 449.75 268.27C461.29 274.9 469.19 294.21 465.82 307.09" fill="#388E3C"/>
<path d="M434.451 267.82C432.27 261.529 432.378 254.671 434.756 248.452C437.134 242.233 441.629 237.052 447.451 233.82C449.801 232.52 452.361 231.54 454.451 229.82C455.154 232.952 455.628 236.13 455.871 239.33C456.205 242.492 455.999 245.688 455.261 248.78C453.091 256.69 445.801 262.07 438.481 265.78" fill="#388E3C"/>
<path d="M424.779 266.59C412.779 268.04 397.969 263.19 391.539 251.87C412.089 241.43 424.779 257.41 424.779 266.59Z" fill="#388E3C"/>
<path d="M431.789 293.4C429.099 284.17 422.009 276.6 413.459 273.84C409.144 272.505 404.556 272.307 400.141 273.265C395.726 274.223 391.633 276.306 388.259 279.31C388.093 279.421 387.955 279.569 387.856 279.743C387.757 279.916 387.7 280.111 387.689 280.31C387.726 280.541 387.822 280.759 387.969 280.94C392.569 287.59 399.899 291.51 407.389 293.16C414.879 294.81 422.619 294.42 430.249 293.85" fill="#388E3C"/>
<path d="M416.34 244.19C420.92 248.896 424.55 254.44 427.03 260.52C429.702 266.993 431.868 273.663 433.51 280.47C437.03 294.874 439.46 309.522 440.78 324.29C441.61 332.57 442.16 340.89 443.1 349.16C443.1 349.42 443.54 349.44 443.53 349.16C443.2 341.65 442.53 334.16 441.8 326.66C441.07 319.16 440.21 311.79 439.08 304.4C437.95 297.01 436.54 289.61 434.73 282.34C433.094 275.489 430.966 268.765 428.36 262.22C425.57 255.48 421.89 249.01 416.52 243.99C416.38 243.86 416.18 244.06 416.31 244.19H416.34Z" fill="#28704A"/>
<path d="M438.441 301.14C434.901 295.28 429.311 291.28 423.271 288.29C416.571 284.962 409.401 282.679 402.011 281.52C397.933 280.801 393.785 280.559 389.651 280.8C389.609 280.81 389.572 280.833 389.545 280.867C389.518 280.901 389.504 280.942 389.504 280.985C389.504 281.028 389.518 281.07 389.545 281.103C389.572 281.137 389.609 281.16 389.651 281.17C393.361 281.35 397.041 281.46 400.721 281.98C404.281 282.492 407.799 283.258 411.251 284.27C414.762 285.308 418.191 286.604 421.511 288.15C424.603 289.531 427.545 291.227 430.291 293.21C433.285 295.507 435.891 298.268 438.011 301.39C438.181 301.65 438.601 301.39 438.431 301.14H438.441Z" fill="#28704A"/>
<path d="M434.799 283.6C434.799 278.07 434.239 272.6 434.729 267.05C435.18 261.855 436.534 256.779 438.729 252.05C439.979 249.519 441.448 247.104 443.119 244.83C443.229 244.67 442.98 244.49 442.85 244.62C441.146 246.496 439.728 248.612 438.639 250.9C437.495 253.175 436.565 255.552 435.859 258C434.42 263.144 433.789 268.481 433.989 273.82C434.059 277.07 434.229 280.35 434.579 283.58C434.579 283.609 434.591 283.637 434.612 283.658C434.632 283.678 434.66 283.69 434.689 283.69C434.719 283.69 434.747 283.678 434.767 283.658C434.788 283.637 434.799 283.609 434.799 283.58V283.6Z" fill="#28704A"/>
<path d="M406.921 255.74C410.581 256.12 413.921 258.17 416.921 260.26C420.392 262.812 423.692 265.588 426.801 268.57C428.421 270.07 430.001 271.65 431.711 273.05C431.861 273.17 432.081 272.97 431.931 272.82C428.931 269.82 425.781 267 422.571 264.28C419.471 261.464 416.011 259.073 412.281 257.17C410.616 256.331 408.808 255.812 406.951 255.64C406.881 255.64 406.881 255.73 406.951 255.74H406.921Z" fill="#28704A"/>
<path d="M461.131 324.72C462.127 319.061 463.667 313.512 465.731 308.15C467.851 302.836 470.533 297.764 473.731 293.02C480.149 283.488 488.491 275.404 498.221 269.29C500.933 267.593 503.749 266.067 506.651 264.72C509.651 263.35 512.651 262.27 515.651 261.14C515.713 261.123 515.766 261.081 515.798 261.025C515.83 260.969 515.838 260.902 515.821 260.84C515.804 260.778 515.762 260.725 515.706 260.693C515.65 260.661 515.583 260.653 515.521 260.67C512.752 261.444 510.053 262.447 507.451 263.67C504.801 264.857 502.22 266.192 499.721 267.67C494.741 270.599 490.094 274.059 485.861 277.99C477.311 285.871 470.52 295.466 465.931 306.15C463.316 312.06 461.558 318.313 460.711 324.72C460.711 324.93 461.031 324.98 461.071 324.72H461.131Z" fill="#28704A"/>
<path d="M477.391 237.34C482.741 248.5 485.931 261.63 483.461 273.97C482.707 277.503 481.511 280.927 479.901 284.16C479.866 284.221 479.857 284.294 479.876 284.361C479.895 284.429 479.94 284.486 480.001 284.52C480.062 284.555 480.134 284.564 480.201 284.545C480.269 284.526 480.326 284.481 480.361 284.42C483.731 278.92 484.991 272.08 485.011 265.7C484.966 259.19 483.855 252.731 481.721 246.58C480.619 243.337 479.282 240.179 477.721 237.13C477.591 236.89 477.241 237.13 477.361 237.34H477.391Z" fill="#28704A"/>
<path d="M486.509 315.01V326.72C486.509 373.18 474.279 386.39 474.279 386.39H436.439C436.439 386.39 424.199 373.18 424.199 326.72V315.01H486.509Z" fill="#C9C9C9"/>
<path d="M79.8691 386.4L111.979 232.41" stroke="#544943" stroke-width="1.5" stroke-miterlimit="10"/>
<path d="M144.1 386.4L111.98 232.41" stroke="#544943" stroke-width="1.5" stroke-miterlimit="10"/>
<path d="M404.24 386.4L436.36 232.41" stroke="#544943" stroke-width="1.5" stroke-miterlimit="10"/>
<path d="M468.469 386.4L436.359 232.41" stroke="#544943" stroke-width="1.5" stroke-miterlimit="10"/>
<path d="M464.53 223.19H80.9102V232.4H464.53V223.19Z" fill="#BFBFBF"/>
<path d="M446.031 205.63H310.511C309.943 205.63 309.381 205.506 308.866 205.265C308.351 205.025 307.895 204.675 307.53 204.239C307.165 203.803 306.899 203.293 306.753 202.744C306.606 202.195 306.582 201.62 306.681 201.06L322.261 113.45C322.498 112.106 323.202 110.888 324.248 110.01C325.294 109.132 326.615 108.651 327.981 108.65H463.511C464.079 108.65 464.641 108.775 465.156 109.015C465.671 109.256 466.127 109.606 466.492 110.042C466.857 110.477 467.123 110.988 467.269 111.537C467.416 112.086 467.44 112.661 467.341 113.22L451.761 200.82C451.525 202.169 450.821 203.39 449.773 204.27C448.725 205.15 447.4 205.632 446.031 205.63Z" fill="#28704A"/>
<path d="M449.19 205.63H313.62C313.052 205.63 312.49 205.506 311.975 205.265C311.46 205.025 311.004 204.675 310.639 204.239C310.274 203.803 310.009 203.293 309.862 202.744C309.715 202.195 309.691 201.62 309.79 201.06L325.37 113.45C325.608 112.106 326.311 110.888 327.357 110.01C328.403 109.132 329.725 108.651 331.09 108.65H466.66C467.23 108.648 467.794 108.77 468.312 109.009C468.829 109.248 469.288 109.598 469.655 110.034C470.023 110.47 470.29 110.982 470.437 111.532C470.585 112.083 470.61 112.659 470.51 113.22L454.91 200.82C454.675 202.167 453.973 203.387 452.926 204.267C451.88 205.147 450.557 205.63 449.19 205.63Z" fill="#4CAF50"/>
<path opacity="0.45" d="M424.239 205.63H345.939C345.611 205.629 345.288 205.557 344.991 205.417C344.694 205.278 344.431 205.076 344.22 204.824C344.009 204.573 343.856 204.278 343.772 203.962C343.687 203.645 343.673 203.313 343.729 202.99L352.729 152.39C352.87 151.614 353.278 150.912 353.883 150.406C354.488 149.9 355.251 149.622 356.039 149.62H434.339C434.667 149.621 434.991 149.694 435.288 149.833C435.585 149.972 435.848 150.174 436.059 150.426C436.269 150.677 436.422 150.972 436.507 151.289C436.592 151.606 436.606 151.937 436.549 152.26L427.509 202.82C427.379 203.597 426.98 204.303 426.383 204.816C425.785 205.33 425.027 205.618 424.239 205.63Z" fill="#1E460F"/>
<path d="M426.12 205.63H347.82C347.492 205.631 347.167 205.56 346.869 205.421C346.571 205.282 346.308 205.08 346.097 204.828C345.886 204.576 345.733 204.281 345.649 203.963C345.565 203.646 345.552 203.313 345.61 202.99L354.61 152.39C354.747 151.614 355.152 150.911 355.756 150.404C356.359 149.898 357.122 149.62 357.91 149.62H436.21C436.539 149.619 436.863 149.691 437.161 149.829C437.459 149.968 437.723 150.17 437.934 150.422C438.145 150.674 438.298 150.969 438.382 151.287C438.466 151.605 438.479 151.937 438.42 152.26L429.42 202.86C429.284 203.636 428.878 204.339 428.275 204.846C427.671 205.353 426.908 205.63 426.12 205.63Z" fill="#C6D2E0"/>
<path d="M408.77 175.87H376.99V205.63H408.77V175.87Z" fill="#1E460F"/>
<path d="M406.94 175.87H376.99V184.42L385.16 218.36H416.96L406.94 175.87ZM399.25 209.3C395.69 209.3 391.93 205.15 390.84 200.03C389.75 194.91 391.77 190.75 395.33 190.75C398.89 190.75 402.66 194.9 403.74 200.03C404.82 205.16 402.81 209.3 399.25 209.3Z" fill="#475577"/>
<path d="M359.509 218.36H430.689V223.19H354.689C354.689 221.911 355.197 220.684 356.101 219.779C357.004 218.873 358.23 218.363 359.509 218.36Z" fill="#28704A"/>
<path d="M430.65 218.36H373.74V223.19H430.65V218.36Z" fill="#4CAF50"/>
<path d="M408.78 175.87H376.99L386.99 218.36H418.79L408.78 175.87ZM400.98 209.3C397.42 209.3 393.65 205.15 392.57 200.03C391.49 194.91 393.49 190.75 397.05 190.75C400.61 190.75 404.38 194.9 405.46 200.03C406.54 205.16 404.51 209.3 400.98 209.3Z" fill="#4CAF50"/>
<g opacity="0.65">
<path d="M334.54 117.28L332.65 127.88H334.54L336.42 117.28H334.54Z" fill="#1E460F"/>
<path d="M339.99 117.28L338.1 127.88H339.99L341.87 117.28H339.99Z" fill="#1E460F"/>
<path d="M345.441 117.28L343.551 127.88H345.441L347.321 117.28H345.441Z" fill="#1E460F"/>
<path d="M350.88 117.28L349 127.88H350.88L352.77 117.28H350.88Z" fill="#1E460F"/>
<path d="M356.331 117.28L354.451 127.88H356.331L358.221 117.28H356.331Z" fill="#1E460F"/>
</g>
<g opacity="0.65">
<path d="M406.06 117.28L404.18 127.88H406.06L407.95 117.28H406.06Z" fill="#1E460F"/>
<path d="M411.79 117.28L409.91 127.88H411.79L413.68 117.28H411.79Z" fill="#1E460F"/>
<path d="M417.521 117.28L415.641 127.88H417.521L419.401 117.28H417.521Z" fill="#1E460F"/>
<path d="M423.249 117.28L421.359 127.88H423.249L425.129 117.28H423.249Z" fill="#1E460F"/>
<path d="M428.97 117.28L427.09 127.88H428.97L430.86 117.28H428.97Z" fill="#1E460F"/>
<path d="M434.7 117.28L432.82 127.88H434.7L436.58 117.28H434.7Z" fill="#1E460F"/>
<path d="M440.429 117.28L438.549 127.88H440.429L442.309 117.28H440.429Z" fill="#1E460F"/>
<path d="M446.15 117.28L444.27 127.88H446.15L448.04 117.28H446.15Z" fill="#1E460F"/>
<path d="M451.88 117.28L450 127.88H451.88L453.76 117.28H451.88Z" fill="#1E460F"/>
<path d="M457.61 117.28L455.73 127.88H457.61L459.49 117.28H457.61Z" fill="#1E460F"/>
</g>
<g opacity="0.55">
<path d="M188.96 199.18C189.436 199.098 189.874 198.867 190.21 198.52C190.95 197.52 189.72 196.4 188.92 195.88C187.92 195.23 186.48 195.01 185.98 193.74C185.48 192.47 186.39 190.74 187.56 189.97C188.588 189.377 189.682 188.908 190.82 188.57C192.119 188.148 193.245 187.317 194.03 186.2C194.94 184.75 194.76 182.89 194.87 181.26C195.34 174.88 201.87 171.71 207.36 171.58C210.11 171.52 214.3 172.5 216.13 174.64C216.761 175.349 217.195 176.211 217.39 177.14C217.495 177.831 217.438 178.538 217.225 179.204C217.011 179.87 216.647 180.478 216.16 180.98C215.118 181.93 214.026 182.824 212.89 183.66C211.83 184.66 212.59 185.72 212.34 186.92C212.09 188.12 211.18 188.82 210.03 189.46C207.59 190.82 204.72 191.16 202.03 191.9C201.194 192.074 200.402 192.414 199.7 192.9C198.922 193.69 198.25 194.577 197.7 195.54C196.482 197.183 194.702 198.322 192.7 198.74" fill="url(#paint0_linear_83_2)"/>
</g>
<path d="M204.249 215.25H199.039V212.76H204.249C204.647 212.767 205.043 212.694 205.412 212.547C205.782 212.399 206.119 212.179 206.403 211.9C206.687 211.62 206.912 211.287 207.066 210.92C207.22 210.553 207.299 210.159 207.299 209.76V205.47C207.299 205.072 207.22 204.678 207.066 204.311C206.912 203.943 206.687 203.611 206.403 203.331C206.119 203.052 205.782 202.832 205.412 202.684C205.043 202.537 204.647 202.464 204.249 202.47H199.039V199.98H204.249C205.715 199.983 207.12 200.567 208.156 201.603C209.193 202.64 209.776 204.045 209.779 205.51V209.8C209.755 211.252 209.163 212.637 208.129 213.656C207.094 214.676 205.701 215.248 204.249 215.25Z" fill="#E8EAEF"/>
<path d="M181.911 196.38H202.911V215.67C202.911 217.293 202.266 218.85 201.118 219.997C199.971 221.145 198.414 221.79 196.791 221.79H188.001C186.378 221.79 184.821 221.145 183.673 219.997C182.526 218.85 181.881 217.293 181.881 215.67V196.38H181.911Z" fill="#E8EAEF"/>
<path d="M178.51 218.24C178.51 218.24 178.72 223.19 186.41 223.19H198.51C206.2 223.19 206.4 218.24 206.4 218.24H178.51Z" fill="#B9C5D2"/>
<path d="M347.55 221.22H236.27V223.2H347.55V221.22Z" fill="#475577"/>
<path d="M248.04 219.62H240.07V221.21H248.04V219.62Z" fill="#475577"/>
<path d="M260.111 219.62H252.141V221.21H260.111V219.62Z" fill="#475577"/>
<path d="M272.181 219.62H264.211V221.21H272.181V219.62Z" fill="#475577"/>
<path d="M284.249 219.62H276.279V221.21H284.249V219.62Z" fill="#475577"/>
<path d="M296.329 219.62H288.359V221.21H296.329V219.62Z" fill="#475577"/>
<path d="M308.4 219.62H300.43V221.21H308.4V219.62Z" fill="#475577"/>
<path d="M320.47 219.62H312.5V221.21H320.47V219.62Z" fill="#475577"/>
<path d="M332.54 219.62H324.57V221.21H332.54V219.62Z" fill="#475577"/>
<path d="M344.611 219.62H336.641V221.21H344.611V219.62Z" fill="#475577"/>
<path d="M349.001 221.22H237.721V223.2H349.001V221.22Z" fill="#4CAF50"/>
<path d="M249.499 219.62H241.529V221.21H249.499V219.62Z" fill="#4CAF50"/>
<path d="M261.57 219.62H253.6V221.21H261.57V219.62Z" fill="#4CAF50"/>
<path d="M273.64 219.62H265.67V221.21H273.64V219.62Z" fill="#4CAF50"/>
<path d="M285.71 219.62H277.74V221.21H285.71V219.62Z" fill="#4CAF50"/>
<path d="M297.781 219.62H289.811V221.21H297.781V219.62Z" fill="#4CAF50"/>
<path d="M309.851 219.62H301.881V221.21H309.851V219.62Z" fill="#4CAF50"/>
<path d="M321.919 219.62H313.949V221.21H321.919V219.62Z" fill="#4CAF50"/>
<path d="M333.999 219.62H326.029V221.21H333.999V219.62Z" fill="#4CAF50"/>
<path d="M346.07 219.62H338.1V221.21H346.07V219.62Z" fill="#4CAF50"/>
<path d="M79.3693 297.82C80.7657 292.278 80.1613 286.42 77.6624 281.28C75.1635 276.139 70.9305 272.046 65.7093 269.72C63.6093 268.78 61.3493 268.13 59.4393 266.83C59.0697 269.561 58.8992 272.315 58.9293 275.07C58.8707 277.804 59.2834 280.527 60.1493 283.12C62.5893 289.73 69.2293 293.79 75.7693 296.41" fill="#388E3C"/>
<path d="M80.1698 315.56C80.3198 310.518 80.2097 305.471 79.8398 300.44C79.7017 298.222 79.3671 296.02 78.8398 293.86C78.1506 291.24 77.1887 288.7 75.9698 286.28C74.6291 283.408 72.7521 280.818 70.4397 278.65C70.4092 278.62 70.3679 278.603 70.3248 278.603C70.2816 278.603 70.2402 278.62 70.2097 278.65C70.1792 278.681 70.1621 278.722 70.1621 278.765C70.1621 278.808 70.1792 278.85 70.2097 278.88C72.0191 280.968 73.6138 283.233 74.9698 285.64C76.2908 288.121 77.3434 290.736 78.1098 293.44C79.4298 298 79.4498 302.93 79.5898 307.63C79.6698 310.27 79.6597 312.93 79.9097 315.56C79.9097 315.589 79.9213 315.617 79.942 315.638C79.9626 315.659 79.9906 315.67 80.0197 315.67C80.0489 315.67 80.0769 315.659 80.0975 315.638C80.1182 315.617 80.1297 315.589 80.1297 315.56H80.1698Z" fill="#357C1B"/>
<path d="M63.8306 332.33C63.334 328.531 62.0754 324.871 60.1302 321.57C58.1851 318.269 55.5934 315.395 52.5106 313.12C49.4473 310.903 45.9677 309.328 42.2806 308.49C40.2106 308.01 30.6406 308.49 30.6406 308.49C30.6406 308.49 32.6406 315.58 35.0206 318.99C40.5106 326.93 50.1306 332.99 63.8806 332.31" fill="#388E3C"/>
<path d="M55.5091 307.88C55.2572 303.288 54.4136 298.747 52.9991 294.37C52.471 292.619 51.7287 290.94 50.7891 289.37C47.6391 284.37 41.7191 282.01 36.0291 280.98C35.9591 285.82 36.5091 290.91 39.1791 294.89C40.4041 296.609 41.8385 298.167 43.4491 299.53C46.5291 302.33 52.1891 305.42 55.5091 307.92" fill="#28704A"/>
<path d="M87.7605 291.16C86.8705 285.04 86.0405 278.47 88.8305 272.95C89.8815 270.984 91.2308 269.192 92.8305 267.64C96.5705 263.8 101.461 260.64 106.831 260.64C107.786 266.431 106.644 272.374 103.611 277.4C100.611 282.4 93.3405 289.4 87.8105 291.19" fill="#28704A"/>
<path d="M77.9297 326.7C80.7846 327.292 83.7306 327.293 86.586 326.703C89.4414 326.113 92.1456 324.944 94.532 323.269C96.9184 321.593 98.9363 319.447 100.461 316.962C101.987 314.477 102.987 311.706 103.4 308.82C103.451 308.702 103.469 308.573 103.45 308.446C103.431 308.319 103.376 308.2 103.293 308.103C103.209 308.006 103.1 307.934 102.977 307.896C102.854 307.859 102.724 307.856 102.6 307.89C92.7697 307.83 80.5997 317.22 77.9297 326.7Z" fill="#28704A"/>
<path d="M57.7009 304.58C65.8009 300.02 71.0109 290.89 71.1609 280.96C65.3109 280.63 60.9109 284.23 58.3609 287.33C54.8209 291.65 54.5209 299.24 57.7009 304.58Z" fill="#28704A"/>
<path d="M63.5907 320.6C62.5047 317.892 62.0972 314.961 62.4037 312.06C62.7103 309.159 63.7216 306.377 65.3494 303.956C66.9773 301.535 69.1724 299.55 71.7435 298.172C74.3146 296.794 77.1836 296.065 80.1007 296.05C80.3507 296.05 80.6307 296.05 80.7607 296.27C80.8366 296.393 80.8748 296.535 80.8707 296.68C81.0907 301.68 78.8707 306.51 75.7607 310.38C72.6507 314.25 68.5807 317.27 64.5307 320.16" fill="#28704A"/>
<path d="M96.6404 276.92C92.5953 280.873 89.3881 285.601 87.2104 290.82C84.8632 296.276 82.9571 301.91 81.5104 307.67C78.3865 320.103 76.2433 332.762 75.1004 345.53C74.3604 352.75 73.6704 360.01 73.4004 367.27C73.4004 367.55 73.8004 367.54 73.8304 367.27C74.5904 360.91 75.0104 354.5 75.6304 348.13C76.2504 341.76 76.9604 335.46 77.9104 329.13C78.8604 322.8 80.0104 316.7 81.5104 310.58C82.886 304.686 84.6533 298.89 86.8004 293.23C89.1304 287.3 92.2604 281.6 96.8004 277.1C96.9404 276.97 96.7304 276.77 96.6004 276.89L96.6404 276.92Z" fill="#357C1B"/>
<path d="M63.5795 329.17C63.5795 328.05 63.4795 326.93 63.5195 325.81C63.5562 324.525 63.663 323.243 63.8395 321.97C64.0095 320.77 64.2295 319.58 64.5095 318.4C64.7895 317.22 65.1995 316.26 65.3395 315.18C65.3395 314.98 65.0895 314.96 64.9895 315.09C64.4232 316.091 64.0406 317.185 63.8595 318.32C63.566 319.526 63.3423 320.748 63.1895 321.98C63.0246 323.251 62.9245 324.529 62.8895 325.81C62.8092 326.958 62.8798 328.111 63.0995 329.24C63.1207 329.292 63.1585 329.335 63.207 329.362C63.2554 329.39 63.3117 329.4 63.3669 329.392C63.422 329.384 63.4729 329.358 63.5115 329.318C63.55 329.278 63.574 329.226 63.5795 329.17Z" fill="#357C1B"/>
<path d="M64.2491 287.82C61.9274 290.075 60.2437 292.904 59.3691 296.02C58.1422 299.729 57.5835 303.626 57.7191 307.53C57.7298 309.711 58.0668 311.879 58.7191 313.96C58.7297 314.001 58.7562 314.037 58.7928 314.058C58.8293 314.08 58.873 314.086 58.9141 314.075C58.9552 314.065 58.9904 314.038 59.012 314.002C59.0335 313.965 59.0397 313.921 59.0291 313.88C58.1259 310.182 57.8621 306.357 58.2491 302.57C58.5997 298.904 59.6164 295.332 61.2491 292.03C62.0048 290.489 63.0196 289.088 64.2491 287.89C64.2491 287.89 64.2491 287.78 64.1691 287.82H64.2491Z" fill="#357C1B"/>
<path d="M66.6095 357.36C66.6781 353.064 66.461 348.768 65.9595 344.5C65.5239 340.042 64.8563 335.609 63.9595 331.22C62.1911 322.247 59.0936 313.589 54.7695 305.53C53.5544 303.335 52.2191 301.208 50.7695 299.16C49.3487 297.068 47.7277 295.118 45.9295 293.34C45.6995 293.12 45.3995 293.45 45.5895 293.68C47.0095 295.44 48.4995 297.13 49.8395 298.95C51.1495 300.751 52.3677 302.616 53.4895 304.54C55.7494 308.459 57.6633 312.568 59.2095 316.82C62.2741 325.274 64.3055 334.068 65.2595 343.01C65.8095 347.78 65.9595 352.55 66.2595 357.34C66.2693 357.382 66.2929 357.419 66.3265 357.446C66.36 357.472 66.4017 357.487 66.4445 357.487C66.4874 357.487 66.529 357.472 66.5626 357.446C66.5962 357.419 66.6197 357.382 66.6295 357.34L66.6095 357.36Z" fill="#357C1B"/>
<path d="M99.7004 337.7V345.7C99.7004 377.39 89.1904 386.4 89.1904 386.4H56.6604C56.6604 386.4 46.1504 377.4 46.1504 345.7V337.7H99.7004Z" fill="#C9C9C9"/>
<path d="M28.2891 386.4H538.739" stroke="#475577" stroke-width="2" stroke-miterlimit="10"/>
</g>
<defs>
<linearGradient id="paint0_linear_83_2" x1="201.64" y1="199.18" x2="201.64" y2="171.58" gradientUnits="userSpaceOnUse">
<stop stop-color="white" stop-opacity="0.1"/>
<stop offset="1" stop-color="white" stop-opacity="0.4"/>
</linearGradient>
<clipPath id="clip0_83_2">
<rect width="542.45" height="387.4" fill="white"/>
</clipPath>
</defs>
</svg>
