<svg width="60" height="60" viewBox="0 0 60 60" fill="none" xmlns="http://www.w3.org/2000/svg">
<g clip-path="url(#clip0_658_94)">
<path d="M24.0528 6.35579C24.0528 2.84505 26.9369 0 30.4956 0C34.0527 0 36.9351 2.84505 36.9351 6.35579C36.9351 9.86819 34.0526 12.7083 30.4956 12.7083C26.9369 12.7083 24.0528 9.86819 24.0528 6.35579ZM52.3437 22.1109C51.7073 21.0367 50.3092 20.6722 49.2211 21.3004C47.132 22.5 44.0477 23.317 42.2321 21.6617C41.5444 21.0367 40.9488 20.1822 40.3197 19.2773C38.7181 16.9807 36.8106 14.8519 34.0607 13.9501C33.0558 13.6214 32.001 13.4326 30.9432 13.361L32.6058 30.5827L30.2067 33.3577L27.4642 30.5827L29.5475 13.3415C28.9046 13.3643 28.2642 13.4294 27.6318 13.5433C27.3405 13.5955 27.0532 13.6589 26.7684 13.7338C25.62 14.0365 24.4328 14.3653 23.3928 14.9528C21.4307 16.0661 20.2401 17.7702 19.1887 19.2774C18.5588 20.1823 17.9614 21.0368 17.2754 21.6618C15.4598 23.317 12.3747 22.5033 10.2865 21.3005C9.19754 20.6706 7.80112 21.0368 7.16392 22.111C6.52672 23.1836 6.89534 24.5622 7.98344 25.1888C9.91536 26.3037 12.2933 27.1175 14.6452 27.1175C16.6749 27.1175 18.6866 26.512 20.3752 24.9707C21.4356 24.0039 22.2054 22.9004 22.9492 21.8343C23.5383 20.9912 24.0804 20.2376 24.6851 19.642C24.5842 21.5772 24.3474 26.2451 24.139 31.0302C24.1195 31.1361 24.091 31.2403 24.0829 31.3508L22.3935 54.9007C19.3759 54.0755 17.4399 52.7408 17.4399 51.2012C17.4399 49.9902 18.65 48.8639 20.8538 48.0176L20.9539 46.6472C13.9414 47.8419 9.43619 50.2979 9.43619 52.9493C9.43619 56.7725 18.7404 60.0001 29.7535 60.0001C40.7675 60.0001 50.0725 56.7725 50.0725 52.9493C50.0725 50.389 45.8537 48.0045 39.2449 46.7709V48.3773C40.9246 49.1749 41.8182 50.1416 41.8182 51.2012C41.8182 52.5097 40.3909 53.7044 37.9503 54.5492C37.5442 48.4667 36.4831 32.5945 36.4529 32.4675C36.3186 28.8411 35.9052 23.5434 35.6594 20.6006C35.9556 20.988 36.2511 21.3948 36.5586 21.8343C37.3025 22.9004 38.073 24.0039 39.1326 24.9708C40.822 26.5121 42.833 27.1176 44.8634 27.1176C47.2136 27.1176 49.5925 26.3037 51.5227 25.1889C52.613 24.5622 52.981 23.1836 52.3437 22.1109ZM29.6313 55.778C29.169 55.778 28.7149 55.7666 28.2673 55.7486L29.601 37.1483C29.8209 37.0898 30.0381 37.0343 30.226 37.0343C30.4465 37.0343 30.6582 37.0734 30.8721 37.0995L32.092 55.6753C31.2768 55.7389 30.4557 55.778 29.6313 55.778ZM44.8567 7.11097C44.8567 6.55597 44.9788 6.02699 45.2213 5.52727C45.4646 5.02597 45.8356 4.64024 46.3346 4.37002C46.8334 4.10144 47.4251 3.96637 48.1062 3.96637C49.1112 3.96637 49.9022 4.25279 50.48 4.82422C51.0587 5.39549 51.3484 6.15884 51.3484 7.11104C51.3484 8.06969 51.0587 8.83469 50.48 9.40761C49.9022 9.97889 49.1112 10.2654 48.1062 10.2654C47.4251 10.2654 46.8334 10.1303 46.3346 9.86016C45.8358 9.59159 45.4646 9.20586 45.2213 8.70456C44.9788 8.20311 44.8567 7.67249 44.8567 7.11097ZM47.1573 7.12724C47.1573 7.80269 47.2664 8.29266 47.4845 8.59859C47.6261 8.80041 47.8336 8.90136 48.1062 8.90136C48.3797 8.90136 48.5839 8.80041 48.7206 8.59859C48.9386 8.29259 49.0477 7.80269 49.0477 7.12724C49.0477 6.45832 48.9386 5.96842 48.7206 5.65754C48.5839 5.46059 48.3796 5.36294 48.1062 5.36294C47.8336 5.36294 47.6261 5.46059 47.4845 5.65754C47.2664 5.96189 47.1573 6.45344 47.1573 7.12724ZM55.0447 3.96645H56.7749L49.8421 16.7594H48.1307L55.0447 3.96645ZM53.5091 13.5889C53.5091 13.029 53.6288 12.4984 53.8688 12.0003C54.1097 11.5022 54.4799 11.1165 54.9821 10.8447C55.4842 10.5729 56.0735 10.4362 56.7505 10.4362C57.7596 10.4362 58.553 10.7242 59.1325 11.2987C59.7103 11.8734 60 12.6367 60 13.5889C60 14.5426 59.7103 15.306 59.1325 15.8806C58.553 16.4551 57.7596 16.7431 56.7505 16.7431C56.0735 16.7431 55.4842 16.6064 54.9821 16.3346C54.4801 16.0627 54.1097 15.677 53.8688 15.179C53.6287 14.681 53.5091 14.1504 53.5091 13.5889ZM55.8089 13.6068C55.8089 14.2822 55.918 14.7721 56.136 15.0765C56.2727 15.2718 56.477 15.3711 56.7503 15.3711C57.0221 15.3711 57.2305 15.2718 57.3721 15.0765C57.5902 14.7721 57.6992 14.2822 57.6992 13.6068C57.6992 12.9313 57.5902 12.4381 57.3721 12.1273C57.2305 11.932 57.0221 11.8327 56.7503 11.8327C56.4769 11.8327 56.2727 11.9336 56.136 12.1354C55.918 12.4398 55.8089 12.9313 55.8089 13.6068ZM0 7.11097C0 6.55597 0.121275 6.02699 0.36375 5.52727C0.607124 5.02597 0.978149 4.64024 1.47705 4.37002C1.97587 4.10144 2.56755 3.96637 3.2487 3.96637C4.25369 3.96637 5.04397 4.25279 5.62252 4.82422C6.20107 5.39557 6.49087 6.15884 6.49087 7.11104C6.49087 8.06969 6.20114 8.83469 5.62252 9.40761C5.04389 9.97889 4.25369 10.2654 3.2487 10.2654C2.56755 10.2654 1.97587 10.1303 1.47705 9.86016C0.978224 9.59159 0.607124 9.20586 0.36375 8.70456C0.12135 8.20311 0 7.67249 0 7.11097ZM2.29987 7.12724C2.29987 7.80269 2.40892 8.29266 2.62702 8.59859C2.76862 8.80041 2.97697 8.90136 3.24877 8.90136C3.52222 8.90136 3.72645 8.80041 3.86317 8.59859C4.08127 8.29259 4.19114 7.80269 4.19114 7.12724C4.19114 6.45832 4.08127 5.96842 3.86317 5.65754C3.72645 5.46059 3.52222 5.36294 3.24877 5.36294C2.97697 5.36294 2.76862 5.46059 2.62702 5.65754C2.40892 5.96189 2.29987 6.45344 2.29987 7.12724ZM10.1872 3.96645H11.9173L4.98449 16.7594H3.27322L10.1872 3.96645ZM8.65154 13.5889C8.65154 13.029 8.77116 12.4984 9.01124 12.0003C9.25206 11.5022 9.62234 11.1165 10.1245 10.8447C10.6267 10.5729 11.2159 10.4362 11.8929 10.4362C12.902 10.4362 13.6955 10.7242 14.2741 11.2987C14.8528 11.8733 15.1425 12.6367 15.1425 13.5888C15.1425 14.5426 14.8528 15.3059 14.2741 15.8805C13.6955 16.455 12.9021 16.7431 11.8929 16.7431C11.2159 16.7431 10.6267 16.6063 10.1245 16.3345C9.62241 16.0627 9.25214 15.6769 9.01124 15.1789C8.77124 14.681 8.65154 14.1504 8.65154 13.5889ZM10.9514 13.6068C10.9514 14.2822 11.0605 14.7721 11.2786 15.0765C11.4153 15.2718 11.6195 15.3711 11.893 15.3711C12.1648 15.3711 12.3731 15.2718 12.5147 15.0765C12.7328 14.7721 12.8419 14.2822 12.8419 13.6068C12.8419 12.9313 12.7328 12.4381 12.5147 12.1273C12.3731 11.932 12.1648 11.8327 11.893 11.8327C11.6195 11.8327 11.4153 11.9336 11.2786 12.1354C11.0605 12.4398 10.9514 12.9313 10.9514 13.6068Z" fill="#E21B1B"/>
</g>
<defs>
<clipPath id="clip0_658_94">
<rect width="60" height="60" fill="white"/>
</clipPath>
</defs>
</svg>
