<svg width="60" height="71" viewBox="0 0 60 71" fill="none" xmlns="http://www.w3.org/2000/svg">
<g clip-path="url(#clip0_665_880)">
<path d="M9.80984 49.1276C10.9416 49.1276 11.9388 49.1903 12.9115 49.0962C13.3123 49.0576 13.7466 48.7342 14.0158 48.4495C16.3589 45.9786 19.2465 44.1472 23.1741 43.5271C26.4716 43.0059 29.6283 43.5198 32.727 44.3982C33.1491 44.5188 33.5682 44.6443 34.1616 44.818C34.1616 44.374 34.1616 44.0555 34.1616 43.737C34.1616 40.6002 34.1616 37.4633 34.1616 34.3265C34.1616 31.6553 31.375 29.8359 28.0438 30.2896C26.8815 30.4488 25.6977 30.5864 24.5231 30.5864C22.4828 30.5864 21.2807 29.6767 21.2439 28.0793C21.2195 27.0924 21.3418 26.0838 21.6018 25.121C22.0576 23.432 21.4214 22.1893 19.6013 21.2458C18.647 20.7512 17.7109 20.2082 16.8942 19.5833C15.1537 18.2513 15.1354 16.806 16.8636 15.4788C17.7323 14.8104 18.7357 14.2386 19.7451 13.7005C21.4397 12.798 21.9934 11.6084 21.6355 10.0352C21.3877 8.94454 21.2439 7.82251 21.2745 6.71738C21.3082 5.47712 22.2442 4.65671 23.8042 4.53124C25.037 4.43231 26.34 4.4685 27.5452 4.68325C30.0994 5.14172 32.0143 4.67601 33.3724 2.82286C33.92 2.07967 34.6847 1.40404 35.4861 0.815279C36.9635 -0.270553 38.6368 -0.275379 40.0928 0.822518C40.9676 1.48367 41.7446 2.25099 42.4053 3.05451C43.6013 4.51193 45.1461 5.14654 47.3515 4.76047C48.3915 4.57708 49.4652 4.46367 50.5266 4.42748C53.0777 4.34061 54.4084 5.35888 54.3502 7.36164C54.3258 8.2303 54.1851 9.10862 53.9587 9.9604C53.5182 11.6036 54.1422 12.8318 55.9194 13.768C56.9625 14.3158 57.9873 14.9239 58.8652 15.626C60.364 16.8277 60.3762 18.1789 58.9019 19.3975C58.0943 20.0683 57.1461 20.6643 56.1519 21.1589C54.1912 22.1362 53.4754 23.4223 53.9862 25.2272C54.2585 26.1876 54.3441 27.201 54.3135 28.1879C54.2707 29.6477 53.1175 30.5502 51.2608 30.5864C50.0862 30.6105 48.9085 30.4416 47.7308 30.3547C47.1619 30.3137 46.5929 30.2293 46.024 30.2268C43.8613 30.2148 43.4759 30.5236 43.4759 32.2055C43.4759 36.3075 43.4759 40.4095 43.4759 44.5116C43.4759 44.7191 43.5034 44.929 43.5279 45.2644C45.556 45.2644 47.5687 45.2451 49.5784 45.2692C51.9643 45.3006 53.9373 46.6591 53.9709 48.5074C53.9862 49.4412 53.4234 50.3823 53.0716 51.473C54.0719 52.0255 54.9559 52.9545 55.0813 54.2455C55.2037 55.5098 54.5797 56.5329 53.3714 57.4378C54.9039 58.3788 55.7634 59.5709 55.5707 61.0983C55.3811 62.6039 54.2952 63.6415 52.7382 64.2641C53.1175 65.0724 53.6712 65.8252 53.7996 66.6191C54.1698 68.9114 52.0469 70.8731 49.1012 70.9359C45.7395 71.0059 42.3717 70.948 39.0099 70.9118C38.4502 70.9069 37.8109 70.8345 37.3551 70.6101C36.2417 70.0527 35.0456 70.0769 33.8251 70.0962C33.2134 70.1058 32.5985 70.0624 31.9898 70.1034C26.2085 70.504 20.7025 69.6522 15.2975 68.0548C13.6457 67.5674 11.7583 67.5698 9.9322 67.3406C9.84961 67.717 9.7976 67.828 9.80372 67.939C9.89243 69.9586 9.56207 69.7801 7.34132 69.7801C5.35305 69.7801 3.36477 69.7656 1.3765 69.7849C0.428244 69.7897 0 69.4736 0 68.7015C0.0122355 61.8559 0.00917665 55.0079 0 48.1624C0 47.4095 0.403773 47.0645 1.38567 47.0765C3.60336 47.1007 5.82106 47.0814 8.03875 47.0838C9.69054 47.0838 9.78231 47.1586 9.80984 48.4688C9.8129 48.6474 9.80984 48.8235 9.80984 49.1276ZM52.57 7.71876C52.622 6.11173 52.0683 5.70152 50.0342 5.89697C49.2021 5.9766 48.364 6.06347 47.5442 6.19618C44.6322 6.66671 42.4879 5.81734 40.9187 3.88215C40.4262 3.2765 39.8603 2.69739 39.2455 2.16412C38.1902 1.2472 37.4163 1.23996 36.3671 2.13758C35.7736 2.6443 35.2383 3.2017 34.7459 3.77357C32.7545 6.07071 30.9773 6.65223 27.5116 6.13344C26.649 6.00556 25.7772 5.89215 24.9024 5.86078C23.5228 5.81252 22.9783 6.22513 23.0365 7.30614C23.0793 8.1169 23.1986 8.93248 23.4127 9.72393C24.0306 12.0114 23.0395 13.7246 20.6077 14.9962C19.7818 15.4282 18.9804 15.9011 18.2493 16.4271C17.1665 17.2065 17.1817 17.8508 18.2799 18.6374C18.9834 19.1417 19.7512 19.6026 20.5496 20.0104C23.0487 21.2868 24.0214 23.0266 23.4066 25.3478C23.1802 26.1972 23.1007 27.0779 23.0487 27.949C22.9997 28.7574 23.5809 29.2038 24.6087 29.1531C25.7497 29.0976 26.9029 29.0373 28.0194 28.8563C30.8794 28.393 33.0206 29.1483 34.5899 31.0593C35.1068 31.6891 35.6972 32.2875 36.3212 32.8546C37.3153 33.7546 38.2024 33.7739 39.2149 32.9052C39.8328 32.3744 40.3834 31.788 40.8973 31.192C42.7968 28.9866 44.6536 28.3882 47.9511 28.8925C48.9207 29.0397 49.9179 29.1314 50.9059 29.1507C52.0744 29.1724 52.5516 28.8129 52.521 27.9056C52.4904 27.0369 52.3711 26.1586 52.157 25.3068C51.5911 23.07 52.4629 21.3472 54.8886 20.0924C55.6839 19.6798 56.4578 19.2286 57.1736 18.7339C58.44 17.8532 58.4522 17.2065 57.2042 16.333C56.4639 15.8142 55.6533 15.3534 54.8305 14.9166C52.4629 13.6691 51.585 11.9632 52.157 9.76736C52.3344 9.08932 52.4384 8.40162 52.5791 7.71634L52.57 7.71876ZM29.1359 51.3378C27.9276 52.7108 26.7744 54.05 25.5753 55.3602C25.193 55.7801 24.6699 56.212 23.9633 55.7198C23.2689 55.2348 23.7339 54.8197 24.2019 54.4192C25.7527 53.0921 26.8601 51.5671 27.5636 49.8442C27.7012 49.5088 28.0836 49.0142 28.3895 48.9973C28.7994 48.9731 29.3561 49.2699 29.6589 49.5571C31.6839 51.4826 33.6477 53.4468 35.6513 55.3892C36.6883 56.393 38.025 56.5812 39.169 55.92C40.2518 55.2951 40.469 54.2237 39.6615 53.1789C38.0739 51.1207 36.4558 49.0769 34.8407 47.0307C34.6847 46.8328 34.495 46.5964 34.2473 46.5023C30.7724 45.2017 27.1812 44.3451 23.2873 45.0014C19.7512 45.5974 17.2246 47.3444 15.2547 49.627C14.6459 50.334 13.9822 50.6598 12.9085 50.5995C11.8991 50.5416 10.8835 50.5874 9.87102 50.5874V65.7866C12.2019 66.1413 14.5205 66.262 16.6159 66.8604C21.3847 68.2237 26.2085 68.991 31.2924 68.6581C32.3752 68.5881 33.4734 68.6484 34.6694 68.6484C34.024 67.0655 34.3666 65.7335 35.5289 64.5295C31.4484 63.1589 31.2465 58.6491 34.9172 56.9576C32.9534 55.049 30.9895 53.1403 29.1359 51.3402V51.3378ZM7.89804 68.2744V48.5967H1.90874V68.2744H7.89804ZM43.6289 58.2582C43.6289 58.2582 43.6289 58.2437 43.6289 58.2365C41.3775 58.2365 39.1262 58.2172 36.8748 58.251C36.3701 58.2582 35.792 58.3523 35.376 58.5646C34.2289 59.1462 33.868 60.384 34.3574 61.6605C34.703 62.5605 35.6911 63.1469 37.0614 63.1541C41.5611 63.1734 46.0637 63.1734 50.5633 63.1517C52.0224 63.1444 53.145 62.4954 53.5825 61.5326C54.2738 60.0148 52.8697 58.3451 50.7224 58.2775C48.361 58.2027 45.9934 58.2606 43.6258 58.2606L43.6289 58.2582ZM44.1091 69.4712C44.1091 69.4712 44.1091 69.4929 44.1091 69.5026C45.7517 69.5026 47.3974 69.5436 49.04 69.4905C50.7897 69.435 52.0469 68.3444 52.0285 67.01C52.0102 65.6515 50.7438 64.6429 48.9605 64.6308C45.8282 64.6091 42.6928 64.5995 39.5575 64.6308C37.5753 64.6501 36.1805 65.7094 36.1744 67.1065C36.1682 68.4867 37.4958 69.4399 39.5238 69.4688C41.0533 69.4905 42.5827 69.4736 44.1091 69.4736V69.4712ZM36.0918 34.6619V45.2065H41.5916V32.939C40.0836 34.4664 38.5511 35.5691 36.0918 34.6619ZM36.7555 46.7098C37.8445 48.0948 38.8019 49.3496 39.8267 50.5681C39.9857 50.7563 40.4721 50.848 40.8086 50.8504C43.635 50.8721 46.4614 50.8745 49.2878 50.8577C51.0344 50.848 52.2549 49.9383 52.2121 48.7318C52.1723 47.5398 51.0038 46.7194 49.2847 46.7122C46.8804 46.7001 44.4731 46.7122 42.0658 46.7122C40.365 46.7122 38.6643 46.7122 36.7555 46.7122V46.7098ZM40.8392 56.7718C41.9006 56.7718 42.702 56.7718 43.5004 56.7718C45.868 56.767 48.2355 56.8056 50.6001 56.738C52.1631 56.6946 53.2552 55.7367 53.2796 54.5736C53.3041 53.4781 52.3008 52.3995 50.9243 52.3658C47.74 52.2885 44.5496 52.3416 41.2399 52.3416C42.2952 53.8714 42.2248 55.2878 40.8392 56.7694V56.7718Z" fill="#50C9C0"/>
<path d="M48.371 20.5227C48.3801 21.7654 47.9978 22.9139 46.9975 23.8936C45.4681 25.3872 43.0669 25.4331 41.4334 24.0142C39.3901 22.2383 39.4176 18.7685 41.4885 17.0022C43.0516 15.6678 45.3947 15.6943 46.9027 17.0866C47.9703 18.0711 48.374 19.2462 48.371 20.5227ZM46.8446 20.5516C46.3674 19.642 46.086 18.7878 45.5109 18.0832C44.8165 17.2362 43.6664 17.2821 42.8038 18.0349C41.4059 19.2559 41.4212 21.8619 42.8344 23.0684C43.6328 23.7512 44.734 23.8357 45.3886 23.0804C46.0279 22.3445 46.3521 21.4396 46.8476 20.5516H46.8446Z" fill="#50C9C0"/>
<path d="M27.4435 14.0871C27.4343 13.1171 27.8045 12.0602 28.7252 11.1554C30.1629 9.74377 32.4479 9.69551 33.9834 11.0275C35.9013 12.6948 35.8799 15.9692 33.9375 17.61C32.4815 18.8406 30.3525 18.8406 28.9057 17.5907C27.8198 16.6521 27.4374 15.5083 27.4435 14.0847V14.0871ZM29.0127 14.2608C29.4287 15.0764 29.6765 15.8727 30.2088 16.529C30.8236 17.2867 31.8575 17.2481 32.6253 16.5821C33.8855 15.4939 33.8702 13.0375 32.5947 11.9782C31.8453 11.3556 30.8603 11.3098 30.2577 12.0264C29.7132 12.6731 29.444 13.4646 29.0158 14.2608H29.0127Z" fill="#50C9C0"/>
<path d="M43.3905 10.7164C43.265 10.9649 43.213 11.1121 43.1213 11.2376C39.9094 15.646 36.7037 20.0593 33.4705 24.4582C32.978 25.129 32.1001 25.1676 31.8034 24.5619C31.6872 24.3279 31.7514 23.9563 31.9135 23.727C35.0917 19.3354 38.2852 14.9535 41.5215 10.5909C41.7081 10.3399 42.2954 10.1855 42.7083 10.1662C42.9316 10.1565 43.1794 10.533 43.3905 10.7139V10.7164Z" fill="#50C9C0"/>
<path d="M46.8442 20.5515C46.3486 21.4395 46.0213 22.3443 45.3851 23.0803C44.7305 23.8355 43.6293 23.7511 42.8309 23.0682C41.4208 21.8617 41.4055 19.2557 42.8003 18.0348C43.6629 17.2819 44.8131 17.2361 45.5074 18.083C46.0856 18.7876 46.367 19.6418 46.8411 20.5515H46.8442Z" fill="white"/>
<path d="M29.0128 14.2627C29.4411 13.4664 29.7133 12.675 30.2547 12.0283C30.8573 11.3116 31.8454 11.3575 32.5917 11.98C33.8673 13.0393 33.8826 15.4957 32.6223 16.584C31.8515 17.2475 30.8206 17.2885 30.2058 16.5309C29.6735 15.877 29.4258 15.0783 29.0098 14.2627H29.0128Z" fill="white"/>
</g>
<defs>
<clipPath id="clip0_665_880">
<rect width="60" height="70.97" fill="white"/>
</clipPath>
</defs>
</svg>
