<svg width="50" height="44" viewBox="0 0 50 44" fill="none" xmlns="http://www.w3.org/2000/svg">
<g clip-path="url(#clip0_498_2)">
<path d="M4.39504 37.0557C1.57245 33.9509 -0.121094 30.5638 -0.121094 24.9186C-0.121094 15.0396 6.93536 6.28957 16.8144 1.77344L19.3547 5.44279C10.0402 10.5234 8.06439 17.0154 7.49988 21.2492C8.91117 20.4025 10.887 20.1202 12.8628 20.4025C17.9434 20.967 21.895 24.9186 21.895 30.2815C21.895 32.8218 20.766 35.3621 19.0725 37.338C17.0966 39.3138 14.8386 40.1605 12.016 40.1605C8.91117 40.1605 6.08858 38.7492 4.39504 37.0557ZM32.6208 37.0557C29.7983 33.9509 28.1047 30.5638 28.1047 24.9186C28.1047 15.0396 35.1612 6.28957 45.0402 1.77344L47.5805 5.44279C38.266 10.5234 36.2902 17.0154 35.7257 21.2492C37.137 20.4025 39.1128 20.1202 41.0886 20.4025C46.1692 20.967 50.1208 24.9186 50.1208 30.2815C50.1208 32.8218 48.9918 35.3621 47.2983 37.338C45.6047 39.3138 43.0644 40.1605 40.2418 40.1605C37.137 40.1605 34.3144 38.7492 32.6208 37.0557Z" fill="#34D8C2"/>
</g>
<defs>
<clipPath id="clip0_498_2">
<rect width="50" height="43.5484" fill="white"/>
</clipPath>
</defs>
</svg>
