<svg width="84" height="84" viewBox="0 0 84 84" fill="none" xmlns="http://www.w3.org/2000/svg">
<path d="M16.4516 61.9531C12.9516 58.1031 10.8516 53.9031 10.8516 46.9031C10.8516 34.6531 19.6016 23.8031 31.8516 18.2031L35.0016 22.7531C23.4516 29.0531 21.0016 37.1031 20.3016 42.3531C22.0516 41.3031 24.5016 40.9531 26.9516 41.3031C33.2516 42.0031 38.1516 46.9031 38.1516 53.5531C38.1516 56.7031 36.7516 59.8531 34.6516 62.3031C32.2016 64.7531 29.4016 65.8031 25.9016 65.8031C22.0516 65.8031 18.5516 64.0531 16.4516 61.9531ZM51.4516 61.9531C47.9516 58.1031 45.8516 53.9031 45.8516 46.9031C45.8516 34.6531 54.6016 23.8031 66.8516 18.2031L70.0016 22.7531C58.4516 29.0531 56.0016 37.1031 55.3016 42.3531C57.0516 41.3031 59.5016 40.9531 61.9516 41.3031C68.2516 42.0031 73.1516 46.9031 73.1516 53.5531C73.1516 56.7031 71.7516 59.8531 69.6516 62.3031C67.5516 64.7531 64.4016 65.8031 60.9016 65.8031C57.0516 65.8031 53.5516 64.0531 51.4516 61.9531Z" fill="#428828"/>
</svg>
