<svg width="63" height="48" viewBox="0 0 63 48" fill="none" xmlns="http://www.w3.org/2000/svg">
<path d="M56.7008 3.85155C60.2008 7.70156 62.3008 11.9016 62.3008 18.9016C62.3008 31.1516 53.5508 42.0016 41.3008 47.6016L38.1508 43.0516C49.7008 36.7516 52.1508 28.7016 52.8508 23.4516C51.1008 24.5016 48.6508 24.8516 46.2008 24.5016C39.9008 23.8016 35.0008 18.9016 35.0008 12.2516C35.0008 9.10156 36.4008 5.95156 38.5008 3.50156C40.9508 1.05156 43.7508 0.00156021 47.2508 0.00156021C51.1008 0.00156021 54.6008 1.75156 56.7008 3.85155ZM21.7008 3.85155C25.2008 7.70156 27.3008 11.9016 27.3008 18.9016C27.3008 31.1516 18.5508 42.0016 6.30078 47.6016L3.15078 43.0516C14.7008 36.7516 17.1508 28.7016 17.8508 23.4516C16.1008 24.5016 13.6508 24.8516 11.2008 24.5016C4.90078 23.8016 0.000785828 18.9016 0.000785828 12.2516C0.000785828 9.10156 1.40078 5.95156 3.50079 3.50156C5.60078 1.05156 8.75079 0.00156021 12.2508 0.00156021C16.1008 0.00156021 19.6008 1.75156 21.7008 3.85155Z" fill="#FE1C04"/>
</svg>
