<svg width="63" height="48" viewBox="0 0 63 48" fill="none" xmlns="http://www.w3.org/2000/svg">
<path d="M56.6998 3.85009C60.1998 7.70009 62.2998 11.9001 62.2998 18.9001C62.2998 31.1501 53.5498 42.0001 41.2998 47.6001L38.1498 43.0501C49.6998 36.7501 52.1498 28.7001 52.8498 23.4501C51.0998 24.5001 48.6498 24.8501 46.1998 24.5001C39.8998 23.8001 34.9998 18.9001 34.9998 12.2501C34.9998 9.10009 36.3998 5.9501 38.4998 3.5001C40.9498 1.0501 43.7498 9.53674e-05 47.2498 9.53674e-05C51.0998 9.53674e-05 54.5998 1.75009 56.6998 3.85009ZM21.6998 3.85009C25.1998 7.70009 27.2998 11.9001 27.2998 18.9001C27.2998 31.1501 18.5498 42.0001 6.2998 47.6001L3.1498 43.0501C14.6998 36.7501 17.1498 28.7001 17.8498 23.4501C16.0998 24.5001 13.6498 24.8501 11.1998 24.5001C4.8998 23.8001 -0.000198162 18.9001 -0.000198162 12.2501C-0.000198162 9.10009 1.3998 5.9501 3.4998 3.5001C5.5998 1.0501 8.7498 9.53674e-05 12.2498 9.53674e-05C16.0998 9.53674e-05 19.5998 1.75009 21.6998 3.85009Z" fill="#FE1C04"/>
</svg>
