<svg width="601" height="584" viewBox="0 0 601 584" fill="none" xmlns="http://www.w3.org/2000/svg">
<path d="M379.178 5.7735C385.366 2.20085 392.99 2.20085 399.178 5.7735L468.78 45.9581C474.968 49.5308 478.78 56.1333 478.78 63.2786V143.648C478.78 150.793 474.968 157.396 468.78 160.968L399.178 201.153C392.99 204.726 385.366 204.726 379.178 201.153L309.576 160.968C303.388 157.396 299.576 150.793 299.576 143.648V63.2786C299.576 56.1333 303.388 49.5308 309.576 45.9581L379.178 5.7735Z" fill="url(#paint0_linear_369_5504)" fill-opacity="0.7"/>
<path d="M93.4632 17.0313C99.6512 13.4587 107.275 13.4587 113.463 17.0313L183.065 57.2159C189.253 60.7886 193.065 67.3911 193.065 74.5364V154.906C193.065 162.051 189.253 168.653 183.065 172.226L113.463 212.411C107.275 215.983 99.6512 215.983 93.4632 212.411L23.8614 172.226C17.6734 168.653 13.8614 162.051 13.8614 154.906V74.5364C13.8614 67.3911 17.6734 60.7886 23.8614 57.2159L93.4632 17.0313Z" fill="url(#paint1_linear_369_5504)" fill-opacity="0.7"/>
<path d="M432.858 354.688C439.046 351.115 446.67 351.115 452.858 354.688L522.459 394.872C528.648 398.445 532.46 405.047 532.46 412.193V492.562C532.46 499.707 528.648 506.31 522.46 509.882L452.858 550.067C446.67 553.64 439.046 553.64 432.858 550.067L363.256 509.882C357.068 506.31 353.256 499.707 353.256 492.562V412.193C353.256 405.047 357.068 398.445 363.256 394.872L432.858 354.688Z" fill="url(#paint2_linear_369_5504)" fill-opacity="0.27"/>
<path d="M251.147 31.4651C272.805 18.9608 299.489 18.9608 321.147 31.4651L498.958 134.124C520.616 146.628 533.958 169.737 533.958 194.746V400.064C533.958 425.073 520.616 448.182 498.958 460.686L321.147 563.345C299.489 575.849 272.805 575.849 251.147 563.345L73.3364 460.686C51.6784 448.182 38.3365 425.073 38.3365 400.064V194.746C38.3365 169.737 51.6784 146.628 73.3365 134.124L251.147 31.4651Z" fill="url(#paint3_linear_369_5504)" fill-opacity="0.3"/>
<g clip-path="url(#clip0_369_5504)">
<path d="M548.584 134.478C550.131 135.372 552.037 135.372 553.584 134.478L575.202 121.997C576.749 121.104 577.702 119.453 577.702 117.667V92.7047C577.702 90.9184 576.749 89.2678 575.202 88.3746L553.584 75.8934C552.037 75.0002 550.131 75.0002 548.584 75.8934L526.965 88.3746C525.418 89.2678 524.465 90.9184 524.465 92.7047V117.667C524.465 119.453 525.418 121.104 526.965 121.997L548.584 134.478Z" fill="url(#paint4_linear_369_5504)" fill-opacity="0.5"/>
<path opacity="0.4" d="M591.825 389.59C602.73 378.68 602.73 360.992 591.825 350.082C580.919 339.173 563.238 339.173 552.332 350.082C541.427 360.992 541.427 378.68 552.332 389.59C563.238 400.499 580.919 400.499 591.825 389.59Z" fill="#8BFA71"/>
<path opacity="0.4" d="M142.69 204.985C159.326 188.343 159.326 161.36 142.69 144.718C126.054 128.076 99.0822 128.076 82.4462 144.718C65.8103 161.36 65.8103 188.343 82.4462 204.985C99.0822 221.627 126.054 221.627 142.69 204.985Z" fill="#01954B" fill-opacity="0.6"/>
<path opacity="0.4" d="M259.915 133.878C272.181 133.878 282.124 123.932 282.124 111.662C282.124 99.392 272.181 89.4453 259.915 89.4453C247.65 89.4453 237.707 99.392 237.707 111.662C237.707 123.932 247.65 133.878 259.915 133.878Z" fill="#01954B" fill-opacity="0.34"/>
<path d="M228.124 122.647C226.75 122.647 225.365 122.539 224.001 122.326L224.133 121.489C225.45 121.696 226.794 121.801 228.124 121.801H228.279L228.286 122.647H228.124ZM232.565 122.271L232.423 121.438C233.783 121.208 235.137 120.863 236.454 120.416L236.728 121.218C235.371 121.682 233.97 122.038 232.565 122.275V122.271ZM219.827 121.32C218.47 120.876 217.136 120.318 215.867 119.661L216.256 118.909C217.485 119.542 218.778 120.084 220.091 120.514L219.827 121.32ZM240.668 119.512L240.272 118.763C241.498 118.113 242.675 117.362 243.776 116.525L244.287 117.199C243.149 118.062 241.934 118.841 240.668 119.512ZM212.222 117.395C211.071 116.545 209.981 115.594 208.986 114.571L209.591 113.979C210.556 114.968 211.612 115.889 212.726 116.711L212.222 117.392V117.395ZM247.485 114.334L246.873 113.752C247.824 112.75 248.704 111.659 249.483 110.515L250.183 110.992C249.378 112.174 248.47 113.298 247.489 114.334H247.485ZM206.244 111.266C205.425 110.098 204.694 108.852 204.074 107.562L204.836 107.193C205.438 108.442 206.146 109.648 206.938 110.782L206.244 111.266ZM252.306 107.261L251.541 106.902C252.129 105.645 252.62 104.335 252.999 103.004L253.812 103.238C253.419 104.613 252.911 105.964 252.306 107.261ZM202.517 103.556C202.107 102.181 201.803 100.769 201.62 99.354L202.459 99.2456C202.639 100.614 202.93 101.985 203.329 103.312L202.52 103.556H202.517ZM254.655 99.0255L253.815 98.9273C253.934 97.9284 253.991 96.9159 253.991 95.9136C253.991 95.5344 253.981 95.1484 253.964 94.7691L254.81 94.7319C254.827 95.1247 254.837 95.5208 254.837 95.9136C254.837 96.9498 254.776 97.9961 254.655 99.0255ZM202.256 95.0908L201.41 95.0637C201.458 93.6348 201.62 92.199 201.894 90.7938L202.723 90.9563C202.456 92.3175 202.297 93.7059 202.253 95.0908H202.256ZM253.446 90.6448C253.165 89.2937 252.769 87.9528 252.272 86.6525L253.06 86.3477C253.575 87.6887 253.984 89.0736 254.276 90.4687L253.446 90.6414V90.6448ZM203.854 86.9539L203.062 86.6593C203.556 85.3184 204.165 84.0079 204.87 82.7618L205.607 83.1783C204.927 84.3838 204.338 85.6536 203.857 86.9505L203.854 86.9539ZM252.194 86.4561C251.686 85.1626 251.073 83.9063 250.369 82.7178L251.097 82.2877C251.821 83.5135 252.454 84.8138 252.979 86.148L252.19 86.4561H252.194ZM207.929 79.7346L207.269 79.2063C208.163 78.0889 209.155 77.0358 210.214 76.0809L210.783 76.7107C209.757 77.6386 208.799 78.6544 207.933 79.738L207.929 79.7346ZM247.969 79.3215C247.083 78.2616 246.101 77.2627 245.055 76.3552L245.607 75.7152C246.69 76.6498 247.702 77.6826 248.616 78.7763L247.966 79.3181L247.969 79.3215ZM214.08 74.1779L213.623 73.4668C214.821 72.6948 216.094 72.0108 217.407 71.4385L217.746 72.2139C216.473 72.7693 215.241 73.4296 214.08 74.1779ZM241.704 73.8968C240.526 73.1722 239.28 72.5356 238.001 72.004L238.326 71.2218C239.646 71.767 240.932 72.4273 242.151 73.1756L241.707 73.8968H241.704ZM221.679 70.8561L221.469 70.0366C222.857 69.6777 224.279 69.4305 225.7 69.3018L225.778 70.145C224.404 70.2703 223.023 70.5107 221.682 70.8561H221.679ZM234.044 70.7274C232.697 70.4091 231.312 70.1992 229.935 70.101L229.996 69.2578C231.421 69.3594 232.849 69.5761 234.24 69.908L234.044 70.7308V70.7274Z" fill="#01954B"/>
<path d="M494.72 418.497L494.707 417.651C496.108 417.627 497.523 417.569 498.914 417.481L498.968 418.325C497.567 418.413 496.138 418.474 494.723 418.497H494.72ZM490.472 418.474C489.064 418.433 487.635 418.358 486.231 418.254L486.295 417.41C487.686 417.515 489.101 417.59 490.499 417.63L490.475 418.477L490.472 418.474ZM503.199 417.956L503.104 417.116C504.496 416.96 505.897 416.77 507.275 416.554L507.407 417.39C506.016 417.61 504.601 417.803 503.196 417.959L503.199 417.956ZM482 417.834C480.602 417.661 479.19 417.454 477.796 417.217L477.938 416.384C479.319 416.621 480.72 416.828 482.101 416.997L482 417.837V417.834ZM511.59 416.621L511.418 415.792C512.789 415.507 514.17 415.186 515.517 414.837L515.727 415.656C514.366 416.008 512.971 416.33 511.587 416.618L511.59 416.621ZM473.625 416.398C472.248 416.093 470.86 415.755 469.499 415.385L469.719 414.569C471.066 414.935 472.444 415.27 473.808 415.572L473.625 416.398ZM519.819 414.498L519.569 413.689C520.906 413.276 522.246 412.825 523.559 412.351L523.847 413.147C522.524 413.625 521.166 414.082 519.819 414.498ZM465.424 414.18C464.083 413.747 462.729 413.276 461.403 412.778L461.7 411.986C463.014 412.48 464.354 412.947 465.684 413.374L465.424 414.18ZM527.797 411.61L527.472 410.828C528.755 410.293 530.048 409.72 531.311 409.121L531.673 409.886C530.397 410.489 529.094 411.068 527.797 411.61ZM457.449 411.187C456.149 410.628 454.849 410.029 453.58 409.409L453.952 408.647C455.208 409.26 456.498 409.852 457.784 410.408L457.449 411.187ZM535.461 407.987L535.065 407.238C536.297 406.585 537.529 405.891 538.727 405.176L539.16 405.904C537.949 406.622 536.703 407.323 535.461 407.987ZM449.799 407.452C448.564 406.774 447.325 406.057 446.116 405.318L446.556 404.597C447.755 405.329 448.98 406.04 450.205 406.71L449.799 407.452ZM542.759 403.649L542.291 402.941C543.459 402.169 544.624 401.363 545.747 400.544L546.245 401.228C545.111 402.058 543.937 402.87 542.755 403.649H542.759ZM442.542 403.012C441.377 402.223 440.213 401.39 439.079 400.544L439.587 399.867C440.711 400.706 441.865 401.529 443.019 402.311L442.545 403.012H442.542ZM549.62 398.644L549.092 397.984C550.178 397.11 551.261 396.196 552.311 395.272L552.869 395.905C551.813 396.839 550.72 397.76 549.62 398.644ZM435.735 397.916C434.645 397.019 433.562 396.081 432.519 395.136L433.088 394.51C434.124 395.448 435.193 396.376 436.273 397.263L435.735 397.916ZM555.987 393.02L555.398 392.41C556.4 391.439 557.395 390.426 558.349 389.407L558.966 389.986C558.001 391.015 556.999 392.034 555.987 393.016V393.02ZM429.439 392.207C428.437 391.208 427.449 390.179 426.497 389.139L427.12 388.567C428.061 389.596 429.039 390.619 430.035 391.608L429.439 392.207ZM561.802 386.82L561.159 386.271C562.069 385.205 562.963 384.107 563.819 383.004L564.486 383.522C563.623 384.632 562.719 385.743 561.802 386.82ZM423.702 385.936C422.798 384.849 421.911 383.732 421.061 382.607L421.735 382.096C422.574 383.21 423.454 384.317 424.351 385.394L423.702 385.936ZM567.015 380.102L566.321 379.614C567.126 378.47 567.915 377.288 568.663 376.109L569.377 376.563C568.623 377.752 567.827 378.944 567.011 380.098L567.015 380.102ZM418.584 379.16C417.788 377.999 417.01 376.8 416.268 375.601L416.989 375.158C417.724 376.346 418.496 377.532 419.284 378.683L418.587 379.16H418.584ZM571.578 372.92L570.843 372.5C571.537 371.287 572.211 370.038 572.847 368.789L573.602 369.175C572.959 370.434 572.278 371.694 571.578 372.92ZM414.122 371.938C413.438 370.705 412.775 369.439 412.152 368.179L412.91 367.803C413.53 369.053 414.183 370.306 414.86 371.528L414.119 371.938H414.122ZM575.443 365.335L574.671 364.986C575.25 363.706 575.802 362.399 576.317 361.102L577.102 361.413C576.584 362.724 576.025 364.045 575.44 365.335H575.443ZM410.362 364.332C409.796 363.042 409.258 361.722 408.757 360.408L409.549 360.106C410.047 361.407 410.582 362.714 411.14 363.994L410.365 364.332H410.362ZM578.578 357.414L577.775 357.14C578.226 355.82 578.652 354.468 579.041 353.124L579.854 353.361C579.461 354.719 579.031 356.084 578.574 357.414H578.578ZM407.336 356.402C406.895 355.058 406.479 353.69 406.107 352.332L406.923 352.105C407.295 353.449 407.704 354.804 408.141 356.134L407.339 356.399L407.336 356.402ZM580.944 349.25L580.121 349.054C580.446 347.7 580.741 346.311 581.001 344.936L581.834 345.092C581.57 346.481 581.272 347.879 580.944 349.25ZM405.071 348.207C404.76 346.836 404.479 345.434 404.232 344.039L405.064 343.89C405.308 345.272 405.589 346.66 405.897 348.018L405.071 348.204V348.207ZM582.524 340.9L581.688 340.782C581.881 339.403 582.047 337.995 582.179 336.6L583.022 336.678C582.89 338.086 582.724 339.508 582.528 340.9H582.524ZM403.588 339.84C403.409 338.445 403.26 337.023 403.145 335.611L403.988 335.543C404.103 336.942 404.248 338.35 404.428 339.732L403.588 339.84ZM583.313 332.438L582.467 332.397C582.531 331.006 582.565 329.59 582.565 328.188H583.411C583.411 329.604 583.377 331.033 583.313 332.438ZM402.898 331.368C402.861 330.318 402.844 329.248 402.844 328.188C402.844 327.83 402.844 327.474 402.851 327.118L403.697 327.129C403.693 327.481 403.69 327.836 403.69 328.188C403.69 329.238 403.707 330.298 403.744 331.341L402.898 331.371V331.368ZM582.541 326.106C582.511 324.708 582.443 323.292 582.348 321.9L583.191 321.843C583.289 323.248 583.354 324.677 583.388 326.089L582.541 326.109V326.106ZM403.842 322.916L402.996 322.869C403.077 321.457 403.192 320.031 403.341 318.633L404.184 318.721C404.039 320.106 403.924 321.518 403.842 322.916ZM581.959 317.705C581.797 316.32 581.6 314.918 581.374 313.537L582.21 313.398C582.44 314.793 582.64 316.208 582.802 317.607L581.962 317.705H581.959ZM404.722 314.542L403.886 314.414C404.1 313.019 404.35 311.61 404.628 310.228L405.457 310.398C405.179 311.766 404.932 313.161 404.722 314.542ZM580.588 309.395C580.297 308.031 579.969 306.653 579.61 305.298L580.429 305.081C580.788 306.449 581.12 307.841 581.414 309.216L580.585 309.392L580.588 309.395ZM406.384 306.287L405.565 306.08C405.91 304.712 406.29 303.334 406.699 301.983L407.508 302.227C407.105 303.564 406.726 304.929 406.384 306.283V306.287ZM578.439 301.255C578.019 299.921 577.562 298.58 577.078 297.269L577.874 296.978C578.361 298.302 578.821 299.653 579.248 301.001L578.442 301.255H578.439ZM408.825 298.218L408.026 297.933C408.5 296.599 409.011 295.262 409.546 293.954L410.328 294.276C409.796 295.573 409.292 296.897 408.821 298.218H408.825ZM575.535 293.362C574.993 292.082 574.411 290.792 573.808 289.532L574.57 289.166C575.179 290.44 575.768 291.74 576.313 293.033L575.535 293.362ZM412.024 290.409L411.255 290.05C411.851 288.774 412.487 287.49 413.144 286.234L413.892 286.627C413.239 287.87 412.609 289.143 412.02 290.406L412.024 290.409ZM571.903 285.784C571.243 284.558 570.542 283.329 569.821 282.13L570.545 281.693C571.273 282.905 571.98 284.145 572.647 285.381L571.903 285.784ZM415.943 282.943L415.212 282.513C415.926 281.297 416.681 280.078 417.453 278.893L418.16 279.357C417.395 280.528 416.651 281.737 415.943 282.943ZM567.57 278.578C566.795 277.416 565.982 276.258 565.153 275.134L565.833 274.633C566.67 275.767 567.492 276.939 568.274 278.111L567.57 278.581V278.578ZM420.547 275.886L419.86 275.392C420.686 274.247 421.549 273.109 422.429 272.002L423.092 272.53C422.219 273.627 421.366 274.758 420.547 275.889V275.886ZM562.577 271.806C561.697 270.722 560.78 269.642 559.849 268.602L560.482 268.037C561.423 269.09 562.347 270.177 563.237 271.271L562.581 271.806H562.577ZM425.79 269.29L425.154 268.731C426.084 267.668 427.049 266.615 428.027 265.599L428.637 266.185C427.669 267.19 426.711 268.237 425.79 269.29ZM556.972 265.524C555.99 264.525 554.975 263.537 553.952 262.588L554.528 261.969C555.56 262.927 556.586 263.923 557.574 264.932L556.968 265.524H556.972ZM431.622 263.218L431.04 262.605C432.066 261.634 433.125 260.675 434.191 259.754L434.743 260.394C433.687 261.305 432.634 262.257 431.622 263.218ZM550.801 259.795C549.735 258.894 548.631 258.007 547.521 257.154L548.036 256.483C549.159 257.343 550.273 258.244 551.346 259.152L550.801 259.798V259.795ZM437.996 257.719L437.475 257.052C438.585 256.182 439.729 255.329 440.876 254.509L441.367 255.2C440.23 256.009 439.096 256.856 437.996 257.719ZM544.119 254.665C542.968 253.866 541.787 253.084 540.606 252.342L541.056 251.624C542.251 252.372 543.442 253.161 544.603 253.971L544.119 254.665ZM444.85 252.843L444.393 252.132C445.578 251.37 446.8 250.625 448.019 249.921L448.442 250.652C447.233 251.35 446.028 252.088 444.85 252.843ZM536.981 250.182C535.762 249.494 534.51 248.827 533.261 248.197L533.64 247.442C534.902 248.079 536.165 248.753 537.394 249.443L536.977 250.182H536.981ZM452.128 248.634L451.739 247.882C452.988 247.236 454.271 246.613 455.553 246.023L455.905 246.792C454.636 247.374 453.367 247.994 452.128 248.634ZM529.449 246.392C528.17 245.824 526.86 245.278 525.557 244.771L525.865 243.982C527.181 244.496 528.505 245.045 529.794 245.62L529.449 246.392ZM459.761 245.136L459.446 244.351C460.756 243.822 462.096 243.321 463.427 242.857L463.704 243.656C462.388 244.114 461.061 244.611 459.764 245.136H459.761ZM521.586 243.331C520.259 242.888 518.909 242.468 517.565 242.089L517.795 241.273C519.152 241.659 520.516 242.079 521.857 242.529L521.589 243.331H521.586ZM467.709 242.366L467.468 241.554C468.819 241.154 470.2 240.782 471.571 240.446L471.774 241.269C470.413 241.601 469.049 241.97 467.709 242.366ZM513.489 241.036C512.129 240.717 510.744 240.429 509.367 240.179L509.519 239.346C510.907 239.6 512.308 239.891 513.679 240.213L513.486 241.036H513.489ZM475.883 240.365L475.721 239.536C477.105 239.265 478.513 239.024 479.908 238.821L480.03 239.657C478.649 239.861 477.251 240.098 475.88 240.365H475.883ZM505.21 239.515C503.825 239.329 502.417 239.17 501.026 239.048L501.101 238.205C502.505 238.327 503.927 238.486 505.325 238.675L505.213 239.515H505.21ZM484.21 239.143L484.125 238.3C485.527 238.161 486.952 238.052 488.363 237.981L488.407 238.828C487.009 238.899 485.598 239.007 484.21 239.143ZM496.826 238.78C495.597 238.73 494.348 238.706 493.119 238.706C492.95 238.706 492.784 238.706 492.618 238.706L492.611 237.859C492.781 237.859 492.953 237.859 493.119 237.859C494.361 237.859 495.62 237.886 496.859 237.934L496.826 238.78Z" fill="#01954B" fill-opacity="0.28"/>
<path d="M126.842 319.471C125.421 319.464 123.992 319.403 122.587 319.295L122.652 318.452C124.036 318.557 125.448 318.614 126.846 318.624V319.471H126.842ZM131.1 319.345L131.046 318.502C132.438 318.411 133.842 318.269 135.223 318.082L135.338 318.922C133.937 319.115 132.512 319.257 131.1 319.349V319.345ZM118.356 318.821C116.955 318.611 115.547 318.35 114.169 318.042L114.355 317.216C115.713 317.52 117.101 317.778 118.482 317.984L118.356 318.821ZM139.532 318.187L139.356 317.358C140.72 317.07 142.091 316.728 143.428 316.342L143.662 317.155C142.301 317.547 140.913 317.893 139.529 318.184L139.532 318.187ZM110.046 316.962C108.689 316.555 107.332 316.091 106.008 315.587L106.309 314.795C107.613 315.292 108.953 315.749 110.29 316.149L110.046 316.958V316.962ZM147.71 315.831L147.419 315.035C148.726 314.554 150.029 314.019 151.298 313.447L151.647 314.219C150.357 314.801 149.034 315.343 147.71 315.831ZM102.082 313.921C100.799 313.322 99.5228 312.668 98.2873 311.981L98.7002 311.242C99.9188 311.923 101.178 312.566 102.441 313.156L102.082 313.924V313.921ZM155.462 312.326L155.059 311.581C156.281 310.917 157.499 310.199 158.674 309.451L159.131 310.166C157.939 310.928 156.704 311.656 155.462 312.326ZM94.6417 309.773C93.4604 308.997 92.2892 308.168 91.1654 307.311L91.6799 306.637C92.7902 307.484 93.9444 308.3 95.1088 309.065L94.6451 309.773H94.6417ZM162.634 307.745L162.13 307.064C163.247 306.231 164.35 305.347 165.406 304.44L165.958 305.08C164.889 306.004 163.768 306.898 162.634 307.745ZM87.8719 304.602C86.8125 303.668 85.7733 302.679 84.7815 301.67L85.384 301.077C86.3623 302.073 87.3879 303.045 88.4304 303.969L87.8719 304.602ZM169.086 302.188L168.49 301.588C169.478 300.607 170.447 299.574 171.36 298.524L171.997 299.079C171.066 300.146 170.088 301.192 169.082 302.188H169.086ZM81.9077 298.527C80.9904 297.451 80.1002 296.326 79.2641 295.185L79.9445 294.684C80.7704 295.805 81.6437 296.916 82.5509 297.979L81.9077 298.527ZM174.684 295.768L174.007 295.26C174.847 294.146 175.656 292.988 176.414 291.816L177.125 292.277C176.357 293.465 175.534 294.64 174.684 295.771V295.768ZM76.871 291.667C76.1162 290.472 75.3986 289.232 74.7317 287.986L75.4798 287.587C76.1365 288.816 76.8439 290.038 77.5886 291.217L76.871 291.667ZM179.315 288.616L178.574 288.21C179.247 286.987 179.884 285.724 180.466 284.455L181.234 284.807C180.645 286.093 179.999 287.373 179.315 288.616ZM72.8633 284.16C72.2879 282.866 71.753 281.539 71.2758 280.212L72.0712 279.924C72.5451 281.234 73.0698 282.541 73.6384 283.815L72.8667 284.16H72.8633ZM182.873 280.869L182.08 280.571C182.568 279.264 183.018 277.923 183.411 276.588L184.223 276.829C183.824 278.187 183.37 279.545 182.873 280.872V280.869ZM69.976 276.155C69.5935 274.794 69.255 273.399 68.9706 272.014L69.7999 271.845C70.0809 273.209 70.4126 274.584 70.7917 275.925L69.976 276.155ZM185.276 272.698L184.45 272.518C184.744 271.157 184.995 269.765 185.195 268.384L186.031 268.502C185.831 269.904 185.577 271.313 185.276 272.694V272.698ZM68.2666 267.812C68.0838 266.41 67.9484 264.984 67.8638 263.572L68.71 263.521C68.7912 264.916 68.9266 266.322 69.106 267.703L68.2666 267.815V267.812ZM186.484 264.266L185.641 264.205C185.74 262.817 185.79 261.405 185.79 260.006H186.637C186.637 261.422 186.586 262.854 186.488 264.263L186.484 264.266ZM68.6119 259.319L67.7656 259.309C67.7825 257.894 67.8502 256.461 67.9653 255.053L68.8082 255.124C68.6931 256.512 68.6288 257.924 68.6119 259.319ZM185.723 257.189C185.655 255.794 185.54 254.385 185.374 253.004L186.213 252.902C186.379 254.304 186.498 255.73 186.565 257.149L185.719 257.189H185.723ZM69.3024 250.952L68.4663 250.823C68.6829 249.425 68.9537 248.016 69.2685 246.638L70.0944 246.828C69.783 248.185 69.5156 249.574 69.3024 250.952ZM184.727 248.852C184.463 247.484 184.145 246.106 183.786 244.759L184.602 244.539C184.968 245.907 185.289 247.302 185.557 248.69L184.724 248.849L184.727 248.852ZM71.181 242.771L70.372 242.524C70.7883 241.169 71.2588 239.811 71.77 238.494L72.5586 238.802C72.0543 240.103 71.5906 241.44 71.181 242.774V242.771ZM182.551 240.746C182.094 239.432 181.583 238.115 181.031 236.835L181.81 236.5C182.368 237.797 182.886 239.131 183.35 240.465L182.551 240.743V240.746ZM74.2206 234.935L73.4556 234.573C74.0615 233.293 74.7216 232.02 75.4189 230.787L76.1568 231.204C75.4697 232.419 74.8198 233.676 74.2206 234.935ZM179.234 233.046C178.591 231.81 177.897 230.581 177.169 229.392L177.89 228.949C178.628 230.154 179.335 231.4 179.985 232.656L179.234 233.046ZM78.3536 227.625L77.6495 227.157C78.4314 225.979 79.2675 224.814 80.134 223.693L80.8043 224.211C79.9513 225.315 79.1287 226.467 78.357 227.628L78.3536 227.625ZM174.847 225.898C174.035 224.763 173.171 223.646 172.281 222.573L172.931 222.031C173.835 223.118 174.712 224.252 175.534 225.403L174.847 225.898ZM83.4851 220.981L82.8555 220.416C83.7965 219.359 84.7883 218.326 85.8038 217.341L86.3927 217.947C85.3908 218.919 84.4126 219.938 83.4851 220.978V220.981ZM169.482 219.444C168.517 218.438 167.502 217.453 166.469 216.518L167.038 215.892C168.087 216.84 169.116 217.839 170.095 218.861L169.485 219.447L169.482 219.444ZM89.5068 215.133L88.9619 214.486C90.0417 213.576 91.1722 212.695 92.3163 211.862L92.8139 212.546C91.6867 213.366 90.5731 214.236 89.5068 215.133ZM163.254 213.813C162.154 212.952 161.009 212.123 159.855 211.344L160.329 210.643C161.504 211.432 162.661 212.275 163.778 213.149L163.257 213.816L163.254 213.813ZM96.297 210.203L95.8501 209.485C97.0518 208.737 98.294 208.026 99.5431 207.369L99.9357 208.117C98.7036 208.767 97.4783 209.468 96.297 210.203ZM156.288 209.123C155.076 208.429 153.827 207.768 152.568 207.166L152.933 206.404C154.209 207.017 155.479 207.687 156.704 208.391L156.284 209.126L156.288 209.123ZM103.717 206.295L103.378 205.52C104.671 204.954 106.001 204.426 107.335 203.955L107.619 204.755C106.306 205.218 104.996 205.74 103.72 206.299L103.717 206.295ZM148.719 205.483C147.422 204.968 146.089 204.497 144.755 204.081L145.009 203.271C146.36 203.695 147.714 204.176 149.03 204.694L148.719 205.483ZM111.62 203.495L111.397 202.679C112.758 202.303 114.152 201.975 115.543 201.697L115.709 202.526C114.342 202.797 112.968 203.126 111.624 203.495H111.62ZM140.707 202.967C139.349 202.645 137.965 202.371 136.587 202.151L136.723 201.314C138.117 201.538 139.526 201.819 140.9 202.144L140.707 202.967ZM119.849 201.856L119.744 201.016C121.146 200.84 122.571 200.715 123.985 200.64L124.029 201.487C122.635 201.561 121.227 201.687 119.849 201.859V201.856ZM132.421 201.629C131.036 201.507 129.625 201.433 128.227 201.409L128.24 200.562C129.655 200.586 131.087 200.664 132.492 200.786L132.417 201.629H132.421Z" fill="#01954B"/>
<path d="M365.187 117.471C357.314 117.471 350.906 111.064 350.906 103.185C350.906 95.305 357.31 88.8984 365.187 88.8984C373.064 88.8984 379.468 95.305 379.468 103.185C379.468 111.064 373.064 117.471 365.187 117.471ZM365.187 89.535C357.663 89.535 351.543 95.6572 351.543 103.185C351.543 110.712 357.663 116.834 365.187 116.834C372.712 116.834 378.832 110.712 378.832 103.185C378.832 95.6572 372.712 89.535 365.187 89.535Z" fill="#01954B" fill-opacity="0.51"/>
<path d="M513.753 168.764V426.169C513.753 431.53 509.41 435.871 504.062 435.871H130.135C124.78 435.871 120.438 431.53 120.438 426.169V168.764C120.438 163.404 124.78 159.062 130.135 159.062H504.065C509.413 159.062 513.756 163.404 513.756 168.764H513.753Z" fill="white"/>
<path d="M504.066 436.288H130.136C124.555 436.288 120.016 431.747 120.016 426.163V168.757C120.016 163.174 124.555 158.633 130.136 158.633H504.066C509.641 158.633 514.181 163.174 514.181 168.757V426.163C514.181 431.747 509.645 436.288 504.066 436.288ZM130.136 159.479C125.022 159.479 120.862 163.641 120.862 168.757V426.163C120.862 431.279 125.022 435.441 130.136 435.441H504.066C509.174 435.441 513.334 431.279 513.334 426.163V168.757C513.334 163.641 509.178 159.479 504.066 159.479H130.136Z" fill="#01954B" fill-opacity="0.67"/>
<path d="M513.753 168.764V184.035H120.438V168.764C120.438 163.404 124.78 159.062 130.135 159.062H504.065C509.413 159.062 513.756 163.404 513.756 168.764H513.753Z" fill="white"/>
<path d="M514.177 184.452H120.016V168.757C120.016 163.174 124.555 158.633 130.136 158.633H504.066C509.641 158.633 514.181 163.174 514.181 168.757V184.452H514.177ZM120.858 183.606H513.331V168.757C513.331 163.641 509.174 159.479 504.063 159.479H130.136C125.022 159.479 120.862 163.641 120.862 168.757V183.606H120.858Z" fill="#01954B" fill-opacity="0.67"/>
<path d="M142.274 176.051C144.766 176.051 146.786 174.03 146.786 171.537C146.786 169.044 144.766 167.023 142.274 167.023C139.782 167.023 137.762 169.044 137.762 171.537C137.762 174.03 139.782 176.051 142.274 176.051Z" fill="#01954B" fill-opacity="0.67"/>
<path d="M159.485 167.023C156.997 167.023 154.973 169.048 154.973 171.537C154.973 174.026 156.997 176.051 159.485 176.051C161.973 176.051 163.997 174.026 163.997 171.537C163.997 169.048 161.973 167.023 159.485 167.023Z" fill="#01954B" fill-opacity="0.67"/>
<path d="M176.688 176.051C174.2 176.051 172.176 174.026 172.176 171.537C172.176 169.048 174.2 167.023 176.688 167.023C179.176 167.023 181.2 169.048 181.2 171.537C181.2 174.026 179.176 176.051 176.688 176.051ZM176.688 167.867C174.667 167.867 173.022 169.512 173.022 171.534C173.022 173.555 174.667 175.201 176.688 175.201C178.709 175.201 180.354 173.555 180.354 171.534C180.354 169.512 178.709 167.867 176.688 167.867Z" fill="#01954B" fill-opacity="0.67"/>
<path d="M287.736 176.566H203.855C201.083 176.566 198.832 174.311 198.832 171.541C198.832 168.771 201.086 166.516 203.855 166.516H287.736C290.505 166.516 292.76 168.771 292.76 171.541C292.76 174.311 290.505 176.566 287.736 176.566ZM203.855 167.359C201.55 167.359 199.678 169.235 199.678 171.537C199.678 173.84 201.553 175.716 203.855 175.716H287.736C290.042 175.716 291.913 173.84 291.913 171.537C291.913 169.235 290.038 167.359 287.736 167.359H203.855Z" fill="#01954B" fill-opacity="0.67"/>
<path d="M394.409 303.812C394.409 344.344 361.569 377.207 321.051 377.207C280.534 377.207 247.684 344.344 247.684 303.812C247.684 265.785 276.597 234.514 313.628 230.789L316.075 254.871C291.264 257.37 271.892 278.331 271.892 303.812C271.892 330.979 293.901 352.995 321.051 352.995C348.202 352.995 370.2 330.979 370.2 303.812C370.2 299.071 369.53 294.489 368.281 290.159L391.542 283.437C393.41 289.905 394.409 296.745 394.409 303.815V303.812Z" fill="#01954B" fill-opacity="0.56"/>
<path d="M321.044 363.062C353.759 363.062 380.28 336.532 380.28 303.805C380.28 271.077 353.759 244.547 321.044 244.547C288.329 244.547 261.809 271.077 261.809 303.805C261.809 336.532 288.329 363.062 321.044 363.062Z" fill="white"/>
<path opacity="0.5" d="M321.044 363.062C353.759 363.062 380.28 336.532 380.28 303.805C380.28 271.077 353.759 244.547 321.044 244.547C288.329 244.547 261.809 271.077 261.809 303.805C261.809 336.532 288.329 363.062 321.044 363.062Z" fill="#47B649"/>
<path d="M321.05 345.79C344.221 345.79 363.005 326.993 363.005 303.805C363.005 280.618 344.221 261.82 321.05 261.82C297.878 261.82 279.094 280.618 279.094 303.805C279.094 326.993 297.878 345.79 321.05 345.79Z" fill="white"/>
<path d="M325.837 324.447V330.83H317.733V324.735C311.986 324.39 306.414 322.835 302.965 320.709L307.331 310.818C311.126 313.06 316.179 314.499 320.607 314.499C324.459 314.499 325.84 313.693 325.84 312.311C325.84 307.252 303.598 311.336 303.598 296.325C303.598 289.827 308.31 284.362 317.737 283.041V276.773H325.84V282.926C330.088 283.329 334.231 284.423 337.508 286.261L333.426 296.095C329.458 294.08 325.722 293.105 322.218 293.105C318.251 293.105 316.985 294.253 316.985 295.634C316.985 300.466 339.227 296.44 339.227 311.275C339.227 317.485 334.746 322.893 325.84 324.444L325.837 324.447Z" fill="#01954B" fill-opacity="0.56"/>
<path d="M582.207 108.844H422.605V206.47H582.207V108.844Z" fill="white"/>
<path d="M582.631 206.887H422.184V108.414H582.631V206.887ZM423.03 206.04H581.785V109.261H423.03V206.04Z" fill="#01954B"/>
<path d="M451.886 175.383H442.699V192.259H451.886V175.383Z" fill="#00A388" fill-opacity="0.66"/>
<path d="M470.257 167.68H461.07V192.267H470.257V167.68Z" fill="#00A388" fill-opacity="0.66"/>
<path d="M488.628 173.984H479.441V192.266H488.628V173.984Z" fill="#00A388" fill-opacity="0.66"/>
<path d="M507.003 161.117H497.816V192.263H507.003V161.117Z" fill="#00A388" fill-opacity="0.66"/>
<path d="M525.374 152.891H516.188V192.268H525.374V152.891Z" fill="#00A388" fill-opacity="0.66"/>
<path d="M543.745 141.141H534.559V192.268H543.745V141.141Z" fill="#00A388" fill-opacity="0.66"/>
<path d="M562.112 123.039H552.926V192.266H562.112V123.039Z" fill="#00A388" fill-opacity="0.66"/>
<path d="M450 131.25H442.699V139.519H450V131.25Z" fill="#47B649" fill-opacity="0.74"/>
<path d="M510.721 135.078H461.281V137.198H510.721V135.078Z" fill="#47B649" fill-opacity="0.74"/>
<path d="M438.595 255.964L428.488 228.031C417.067 232.169 408.906 243.11 408.906 255.964C408.906 272.366 422.199 285.664 438.595 285.664C454.992 285.664 468.284 272.366 468.284 255.964C468.284 251.027 467.072 246.377 464.943 242.28L438.595 255.964Z" fill="#01954B" fill-opacity="0.6"/>
<path d="M468.893 231.7C463.944 222.184 454.006 215.68 442.545 215.68C438.994 215.68 435.592 216.306 432.438 217.447L442.545 245.38L468.893 231.696V231.7Z" fill="#01954B" fill-opacity="0.6"/>
<path d="M480.623 351.141H410.387V418.017H480.623V351.141Z" fill="#01954B" fill-opacity="0.66"/>
<path d="M460.736 368.914H421.387V371.738H460.736V368.914Z" fill="white"/>
<path d="M460.736 377.383H421.387V380.207H460.736V377.383Z" fill="white"/>
<path d="M212.522 223.312H151.445V326.59H212.522V223.312Z" fill="#01954B" fill-opacity="0.6"/>
<path d="M200.811 238.266H160.758V274.948H200.811V238.266Z" fill="white"/>
<path d="M161.04 237.938L160.469 238.562L200.525 275.242L201.096 274.618L161.04 237.938Z" fill="#01954B" fill-opacity="0.6"/>
<path d="M200.519 237.954L160.469 274.641L161.04 275.265L201.09 238.578L200.519 237.954Z" fill="#01954B" fill-opacity="0.6"/>
<path d="M180.796 265.5H41.0977V357.58H180.796V265.5Z" fill="white"/>
<path d="M181.203 357.983H40.6953V265.094H181.203V357.983ZM41.5043 357.174H180.394V265.903H41.5043V357.174Z" fill="#009349" fill-opacity="0.6"/>
<path d="M55.8164 335.345L64.8405 318.414L83.4575 335.91L95.8699 299.79L118.999 325.186L134.231 318.98L161.875 282.859" fill="white"/>
<path d="M83.6478 336.668L64.9564 319.101L56.1895 335.544L55.4414 335.148L64.7296 317.726L83.2721 335.155L95.7014 298.977L119.115 324.685L133.968 318.63L161.541 282.602L162.211 283.116L134.499 319.328L118.888 325.69L118.688 325.474L96.0399 300.606L83.6478 336.668Z" fill="#009349" fill-opacity="0.6"/>
<path d="M64.9114 320.668C66.1957 320.668 67.2368 319.627 67.2368 318.342C67.2368 317.057 66.1957 316.016 64.9114 316.016C63.6271 316.016 62.5859 317.057 62.5859 318.342C62.5859 319.627 63.6271 320.668 64.9114 320.668Z" fill="#009349" fill-opacity="0.6"/>
<path d="M83.3215 337.817C84.6058 337.817 85.6469 336.775 85.6469 335.49C85.6469 334.206 84.6058 333.164 83.3215 333.164C82.0372 333.164 80.9961 334.206 80.9961 335.49C80.9961 336.775 82.0372 337.817 83.3215 337.817Z" fill="#009349" fill-opacity="0.6"/>
<path d="M96.009 302.254C97.2933 302.254 98.3344 301.213 98.3344 299.928C98.3344 298.643 97.2933 297.602 96.009 297.602C94.7247 297.602 93.6836 298.643 93.6836 299.928C93.6836 301.213 94.7247 302.254 96.009 302.254Z" fill="#009349" fill-opacity="0.6"/>
<path d="M140.568 280.18H81.332V281.026H140.568V280.18Z" fill="#009349" fill-opacity="0.6"/>
<path d="M373.242 488.065C370.737 471.648 374.179 454.389 382.787 440.188C391.395 425.989 405.107 414.961 420.816 409.594C411.921 415.824 406.488 425.891 402.7 436.07C398.913 446.249 396.425 456.936 391.75 466.742C387.076 476.545 379.703 485.708 369.484 489.375L373.242 488.061V488.065Z" fill="#01954B" fill-opacity="0.83"/>
<path d="M370.783 488.202C370.428 469.229 366.745 450.321 359.952 432.605C357.538 426.313 354.648 420.032 349.943 415.21C345.238 410.388 338.397 407.208 331.766 408.387C340.025 414.57 344.303 424.742 346.713 434.778C349.123 444.812 350.051 455.224 353.443 464.969C356.834 474.715 363.323 484.108 373.034 487.592L370.787 488.198L370.783 488.202Z" fill="#01954B" fill-opacity="0.83"/>
<path d="M369.493 489.446C364.771 476.724 359.64 463.684 350.145 453.997C340.651 444.305 325.608 438.762 313.172 444.18C323.242 446.466 332.469 452.297 338.856 460.413C343.541 466.366 346.689 473.423 351.506 479.267C356.323 485.112 363.671 489.822 371.115 488.427L369.493 489.446Z" fill="#47B649" fill-opacity="0.84"/>
<path d="M367.985 488.579C366.049 474.618 364.117 460.433 366.154 446.489C368.192 432.545 374.786 418.621 386.596 410.938C380.059 417.351 377.876 427.062 377.873 436.222C377.873 445.381 379.724 454.456 379.88 463.616C380.036 472.776 378.218 482.504 372.027 489.249L367.989 488.579H367.985Z" fill="#47B649" fill-opacity="0.84"/>
<path d="M374.52 486.542C379.045 475.005 383.872 463.028 393.089 454.746C399.009 449.429 406.547 445.942 414.431 444.875C408.903 449.287 405.444 455.751 402.574 462.215C399.703 468.68 397.225 475.411 393.069 481.134C388.912 486.857 382.667 491.563 375.603 491.865L374.52 486.542Z" fill="#47B649" fill-opacity="0.84"/>
<path d="M397.498 521.659H346.66L338.824 482.539H405.334L397.498 521.659Z" fill="white"/>
<path d="M397.846 522.076H346.317L338.309 482.109H405.851L397.842 522.076H397.846ZM347.011 521.23H397.152L404.818 482.956H339.341L347.008 521.23H347.011Z" fill="#01954B" fill-opacity="0.83"/>
<path d="M488.514 498.126V521.65H458.016L471.978 510.255L472.713 495.922L488.514 498.126Z" fill="#47B649" fill-opacity="0.6"/>
<path d="M472.271 509.988L471.688 510.602L477.51 516.142L478.093 515.529L472.271 509.988Z" fill="#1B1B43"/>
<path d="M485.553 504.367H475.117V505.214H485.553V504.367Z" fill="#1B1B43"/>
<path d="M524.152 499.231L525.256 521.651H494.758L507.617 510.626V497.023L524.152 499.231Z" fill="#47B649" fill-opacity="0.6"/>
<path d="M507.904 510.35L507.344 510.984L512.08 515.17L512.64 514.536L507.904 510.35Z" fill="#1B1B43"/>
<path d="M521.379 504.789H511.082V505.636H521.379V504.789Z" fill="#1B1B43"/>
<path d="M491.586 362.909C492.111 409.783 495.993 455.913 503.42 501.253H529.118C523.773 466.579 521.356 424.469 524.345 368.641L505.789 353.438L491.589 362.909H491.586Z" fill="#FE1C04"/>
<path d="M471.267 369.103L459.64 420.837C456.848 433.268 456.651 446.142 459.072 458.654L467.239 500.91H492.938L485.159 445.437L503.756 360.875L471.267 369.107V369.103Z" fill="#FE1C04"/>
<path d="M493.316 418.687C493.252 417.62 491.786 393.829 491.638 390.815L484.922 388.374L485.21 387.578L492.47 390.219V390.517C492.47 391.039 493.577 409.141 494.163 418.639L493.316 418.69V418.687Z" fill="#BE443D"/>
<path d="M548.952 252.312L550.327 249.031C550.327 249.031 545.354 238.554 546.942 237.179C548.529 235.804 551.068 239.719 551.068 239.719C551.068 239.719 550.327 227.021 552.76 226.916C554.812 226.828 554.663 230.512 554.876 236.018C554.876 236.018 556.145 234.325 558.481 236.075C559.53 234.325 561.751 235.489 562.387 236.549C563.128 235.703 566.195 235.913 565.772 239.512C565.234 244.073 563.128 252.528 563.128 252.528L556.358 258.136L548.952 252.315V252.312Z" fill="#FFBC96"/>
<path d="M494.582 296.119L504.875 296.038C522.931 294.426 537.035 279.754 537.035 279.754L548.954 252.312L563.13 252.522L554.81 284.776C553.615 289.408 551.039 293.566 547.427 296.702L517.857 322.362L494.585 296.119H494.582Z" fill="#333333"/>
<path d="M466.367 319.468L471.265 369.106L524.34 368.639L522.506 308.815L494.58 296.117L475.259 304.302L466.367 319.468Z" fill="#333333"/>
<path d="M433.501 324.285C432.634 323.516 431.544 323.046 430.39 322.951C424.524 322.463 406.181 321.044 406.361 322.47C406.571 324.163 420.533 330.512 420.537 330.512C423.522 333.875 426.508 337.237 429.493 340.596L437.698 328.01L433.504 324.285H433.501Z" fill="#FFBC96"/>
<path d="M473.502 300.897C469.721 301.557 466.472 303.961 464.732 307.381L449.09 338.135L437.693 328.017L429.488 340.603C430.487 341.727 431.485 342.851 432.484 343.976C436.915 348.963 442.08 355.668 448.999 357.121C452.526 357.862 455.806 356.396 458.334 353.972C460.186 352.194 461.841 349.996 463.165 347.792L469.403 337.505L489.289 298.141L473.506 300.9L473.502 300.897Z" fill="#333333"/>
<path d="M466.799 319.41L465.957 319.492L468.929 350.037L469.772 349.955L466.799 319.41Z" fill="#333333"/>
<path d="M522.824 317.914L517.852 322.357L523.142 331.14L522.824 317.914Z" fill="#1B1B43"/>
<path d="M556.711 242.331C554.714 242.331 554.562 239.713 554.559 236.016H555.195C555.195 240.367 555.55 241.694 556.711 241.694C556.942 241.694 557.141 241.603 557.321 241.41C557.886 240.804 558.106 239.385 558.174 238.112C558.13 237.191 558.153 236.391 558.167 236.056L558.8 236.046C558.807 236.124 558.861 236.981 558.813 238.034C558.901 239.757 559.193 241.461 559.765 241.633C560.086 241.728 560.364 241.687 560.614 241.508C561.298 241.014 561.684 239.619 561.884 238.369C561.9 237.834 561.958 237.211 562.073 236.49L562.703 236.547C562.703 236.618 562.676 237.343 562.544 238.254C562.496 239.574 562.648 240.854 563.18 241.078C563.576 241.244 563.901 241.244 564.178 241.075C564.906 240.631 565.167 239.134 565.207 238.596L565.84 238.643C565.834 238.735 565.658 240.912 564.507 241.616C564.05 241.894 563.522 241.911 562.933 241.664C562.784 241.603 562.317 241.332 562.056 240.34C561.806 241.051 561.46 241.677 560.983 242.019C560.567 242.321 560.096 242.392 559.578 242.239C559.02 242.073 558.675 241.359 558.465 240.468C558.309 241.02 558.089 241.508 557.781 241.836C557.48 242.158 557.121 242.321 556.708 242.321L556.711 242.331Z" fill="#D28572"/>
<path d="M490.105 308.171C485.593 308.533 481.65 305.174 481.288 300.671L481.196 299.526L479.91 283.56L489.852 282.765L496.232 282.25L497.603 299.35C497.965 303.864 494.607 307.809 490.105 308.171Z" fill="#FFBC96"/>
<path d="M493.033 288.142C489.936 293.6 485.502 297.532 481.193 299.519L479.906 283.554L489.848 282.758L493.03 288.142H493.033Z" fill="#1B1B43"/>
<path d="M496.276 271.428L494.303 288.081C494.303 288.081 487.956 294.153 478.647 293.861C475.252 293.76 473.259 290.543 472.088 286.453C471.603 284.743 471.268 282.89 471.031 281.035C470.253 274.906 470.608 268.885 470.608 268.885L484.994 264.094L496.276 271.425V271.428Z" fill="#FFBC96"/>
<path d="M494.089 278.274C492.59 272.93 489.902 270.245 486.263 269.666C474.697 275.944 467.189 272.206 461.723 265.223C475.12 267.834 480.973 248.787 493.808 261.485C503.326 264.377 503.154 273.479 497.758 280.884L494.089 278.274Z" fill="#1B1B43"/>
<path d="M500.029 280.296C500.519 277.783 499.151 275.401 496.974 274.976C494.796 274.55 492.633 276.242 492.142 278.755C491.652 281.268 493.019 283.65 495.197 284.075C497.375 284.501 499.538 282.808 500.029 280.296Z" fill="#FFBC96"/>
<path d="M497.593 277.822C496.93 277.934 496.5 278.435 496.178 279.008C495.863 279.587 495.657 280.233 495.532 280.928L495.285 280.941C495.18 280.569 495.18 280.172 495.241 279.793C495.305 279.411 495.433 279.038 495.63 278.696C495.826 278.357 496.087 278.036 496.432 277.809C496.771 277.582 497.221 277.463 497.613 277.572L497.596 277.819L497.593 277.822Z" fill="#1B1B43"/>
<path d="M474.058 278.944C474.058 279.666 473.709 280.248 473.283 280.248C472.856 280.248 472.508 279.662 472.508 278.944C472.508 278.226 472.856 277.641 473.283 277.641C473.709 277.641 474.058 278.226 474.058 278.944Z" fill="#1B1B43"/>
<path d="M480.468 278.415C480.468 279.198 480.092 279.831 479.629 279.831C479.165 279.831 478.789 279.198 478.789 278.415C478.789 277.633 479.165 277 479.629 277C480.092 277 480.468 277.633 480.468 278.415Z" fill="#1B1B43"/>
<path d="M475.82 280.002C475.82 280.252 475.722 280.499 475.603 280.709C475.475 280.919 475.322 281.099 475.173 281.265C474.872 281.593 474.595 281.891 474.53 282.206C474.446 282.524 474.571 282.839 474.818 283.154C475.065 283.466 475.397 283.747 475.718 284.058L475.583 284.265C475.17 284.089 474.76 283.872 474.408 283.53C474.232 283.357 474.077 283.147 473.972 282.89C473.87 282.629 473.85 282.331 473.921 282.06C473.989 281.786 474.134 281.546 474.297 281.359C474.459 281.173 474.632 281.017 474.801 280.875C475.129 280.587 475.448 280.34 475.583 279.961L475.827 279.998L475.82 280.002Z" fill="#1B1B43"/>
<path d="M476.43 287.059C477.323 286.859 478.153 286.578 478.89 286.117C479.259 285.89 479.611 285.626 479.947 285.338C480.282 285.047 480.603 284.736 480.938 284.414L481.138 284.56C480.722 285.41 480.055 286.155 479.219 286.659C478.386 287.164 477.388 287.404 476.443 287.309L476.43 287.062V287.059Z" fill="#1B1B43"/>
<path d="M478.613 274.906C478.431 275.861 481.433 276.17 481.971 276.264C482.415 276.342 483.051 276.393 483.142 275.719C483.258 274.883 482.35 274.795 481.836 274.683C481.342 274.575 478.783 274.006 478.613 274.906Z" fill="#1B1B43"/>
<path d="M474.434 275.498C474.418 276.422 472.035 276.514 471.598 276.568C471.239 276.612 470.738 276.619 470.775 275.969C470.823 275.163 471.544 275.139 471.964 275.068C472.363 275 474.451 274.624 474.438 275.498H474.434Z" fill="#1B1B43"/>
<path opacity="0.2" d="M485.645 284.323C487.339 284.323 488.712 282.95 488.712 281.255C488.712 279.561 487.339 278.188 485.645 278.188C483.951 278.188 482.578 279.561 482.578 281.255C482.578 282.95 483.951 284.323 485.645 284.323Z" fill="#FE5B52"/>
<path opacity="0.2" d="M473.327 284.012C473.327 285.018 472.843 285.908 472.091 286.457C471.607 284.747 471.272 282.895 471.035 281.039C472.355 281.384 473.33 282.587 473.33 284.012H473.327Z" fill="#FE5B52"/>
<path d="M254.679 382.883H195.809V386.848H254.679V382.883Z" fill="#01954B" fill-opacity="0.6"/>
<path d="M254.674 382.892H204.957L223.787 336.969H273.501L254.674 382.892Z" fill="white"/>
<path d="M254.959 383.309H204.328L223.504 336.539H274.135L254.959 383.309ZM205.591 382.462H254.391L272.872 337.386H224.072L205.591 382.462Z" fill="#01954B" fill-opacity="0.6"/>
<path d="M250.384 379.027H211.312L226.108 342.938H265.18L250.384 379.027Z" fill="#01954B" fill-opacity="0.6"/>
<path d="M234.885 388.117H234.039V521.864H234.885V388.117Z" fill="#333333"/>
<path d="M281.944 386.852H186.98V394.406H281.944V386.852Z" fill="#47B649" fill-opacity="0.44"/>
<path d="M110.346 444.305H109.5V521.871H110.346V444.305Z" fill="#333333"/>
<path d="M133.147 447.901H86.6992C87.6842 443.184 91.8443 439.805 96.661 439.805H123.188C128.005 439.805 132.162 443.184 133.15 447.901H133.147Z" fill="#47B649" fill-opacity="0.44"/>
<path d="M103.174 516.336H116.67C119.601 516.336 121.977 518.716 121.977 521.645H97.8633C97.8633 518.713 100.243 516.336 103.171 516.336H103.174Z" fill="#47B649" fill-opacity="0.44"/>
<path d="M145.75 329.219C146.938 330.929 148.641 333.346 148.831 335.459C149.105 338.534 144.186 336.377 144.129 336.645L145.75 329.219Z" fill="#D28572"/>
<path d="M138.243 332.836H122.699V355.625H138.243V332.836Z" fill="#FFBC96"/>
<path d="M138.249 336.742V353.013C133.351 349.935 129.116 345.363 125.457 340.084L138.249 336.742Z" fill="#333333"/>
<path d="M146.981 330.593C146.497 338.466 143.467 347.371 135.205 345.174C128.716 343.447 121.57 337.982 121.57 330.095C121.57 322.209 127.027 315.812 133.759 315.812C137.967 315.812 143.264 317.854 145.755 321.799C147.252 324.166 147.191 327.16 146.981 330.593Z" fill="#FFBC96"/>
<path d="M133.224 328.316C135.424 322.478 140.461 321.902 140.461 321.902C140.461 321.902 152.125 333.442 151.401 321.52C150.826 312.045 141.571 312.939 141.571 312.939C137.049 307.05 129.795 309.353 127.152 312.77C124.508 316.186 125.446 314.222 119.217 316.44C112.989 318.658 116.317 328.136 115.206 328.817C106.93 328.817 108.464 337.011 108.464 337.011L128.059 343.404L132.777 330.517L133.224 328.316Z" fill="#333333"/>
<path d="M135.264 328.981C136.476 331.08 136.148 333.539 134.533 334.473C132.918 335.408 130.627 334.46 129.415 332.36C128.203 330.261 128.531 327.802 130.146 326.868C131.761 325.933 134.052 326.881 135.264 328.981Z" fill="#FFBC96"/>
<path d="M132.764 331.513C132.49 330.981 132.256 330.463 131.888 330.101C131.705 329.918 131.495 329.769 131.255 329.64C131.014 329.511 130.747 329.403 130.473 329.271L130.513 329.051C130.825 329.034 131.139 329.071 131.448 329.173C131.756 329.274 132.057 329.454 132.29 329.698C132.527 329.941 132.697 330.233 132.805 330.534C132.913 330.835 132.971 331.143 132.981 331.455L132.764 331.509V331.513Z" fill="#333333"/>
<path d="M125.435 317.402C129.067 317.23 131.86 313.898 131.674 309.96C131.487 306.023 128.392 302.97 124.76 303.142C121.128 303.314 118.335 306.645 118.521 310.583C118.707 314.521 121.803 317.574 125.435 317.402Z" fill="#333333"/>
<path opacity="0.2" d="M140.224 338.02C141.859 338.02 143.185 336.693 143.185 335.057C143.185 333.42 141.859 332.094 140.224 332.094C138.588 332.094 137.262 333.42 137.262 335.057C137.262 336.693 138.588 338.02 140.224 338.02Z" fill="#FE5B52"/>
<path d="M151.856 411.671L102.074 405.322L111.457 355.823C112.117 352.362 114.419 349.423 117.628 347.967C120.302 346.748 123.358 346.67 126.097 347.747L143.062 355.288C146.328 356.737 148.579 359.808 148.986 363.357L149.943 379.526L151.037 397.855L151.856 411.671Z" fill="#FE1C04"/>
<path d="M197.413 376.119L210.591 372.245C211.542 371.967 212.561 372.12 213.387 372.668C216.995 375.062 226.595 381.841 224.171 384.611C222.959 385.996 211.941 382.752 211.941 382.752L195.988 387.205L197.413 376.122V376.119Z" fill="#FFBC96"/>
<path d="M151.035 397.854C146.889 392.571 144.425 385.596 143.605 376.961L149.945 379.524L151.039 397.854H151.035Z" fill="#333333"/>
<path d="M141.559 354.672L143.543 355.529C147.625 357.289 151.287 359.903 154.276 363.198L170.615 381.199L197.414 376.12L200.941 390.511L167.271 401.039C164.614 401.513 161.896 400.595 160.068 398.604L135.781 372.168L141.563 354.672H141.559Z" fill="#FE1C04"/>
<path d="M170.3 381.487C170.219 381.399 162.251 372.717 155.346 364.976C148.522 357.32 138.117 353.599 138.012 353.565L138.293 352.766C138.398 352.803 149.002 356.592 155.979 364.414C162.877 372.151 170.845 380.83 170.923 380.918L170.3 381.49V381.487Z" fill="#333333"/>
<path d="M137.776 374.981L137.168 375.57L159.761 398.901L160.369 398.312L137.776 374.981Z" fill="#333333"/>
<path d="M150.057 486.539L139.316 507.465L166.446 521.4L159.226 504.882L165.116 491.794L150.057 486.539Z" fill="#47B649" fill-opacity="0.44"/>
<path d="M159.092 504.488L151.383 506.758L151.622 507.57L159.331 505.3L159.092 504.488Z" fill="#333333"/>
<path d="M166.953 500.293L142.375 491.119L159.205 438.729C162.099 430.971 171.011 427.135 179.111 430.159C187.211 433.182 191.432 441.922 188.538 449.68L166.949 500.296L166.953 500.293Z" fill="#333333"/>
<path d="M190.785 496.753L193.182 521.655H223.68L209.717 510.26L206.44 495.906L190.785 496.753Z" fill="#47B649" fill-opacity="0.44"/>
<path d="M209.524 509.881L202.297 513.867L202.705 514.609L209.932 510.623L209.524 509.881Z" fill="#333333"/>
<path d="M212.788 499.714L186.132 503.947L167.877 450.249L164.553 440.456L119.219 440.822C108.009 441.076 99.0895 431.469 100.19 420.295L102.075 405.328L146.925 410.973L176.397 414.217C188.667 416.333 192.435 423.766 194.987 433.315L212.785 499.717L212.788 499.714Z" fill="black"/>
<path d="M167.879 450.253L164.555 440.46L170.688 440.25C171.257 443.941 169.791 448.065 167.879 450.256V450.253Z" fill="#333333"/>
<path d="M572.44 521.227H58.7812V522.073H572.44V521.227Z" fill="#1B1B43"/>
</g>
<defs>
<linearGradient id="paint0_linear_369_5504" x1="307.785" y1="35.6878" x2="463.215" y2="213.344" gradientUnits="userSpaceOnUse">
<stop stop-color="#52AA32" stop-opacity="0.22"/>
<stop offset="1" stop-color="#4FE0B5"/>
</linearGradient>
<linearGradient id="paint1_linear_369_5504" x1="22.0701" y1="46.9456" x2="177.5" y2="224.602" gradientUnits="userSpaceOnUse">
<stop stop-color="#52AA32" stop-opacity="0.26"/>
<stop offset="1" stop-color="#4FE0B5"/>
</linearGradient>
<linearGradient id="paint2_linear_369_5504" x1="361.465" y1="384.602" x2="516.894" y2="562.258" gradientUnits="userSpaceOnUse">
<stop stop-color="#01954B"/>
<stop offset="1" stop-color="#67F035"/>
</linearGradient>
<linearGradient id="paint3_linear_369_5504" x1="61.039" y1="109.959" x2="490.909" y2="601.301" gradientUnits="userSpaceOnUse">
<stop stop-color="#47B649"/>
<stop offset="1" stop-color="#3BA514"/>
</linearGradient>
<linearGradient id="paint4_linear_369_5504" x1="526.904" y1="125.32" x2="573.078" y2="72.5435" gradientUnits="userSpaceOnUse">
<stop stop-color="#51AC30"/>
<stop offset="1" stop-color="#6ECD56"/>
</linearGradient>
<clipPath id="clip0_369_5504">
<rect width="559.307" height="452.814" fill="white" transform="translate(40.6953 69.2578)"/>
</clipPath>
</defs>
</svg>
