<svg width="550" height="535" viewBox="0 0 550 535" fill="none" xmlns="http://www.w3.org/2000/svg">
<path d="M346.747 5.7735C352.935 2.20084 360.559 2.20085 366.747 5.7735L428.882 41.647C435.07 45.2197 438.882 51.8222 438.882 58.9675V130.715C438.882 137.86 435.07 144.462 428.882 148.035L366.747 183.909C360.559 187.481 352.935 187.481 346.747 183.909L284.613 148.035C278.425 144.462 274.613 137.86 274.613 130.715V58.9675C274.613 51.8222 278.425 45.2197 284.613 41.647L346.747 5.7735Z" fill="url(#paint0_linear_369_5504)" fill-opacity="0.7"/>
<path d="M84.841 16.0938C91.029 12.5212 98.653 12.5212 104.841 16.0938L166.976 51.9673C173.164 55.54 176.976 62.1425 176.976 69.2878V141.035C176.976 148.18 173.164 154.783 166.976 158.355L104.841 194.229C98.653 197.801 91.029 197.801 84.841 194.229L22.7063 158.355C16.5183 154.783 12.7063 148.18 12.7063 141.035V69.2878C12.7063 62.1425 16.5183 55.54 22.7063 51.9673L84.841 16.0938Z" fill="url(#paint1_linear_369_5504)" fill-opacity="0.7"/>
<path d="M395.95 325.609C402.138 322.037 409.762 322.037 415.95 325.609L478.085 361.483C484.273 365.056 488.085 371.658 488.085 378.803V450.55C488.085 457.696 484.273 464.298 478.085 467.871L415.95 503.744C409.762 507.317 402.138 507.317 395.95 503.744L333.816 467.871C327.628 464.298 323.816 457.696 323.816 450.55V378.803C323.816 371.658 327.628 365.056 333.816 361.483L395.95 325.609Z" fill="url(#paint2_linear_369_5504)" fill-opacity="0.27"/>
<path d="M227.301 30.5276C248.959 18.0233 275.643 18.0233 297.301 30.5276L454.46 121.263C476.118 133.768 489.46 156.877 489.46 181.885V363.357C489.46 388.366 476.118 411.475 454.46 423.979L297.301 514.715C275.643 527.219 248.959 527.219 227.301 514.715L70.1417 423.979C48.4836 411.475 35.1416 388.366 35.1416 363.357V181.885C35.1416 156.877 48.4836 133.768 70.1416 121.263L227.301 30.5276Z" fill="url(#paint3_linear_369_5504)" fill-opacity="0.3"/>
<g clip-path="url(#clip0_369_5504)">
<path d="M502.659 123.15C504.206 124.044 506.112 124.044 507.659 123.15L527.059 111.95C528.606 111.057 529.559 109.406 529.559 107.62V85.2187C529.559 83.4324 528.606 81.7818 527.059 80.8886L507.659 69.6881C506.112 68.7949 504.206 68.7949 502.659 69.6881L483.259 80.8886C481.712 81.7817 480.759 83.4324 480.759 85.2187V107.62C480.759 109.406 481.712 111.057 483.259 111.95L502.659 123.15Z" fill="url(#paint4_linear_369_5504)" fill-opacity="0.5"/>
<path opacity="0.4" d="M542.505 357.123C552.502 347.123 552.502 330.909 542.505 320.908C532.508 310.908 516.301 310.908 506.304 320.908C496.307 330.909 496.307 347.123 506.304 357.123C516.301 367.123 532.508 367.123 542.505 357.123Z" fill="#8BFA71"/>
<path opacity="0.4" d="M130.8 187.903C146.05 172.648 146.05 147.914 130.8 132.659C115.551 117.404 90.8262 117.404 75.5766 132.659C60.3271 147.914 60.3271 172.648 75.5766 187.903C90.8262 203.159 115.551 203.159 130.8 187.903Z" fill="#01954B" fill-opacity="0.6"/>
<path opacity="0.4" d="M238.256 122.722C249.499 122.722 258.614 113.605 258.614 102.357C258.614 91.11 249.499 81.9922 238.256 81.9922C227.013 81.9922 217.898 91.11 217.898 102.357C217.898 113.605 227.013 122.722 238.256 122.722Z" fill="#01954B" fill-opacity="0.34"/>
<path d="M209.116 112.425C207.857 112.425 206.588 112.325 205.337 112.13L205.458 111.363C206.665 111.552 207.897 111.649 209.116 111.649H209.259L209.265 112.425H209.116ZM213.187 112.08L213.057 111.317C214.304 111.105 215.545 110.789 216.752 110.379L217.004 111.115C215.759 111.54 214.475 111.866 213.187 112.083V112.08ZM201.511 111.208C200.267 110.801 199.045 110.289 197.881 109.687L198.238 108.998C199.364 109.578 200.549 110.075 201.753 110.469L201.511 111.208ZM220.615 109.55L220.252 108.864C221.376 108.268 222.455 107.579 223.464 106.813L223.932 107.43C222.89 108.222 221.776 108.936 220.615 109.55ZM194.539 107.61C193.484 106.831 192.485 105.959 191.573 105.022L192.128 104.478C193.013 105.385 193.981 106.229 195.002 106.983L194.539 107.607V107.61ZM226.864 104.804L226.303 104.271C227.175 103.352 227.981 102.352 228.695 101.303L229.337 101.741C228.599 102.824 227.767 103.855 226.868 104.804H226.864ZM189.06 101.992C188.309 100.921 187.639 99.7791 187.071 98.5965L187.769 98.2581C188.321 99.4035 188.97 100.509 189.696 101.548L189.06 101.992ZM231.283 98.3202L230.582 97.9912C231.122 96.8396 231.571 95.6384 231.919 94.4185L232.664 94.6327C232.304 95.8929 231.838 97.1314 231.283 98.3202ZM185.644 94.9245C185.268 93.6643 184.989 92.3699 184.821 91.0724L185.591 90.9731C185.755 92.2271 186.022 93.4842 186.388 94.701L185.647 94.9245H185.644ZM233.436 90.7714L232.667 90.6813C232.775 89.7657 232.828 88.8376 232.828 87.9188C232.828 87.5712 232.819 87.2173 232.803 86.8697L233.579 86.8355C233.594 87.1956 233.604 87.5588 233.604 87.9188C233.604 88.8686 233.548 89.8278 233.436 90.7714ZM185.405 87.1646L184.629 87.1397C184.672 85.8298 184.821 84.5138 185.073 83.2256L185.833 83.3746C185.588 84.6224 185.442 85.895 185.402 87.1646H185.405ZM232.329 83.089C232.071 81.8506 231.708 80.6214 231.252 79.4295L231.975 79.1501C232.446 80.3793 232.822 81.6488 233.089 82.9276L232.329 83.0859V83.089ZM186.869 79.7057L186.143 79.4357C186.596 78.2065 187.155 77.0053 187.8 75.863L188.476 76.2448C187.853 77.3498 187.313 78.5138 186.872 79.7026L186.869 79.7057ZM231.18 79.2494C230.715 78.0637 230.153 76.9121 229.508 75.8227L230.175 75.4284C230.839 76.5521 231.419 77.744 231.9 78.967L231.177 79.2494H231.18ZM190.605 73.0881L190 72.6038C190.819 71.5795 191.728 70.6142 192.699 69.7389L193.221 70.3162C192.28 71.1667 191.402 72.0979 190.608 73.0912L190.605 73.0881ZM227.308 72.7094C226.495 71.7378 225.595 70.8222 224.637 69.9903L225.142 69.4036C226.135 70.2603 227.063 71.207 227.901 72.2096L227.305 72.7063L227.308 72.7094ZM196.243 67.9944L195.824 67.3426C196.922 66.6349 198.089 66.0079 199.293 65.4833L199.603 66.1941C198.436 66.7032 197.307 67.3085 196.243 67.9944ZM221.565 67.7368C220.485 67.0726 219.343 66.489 218.17 66.0017L218.468 65.2847C219.678 65.7844 220.857 66.3897 221.974 67.0757L221.568 67.7368H221.565ZM203.209 64.9494L203.016 64.1983C204.288 63.8693 205.592 63.6427 206.895 63.5247L206.966 64.2976C205.706 64.4125 204.44 64.6328 203.212 64.9494H203.209ZM214.543 64.8315C213.308 64.5397 212.039 64.3473 210.776 64.2573L210.832 63.4844C212.138 63.5775 213.448 63.7761 214.723 64.0803L214.543 64.8346V64.8315Z" fill="#01954B"/>
<path d="M453.493 383.616L453.481 382.84C454.765 382.818 456.062 382.765 457.338 382.684L457.387 383.457C456.103 383.538 454.793 383.594 453.496 383.616H453.493ZM449.599 383.594C448.308 383.557 446.999 383.488 445.711 383.392L445.77 382.619C447.046 382.715 448.342 382.784 449.624 382.821L449.602 383.597L449.599 383.594ZM461.266 383.119L461.179 382.349C462.454 382.206 463.739 382.033 465.002 381.834L465.123 382.601C463.847 382.802 462.55 382.979 461.263 383.122L461.266 383.119ZM441.833 383.007C440.551 382.849 439.257 382.66 437.979 382.442L438.109 381.679C439.375 381.896 440.66 382.085 441.926 382.24L441.833 383.01V383.007ZM468.958 381.896L468.799 381.135C470.056 380.875 471.322 380.58 472.557 380.26L472.749 381.011C471.502 381.334 470.224 381.629 468.955 381.893L468.958 381.896ZM434.156 381.691C432.894 381.412 431.621 381.101 430.374 380.763L430.576 380.015C431.811 380.35 433.074 380.657 434.324 380.934L434.156 381.691ZM476.501 379.95L476.271 379.208C477.497 378.829 478.725 378.416 479.929 377.982L480.193 378.711C478.98 379.149 477.735 379.568 476.501 379.95ZM426.638 379.658C425.41 379.261 424.168 378.829 422.952 378.373L423.225 377.647C424.429 378.1 425.658 378.528 426.877 378.919L426.638 379.658ZM483.814 377.302L483.516 376.585C484.692 376.095 485.877 375.57 487.035 375.021L487.367 375.722C486.197 376.275 485.002 376.805 483.814 377.302ZM419.328 376.914C418.137 376.402 416.945 375.853 415.782 375.285L416.123 374.586C417.274 375.148 418.456 375.691 419.635 376.2L419.328 376.914ZM490.839 373.981L490.476 373.295C491.605 372.696 492.734 372.059 493.833 371.405L494.23 372.072C493.119 372.73 491.977 373.372 490.839 373.981ZM412.316 373.49C411.183 372.87 410.048 372.212 408.94 371.535L409.343 370.874C410.442 371.544 411.565 372.196 412.688 372.811L412.316 373.49ZM497.528 370.005L497.1 369.356C498.171 368.648 499.238 367.909 500.268 367.158L500.724 367.785C499.685 368.546 498.608 369.291 497.525 370.005H497.528ZM405.663 369.421C404.596 368.698 403.529 367.934 402.489 367.158L402.954 366.538C403.985 367.307 405.043 368.062 406.101 368.779L405.666 369.421H405.663ZM503.818 365.417L503.334 364.812C504.33 364.011 505.323 363.173 506.284 362.325L506.796 362.906C505.828 363.763 504.826 364.607 503.818 365.417ZM399.423 364.75C398.424 363.927 397.431 363.067 396.476 362.201L396.997 361.627C397.947 362.487 398.927 363.337 399.917 364.151L399.423 364.75ZM509.654 360.261L509.114 359.703C510.033 358.812 510.945 357.884 511.82 356.949L512.385 357.48C511.5 358.424 510.582 359.358 509.654 360.258V360.261ZM393.652 359.516C392.734 358.601 391.828 357.657 390.956 356.704L391.527 356.18C392.389 357.123 393.286 358.061 394.198 358.967L393.652 359.516ZM514.985 354.578L514.395 354.075C515.23 353.097 516.049 352.092 516.834 351.08L517.445 351.555C516.654 352.573 515.826 353.591 514.985 354.578ZM388.393 353.768C387.565 352.771 386.752 351.747 385.973 350.717L386.59 350.248C387.36 351.269 388.166 352.284 388.989 353.271L388.393 353.768ZM519.763 348.42L519.127 347.973C519.866 346.924 520.588 345.84 521.274 344.76L521.929 345.176C521.237 346.266 520.508 347.358 519.76 348.417L519.763 348.42ZM383.702 347.557C382.972 346.492 382.259 345.393 381.579 344.294L382.24 343.888C382.913 344.977 383.621 346.064 384.344 347.119L383.705 347.557H383.702ZM523.946 341.836L523.272 341.451C523.908 340.34 524.526 339.195 525.109 338.049L525.801 338.403C525.212 339.558 524.588 340.713 523.946 341.836ZM379.612 340.936C378.985 339.806 378.377 338.645 377.806 337.491L378.501 337.146C379.069 338.291 379.668 339.44 380.288 340.56L379.609 340.936H379.612ZM527.489 334.883L526.782 334.564C527.312 333.39 527.818 332.192 528.29 331.003L529.01 331.289C528.535 332.49 528.023 333.701 527.486 334.883H527.489ZM376.165 333.964C375.647 332.782 375.153 331.571 374.694 330.367L375.42 330.091C375.876 331.283 376.366 332.481 376.878 333.654L376.168 333.964H376.165ZM530.362 327.623L529.627 327.372C530.04 326.161 530.431 324.923 530.787 323.69L531.532 323.908C531.172 325.152 530.778 326.403 530.359 327.623H530.362ZM373.391 326.695C372.988 325.463 372.606 324.209 372.265 322.964L373.012 322.756C373.354 323.988 373.729 325.23 374.129 326.45L373.394 326.692L373.391 326.695ZM532.531 320.139L531.777 319.959C532.075 318.718 532.345 317.445 532.584 316.185L533.347 316.328C533.105 317.6 532.832 318.882 532.531 320.139ZM371.315 319.183C371.03 317.926 370.772 316.641 370.546 315.362L371.309 315.226C371.532 316.492 371.79 317.765 372.072 319.01L371.315 319.18V319.183ZM533.98 312.485L533.214 312.376C533.391 311.113 533.543 309.822 533.664 308.543L534.436 308.614C534.315 309.906 534.163 311.209 533.983 312.485H533.98ZM369.956 311.513C369.792 310.235 369.655 308.931 369.55 307.637L370.322 307.575C370.428 308.856 370.561 310.148 370.726 311.414L369.956 311.513ZM534.703 304.728L533.928 304.691C533.986 303.415 534.017 302.118 534.017 300.833H534.793C534.793 302.13 534.762 303.44 534.703 304.728ZM369.323 303.747C369.289 302.785 369.273 301.804 369.273 300.833C369.273 300.504 369.273 300.178 369.28 299.852L370.055 299.861C370.052 300.184 370.049 300.51 370.049 300.833C370.049 301.795 370.065 302.766 370.099 303.723L369.323 303.75V303.747ZM533.996 298.924C533.968 297.642 533.906 296.344 533.819 295.069L534.591 295.016C534.681 296.304 534.74 297.614 534.771 298.908L533.996 298.927V298.924ZM370.189 296L369.413 295.956C369.488 294.662 369.593 293.355 369.73 292.073L370.502 292.154C370.369 293.424 370.263 294.718 370.189 296ZM533.462 291.223C533.313 289.953 533.133 288.668 532.925 287.402L533.692 287.275C533.903 288.553 534.086 289.851 534.235 291.133L533.465 291.223H533.462ZM370.995 288.324L370.229 288.206C370.425 286.927 370.654 285.636 370.909 284.369L371.669 284.524C371.414 285.778 371.188 287.057 370.995 288.324ZM532.205 283.606C531.939 282.355 531.638 281.091 531.309 279.85L532.06 279.651C532.388 280.905 532.693 282.181 532.962 283.441L532.202 283.603L532.205 283.606ZM372.519 280.756L371.768 280.567C372.085 279.313 372.432 278.05 372.808 276.811L373.549 277.035C373.18 278.261 372.832 279.512 372.519 280.753V280.756ZM530.235 276.144C529.85 274.921 529.432 273.692 528.988 272.49L529.717 272.223C530.164 273.437 530.586 274.676 530.977 275.911L530.238 276.144H530.235ZM374.756 273.359L374.024 273.099C374.458 271.876 374.927 270.65 375.417 269.452L376.134 269.746C375.647 270.935 375.184 272.149 374.753 273.359H374.756ZM527.573 268.908C527.076 267.735 526.543 266.552 525.99 265.398L526.689 265.063C527.247 266.23 527.787 267.422 528.287 268.607L527.573 268.908ZM377.688 266.202L376.984 265.873C377.53 264.703 378.113 263.526 378.715 262.375L379.401 262.735C378.802 263.874 378.225 265.041 377.685 266.199L377.688 266.202ZM524.244 261.962C523.639 260.838 522.996 259.711 522.335 258.613L522.999 258.212C523.666 259.323 524.315 260.459 524.926 261.592L524.244 261.962ZM381.281 259.357L380.611 258.963C381.266 257.849 381.958 256.732 382.665 255.645L383.314 256.07C382.612 257.144 381.93 258.252 381.281 259.357ZM520.272 255.356C519.561 254.292 518.817 253.23 518.057 252.2L518.68 251.74C519.447 252.78 520.201 253.854 520.917 254.928L520.272 255.36V255.356ZM385.501 252.889L384.871 252.436C385.628 251.386 386.42 250.344 387.226 249.329L387.834 249.813C387.034 250.818 386.252 251.855 385.501 252.892V252.889ZM515.695 249.149C514.889 248.155 514.048 247.165 513.194 246.212L513.775 245.694C514.637 246.659 515.484 247.656 516.3 248.658L515.698 249.149H515.695ZM390.307 246.842L389.724 246.33C390.577 245.355 391.462 244.39 392.358 243.459L392.917 243.996C392.029 244.918 391.151 245.877 390.307 246.842ZM510.557 243.391C509.657 242.475 508.726 241.569 507.789 240.7L508.317 240.132C509.263 241.01 510.203 241.922 511.109 242.847L510.554 243.391H510.557ZM395.654 241.277L395.12 240.715C396.06 239.824 397.031 238.946 398.009 238.102L398.514 238.688C397.546 239.523 396.581 240.395 395.654 241.277ZM504.901 238.139C503.923 237.313 502.912 236.5 501.894 235.718L502.366 235.103C503.396 235.891 504.417 236.717 505.4 237.549L504.901 238.142V238.139ZM401.496 236.236L401.018 235.625C402.036 234.827 403.085 234.045 404.137 233.293L404.587 233.927C403.544 234.669 402.505 235.445 401.496 236.236ZM498.776 233.436C497.721 232.704 496.638 231.987 495.555 231.307L495.968 230.649C497.063 231.335 498.155 232.058 499.219 232.8L498.776 233.436ZM407.779 231.766L407.361 231.114C408.446 230.416 409.567 229.733 410.684 229.088L411.071 229.758C409.964 230.397 408.859 231.074 407.779 231.766ZM492.232 229.327C491.115 228.696 489.967 228.085 488.822 227.508L489.169 226.815C490.327 227.399 491.484 228.017 492.61 228.65L492.229 229.327H492.232ZM414.45 227.908L414.094 227.219C415.239 226.626 416.415 226.055 417.59 225.515L417.913 226.22C416.75 226.753 415.586 227.321 414.45 227.908ZM485.328 225.853C484.155 225.332 482.954 224.832 481.76 224.366L482.042 223.643C483.249 224.115 484.462 224.618 485.645 225.146L485.328 225.853ZM421.447 224.702L421.159 223.982C422.36 223.497 423.588 223.038 424.808 222.613L425.062 223.345C423.855 223.764 422.639 224.221 421.45 224.702H421.447ZM478.12 223.047C476.904 222.641 475.666 222.256 474.434 221.908L474.645 221.16C475.889 221.514 477.14 221.899 478.368 222.312L478.123 223.047H478.12ZM428.733 222.163L428.512 221.418C429.75 221.051 431.016 220.71 432.273 220.403L432.459 221.157C431.212 221.461 429.961 221.799 428.733 222.163ZM470.698 220.943C469.451 220.651 468.182 220.387 466.919 220.157L467.059 219.394C468.331 219.627 469.615 219.894 470.872 220.189L470.695 220.943H470.698ZM436.226 220.328L436.077 219.568C437.346 219.319 438.637 219.099 439.915 218.913L440.027 219.679C438.761 219.866 437.48 220.083 436.223 220.328H436.226ZM463.109 219.549C461.84 219.378 460.549 219.232 459.274 219.121L459.342 218.348C460.63 218.46 461.933 218.605 463.214 218.779L463.112 219.549H463.109ZM443.859 219.208L443.781 218.435C445.066 218.307 446.372 218.208 447.666 218.143L447.706 218.919C446.425 218.984 445.131 219.083 443.859 219.208ZM455.423 218.876C454.297 218.829 453.152 218.807 452.026 218.807C451.87 218.807 451.718 218.807 451.566 218.807L451.56 218.031C451.715 218.031 451.873 218.031 452.026 218.031C453.164 218.031 454.319 218.056 455.454 218.1L455.423 218.876Z" fill="#01954B" fill-opacity="0.28"/>
<path d="M116.275 292.843C114.971 292.837 113.662 292.781 112.374 292.681L112.433 291.908C113.702 292.005 114.996 292.057 116.278 292.067V292.843H116.275ZM120.178 292.728L120.128 291.955C121.403 291.871 122.691 291.741 123.957 291.57L124.063 292.34C122.778 292.517 121.472 292.647 120.178 292.731V292.728ZM108.496 292.247C107.211 292.054 105.92 291.815 104.658 291.533L104.828 290.775C106.072 291.055 107.345 291.291 108.611 291.48L108.496 292.247ZM127.907 291.666L127.746 290.906C128.996 290.642 130.253 290.328 131.478 289.975L131.692 290.72C130.445 291.08 129.173 291.396 127.904 291.663L127.907 291.666ZM100.878 290.543C99.6341 290.17 98.3899 289.745 97.1767 289.282L97.4529 288.556C98.6474 289.012 99.8762 289.431 101.102 289.798L100.878 290.54V290.543ZM135.403 289.506L135.137 288.777C136.334 288.336 137.529 287.845 138.692 287.321L139.012 288.028C137.83 288.562 136.617 289.059 135.403 289.506ZM93.5774 287.755C92.4015 287.206 91.2317 286.607 90.0992 285.977L90.4777 285.3C91.5947 285.924 92.749 286.514 93.9063 287.054L93.5774 287.758V287.755ZM142.509 286.293L142.14 285.61C143.26 285.002 144.377 284.344 145.453 283.658L145.872 284.313C144.78 285.011 143.648 285.679 142.509 286.293ZM86.7575 283.953C85.6746 283.242 84.601 282.482 83.5709 281.696L84.0425 281.079C85.0602 281.855 86.1183 282.603 87.1856 283.304L86.7606 283.953H86.7575ZM149.084 282.094L148.621 281.47C149.645 280.706 150.657 279.896 151.625 279.064L152.131 279.651C151.15 280.498 150.123 281.318 149.084 282.094ZM80.5518 279.213C79.5806 278.356 78.6281 277.45 77.719 276.525L78.2713 275.982C79.168 276.895 80.1081 277.785 81.0638 278.633L80.5518 279.213ZM154.998 277L154.452 276.451C155.358 275.551 156.245 274.604 157.083 273.642L157.666 274.151C156.813 275.128 155.916 276.087 154.995 277H154.998ZM75.0847 273.645C74.2438 272.658 73.4278 271.627 72.6614 270.581L73.285 270.122C74.0421 271.149 74.8426 272.167 75.6742 273.142L75.0847 273.645ZM160.13 271.115L159.509 270.649C160.279 269.628 161.02 268.567 161.715 267.493L162.367 267.915C161.663 269.004 160.909 270.081 160.13 271.118V271.115ZM70.4677 267.356C69.7757 266.26 69.1179 265.124 68.5067 263.982L69.1924 263.616C69.7944 264.742 70.4428 265.863 71.1255 266.943L70.4677 267.356ZM164.374 264.559L163.695 264.187C164.312 263.066 164.896 261.909 165.429 260.745L166.134 261.067C165.594 262.247 165.001 263.42 164.374 264.559ZM66.7939 260.475C66.2665 259.289 65.7762 258.072 65.3387 256.855L66.0679 256.591C66.5023 257.793 66.9832 258.991 67.5045 260.158L66.797 260.475H66.7939ZM167.635 257.457L166.909 257.184C167.356 255.986 167.769 254.757 168.129 253.534L168.873 253.754C168.507 254.999 168.092 256.244 167.635 257.461V257.457ZM64.1472 253.137C63.7966 251.889 63.4863 250.61 63.2257 249.341L63.9859 249.185C64.2434 250.436 64.5475 251.697 64.895 252.926L64.1472 253.137ZM169.838 249.968L169.081 249.803C169.351 248.555 169.581 247.28 169.764 246.013L170.53 246.122C170.347 247.407 170.115 248.698 169.838 249.964V249.968ZM62.5803 245.489C62.4128 244.204 62.2886 242.897 62.2111 241.602L62.9868 241.556C63.0612 242.835 63.1854 244.123 63.3498 245.389L62.5803 245.492V245.489ZM170.946 242.239L170.174 242.183C170.264 240.91 170.31 239.616 170.31 238.334H171.086C171.086 239.631 171.039 240.944 170.949 242.236L170.946 242.239ZM62.8968 237.704L62.1211 237.695C62.1366 236.397 62.1987 235.084 62.3042 233.793L63.0768 233.858C62.9713 235.131 62.9123 236.425 62.8968 237.704ZM170.248 235.751C170.186 234.473 170.08 233.181 169.928 231.915L170.698 231.822C170.85 233.107 170.959 234.414 171.021 235.714L170.245 235.751H170.248ZM63.5298 230.034L62.7634 229.916C62.962 228.634 63.2102 227.343 63.4987 226.079L64.2558 226.253C63.9704 227.498 63.7252 228.771 63.5298 230.034ZM169.336 228.109C169.094 226.855 168.802 225.592 168.473 224.357L169.221 224.155C169.556 225.409 169.851 226.688 170.096 227.96L169.333 228.106L169.336 228.109ZM65.2518 222.535L64.5103 222.308C64.8919 221.067 65.3232 219.822 65.7917 218.614L66.5147 218.897C66.0524 220.089 65.6273 221.315 65.2518 222.538V222.535ZM167.341 220.679C166.922 219.474 166.453 218.267 165.948 217.093L166.661 216.786C167.173 217.975 167.648 219.198 168.073 220.421L167.341 220.675V220.679ZM68.0382 215.352L67.3369 215.02C67.8923 213.847 68.4974 212.68 69.1366 211.55L69.813 211.932C69.1831 213.046 68.5874 214.197 68.0382 215.352ZM164.3 213.62C163.71 212.487 163.074 211.36 162.407 210.271L163.068 209.864C163.745 210.969 164.393 212.112 164.989 213.263L164.3 213.62ZM71.8267 208.651L71.1813 208.222C71.8981 207.142 72.6645 206.074 73.4588 205.047L74.0731 205.522C73.2912 206.534 72.5372 207.589 71.8298 208.654L71.8267 208.651ZM160.279 207.068C159.534 206.028 158.743 205.004 157.927 204.02L158.522 203.523C159.351 204.519 160.155 205.559 160.909 206.614L160.279 207.068ZM76.5306 202.561L75.9534 202.042C76.816 201.074 77.7252 200.127 78.656 199.224L79.1959 199.78C78.2775 200.67 77.3807 201.605 76.5306 202.558V202.561ZM155.361 201.151C154.476 200.23 153.546 199.326 152.599 198.47L153.12 197.895C154.082 198.765 155.026 199.68 155.922 200.618L155.364 201.155L155.361 201.151ZM82.0505 197.2L81.5509 196.607C82.5407 195.772 83.5771 194.965 84.6258 194.202L85.0819 194.829C84.0487 195.58 83.0279 196.378 82.0505 197.2ZM149.652 195.99C148.643 195.201 147.594 194.441 146.536 193.727L146.971 193.084C148.047 193.807 149.109 194.58 150.132 195.381L149.655 195.993L149.652 195.99ZM88.2747 192.681L87.8652 192.023C88.9667 191.337 90.1054 190.685 91.2503 190.083L91.6103 190.769C90.4808 191.365 89.3576 192.007 88.2747 192.681ZM143.266 191.691C142.155 191.054 141.01 190.449 139.856 189.896L140.191 189.198C141.361 189.76 142.524 190.375 143.648 191.02L143.263 191.694L143.266 191.691ZM95.0761 189.099L94.7658 188.388C95.9511 187.87 97.1705 187.385 98.393 186.954L98.6537 187.686C97.4498 188.112 96.249 188.59 95.0792 189.102L95.0761 189.099ZM136.328 188.354C135.14 187.882 133.917 187.451 132.695 187.069L132.927 186.327C134.165 186.715 135.407 187.156 136.614 187.631L136.328 188.354ZM102.321 186.532L102.116 185.784C103.364 185.439 104.642 185.138 105.917 184.884L106.069 185.644C104.816 185.892 103.556 186.193 102.324 186.532H102.321ZM128.984 186.048C127.739 185.753 126.47 185.501 125.208 185.3L125.332 184.533C126.61 184.738 127.901 184.995 129.161 185.293L128.984 186.048ZM109.864 185.029L109.768 184.26C111.053 184.098 112.359 183.983 113.656 183.915L113.696 184.691C112.418 184.759 111.127 184.874 109.864 185.033V185.029ZM121.388 184.822C120.119 184.71 118.825 184.641 117.544 184.62L117.556 183.844C118.853 183.865 120.165 183.937 121.453 184.049L121.385 184.822H121.388Z" fill="#01954B"/>
<path d="M334.755 107.683C327.538 107.683 321.664 101.811 321.664 94.5878C321.664 87.3649 327.535 81.4922 334.755 81.4922C341.975 81.4922 347.846 87.3649 347.846 94.5878C347.846 101.811 341.975 107.683 334.755 107.683ZM334.755 82.0757C327.857 82.0757 322.247 87.6877 322.247 94.5878C322.247 101.488 327.857 107.1 334.755 107.1C341.652 107.1 347.262 101.488 347.262 94.5878C347.262 87.6877 341.652 82.0757 334.755 82.0757Z" fill="#01954B" fill-opacity="0.51"/>
<path d="M470.936 154.69V390.644C470.936 395.558 466.956 399.537 462.053 399.537H119.288C114.379 399.537 110.398 395.558 110.398 390.644V154.69C110.398 149.776 114.379 145.797 119.288 145.797H462.056C466.959 145.797 470.94 149.776 470.94 154.69H470.936Z" fill="white"/>
<path d="M462.057 399.922H119.289C114.173 399.922 110.012 395.76 110.012 390.641V154.687C110.012 149.569 114.173 145.406 119.289 145.406H462.057C467.168 145.406 471.329 149.569 471.329 154.687V390.641C471.329 395.76 467.171 399.922 462.057 399.922ZM119.289 146.182C114.601 146.182 110.787 149.997 110.787 154.687V390.641C110.787 395.332 114.601 399.146 119.289 399.146H462.057C466.739 399.146 470.553 395.332 470.553 390.641V154.687C470.553 149.997 466.743 146.182 462.057 146.182H119.289Z" fill="#01954B" fill-opacity="0.67"/>
<path d="M470.936 154.69V168.689H110.398V154.69C110.398 149.776 114.379 145.797 119.288 145.797H462.056C466.959 145.797 470.94 149.776 470.94 154.69H470.936Z" fill="white"/>
<path d="M471.325 169.074H110.012V154.687C110.012 149.569 114.173 145.406 119.289 145.406H462.057C467.168 145.406 471.329 149.569 471.329 154.687V169.074H471.325ZM110.784 168.298H470.55V154.687C470.55 149.997 466.739 146.182 462.054 146.182H119.289C114.601 146.182 110.787 149.997 110.787 154.687V168.298H110.784Z" fill="#01954B" fill-opacity="0.67"/>
<path d="M130.413 161.377C132.698 161.377 134.549 159.524 134.549 157.239C134.549 154.954 132.698 153.102 130.413 153.102C128.129 153.102 126.277 154.954 126.277 157.239C126.277 159.524 128.129 161.377 130.413 161.377Z" fill="#01954B" fill-opacity="0.67"/>
<path d="M146.191 153.102C143.91 153.102 142.055 154.958 142.055 157.239C142.055 159.521 143.91 161.377 146.191 161.377C148.471 161.377 150.327 159.521 150.327 157.239C150.327 154.958 148.471 153.102 146.191 153.102Z" fill="#01954B" fill-opacity="0.67"/>
<path d="M161.96 161.377C159.68 161.377 157.824 159.521 157.824 157.239C157.824 154.958 159.68 153.102 161.96 153.102C164.241 153.102 166.096 154.958 166.096 157.239C166.096 159.521 164.241 161.377 161.96 161.377ZM161.96 153.874C160.108 153.874 158.6 155.383 158.6 157.236C158.6 159.089 160.108 160.598 161.96 160.598C163.813 160.598 165.321 159.089 165.321 157.236C165.321 155.383 163.813 153.874 161.96 153.874Z" fill="#01954B" fill-opacity="0.67"/>
<path d="M263.757 161.845H186.866C184.325 161.845 182.262 159.778 182.262 157.239C182.262 154.7 184.328 152.633 186.866 152.633H263.757C266.295 152.633 268.362 154.7 268.362 157.239C268.362 159.778 266.295 161.845 263.757 161.845ZM186.866 153.406C184.753 153.406 183.037 155.125 183.037 157.236C183.037 159.347 184.756 161.066 186.866 161.066H263.757C265.87 161.066 267.586 159.347 267.586 157.236C267.586 155.125 265.867 153.406 263.757 153.406H186.866Z" fill="#01954B" fill-opacity="0.67"/>
<path d="M361.541 278.492C361.541 315.646 331.437 345.77 294.297 345.77C257.156 345.77 227.043 315.646 227.043 278.492C227.043 243.634 253.547 214.969 287.492 211.555L289.735 233.63C266.992 235.921 249.234 255.134 249.234 278.492C249.234 303.395 269.409 323.577 294.297 323.577C319.184 323.577 339.349 303.395 339.349 278.492C339.349 274.146 338.735 269.947 337.59 265.977L358.913 259.815C360.625 265.744 361.541 272.014 361.541 278.495V278.492Z" fill="#01954B" fill-opacity="0.56"/>
<path d="M294.291 332.803C324.28 332.803 348.591 308.483 348.591 278.484C348.591 248.484 324.28 224.164 294.291 224.164C264.303 224.164 239.992 248.484 239.992 278.484C239.992 308.483 264.303 332.803 294.291 332.803Z" fill="white"/>
<path opacity="0.5" d="M294.291 332.803C324.28 332.803 348.591 308.483 348.591 278.484C348.591 248.484 324.28 224.164 294.291 224.164C264.303 224.164 239.992 248.484 239.992 278.484C239.992 308.483 264.303 332.803 294.291 332.803Z" fill="#47B649"/>
<path d="M294.295 316.972C315.536 316.972 332.755 299.741 332.755 278.486C332.755 257.231 315.536 240 294.295 240C273.055 240 255.836 257.231 255.836 278.486C255.836 299.741 273.055 316.972 294.295 316.972Z" fill="white"/>
<path d="M298.684 297.412V303.263H291.256V297.676C285.988 297.359 280.881 295.934 277.719 293.985L281.721 284.918C285.2 286.973 289.832 288.292 293.891 288.292C297.422 288.292 298.688 287.554 298.688 286.287C298.688 281.65 278.299 285.393 278.299 271.633C278.299 265.677 282.618 260.667 291.259 259.456V253.711H298.688V259.351C302.582 259.72 306.379 260.723 309.383 262.408L305.641 271.422C302.004 269.575 298.579 268.681 295.368 268.681C291.731 268.681 290.571 269.734 290.571 271C290.571 275.429 310.959 271.739 310.959 285.337C310.959 291.03 306.851 295.987 298.688 297.409L298.684 297.412Z" fill="#01954B" fill-opacity="0.56"/>
<path d="M533.688 99.7656H387.387V189.256H533.688V99.7656Z" fill="white"/>
<path d="M534.077 189.642H387V99.375H534.077V189.642ZM387.776 188.866H533.301V100.151H387.776V188.866Z" fill="#01954B"/>
<path d="M414.226 160.766H405.805V176.236H414.226V160.766Z" fill="#00A388" fill-opacity="0.66"/>
<path d="M431.066 153.703H422.645V176.241H431.066V153.703Z" fill="#00A388" fill-opacity="0.66"/>
<path d="M447.905 159.484H439.484V176.243H447.905V159.484Z" fill="#00A388" fill-opacity="0.66"/>
<path d="M464.749 147.68H456.328V176.23H464.749V147.68Z" fill="#00A388" fill-opacity="0.66"/>
<path d="M481.589 140.141H473.168V176.237H481.589V140.141Z" fill="#00A388" fill-opacity="0.66"/>
<path d="M498.429 129.375H490.008V176.242H498.429V129.375Z" fill="#00A388" fill-opacity="0.66"/>
<path d="M515.269 112.781H506.848V176.239H515.269V112.781Z" fill="#00A388" fill-opacity="0.66"/>
<path d="M412.497 120.305H405.805V127.885H412.497V120.305Z" fill="#47B649" fill-opacity="0.74"/>
<path d="M468.156 123.812H422.836V125.756H468.156V123.812Z" fill="#47B649" fill-opacity="0.74"/>
<path d="M402.047 234.628L392.782 209.023C382.313 212.816 374.832 222.845 374.832 234.628C374.832 249.664 387.017 261.853 402.047 261.853C417.077 261.853 429.262 249.664 429.262 234.628C429.262 230.102 428.151 225.841 426.199 222.085L402.047 234.628Z" fill="#01954B" fill-opacity="0.6"/>
<path d="M429.82 212.388C425.283 203.666 416.173 197.703 405.667 197.703C402.412 197.703 399.294 198.277 396.402 199.323L405.667 224.928L429.82 212.385V212.388Z" fill="#01954B" fill-opacity="0.6"/>
<path d="M440.571 321.875H376.188V383.178H440.571V321.875Z" fill="#01954B" fill-opacity="0.66"/>
<path d="M422.344 338.172H386.273V340.761H422.344V338.172Z" fill="white"/>
<path d="M422.344 345.93H386.273V348.518H422.344V345.93Z" fill="white"/>
<path d="M194.811 204.703H138.824V299.374H194.811V204.703Z" fill="#01954B" fill-opacity="0.6"/>
<path d="M184.071 218.406H147.355V252.032H184.071V218.406Z" fill="white"/>
<path d="M147.618 218.107L147.094 218.68L183.812 252.303L184.336 251.73L147.618 218.107Z" fill="#01954B" fill-opacity="0.6"/>
<path d="M183.806 218.128L147.094 251.758L147.618 252.33L184.33 218.701L183.806 218.128Z" fill="#01954B" fill-opacity="0.6"/>
<path d="M165.728 243.367H37.6719V327.773H165.728V243.367Z" fill="white"/>
<path d="M166.103 328.14H37.3047V242.992H166.103V328.14ZM38.0463 327.398H165.361V243.734H38.0463V327.398Z" fill="#009349" fill-opacity="0.6"/>
<path d="M51.1641 307.385L59.4362 291.865L76.5017 307.903L87.8797 274.793L109.081 298.073L123.044 292.383L148.385 259.273" fill="white"/>
<path d="M76.6761 308.6L59.5423 292.497L51.506 307.57L50.8203 307.206L59.3344 291.237L76.3317 307.213L87.7252 274.05L109.187 297.615L122.803 292.065L148.078 259.039L148.692 259.511L123.29 292.705L108.98 298.537L108.796 298.338L88.0355 275.543L76.6761 308.6Z" fill="#009349" fill-opacity="0.6"/>
<path d="M59.4988 293.937C60.6761 293.937 61.6305 292.982 61.6305 291.804C61.6305 290.627 60.6761 289.672 59.4988 289.672C58.3216 289.672 57.3672 290.627 57.3672 291.804C57.3672 292.982 58.3216 293.937 59.4988 293.937Z" fill="#009349" fill-opacity="0.6"/>
<path d="M76.3777 309.655C77.555 309.655 78.5094 308.701 78.5094 307.523C78.5094 306.345 77.555 305.391 76.3777 305.391C75.2005 305.391 74.2461 306.345 74.2461 307.523C74.2461 308.701 75.2005 309.655 76.3777 309.655Z" fill="#009349" fill-opacity="0.6"/>
<path d="M88.0105 277.054C89.1878 277.054 90.1422 276.099 90.1422 274.921C90.1422 273.744 89.1878 272.789 88.0105 272.789C86.8333 272.789 85.8789 273.744 85.8789 274.921C85.8789 276.099 86.8333 277.054 88.0105 277.054Z" fill="#009349" fill-opacity="0.6"/>
<path d="M128.854 256.82H74.5547V257.596H128.854V256.82Z" fill="#009349" fill-opacity="0.6"/>
<path d="M342.139 447.4C339.843 432.352 342.999 416.531 350.889 403.513C358.78 390.498 371.349 380.389 385.75 375.469C377.595 381.18 372.615 390.408 369.143 399.739C365.671 409.069 363.391 418.865 359.106 427.854C354.821 436.84 348.063 445.24 338.695 448.601L342.139 447.397V447.4Z" fill="#01954B" fill-opacity="0.83"/>
<path d="M339.883 447.522C339.558 430.131 336.182 412.798 329.954 396.558C327.742 390.791 325.092 385.033 320.779 380.613C316.466 376.193 310.196 373.278 304.117 374.358C311.688 380.026 315.61 389.351 317.819 398.551C320.028 407.748 320.879 417.293 323.988 426.226C327.097 435.159 333.045 443.769 341.947 446.963L339.886 447.519L339.883 447.522Z" fill="#01954B" fill-opacity="0.83"/>
<path d="M338.702 448.661C334.374 436.999 329.67 425.046 320.966 416.165C312.263 407.282 298.474 402.201 287.074 407.167C296.305 409.262 304.763 414.607 310.618 422.047C314.913 427.504 317.798 433.973 322.214 439.33C326.629 444.688 333.365 449.005 340.188 447.727L338.702 448.661Z" fill="#47B649" fill-opacity="0.84"/>
<path d="M337.319 447.866C335.544 435.069 333.772 422.066 335.64 409.284C337.508 396.502 343.553 383.738 354.378 376.695C348.387 382.574 346.385 391.476 346.382 399.873C346.382 408.269 348.08 416.588 348.222 424.984C348.365 433.38 346.699 442.298 341.024 448.481L337.322 447.866H337.319Z" fill="#47B649" fill-opacity="0.84"/>
<path d="M343.309 445.999C347.457 435.424 351.882 424.445 360.331 416.853C365.757 411.98 372.667 408.782 379.894 407.805C374.827 411.849 371.656 417.775 369.025 423.7C366.394 429.626 364.122 435.796 360.312 441.042C356.502 446.288 350.777 450.602 344.301 450.878L343.309 445.999Z" fill="#47B649" fill-opacity="0.84"/>
<path d="M364.374 478.188H317.773L310.59 442.328H371.557L364.374 478.188Z" fill="white"/>
<path d="M364.693 478.574H317.458L310.117 441.938H372.031L364.69 478.574H364.693ZM318.095 477.798H364.057L371.084 442.713H311.064L318.091 477.798H318.095Z" fill="#01954B" fill-opacity="0.83"/>
<path d="M447.804 456.607V478.17H419.848L432.647 467.725L433.32 454.586L447.804 456.607Z" fill="#47B649" fill-opacity="0.6"/>
<path d="M432.914 467.477L432.379 468.039L437.716 473.118L438.251 472.556L432.914 467.477Z" fill="#1B1B43"/>
<path d="M445.089 462.328H435.523V463.104H445.089V462.328Z" fill="#1B1B43"/>
<path d="M480.472 457.625L481.484 478.177H453.527L465.315 468.07V455.602L480.472 457.625Z" fill="#47B649" fill-opacity="0.6"/>
<path d="M465.576 467.817L465.062 468.398L469.404 472.235L469.917 471.654L465.576 467.817Z" fill="#1B1B43"/>
<path d="M477.931 462.719H468.492V463.495H477.931V462.719Z" fill="#1B1B43"/>
<path d="M450.621 332.658C451.102 375.627 454.661 417.912 461.469 459.474H485.025C480.126 427.689 477.91 389.089 480.65 337.913L463.64 323.977L450.624 332.658H450.621Z" fill="#FE1C04"/>
<path d="M431.994 338.34L421.336 385.762C418.776 397.157 418.596 408.958 420.814 420.427L428.301 459.161H451.858L444.728 408.312L461.775 330.797L431.994 338.343V338.34Z" fill="#FE1C04"/>
<path d="M452.203 383.79C452.144 382.812 450.8 361.003 450.664 358.241L444.508 356.003L444.772 355.273L451.427 357.695V357.968C451.427 358.446 452.442 375.04 452.979 383.746L452.203 383.793V383.79Z" fill="#BE443D"/>
<path d="M503.208 231.281L504.468 228.273C504.468 228.273 499.91 218.67 501.365 217.41C502.82 216.149 505.147 219.738 505.147 219.738C505.147 219.738 504.468 208.098 506.699 208.001C508.579 207.921 508.442 211.298 508.638 216.345C508.638 216.345 509.801 214.793 511.942 216.398C512.904 214.793 514.94 215.861 515.523 216.832C516.202 216.056 519.014 216.249 518.626 219.548C518.132 223.729 516.203 231.48 516.203 231.48L509.997 236.62L503.208 231.284V231.281Z" fill="#FFBC96"/>
<path d="M453.367 271.437L462.803 271.363C479.353 269.885 492.283 256.436 492.283 256.436L503.208 231.281L516.202 231.474L508.576 261.039C507.48 265.285 505.119 269.097 501.808 271.971L474.702 295.493L453.37 271.437H453.367Z" fill="#333333"/>
<path d="M427.504 292.842L431.994 338.344L480.646 337.915L478.964 283.077L453.366 271.438L435.655 278.94L427.504 292.842Z" fill="#333333"/>
<path d="M397.376 297.262C396.581 296.557 395.582 296.126 394.524 296.039C389.147 295.592 372.333 294.291 372.497 295.598C372.69 297.15 385.489 302.97 385.492 302.97C388.229 306.052 390.965 309.135 393.702 312.214L401.223 300.676L397.379 297.262H397.376Z" fill="#FFBC96"/>
<path d="M434.045 275.816C430.579 276.421 427.601 278.625 426.006 281.76L411.668 309.95L401.22 300.675L393.699 312.213C394.615 313.243 395.53 314.274 396.445 315.304C400.507 319.877 405.242 326.022 411.584 327.354C414.817 328.034 417.824 326.69 420.141 324.467C421.839 322.838 423.356 320.823 424.569 318.803L430.288 309.373L448.517 273.289L434.048 275.819L434.045 275.816Z" fill="#333333"/>
<path d="M427.901 292.792L427.129 292.867L429.853 320.866L430.626 320.791L427.901 292.792Z" fill="#333333"/>
<path d="M479.253 291.422L474.695 295.494L479.545 303.546L479.253 291.422Z" fill="#1B1B43"/>
<path d="M510.321 222.125C508.49 222.125 508.351 219.725 508.348 216.336H508.931C508.931 220.325 509.257 221.541 510.321 221.541C510.532 221.541 510.715 221.457 510.88 221.281C511.398 220.725 511.599 219.424 511.661 218.257C511.621 217.413 511.643 216.68 511.655 216.373L512.235 216.364C512.242 216.435 512.291 217.221 512.248 218.186C512.329 219.766 512.595 221.327 513.12 221.485C513.415 221.572 513.669 221.535 513.899 221.371C514.525 220.917 514.879 219.639 515.062 218.493C515.078 218.003 515.13 217.432 515.236 216.77L515.813 216.823C515.813 216.888 515.788 217.553 515.667 218.388C515.624 219.598 515.763 220.772 516.251 220.976C516.614 221.128 516.911 221.128 517.166 220.973C517.833 220.567 518.072 219.195 518.109 218.701L518.689 218.745C518.683 218.828 518.522 220.824 517.467 221.47C517.048 221.724 516.564 221.74 516.024 221.513C515.887 221.457 515.459 221.209 515.22 220.3C514.991 220.952 514.674 221.526 514.237 221.839C513.855 222.116 513.424 222.181 512.949 222.041C512.437 221.889 512.121 221.234 511.928 220.418C511.786 220.924 511.584 221.371 511.302 221.672C511.025 221.967 510.696 222.116 510.318 222.116L510.321 222.125Z" fill="#D28572"/>
<path d="M449.264 282.48C445.128 282.812 441.513 279.733 441.181 275.604L441.097 274.555L439.918 259.92L449.031 259.191L454.88 258.719L456.136 274.394C456.468 278.531 453.39 282.148 449.264 282.48Z" fill="#FFBC96"/>
<path d="M451.947 264.123C449.108 269.126 445.043 272.73 441.093 274.552L439.914 259.917L449.027 259.188L451.944 264.123H451.947Z" fill="#1B1B43"/>
<path d="M454.919 248.801L453.11 264.067C453.11 264.067 447.293 269.632 438.76 269.365C435.648 269.272 433.82 266.323 432.747 262.574C432.303 261.006 431.996 259.308 431.778 257.607C431.065 251.989 431.391 246.47 431.391 246.47L444.578 242.078L454.919 248.798V248.801Z" fill="#FFBC96"/>
<path d="M452.915 255.078C451.541 250.179 449.077 247.718 445.742 247.187C435.139 252.942 428.257 249.515 423.246 243.115C435.527 245.508 440.892 228.048 452.658 239.688C461.383 242.339 461.225 250.682 456.279 257.471L452.915 255.078Z" fill="#1B1B43"/>
<path d="M458.36 256.929C458.81 254.626 457.556 252.443 455.559 252.053C453.563 251.663 451.58 253.214 451.131 255.517C450.681 257.82 451.935 260.004 453.931 260.394C455.928 260.784 457.91 259.233 458.36 256.929Z" fill="#FFBC96"/>
<path d="M456.128 254.665C455.52 254.768 455.126 255.227 454.831 255.752C454.542 256.283 454.353 256.875 454.238 257.512L454.012 257.524C453.916 257.183 453.916 256.82 453.971 256.472C454.03 256.121 454.148 255.78 454.328 255.466C454.508 255.156 454.747 254.861 455.064 254.653C455.374 254.445 455.787 254.336 456.147 254.436L456.131 254.662L456.128 254.665Z" fill="#1B1B43"/>
<path d="M434.554 255.687C434.554 256.348 434.234 256.882 433.843 256.882C433.452 256.882 433.133 256.345 433.133 255.687C433.133 255.029 433.452 254.492 433.843 254.492C434.234 254.492 434.554 255.029 434.554 255.687Z" fill="#1B1B43"/>
<path d="M440.43 255.204C440.43 255.921 440.085 256.501 439.66 256.501C439.235 256.501 438.891 255.921 438.891 255.204C438.891 254.487 439.235 253.906 439.66 253.906C440.085 253.906 440.43 254.487 440.43 255.204Z" fill="#1B1B43"/>
<path d="M436.17 256.662C436.17 256.892 436.08 257.119 435.971 257.311C435.853 257.503 435.714 257.668 435.577 257.82C435.301 258.121 435.047 258.394 434.988 258.683C434.91 258.975 435.025 259.263 435.251 259.552C435.478 259.838 435.782 260.095 436.077 260.381L435.953 260.57C435.574 260.409 435.199 260.21 434.876 259.897C434.715 259.738 434.572 259.546 434.476 259.31C434.383 259.071 434.364 258.798 434.429 258.549C434.491 258.298 434.625 258.078 434.774 257.907C434.923 257.736 435.081 257.593 435.236 257.463C435.537 257.199 435.829 256.973 435.953 256.625L436.176 256.659L436.17 256.662Z" fill="#1B1B43"/>
<path d="M436.73 263.127C437.55 262.944 438.31 262.687 438.986 262.264C439.324 262.056 439.647 261.814 439.954 261.551C440.261 261.284 440.556 260.998 440.863 260.703L441.046 260.837C440.665 261.616 440.054 262.299 439.287 262.761C438.524 263.224 437.609 263.444 436.743 263.357L436.73 263.13V263.127Z" fill="#1B1B43"/>
<path d="M438.73 251.99C438.562 252.865 441.315 253.148 441.808 253.234C442.214 253.306 442.798 253.352 442.882 252.735C442.987 251.968 442.156 251.887 441.684 251.785C441.231 251.686 438.885 251.164 438.73 251.99Z" fill="#1B1B43"/>
<path d="M434.899 252.529C434.883 253.376 432.699 253.46 432.299 253.51C431.97 253.55 431.511 253.556 431.545 252.96C431.588 252.221 432.249 252.2 432.634 252.135C433 252.072 434.914 251.728 434.902 252.529H434.899Z" fill="#1B1B43"/>
<path opacity="0.2" d="M445.174 260.624C446.727 260.624 447.986 259.365 447.986 257.812C447.986 256.259 446.727 255 445.174 255C443.622 255 442.363 256.259 442.363 257.812C442.363 259.365 443.622 260.624 445.174 260.624Z" fill="#FE5B52"/>
<path opacity="0.2" d="M433.882 260.335C433.882 261.257 433.438 262.073 432.749 262.576C432.306 261.008 431.998 259.31 431.781 257.609C432.991 257.926 433.885 259.028 433.885 260.335H433.882Z" fill="#FE5B52"/>
<path d="M233.46 350.969H179.496V354.603H233.46V350.969Z" fill="#01954B" fill-opacity="0.6"/>
<path d="M233.457 350.979H187.883L205.144 308.883H250.715L233.457 350.979Z" fill="white"/>
<path d="M233.717 351.364H187.305L204.882 308.492H251.294L233.717 351.364ZM188.462 350.588H233.195L250.137 309.268H205.403L188.462 350.588Z" fill="#01954B" fill-opacity="0.6"/>
<path d="M229.523 347.441H193.707L207.269 314.359H243.085L229.523 347.441Z" fill="#01954B" fill-opacity="0.6"/>
<path d="M215.311 355.766H214.535V478.366H215.311V355.766Z" fill="#333333"/>
<path d="M258.448 354.609H171.398V361.534H258.448V354.609Z" fill="#47B649" fill-opacity="0.44"/>
<path d="M101.155 407.266H100.379V478.368H101.155V407.266Z" fill="#333333"/>
<path d="M122.053 410.562H79.4766C80.3795 406.238 84.1928 403.141 88.6082 403.141H112.925C117.34 403.141 121.15 406.238 122.057 410.562H122.053Z" fill="#47B649" fill-opacity="0.44"/>
<path d="M94.5793 473.289H106.95C109.637 473.289 111.815 475.471 111.815 478.156H89.7109C89.7109 475.468 91.8922 473.289 94.5762 473.289H94.5793Z" fill="#47B649" fill-opacity="0.44"/>
<path d="M133.607 301.773C134.696 303.341 136.257 305.557 136.431 307.494C136.682 310.312 132.174 308.335 132.121 308.58L133.607 301.773Z" fill="#D28572"/>
<path d="M126.725 305.094H112.477V325.983H126.725V305.094Z" fill="#FFBC96"/>
<path d="M126.729 308.68V323.594C122.24 320.773 118.358 316.582 115.004 311.743L126.729 308.68Z" fill="#333333"/>
<path d="M134.734 303.041C134.291 310.258 131.514 318.421 123.94 316.407C117.991 314.824 111.441 309.814 111.441 302.585C111.441 295.356 116.443 289.492 122.615 289.492C126.471 289.492 131.327 291.364 133.611 294.98C134.982 297.15 134.927 299.894 134.734 303.041Z" fill="#FFBC96"/>
<path d="M122.124 300.951C124.141 295.6 128.758 295.072 128.758 295.072C128.758 295.072 139.45 305.651 138.786 294.722C138.259 286.037 129.776 286.856 129.776 286.856C125.63 281.458 118.981 283.569 116.558 286.701C114.134 289.833 114.994 288.033 109.285 290.066C103.575 292.099 106.625 300.787 105.608 301.411C98.0214 301.411 99.427 308.922 99.427 308.922L117.389 314.783L121.714 302.969L122.124 300.951Z" fill="#333333"/>
<path d="M123.993 301.564C125.104 303.488 124.803 305.742 123.323 306.598C121.843 307.455 119.742 306.586 118.631 304.662C117.521 302.737 117.822 300.484 119.302 299.627C120.782 298.77 122.882 299.639 123.993 301.564Z" fill="#FFBC96"/>
<path d="M121.702 303.885C121.451 303.398 121.237 302.923 120.899 302.591C120.731 302.423 120.539 302.287 120.318 302.169C120.098 302.051 119.853 301.951 119.602 301.83L119.639 301.629C119.924 301.613 120.213 301.647 120.495 301.74C120.778 301.833 121.054 301.998 121.268 302.221C121.485 302.445 121.64 302.712 121.739 302.988C121.839 303.264 121.891 303.547 121.901 303.832L121.702 303.882V303.885Z" fill="#333333"/>
<path d="M114.983 290.943C118.312 290.785 120.872 287.731 120.702 284.121C120.531 280.512 117.693 277.713 114.364 277.871C111.035 278.028 108.474 281.082 108.645 284.692C108.816 288.302 111.653 291.1 114.983 290.943Z" fill="#333333"/>
<path opacity="0.2" d="M128.539 309.846C130.039 309.846 131.254 308.63 131.254 307.13C131.254 305.63 130.039 304.414 128.539 304.414C127.04 304.414 125.824 305.63 125.824 307.13C125.824 308.63 127.04 309.846 128.539 309.846Z" fill="#FE5B52"/>
<path d="M139.203 377.359L93.5703 371.539L102.171 326.165C102.776 322.993 104.886 320.298 107.828 318.964C110.279 317.846 113.081 317.775 115.591 318.762L131.142 325.674C134.137 327.003 136.2 329.818 136.572 333.071L137.45 347.893L138.453 364.694L139.203 377.359Z" fill="#FE1C04"/>
<path d="M180.963 344.769L193.042 341.218C193.914 340.964 194.848 341.103 195.605 341.606C198.912 343.801 207.712 350.015 205.49 352.554C204.379 353.823 194.28 350.85 194.28 350.85L179.656 354.931L180.963 344.772V344.769Z" fill="#FFBC96"/>
<path d="M138.451 364.698C134.65 359.856 132.392 353.462 131.641 345.547L137.452 347.897L138.454 364.698H138.451Z" fill="#333333"/>
<path d="M129.765 325.109L131.584 325.895C135.326 327.509 138.683 329.905 141.423 332.925L156.4 349.426L180.965 344.77L184.198 357.962L153.334 367.612C150.899 368.047 148.407 367.205 146.731 365.38L124.469 341.148L129.768 325.109H129.765Z" fill="#FE1C04"/>
<path d="M156.109 349.687C156.035 349.607 148.731 341.648 142.401 334.552C136.146 327.534 126.608 324.123 126.512 324.092L126.769 323.359C126.865 323.394 136.587 326.867 142.981 334.037C149.305 341.13 156.609 349.085 156.68 349.166L156.109 349.69V349.687Z" fill="#333333"/>
<path d="M126.295 343.726L125.738 344.266L146.449 365.652L147.006 365.113L126.295 343.726Z" fill="#333333"/>
<path d="M137.552 445.977L127.707 465.159L152.576 477.932L145.958 462.791L151.357 450.794L137.552 445.977Z" fill="#47B649" fill-opacity="0.44"/>
<path d="M145.836 462.427L138.77 464.508L138.989 465.252L146.055 463.172L145.836 462.427Z" fill="#333333"/>
<path d="M153.037 458.588L130.508 450.18L145.935 402.155C148.588 395.044 156.758 391.527 164.183 394.299C171.608 397.071 175.477 405.082 172.824 412.193L153.034 458.591L153.037 458.588Z" fill="#333333"/>
<path d="M174.891 455.346L177.087 478.173H205.044L192.245 467.728L189.241 454.57L174.891 455.346Z" fill="#47B649" fill-opacity="0.44"/>
<path d="M192.07 467.377L185.445 471.031L185.82 471.711L192.444 468.057L192.07 467.377Z" fill="#333333"/>
<path d="M195.057 458.059L170.623 461.939L153.889 412.716L150.842 403.74L109.286 404.075C99.0096 404.308 90.8336 395.502 91.8421 385.259L93.5703 371.539L134.683 376.713L161.699 379.687C172.947 381.627 176.4 388.44 178.74 397.193L195.054 458.062L195.057 458.059Z" fill="black"/>
<path d="M153.891 412.724L150.844 403.747L156.466 403.555C156.987 406.938 155.644 410.719 153.891 412.727V412.724Z" fill="#333333"/>
<path d="M524.735 477.789H53.8828V478.565H524.735V477.789Z" fill="#1B1B43"/>
</g>
<defs>
<linearGradient id="paint0_linear_369_5504" x1="282.137" y1="32.7137" x2="424.614" y2="195.565" gradientUnits="userSpaceOnUse">
<stop stop-color="#52AA32" stop-opacity="0.22"/>
<stop offset="1" stop-color="#4FE0B5"/>
</linearGradient>
<linearGradient id="paint1_linear_369_5504" x1="20.2308" y1="43.034" x2="162.708" y2="205.885" gradientUnits="userSpaceOnUse">
<stop stop-color="#52AA32" stop-opacity="0.26"/>
<stop offset="1" stop-color="#4FE0B5"/>
</linearGradient>
<linearGradient id="paint2_linear_369_5504" x1="331.34" y1="352.55" x2="473.817" y2="515.401" gradientUnits="userSpaceOnUse">
<stop stop-color="#01954B"/>
<stop offset="1" stop-color="#67F035"/>
</linearGradient>
<linearGradient id="paint3_linear_369_5504" x1="55.9522" y1="100.796" x2="449.999" y2="551.192" gradientUnits="userSpaceOnUse">
<stop stop-color="#47B649"/>
<stop offset="1" stop-color="#3BA514"/>
</linearGradient>
<linearGradient id="paint4_linear_369_5504" x1="482.994" y1="114.875" x2="525.32" y2="66.4971" gradientUnits="userSpaceOnUse">
<stop stop-color="#51AC30"/>
<stop offset="1" stop-color="#6ECD56"/>
</linearGradient>
<clipPath id="clip0_369_5504">
<rect width="512.697" height="415.078" fill="white" transform="translate(37.3047 63.4844)"/>
</clipPath>
</defs>
</svg>
