<svg width="693" height="674" viewBox="0 0 693 674" fill="none" xmlns="http://www.w3.org/2000/svg">
<path d="M439.5 5.7735C445.688 2.20085 453.312 2.20085 459.5 5.7735L542.99 53.9765C549.178 57.5492 552.99 64.1517 552.99 71.297V167.703C552.99 174.848 549.178 181.451 542.99 185.024L459.5 233.226C453.312 236.799 445.688 236.799 439.5 233.226L356.01 185.024C349.822 181.451 346.01 174.848 346.01 167.703V71.297C346.01 64.1517 349.822 57.5492 356.01 53.9765L439.5 5.7735Z" fill="url(#paint0_linear_357_5297)" fill-opacity="0.7"/>
<path d="M109.5 18.7735C115.688 15.2008 123.312 15.2008 129.5 18.7735L212.99 66.9765C219.178 70.5492 222.99 77.1517 222.99 84.297V180.703C222.99 187.848 219.178 194.451 212.99 198.024L129.5 246.226C123.312 249.799 115.688 249.799 109.5 246.226L26.01 198.024C19.8219 194.451 16.01 187.848 16.01 180.703V84.297C16.01 77.1517 19.8219 70.5492 26.01 66.9765L109.5 18.7735Z" fill="url(#paint1_linear_357_5297)" fill-opacity="0.7"/>
<path d="M501.5 408.774C507.688 405.201 515.312 405.201 521.5 408.774L604.99 456.976C611.178 460.549 614.99 467.152 614.99 474.297V570.703C614.99 577.848 611.178 584.451 604.99 588.024L521.5 636.226C515.312 639.799 507.688 639.799 501.5 636.226L418.01 588.024C411.822 584.451 408.01 577.848 408.01 570.703V474.297C408.01 467.152 411.822 460.549 418.01 456.976L501.5 408.774Z" fill="url(#paint2_linear_357_5297)" fill-opacity="0.7"/>
<path d="M295.5 33.2073C317.158 20.703 343.842 20.703 365.5 33.2073L581.721 158.043C603.379 170.547 616.721 193.656 616.721 218.665V468.335C616.721 493.344 603.38 516.453 581.721 528.957L365.5 653.793C343.842 666.297 317.158 666.297 295.5 653.793L79.2786 528.957C57.6205 516.453 44.2786 493.344 44.2786 468.335V218.665C44.2786 193.656 57.6205 170.547 79.2786 158.043L295.5 33.2073Z" fill="url(#paint3_linear_357_5297)" fill-opacity="0.3"/>
<g clip-path="url(#clip0_357_5297)">
<path opacity="0.4" d="M683.558 449.987C696.153 437.387 696.153 416.957 683.558 404.356C670.962 391.756 650.54 391.756 637.944 404.356C625.348 416.957 625.348 437.387 637.944 449.987C650.54 462.588 670.962 462.588 683.558 449.987Z" fill="#8BFA71"/>
<path opacity="0.4" d="M164.806 236.765C184.021 217.543 184.021 186.379 164.806 167.157C145.592 147.935 114.439 147.935 95.2245 167.157C76.01 186.379 76.01 217.543 95.2245 236.765C114.439 255.986 145.592 255.986 164.806 236.765Z" fill="#01954B"/>
<path opacity="0.4" d="M300.201 154.641C314.368 154.641 325.852 143.152 325.852 128.98C325.852 114.809 314.368 103.32 300.201 103.32C286.035 103.32 274.551 114.809 274.551 128.98C274.551 143.152 286.035 154.641 300.201 154.641Z" fill="#01954B"/>
<path d="M263.483 141.665C261.896 141.665 260.297 141.54 258.721 141.293L258.874 140.327C260.395 140.566 261.947 140.687 263.483 140.687H263.663L263.671 141.665H263.483ZM268.612 141.231L268.448 140.269C270.02 140.003 271.584 139.604 273.105 139.088L273.421 140.014C271.854 140.55 270.235 140.961 268.612 141.235V141.231ZM253.901 140.132C252.333 139.619 250.793 138.974 249.327 138.215L249.776 137.347C251.195 138.079 252.689 138.704 254.206 139.201L253.901 140.132ZM277.972 138.043L277.515 137.179C278.93 136.428 280.29 135.56 281.561 134.594L282.151 135.372C280.838 136.369 279.434 137.269 277.972 138.043ZM245.116 135.599C243.787 134.617 242.528 133.518 241.379 132.337L242.078 131.653C243.193 132.795 244.412 133.859 245.699 134.809L245.116 135.595V135.599ZM285.846 132.063L285.138 131.391C286.237 130.233 287.253 128.974 288.152 127.652L288.962 128.203C288.031 129.568 286.984 130.867 285.85 132.063H285.846ZM238.212 128.52C237.266 127.171 236.421 125.731 235.706 124.241L236.585 123.815C237.281 125.258 238.098 126.651 239.013 127.961L238.212 128.52ZM291.413 123.893L290.529 123.479C291.21 122.028 291.777 120.514 292.214 118.977L293.153 119.247C292.699 120.835 292.113 122.395 291.413 123.893ZM233.907 119.615C233.434 118.027 233.082 116.396 232.871 114.761L233.841 114.636C234.048 116.216 234.384 117.8 234.846 119.333L233.911 119.615H233.907ZM294.126 114.382L293.157 114.268C293.294 113.115 293.36 111.945 293.36 110.787C293.36 110.349 293.348 109.904 293.329 109.466L294.306 109.423C294.326 109.876 294.337 110.334 294.337 110.787C294.337 111.984 294.267 113.193 294.126 114.382ZM233.606 109.837L232.629 109.806C232.684 108.155 232.871 106.497 233.188 104.874L234.146 105.062C233.837 106.634 233.653 108.238 233.602 109.837H233.606ZM292.731 104.702C292.406 103.141 291.949 101.593 291.374 100.091L292.285 99.7389C292.879 101.288 293.352 102.887 293.688 104.499L292.731 104.698V104.702ZM235.452 100.439L234.537 100.099C235.108 98.5499 235.811 97.0364 236.624 95.5971L237.477 96.0782C236.691 97.4705 236.011 98.9371 235.456 100.435L235.452 100.439ZM291.284 99.864C290.698 98.37 289.99 96.919 289.177 95.5463L290.017 95.0496C290.854 96.4654 291.585 97.9672 292.191 99.5081L291.28 99.864H291.284ZM240.159 92.1007L239.396 91.4906C240.428 90.1999 241.574 88.9836 242.798 87.8807L243.454 88.6081C242.27 89.6798 241.163 90.8531 240.163 92.1046L240.159 92.1007ZM286.405 91.6235C285.381 90.3994 284.247 89.2456 283.039 88.1975L283.676 87.4583C284.927 88.5377 286.096 89.7306 287.152 90.9939L286.401 91.6196L286.405 91.6235ZM247.262 85.6827L246.735 84.8614C248.119 83.9697 249.589 83.1797 251.105 82.5187L251.496 83.4143C250.026 84.0557 248.603 84.8184 247.262 85.6827ZM279.168 85.3581C277.808 84.5211 276.369 83.7859 274.891 83.1718L275.267 82.2684C276.791 82.8981 278.277 83.6607 279.684 84.525L279.172 85.3581H279.168ZM256.039 81.846L255.797 80.8995C257.4 80.485 259.042 80.1995 260.684 80.0508L260.774 81.0247C259.187 81.1694 257.591 81.4471 256.043 81.846H256.039ZM270.321 81.6974C268.765 81.3297 267.166 81.0873 265.575 80.9738L265.645 80C267.291 80.1173 268.941 80.3676 270.548 80.7509L270.321 81.7013V81.6974Z" fill="#01954B"/>
<path d="M571.402 483.371L571.387 482.393C573.005 482.366 574.639 482.3 576.246 482.198L576.309 483.172C574.69 483.273 573.04 483.344 571.406 483.371H571.402ZM566.496 483.344C564.869 483.297 563.22 483.211 561.597 483.09L561.671 482.116C563.278 482.237 564.912 482.323 566.527 482.37L566.5 483.348L566.496 483.344ZM581.196 482.745L581.086 481.775C582.693 481.596 584.312 481.377 585.903 481.126L586.055 482.092C584.449 482.346 582.814 482.569 581.192 482.749L581.196 482.745ZM556.71 482.605C555.096 482.405 553.465 482.167 551.855 481.893L552.019 480.931C553.614 481.204 555.232 481.443 556.828 481.639L556.71 482.609V482.605ZM590.888 481.204L590.688 480.246C592.272 479.918 593.867 479.546 595.423 479.143L595.665 480.09C594.093 480.497 592.483 480.868 590.884 481.201L590.888 481.204ZM547.038 480.946C545.447 480.594 543.844 480.203 542.272 479.777L542.526 478.834C544.082 479.257 545.674 479.644 547.249 479.992L547.038 480.946ZM600.392 478.752L600.102 477.818C601.647 477.34 603.195 476.82 604.712 476.273L605.044 477.192C603.515 477.743 601.948 478.271 600.392 478.752ZM537.565 478.385C536.017 477.884 534.453 477.34 532.921 476.765L533.265 475.85C534.781 476.421 536.33 476.961 537.866 477.454L537.565 478.385ZM609.607 475.416L609.231 474.513C610.713 473.895 612.206 473.234 613.665 472.542L614.083 473.425C612.609 474.122 611.104 474.79 609.607 475.416ZM528.354 474.927C526.853 474.282 525.352 473.59 523.886 472.874L524.316 471.994C525.766 472.702 527.256 473.386 528.741 474.028L528.354 474.927ZM618.458 471.231L618 470.367C619.423 469.612 620.847 468.81 622.23 467.985L622.731 468.826C621.331 469.655 619.893 470.465 618.458 471.231ZM519.519 470.613C518.092 469.831 516.661 469.002 515.265 468.15L515.773 467.316C517.157 468.161 518.572 468.983 519.988 469.757L519.519 470.613ZM626.887 466.221L626.347 465.404C627.696 464.512 629.041 463.581 630.339 462.635L630.914 463.425C629.604 464.383 628.247 465.322 626.883 466.221H626.887ZM511.136 465.486C509.792 464.575 508.447 463.613 507.137 462.635L507.723 461.853C509.021 462.823 510.355 463.773 511.688 464.677L511.14 465.486H511.136ZM634.811 460.441L634.202 459.678C635.457 458.669 636.708 457.613 637.92 456.546L638.565 457.277C637.345 458.356 636.082 459.42 634.811 460.441ZM503.274 459.6C502.015 458.564 500.764 457.48 499.56 456.389L500.217 455.666C501.413 456.749 502.649 457.821 503.896 458.845L503.274 459.6ZM642.165 453.945L641.485 453.241C642.642 452.118 643.792 450.949 644.894 449.772L645.606 450.44C644.492 451.629 643.334 452.807 642.165 453.941V453.945ZM496.003 453.006C494.845 451.852 493.704 450.663 492.605 449.463L493.325 448.802C494.411 449.991 495.541 451.172 496.691 452.314L496.003 453.006ZM648.882 446.784L648.139 446.15C649.191 444.918 650.223 443.651 651.212 442.376L651.982 442.974C650.985 444.257 649.941 445.54 648.882 446.784ZM489.376 445.763C488.332 444.507 487.308 443.217 486.326 441.918L487.104 441.328C488.074 442.615 489.09 443.893 490.126 445.137L489.376 445.763ZM654.903 439.024L654.101 438.461C655.032 437.139 655.943 435.774 656.807 434.413L657.632 434.937C656.76 436.31 655.841 437.687 654.899 439.02L654.903 439.024ZM483.465 437.937C482.546 436.595 481.647 435.211 480.79 433.826L481.623 433.314C482.472 434.687 483.363 436.056 484.274 437.385L483.469 437.937H483.465ZM660.173 430.729L659.324 430.244C660.126 428.844 660.904 427.401 661.639 425.958L662.511 426.403C661.768 427.858 660.982 429.313 660.173 430.729ZM478.312 429.595C477.522 428.171 476.756 426.708 476.036 425.254L476.912 424.819C477.628 426.263 478.382 427.71 479.164 429.122L478.308 429.595H478.312ZM664.638 421.968L663.746 421.565C664.415 420.087 665.052 418.577 665.646 417.08L666.553 417.439C665.955 418.953 665.31 420.478 664.634 421.968H664.638ZM473.968 420.811C473.315 419.321 472.694 417.795 472.115 416.278L473.03 415.93C473.605 417.432 474.222 418.941 474.867 420.42L473.972 420.811H473.968ZM668.258 412.82L667.331 412.504C667.851 410.978 668.344 409.418 668.793 407.865L669.732 408.139C669.278 409.707 668.782 411.283 668.254 412.82H668.258ZM470.473 411.651C469.965 410.098 469.484 408.518 469.054 406.95L469.996 406.688C470.426 408.241 470.899 409.805 471.404 411.342L470.477 411.647L470.473 411.651ZM670.991 403.391L670.041 403.164C670.416 401.6 670.756 399.996 671.057 398.408L672.019 398.588C671.714 400.192 671.37 401.807 670.991 403.391ZM467.858 402.186C467.498 400.602 467.173 398.983 466.888 397.372L467.85 397.2C468.131 398.796 468.456 400.399 468.812 401.967L467.858 402.182V402.186ZM672.816 393.746L671.851 393.61C672.073 392.018 672.265 390.391 672.418 388.779L673.391 388.869C673.239 390.496 673.047 392.139 672.82 393.746H672.816ZM466.145 392.522C465.938 390.911 465.766 389.268 465.633 387.637L466.607 387.559C466.74 389.174 466.908 390.801 467.115 392.397L466.145 392.522ZM673.727 383.973L672.75 383.926C672.824 382.318 672.863 380.684 672.863 379.065H673.841C673.841 380.699 673.802 382.35 673.727 383.973ZM465.348 382.737C465.305 381.525 465.285 380.289 465.285 379.065C465.285 378.65 465.285 378.239 465.293 377.829L466.27 377.84C466.266 378.247 466.263 378.658 466.263 379.065C466.263 380.277 466.282 381.501 466.325 382.706L465.348 382.741V382.737ZM672.836 376.659C672.801 375.044 672.722 373.409 672.613 371.802L673.586 371.735C673.7 373.358 673.774 375.009 673.813 376.64L672.836 376.663V376.659ZM466.438 372.975L465.461 372.92C465.555 371.289 465.688 369.643 465.86 368.028L466.833 368.129C466.665 369.729 466.532 371.36 466.438 372.975ZM672.163 366.956C671.976 365.356 671.749 363.737 671.487 362.142L672.453 361.981C672.719 363.593 672.949 365.227 673.137 366.843L672.167 366.956H672.163ZM467.455 363.303L466.489 363.155C466.736 361.543 467.025 359.916 467.346 358.321L468.303 358.516C467.983 360.096 467.697 361.707 467.455 363.303ZM670.58 357.358C670.244 355.782 669.865 354.19 669.45 352.626L670.396 352.376C670.811 353.956 671.194 355.563 671.534 357.151L670.576 357.354L670.58 357.358ZM469.375 353.768L468.428 353.53C468.827 351.949 469.265 350.358 469.738 348.797L470.673 349.079C470.207 350.624 469.769 352.2 469.375 353.764V353.768ZM668.097 347.956C667.613 346.415 667.085 344.867 666.526 343.353L667.445 343.017C668.008 344.546 668.539 346.106 669.032 347.663L668.101 347.956H668.097ZM472.193 344.448L471.271 344.12C471.818 342.579 472.408 341.034 473.026 339.524L473.929 339.896C473.315 341.394 472.733 342.923 472.189 344.448H472.193ZM664.743 338.84C664.118 337.361 663.445 335.871 662.749 334.416L663.629 333.994C664.333 335.465 665.013 336.966 665.642 338.46L664.743 338.84ZM475.888 335.429L475 335.015C475.688 333.54 476.423 332.058 477.182 330.607L478.046 331.061C477.291 332.496 476.564 333.967 475.884 335.425L475.888 335.429ZM660.548 330.087C659.786 328.671 658.976 327.251 658.144 325.867L658.98 325.362C659.821 326.763 660.638 328.194 661.408 329.622L660.548 330.087ZM480.415 326.806L479.571 326.309C480.396 324.905 481.267 323.497 482.159 322.128L482.976 322.664C482.092 324.017 481.232 325.413 480.415 326.806ZM655.544 321.764C654.649 320.423 653.71 319.085 652.752 317.787L653.538 317.208C654.504 318.518 655.454 319.871 656.357 321.225L655.544 321.768V321.764ZM485.732 318.655L484.939 318.084C485.892 316.762 486.889 315.448 487.906 314.169L488.672 314.779C487.663 316.046 486.678 317.353 485.732 318.659V318.655ZM649.777 313.942C648.761 312.691 647.701 311.443 646.626 310.242L647.357 309.589C648.444 310.806 649.511 312.061 650.54 313.324L649.781 313.942H649.777ZM491.788 311.036L491.053 310.391C492.128 309.163 493.242 307.947 494.372 306.773L495.076 307.45C493.958 308.612 492.851 309.82 491.788 311.036ZM643.303 306.687C642.169 305.534 640.996 304.392 639.816 303.296L640.48 302.581C641.673 303.688 642.857 304.837 643.999 306.003L643.299 306.687H643.303ZM498.524 304.024L497.852 303.316C499.036 302.194 500.26 301.087 501.492 300.023L502.129 300.762C500.909 301.814 499.693 302.913 498.524 304.024ZM636.176 300.07C634.944 299.03 633.67 298.005 632.388 297.019L632.982 296.245C634.28 297.238 635.566 298.279 636.805 299.327L636.176 300.074V300.07ZM505.886 297.672L505.284 296.902C506.566 295.897 507.888 294.911 509.213 293.965L509.78 294.763C508.466 295.697 507.157 296.675 505.886 297.672ZM628.458 294.145C627.129 293.222 625.765 292.318 624.4 291.462L624.92 290.633C626.3 291.497 627.677 292.408 629.017 293.343L628.458 294.145ZM513.803 292.041L513.275 291.219C514.643 290.339 516.055 289.479 517.462 288.665L517.951 289.51C516.555 290.316 515.163 291.168 513.803 292.041ZM620.213 288.967C618.806 288.173 617.359 287.402 615.917 286.675L616.354 285.803C617.813 286.538 619.271 287.316 620.69 288.114L620.209 288.967H620.213ZM522.208 287.179L521.759 286.311C523.201 285.564 524.683 284.844 526.165 284.164L526.571 285.052C525.105 285.724 523.639 286.44 522.208 287.179ZM611.514 284.59C610.037 283.933 608.524 283.303 607.018 282.717L607.374 281.805C608.895 282.4 610.424 283.034 611.913 283.698L611.514 284.59ZM531.024 283.139L530.661 282.232C532.174 281.622 533.722 281.043 535.258 280.507L535.579 281.43C534.058 281.958 532.526 282.533 531.028 283.139H531.024ZM602.432 281.055C600.9 280.542 599.34 280.057 597.788 279.619L598.054 278.677C599.622 279.123 601.197 279.607 602.745 280.128L602.436 281.055H602.432ZM540.204 279.94L539.926 279.001C541.486 278.54 543.081 278.11 544.665 277.722L544.899 278.673C543.328 279.056 541.752 279.482 540.204 279.94ZM593.081 278.403C591.509 278.035 589.91 277.703 588.319 277.413L588.495 276.451C590.098 276.745 591.716 277.081 593.3 277.453L593.077 278.403H593.081ZM549.646 277.629L549.458 276.67C551.057 276.357 552.683 276.08 554.294 275.845L554.435 276.811C552.84 277.046 551.225 277.32 549.642 277.629H549.646ZM583.518 276.647C581.919 276.432 580.293 276.248 578.686 276.107L578.772 275.133C580.394 275.274 582.036 275.458 583.651 275.677L583.522 276.647H583.518ZM559.263 276.217L559.165 275.243C560.784 275.082 562.43 274.957 564.06 274.875L564.111 275.853C562.496 275.935 560.866 276.06 559.263 276.217ZM573.834 275.798C572.415 275.74 570.972 275.712 569.553 275.712C569.358 275.712 569.166 275.712 568.974 275.712L568.967 274.734C569.162 274.734 569.362 274.734 569.553 274.734C570.988 274.734 572.442 274.766 573.873 274.82L573.834 275.798Z" fill="#01954B"/>
<path d="M146.503 368.995C144.861 368.987 143.211 368.917 141.589 368.792L141.663 367.818C143.262 367.939 144.892 368.006 146.507 368.018V368.995H146.503ZM151.421 368.851L151.359 367.877C152.966 367.771 154.588 367.607 156.183 367.392L156.316 368.362C154.698 368.585 153.052 368.749 151.421 368.855V368.851ZM136.702 368.244C135.083 368.002 133.457 367.701 131.866 367.345L132.081 366.391C133.648 366.743 135.251 367.04 136.846 367.278L136.702 368.244ZM161.16 367.513L160.957 366.555C162.532 366.222 164.116 365.827 165.66 365.382L165.93 366.32C164.358 366.774 162.755 367.173 161.156 367.509L161.16 367.513ZM127.104 366.097C125.536 365.628 123.968 365.092 122.44 364.509L122.788 363.594C124.293 364.169 125.841 364.697 127.385 365.159L127.104 366.093V366.097ZM170.606 364.791L170.269 363.872C171.778 363.317 173.284 362.699 174.75 362.038L175.152 362.929C173.663 363.602 172.134 364.228 170.606 364.791ZM117.905 362.585C116.423 361.893 114.949 361.138 113.522 360.344L113.999 359.492C115.406 360.278 116.861 361.021 118.319 361.701L117.905 362.589V362.585ZM179.558 360.743L179.093 359.883C180.505 359.116 181.912 358.287 183.269 357.423L183.796 358.248C182.42 359.128 180.993 359.969 179.558 360.743ZM109.311 357.794C107.947 356.899 106.594 355.94 105.296 354.951L105.891 354.173C107.173 355.15 108.506 356.093 109.851 356.977L109.315 357.794H109.311ZM187.843 355.451L187.26 354.665C188.55 353.703 189.825 352.682 191.045 351.634L191.682 352.374C190.447 353.441 189.152 354.474 187.843 355.451ZM101.492 351.822C100.269 350.743 99.0684 349.601 97.9229 348.435L98.6188 347.751C99.7486 348.901 100.933 350.023 102.137 351.091L101.492 351.822ZM195.294 349.034L194.606 348.341C195.748 347.207 196.866 346.014 197.922 344.802L198.657 345.443C197.581 346.675 196.452 347.884 195.29 349.034H195.294ZM94.6037 344.806C93.5442 343.562 92.516 342.264 91.5503 340.946L92.3361 340.367C93.2901 341.661 94.2987 342.944 95.3465 344.172L94.6037 344.806ZM201.761 341.618L200.979 341.032C201.948 339.745 202.883 338.407 203.759 337.054L204.58 337.586C203.692 338.959 202.742 340.316 201.761 341.622V341.618ZM88.7862 336.882C87.9144 335.501 87.0856 334.07 86.3154 332.631L87.1794 332.169C87.9379 333.589 88.755 335.001 89.6151 336.362L88.7862 336.882ZM207.109 333.358L206.253 332.889C207.031 331.477 207.766 330.018 208.438 328.552L209.326 328.958C208.646 330.444 207.899 331.923 207.109 333.358ZM84.1573 328.211C83.4927 326.717 82.875 325.184 82.3237 323.651L83.2425 323.319C83.7898 324.832 84.3958 326.342 85.0526 327.812L84.1612 328.211H84.1573ZM211.218 324.41L210.303 324.066C210.866 322.556 211.386 321.007 211.84 319.466L212.778 319.744C212.317 321.312 211.793 322.881 211.218 324.414V324.41ZM80.8225 318.966C80.3807 317.393 79.9897 315.782 79.6613 314.183L80.6192 313.987C80.9437 315.563 81.3268 317.151 81.7647 318.7L80.8225 318.966ZM213.994 314.973L213.04 314.765C213.38 313.193 213.669 311.586 213.9 309.99L214.866 310.127C214.635 311.746 214.342 313.373 213.994 314.969V314.973ZM78.8481 309.329C78.637 307.71 78.4806 306.063 78.3829 304.432L79.3603 304.374C79.4541 305.985 79.6105 307.608 79.8177 309.204L78.8481 309.333V309.329ZM215.39 305.234L214.416 305.164C214.529 303.56 214.588 301.929 214.588 300.314H215.565C215.565 301.949 215.507 303.603 215.393 305.23L215.39 305.234ZM79.2469 299.52L78.2695 299.508C78.2891 297.874 78.3673 296.219 78.5002 294.592L79.4737 294.674C79.3407 296.278 79.2665 297.909 79.2469 299.52ZM214.51 297.06C214.432 295.449 214.299 293.822 214.107 292.226L215.077 292.109C215.268 293.728 215.405 295.374 215.483 297.013L214.506 297.06H214.51ZM80.0445 289.856L79.0788 289.707C79.329 288.092 79.6418 286.465 80.0054 284.873L80.9593 285.092C80.5996 286.661 80.2908 288.264 80.0445 289.856ZM213.36 287.431C213.055 285.851 212.688 284.259 212.274 282.703L213.216 282.449C213.638 284.029 214.009 285.64 214.318 287.243L213.357 287.427L213.36 287.431ZM82.2143 280.407L81.2799 280.122C81.7608 278.557 82.3042 276.989 82.8945 275.467L83.8055 275.823C83.2229 277.325 82.6873 278.87 82.2143 280.411V280.407ZM210.847 278.068C210.319 276.551 209.728 275.029 209.091 273.551L209.99 273.164C210.635 274.662 211.234 276.203 211.769 277.744L210.847 278.064V278.068ZM85.7251 271.357L84.8415 270.938C85.5413 269.46 86.3037 267.99 87.109 266.566L87.9613 267.047C87.1677 268.451 86.4171 269.902 85.7251 271.357ZM207.015 269.175C206.272 267.747 205.471 266.327 204.63 264.955L205.463 264.442C206.315 265.835 207.133 267.274 207.883 268.725L207.015 269.175ZM90.4986 262.913L89.6854 262.373C90.5886 261.012 91.5542 259.667 92.5551 258.372L93.3292 258.971C92.3439 260.246 91.3939 261.575 90.5025 262.917L90.4986 262.913ZM201.948 260.918C201.01 259.608 200.013 258.318 198.985 257.078L199.736 256.452C200.779 257.708 201.792 259.018 202.742 260.347L201.948 260.918ZM96.4255 255.24L95.6983 254.587C96.7852 253.366 97.9307 252.173 99.1036 251.035L99.7838 251.735C98.6266 252.858 97.4967 254.035 96.4255 255.236V255.24ZM195.752 253.464C194.638 252.302 193.465 251.164 192.272 250.085L192.929 249.361C194.141 250.456 195.33 251.61 196.459 252.791L195.756 253.468L195.752 253.464ZM103.381 248.485L102.751 247.738C103.998 246.686 105.304 245.669 106.626 244.707L107.2 245.497C105.898 246.444 104.612 247.449 103.381 248.485ZM188.558 246.96C187.288 245.967 185.966 245.008 184.633 244.109L185.18 243.299C186.537 244.211 187.874 245.184 189.164 246.193L188.562 246.964L188.558 246.96ZM111.223 242.791L110.707 241.962C112.095 241.097 113.53 240.276 114.972 239.517L115.426 240.382C114.003 241.133 112.588 241.942 111.223 242.791ZM180.512 241.543C179.113 240.742 177.67 239.979 176.216 239.283L176.638 238.403C178.112 239.111 179.578 239.885 180.993 240.699L180.508 241.547L180.512 241.543ZM119.793 238.278L119.402 237.382C120.895 236.729 122.432 236.119 123.972 235.575L124.301 236.498C122.784 237.034 121.271 237.636 119.797 238.282L119.793 238.278ZM171.771 237.339C170.273 236.744 168.733 236.201 167.192 235.72L167.486 234.785C169.046 235.274 170.609 235.829 172.13 236.428L171.771 237.339ZM128.922 235.043L128.664 234.101C130.235 233.667 131.846 233.287 133.453 232.966L133.645 233.925C132.065 234.238 130.478 234.617 128.926 235.043H128.922ZM162.517 234.433C160.949 234.062 159.35 233.745 157.759 233.491L157.915 232.524C159.526 232.783 161.152 233.107 162.739 233.483L162.517 234.433ZM138.426 233.15L138.305 232.18C139.923 231.977 141.569 231.832 143.203 231.746L143.254 232.724C141.643 232.81 140.017 232.955 138.426 233.154V233.15ZM152.946 232.888C151.347 232.747 149.717 232.661 148.102 232.634L148.118 231.656C149.752 231.684 151.406 231.774 153.028 231.914L152.942 232.888H152.946Z" fill="#01954B"/>
<path d="M421.791 135.689C412.698 135.689 405.297 128.289 405.297 119.188C405.297 110.087 412.694 102.688 421.791 102.688C430.889 102.688 438.286 110.087 438.286 119.188C438.286 128.289 430.889 135.689 421.791 135.689ZM421.791 103.423C413.1 103.423 406.032 110.494 406.032 119.188C406.032 127.882 413.1 134.953 421.791 134.953C430.482 134.953 437.551 127.882 437.551 119.188C437.551 110.494 430.482 103.423 421.791 103.423Z" fill="#01954B"/>
<path d="M593.381 194.924V492.227C593.381 498.418 588.365 503.432 582.188 503.432H150.302C144.118 503.432 139.102 498.418 139.102 492.227V194.924C139.102 188.733 144.118 183.719 150.302 183.719H582.192C588.369 183.719 593.385 188.733 593.385 194.924H593.381Z" fill="white"/>
<path d="M582.192 503.918H150.303C143.856 503.918 138.613 498.673 138.613 492.224V194.92C138.613 188.471 143.856 183.227 150.303 183.227H582.192C588.631 183.227 593.874 188.471 593.874 194.92V492.224C593.874 498.673 588.635 503.918 582.192 503.918ZM150.303 184.204C144.396 184.204 139.591 189.011 139.591 194.92V492.224C139.591 498.133 144.396 502.94 150.303 502.94H582.192C588.091 502.94 592.896 498.133 592.896 492.224V194.92C592.896 189.011 588.095 184.204 582.192 184.204H150.303Z" fill="#01954B"/>
<path d="M593.381 194.924V212.562H139.102V194.924C139.102 188.733 144.118 183.719 150.302 183.719H582.192C588.369 183.719 593.385 188.733 593.385 194.924H593.381Z" fill="white"/>
<path d="M593.87 213.048H138.613V194.92C138.613 188.471 143.856 183.227 150.303 183.227H582.192C588.631 183.227 593.874 188.471 593.874 194.92V213.048H593.87ZM139.587 212.07H592.892V194.92C592.892 189.011 588.091 184.204 582.188 184.204H150.303C144.396 184.204 139.591 189.011 139.591 194.92V212.07H139.587Z" fill="#01954B"/>
<path d="M164.321 203.349C167.199 203.349 169.532 201.015 169.532 198.135C169.532 195.256 167.199 192.922 164.321 192.922C161.443 192.922 159.109 195.256 159.109 198.135C159.109 201.015 161.443 203.349 164.321 203.349Z" fill="#01954B"/>
<path d="M184.2 192.922C181.326 192.922 178.988 195.261 178.988 198.135C178.988 201.01 181.326 203.349 184.2 203.349C187.073 203.349 189.411 201.01 189.411 198.135C189.411 195.261 187.073 192.922 184.2 192.922Z" fill="#01954B"/>
<path d="M204.071 203.349C201.197 203.349 198.859 201.01 198.859 198.135C198.859 195.261 201.197 192.922 204.071 192.922C206.944 192.922 209.282 195.261 209.282 198.135C209.282 201.01 206.944 203.349 204.071 203.349ZM204.071 193.896C201.737 193.896 199.837 195.796 199.837 198.131C199.837 200.466 201.737 202.367 204.071 202.367C206.405 202.367 208.305 200.466 208.305 198.131C208.305 195.796 206.405 193.896 204.071 193.896Z" fill="#01954B"/>
<path d="M332.333 203.936H235.45C232.248 203.936 229.648 201.331 229.648 198.132C229.648 194.933 232.252 192.328 235.45 192.328H332.333C335.531 192.328 338.135 194.933 338.135 198.132C338.135 201.331 335.531 203.936 332.333 203.936ZM235.45 193.302C232.788 193.302 230.626 195.469 230.626 198.128C230.626 200.788 232.792 202.954 235.45 202.954H332.333C334.995 202.954 337.157 200.788 337.157 198.128C337.157 195.469 334.992 193.302 332.333 193.302H235.45Z" fill="#01954B"/>
<path d="M455.538 350.911C455.538 397.726 417.607 435.682 370.81 435.682C324.013 435.682 286.07 397.726 286.07 350.911C286.07 306.991 319.466 270.872 362.236 266.57L365.063 294.385C336.406 297.272 314.031 321.481 314.031 350.911C314.031 382.289 339.451 407.719 370.81 407.719C402.169 407.719 427.577 382.289 427.577 350.911C427.577 345.436 426.803 340.144 425.36 335.142L452.227 327.379C454.385 334.849 455.538 342.749 455.538 350.915V350.911Z" fill="#01954B"/>
<path d="M370.804 419.346C408.59 419.346 439.221 388.703 439.221 350.904C439.221 313.104 408.59 282.461 370.804 282.461C333.018 282.461 302.387 313.104 302.387 350.904C302.387 388.703 333.018 419.346 370.804 419.346Z" fill="white"/>
<path opacity="0.5" d="M370.804 419.346C408.59 419.346 439.221 388.703 439.221 350.904C439.221 313.104 408.59 282.461 370.804 282.461C333.018 282.461 302.387 313.104 302.387 350.904C302.387 388.703 333.018 419.346 370.804 419.346Z" fill="#47B649"/>
<path d="M370.807 399.399C397.57 399.399 419.266 377.688 419.266 350.907C419.266 324.125 397.57 302.414 370.807 302.414C344.043 302.414 322.348 324.125 322.348 350.907C322.348 377.688 344.043 399.399 370.807 399.399Z" fill="white"/>
<path d="M376.335 374.751V382.123H366.975V375.083C360.337 374.684 353.902 372.889 349.918 370.433L354.961 359.009C359.344 361.598 365.181 363.26 370.295 363.26C374.744 363.26 376.339 362.329 376.339 360.734C376.339 354.891 350.649 359.607 350.649 342.27C350.649 334.764 356.091 328.452 366.979 326.927V319.688H376.339V326.794C381.245 327.259 386.031 328.522 389.815 330.646L385.1 342.004C380.518 339.677 376.202 338.55 372.156 338.55C367.574 338.55 366.111 339.876 366.111 341.472C366.111 347.053 391.801 342.403 391.801 359.537C391.801 366.71 386.625 372.955 376.339 374.747L376.335 374.751Z" fill="#01954B"/>
<path d="M672.445 125.719H488.105V238.477H672.445V125.719Z" fill="white"/>
<path d="M672.934 238.963H487.617V125.227H672.934V238.963ZM488.595 237.985H671.957V126.204H488.595V237.985Z" fill="#01954B"/>
<path d="M521.923 202.578H511.312V222.071H521.923V202.578Z" fill="#00A388"/>
<path d="M543.142 193.68H532.531V222.078H543.142V193.68Z" fill="#00A388"/>
<path d="M564.361 200.961H553.75V222.076H564.361V200.961Z" fill="#00A388"/>
<path d="M585.583 186.094H574.973V222.067H585.583V186.094Z" fill="#00A388"/>
<path d="M606.802 176.594H596.191V222.075H606.802V176.594Z" fill="#00A388"/>
<path d="M628.021 163.023H617.41V222.076H628.021V163.023Z" fill="#00A388"/>
<path d="M649.236 142.117H638.625V222.074H649.236V142.117Z" fill="#00A388"/>
<path d="M519.745 151.602H511.312V161.152H519.745V151.602Z" fill="#47B649"/>
<path d="M589.876 156.023H532.773V158.472H589.876V156.023Z" fill="#47B649"/>
<path d="M506.576 295.645L494.902 263.383C481.711 268.162 472.285 280.799 472.285 295.645C472.285 314.59 487.638 329.948 506.576 329.948C525.514 329.948 540.867 314.59 540.867 295.645C540.867 289.942 539.467 284.573 537.008 279.84L506.576 295.645Z" fill="#01954B"/>
<path d="M541.571 267.62C535.855 256.63 524.377 249.117 511.139 249.117C507.038 249.117 503.109 249.841 499.465 251.159L511.139 283.421L541.571 267.616V267.62Z" fill="#01954B"/>
<path d="M555.116 405.578H473.992V482.821H555.116V405.578Z" fill="#01954B"/>
<path d="M532.148 426.109H486.699V429.371H532.148V426.109Z" fill="white"/>
<path d="M532.148 435.891H486.699V439.152H532.148V435.891Z" fill="white"/>
<path d="M245.458 257.938H174.914V377.223H245.458V257.938Z" fill="#01954B"/>
<path d="M231.93 275.211H185.668V317.579H231.93V275.211Z" fill="white"/>
<path d="M185.996 274.833L185.336 275.555L231.601 317.92L232.261 317.199L185.996 274.833Z" fill="#01954B"/>
<path d="M231.594 274.853L185.336 317.227L185.996 317.948L232.254 275.574L231.594 274.853Z" fill="#01954B"/>
<path d="M208.816 306.656H47.4648V413.008H208.816V306.656Z" fill="white"/>
<path d="M209.286 413.474H47V306.188H209.286V413.474ZM47.9344 412.54H208.351V307.122H47.9344V412.54Z" fill="#01954B"/>
<path d="M64.4648 387.324L74.8877 367.769L96.3903 387.977L110.727 346.258L137.441 375.591L155.034 368.422L186.963 326.703" fill="white"/>
<path d="M96.6096 388.853L75.021 368.563L64.8953 387.555L64.0312 387.097L74.7591 366.975L96.1756 387.105L110.532 345.32L137.574 375.012L154.729 368.019L186.576 326.406L187.35 327.001L155.343 368.825L137.312 376.174L137.081 375.924L110.923 347.201L96.6096 388.853Z" fill="#01954B"/>
<path d="M74.9671 370.374C76.4505 370.374 77.653 369.171 77.653 367.687C77.653 366.203 76.4505 365 74.9671 365C73.4838 365 72.2812 366.203 72.2812 367.687C72.2812 369.171 73.4838 370.374 74.9671 370.374Z" fill="#01954B"/>
<path d="M96.2327 390.178C97.7161 390.178 98.9186 388.975 98.9186 387.492C98.9186 386.008 97.7161 384.805 96.2327 384.805C94.7494 384.805 93.5469 386.008 93.5469 387.492C93.5469 388.975 94.7494 390.178 96.2327 390.178Z" fill="#01954B"/>
<path d="M110.889 349.108C112.372 349.108 113.575 347.905 113.575 346.421C113.575 344.937 112.372 343.734 110.889 343.734C109.406 343.734 108.203 344.937 108.203 346.421C108.203 347.905 109.406 349.108 110.889 349.108Z" fill="#01954B"/>
<path d="M162.351 323.609H93.9336V324.587H162.351V323.609Z" fill="#01954B"/>
<path d="M431.094 563.727C428.2 544.767 432.176 524.832 442.118 508.43C452.061 492.031 467.898 479.293 486.042 473.094C475.768 480.29 469.493 491.917 465.118 503.674C460.744 515.43 457.87 527.774 452.471 539.1C447.072 550.422 438.557 561.005 426.754 565.241L431.094 563.724V563.727Z" fill="#01954B"/>
<path d="M428.253 563.885C427.842 541.971 423.589 520.132 415.742 499.67C412.955 492.403 409.616 485.148 404.182 479.579C398.748 474.01 390.846 470.337 383.188 471.698C392.727 478.84 397.669 490.589 400.452 502.181C403.236 513.769 404.307 525.795 408.224 537.051C412.142 548.307 419.636 559.156 430.853 563.181L428.257 563.881L428.253 563.885Z" fill="#01954B"/>
<path d="M426.762 565.323C421.308 550.63 415.381 535.568 404.415 524.379C393.449 513.185 376.075 506.783 361.711 513.041C373.342 515.681 383.999 522.415 391.377 531.79C396.788 538.666 400.423 546.816 405.987 553.567C411.55 560.317 420.038 565.757 428.635 564.146L426.762 565.323Z" fill="#47B649"/>
<path d="M425.021 564.316C422.785 548.191 420.553 531.808 422.906 515.702C425.26 499.597 432.875 483.515 446.516 474.641C438.967 482.048 436.445 493.265 436.441 503.844C436.441 514.423 438.58 524.905 438.759 535.484C438.939 546.064 436.84 557.3 429.689 565.091L425.025 564.316H425.021Z" fill="#47B649"/>
<path d="M432.566 561.969C437.793 548.644 443.368 534.811 454.014 525.244C460.852 519.104 469.559 515.076 478.664 513.844C472.28 518.94 468.284 526.406 464.969 533.872C461.654 541.338 458.792 549.113 453.991 555.723C449.19 562.332 441.977 567.769 433.817 568.117L432.566 561.969Z" fill="#47B649"/>
<path d="M459.112 602.52H400.394L391.344 557.336H468.163L459.112 602.52Z" fill="white"/>
<path d="M459.511 603.005H399.996L390.746 556.844H468.757L459.507 603.005H459.511ZM400.798 602.028H458.71L467.565 557.822H391.939L400.794 602.028H400.798Z" fill="#01954B"/>
<path d="M564.233 575.343V602.513H529.008L545.135 589.352L545.983 572.797L564.233 575.343Z" fill="#47B649"/>
<path d="M545.471 589.042L544.797 589.75L551.521 596.149L552.195 595.441L545.471 589.042Z" fill="#1B1B43"/>
<path d="M560.815 582.555H548.762V583.532H560.815V582.555Z" fill="#1B1B43"/>
<path d="M605.396 576.62L606.67 602.515H571.445L586.298 589.781V574.07L605.396 576.62Z" fill="#47B649"/>
<path d="M586.628 589.463L585.98 590.195L591.451 595.03L592.098 594.297L586.628 589.463Z" fill="#1B1B43"/>
<path d="M602.194 583.039H590.301V584.017H602.194V583.039Z" fill="#1B1B43"/>
<path d="M567.781 419.166C568.387 473.306 572.871 526.586 581.449 578.954H611.13C604.957 538.905 602.166 490.268 605.618 425.787L584.186 408.227L567.785 419.166H567.781Z" fill="#FE1C04"/>
<path d="M544.313 426.324L530.883 486.077C527.658 500.434 527.431 515.303 530.227 529.755L539.66 578.56H569.342L560.358 514.49L581.837 416.82L544.313 426.328V426.324Z" fill="#FE1C04"/>
<path d="M569.778 483.587C569.703 482.355 568.011 454.876 567.839 451.395L560.082 448.575L560.414 447.656L568.8 450.707V451.051C568.8 451.653 570.079 472.562 570.755 483.532L569.778 483.591V483.587Z" fill="#BE443D"/>
<path d="M634.039 291.428L635.626 287.638C635.626 287.638 629.883 275.538 631.717 273.95C633.55 272.362 636.482 276.883 636.482 276.883C636.482 276.883 635.626 262.217 638.437 262.096C640.806 261.994 640.634 266.249 640.881 272.608C640.881 272.608 642.347 270.653 645.044 272.675C646.256 270.653 648.821 271.998 649.556 273.222C650.412 272.245 653.954 272.487 653.466 276.645C652.844 281.913 650.412 291.678 650.412 291.678L642.593 298.155L634.039 291.432V291.428Z" fill="#FFBC96"/>
<path d="M571.242 342.026L583.131 341.933C603.985 340.071 620.276 323.125 620.276 323.125L634.041 291.43L650.415 291.672L640.805 328.925C639.425 334.275 636.45 339.078 632.278 342.699L598.124 372.337L571.246 342.026H571.242Z" fill="#333333"/>
<path d="M538.652 368.994L544.31 426.325L605.611 425.786L603.492 356.69L571.239 342.023L548.923 351.476L538.652 368.994Z" fill="#333333"/>
<path d="M500.692 374.561C499.691 373.673 498.432 373.129 497.099 373.02C490.324 372.457 469.138 370.818 469.345 372.464C469.588 374.42 485.715 381.753 485.718 381.753C489.167 385.637 492.615 389.52 496.063 393.4L505.54 378.863L500.696 374.561H500.692Z" fill="#FFBC96"/>
<path d="M546.895 347.543C542.528 348.306 538.774 351.082 536.765 355.033L518.699 390.552L505.535 378.866L496.059 393.403C497.212 394.702 498.365 396 499.519 397.299C504.636 403.06 510.602 410.804 518.593 412.481C522.667 413.338 526.455 411.644 529.376 408.844C531.514 406.791 533.426 404.253 534.955 401.707L542.16 389.825L565.129 344.359L546.899 347.547L546.895 347.543Z" fill="#333333"/>
<path d="M539.152 368.929L538.18 369.023L541.613 404.302L542.585 404.207L539.152 368.929Z" fill="#333333"/>
<path d="M603.86 367.203L598.117 372.334L604.228 382.48L603.86 367.203Z" fill="#1B1B43"/>
<path d="M643.002 279.896C640.695 279.896 640.52 276.872 640.516 272.602H641.251C641.251 277.627 641.661 279.16 643.002 279.16C643.268 279.16 643.499 279.055 643.706 278.832C644.359 278.132 644.613 276.493 644.691 275.022C644.64 273.959 644.668 273.036 644.683 272.648L645.414 272.637C645.422 272.727 645.485 273.716 645.43 274.933C645.532 276.923 645.868 278.89 646.529 279.09C646.9 279.199 647.221 279.153 647.51 278.945C648.3 278.374 648.745 276.763 648.976 275.32C648.995 274.702 649.062 273.982 649.195 273.149L649.922 273.216C649.922 273.298 649.891 274.135 649.738 275.187C649.684 276.712 649.859 278.19 650.473 278.449C650.931 278.64 651.306 278.64 651.627 278.445C652.467 277.932 652.768 276.204 652.815 275.582L653.546 275.637C653.538 275.742 653.335 278.257 652.006 279.07C651.478 279.391 650.868 279.411 650.188 279.125C650.016 279.055 649.476 278.742 649.175 277.596C648.886 278.417 648.487 279.141 647.936 279.536C647.455 279.884 646.912 279.966 646.313 279.79C645.668 279.598 645.27 278.773 645.027 277.745C644.847 278.382 644.593 278.945 644.238 279.325C643.89 279.696 643.475 279.884 642.998 279.884L643.002 279.896Z" fill="#D28572"/>
<path d="M566.072 355.939C560.861 356.357 556.306 352.478 555.888 347.276L555.783 345.954L554.297 327.514L565.779 326.594L573.149 326L574.732 345.751C575.15 350.964 571.272 355.52 566.072 355.939Z" fill="#FFBC96"/>
<path d="M569.454 332.812C565.877 339.117 560.755 343.657 555.779 345.953L554.293 327.513L565.775 326.594L569.45 332.812H569.454Z" fill="#1B1B43"/>
<path d="M573.197 313.502L570.917 332.737C570.917 332.737 563.587 339.749 552.836 339.413C548.914 339.296 546.612 335.58 545.259 330.856C544.7 328.881 544.313 326.741 544.039 324.598C543.14 317.519 543.551 310.565 543.551 310.565L560.166 305.031L573.197 313.499V313.502Z" fill="#FFBC96"/>
<path d="M570.672 321.41C568.94 315.239 565.836 312.137 561.633 311.469C548.274 318.72 539.603 314.402 533.289 306.337C548.763 309.353 555.523 287.353 570.348 302.02C581.341 305.36 581.142 315.872 574.91 324.426L570.672 321.41Z" fill="#1B1B43"/>
<path d="M577.533 323.743C578.1 320.841 576.52 318.09 574.005 317.599C571.489 317.107 568.991 319.062 568.424 321.964C567.858 324.866 569.438 327.617 571.953 328.109C574.468 328.6 576.967 326.646 577.533 323.743Z" fill="#FFBC96"/>
<path d="M574.722 320.891C573.956 321.02 573.459 321.599 573.088 322.26C572.724 322.929 572.486 323.676 572.341 324.477L572.056 324.493C571.934 324.063 571.934 323.605 572.005 323.167C572.079 322.725 572.228 322.295 572.454 321.9C572.681 321.509 572.982 321.137 573.381 320.875C573.772 320.613 574.292 320.476 574.745 320.602L574.726 320.887L574.722 320.891Z" fill="#1B1B43"/>
<path d="M547.537 322.185C547.537 323.018 547.134 323.691 546.641 323.691C546.149 323.691 545.746 323.015 545.746 322.185C545.746 321.356 546.149 320.68 546.641 320.68C547.134 320.68 547.537 321.356 547.537 322.185Z" fill="#1B1B43"/>
<path d="M554.939 321.572C554.939 322.476 554.505 323.207 553.97 323.207C553.434 323.207 553 322.476 553 321.572C553 320.669 553.434 319.938 553.97 319.938C554.505 319.938 554.939 320.669 554.939 321.572Z" fill="#1B1B43"/>
<path d="M549.57 323.406C549.57 323.696 549.457 323.981 549.32 324.224C549.171 324.466 548.995 324.673 548.823 324.865C548.475 325.244 548.155 325.589 548.08 325.952C547.983 326.32 548.127 326.684 548.413 327.047C548.698 327.407 549.081 327.732 549.453 328.092L549.296 328.33C548.819 328.127 548.346 327.877 547.94 327.482C547.736 327.282 547.557 327.04 547.435 326.742C547.318 326.441 547.295 326.097 547.377 325.784C547.455 325.467 547.623 325.19 547.811 324.975C547.998 324.76 548.198 324.58 548.393 324.415C548.772 324.083 549.14 323.797 549.296 323.359L549.578 323.402L549.57 323.406Z" fill="#1B1B43"/>
<path d="M550.277 331.554C551.309 331.324 552.267 330.999 553.12 330.467C553.546 330.205 553.952 329.9 554.339 329.568C554.726 329.231 555.098 328.872 555.485 328.5L555.716 328.668C555.235 329.65 554.464 330.51 553.499 331.093C552.537 331.676 551.384 331.953 550.293 331.844L550.277 331.558V331.554Z" fill="#1B1B43"/>
<path d="M552.798 317.523C552.587 318.626 556.055 318.982 556.677 319.091C557.189 319.181 557.924 319.24 558.029 318.462C558.162 317.496 557.114 317.394 556.52 317.265C555.949 317.14 552.994 316.483 552.798 317.523Z" fill="#1B1B43"/>
<path d="M547.971 318.203C547.951 319.271 545.199 319.377 544.694 319.439C544.28 319.49 543.701 319.498 543.744 318.747C543.799 317.816 544.632 317.789 545.117 317.707C545.578 317.628 547.99 317.194 547.975 318.203H547.971Z" fill="#1B1B43"/>
<path opacity="0.2" d="M560.917 328.399C562.873 328.399 564.459 326.813 564.459 324.856C564.459 322.899 562.873 321.312 560.917 321.312C558.961 321.312 557.375 322.899 557.375 324.856C557.375 326.813 558.961 328.399 560.917 328.399Z" fill="#FE5B52"/>
<path opacity="0.2" d="M546.69 328.035C546.69 329.197 546.131 330.226 545.263 330.859C544.704 328.884 544.317 326.745 544.043 324.602C545.568 325 546.694 326.389 546.694 328.035H546.69Z" fill="#FE5B52"/>
<path d="M294.155 442.234H226.16V446.814H294.155V442.234Z" fill="#01954B"/>
<path d="M294.15 442.244H236.727L258.475 389.203H315.895L294.15 442.244Z" fill="white"/>
<path d="M294.479 442.73H236L258.148 388.711H316.627L294.479 442.73ZM237.458 441.752H293.822L315.169 389.689H258.804L237.458 441.752Z" fill="#01954B"/>
<path d="M289.194 437.785H244.066L261.155 396.102H306.283L289.194 437.785Z" fill="#01954B"/>
<path d="M271.29 448.281H270.312V602.758H271.29V448.281Z" fill="#333333"/>
<path d="M325.644 446.82H215.961V455.546H325.644V446.82Z" fill="#47B649"/>
<path d="M127.45 513.172H126.473V602.761H127.45V513.172Z" fill="#333333"/>
<path d="M153.784 517.328H100.137C101.274 511.88 106.079 507.977 111.643 507.977H142.282C147.845 507.977 152.646 511.88 153.788 517.328H153.784Z" fill="#47B649"/>
<path d="M119.165 596.367H134.753C138.138 596.367 140.883 599.117 140.883 602.5H113.031C113.031 599.113 115.78 596.367 119.161 596.367H119.165Z" fill="#47B649"/>
<path d="M168.345 380.25C169.718 382.225 171.684 385.018 171.903 387.458C172.22 391.009 166.539 388.518 166.473 388.827L168.345 380.25Z" fill="#D28572"/>
<path d="M159.671 384.43H141.719V410.751H159.671V384.43Z" fill="#FFBC96"/>
<path d="M159.677 388.945V407.738C154.019 404.183 149.129 398.903 144.902 392.805L159.677 388.945Z" fill="#333333"/>
<path d="M169.763 381.845C169.204 390.938 165.705 401.224 156.162 398.686C148.667 396.691 140.414 390.379 140.414 381.27C140.414 372.161 146.716 364.773 154.492 364.773C159.352 364.773 165.47 367.132 168.348 371.688C170.076 374.422 170.006 377.879 169.763 381.845Z" fill="#FFBC96"/>
<path d="M153.876 379.213C156.418 372.47 162.235 371.805 162.235 371.805C162.235 371.805 175.707 385.134 174.871 371.364C174.206 360.421 163.517 361.453 163.517 361.453C158.294 354.652 149.916 357.311 146.863 361.257C143.809 365.204 144.892 362.935 137.699 365.497C130.505 368.059 134.348 379.006 133.066 379.792C123.507 379.792 125.278 389.256 125.278 389.256L147.91 396.64L153.36 381.755L153.876 379.213Z" fill="#333333"/>
<path d="M156.233 379.981C157.633 382.406 157.254 385.246 155.389 386.325C153.524 387.404 150.877 386.309 149.478 383.884C148.078 381.46 148.457 378.62 150.322 377.541C152.187 376.461 154.834 377.556 156.233 379.981Z" fill="#FFBC96"/>
<path d="M153.346 382.903C153.029 382.288 152.76 381.69 152.333 381.272C152.122 381.06 151.88 380.888 151.602 380.74C151.325 380.591 151.016 380.466 150.699 380.313L150.746 380.059C151.106 380.04 151.469 380.083 151.825 380.2C152.181 380.317 152.529 380.525 152.799 380.806C153.072 381.088 153.268 381.424 153.393 381.772C153.518 382.12 153.584 382.476 153.596 382.836L153.346 382.899V382.903Z" fill="#333333"/>
<path d="M144.879 366.603C149.074 366.404 152.3 362.556 152.085 358.008C151.87 353.46 148.294 349.934 144.099 350.133C139.905 350.331 136.678 354.179 136.894 358.727C137.109 363.276 140.684 366.802 144.879 366.603Z" fill="#333333"/>
<path opacity="0.2" d="M161.96 390.422C163.849 390.422 165.381 388.89 165.381 387C165.381 385.11 163.849 383.578 161.96 383.578C160.071 383.578 158.539 385.11 158.539 387C158.539 388.89 160.071 390.422 161.96 390.422Z" fill="#FE5B52"/>
<path d="M175.396 475.485L117.898 468.152L128.736 410.98C129.498 406.983 132.157 403.589 135.863 401.907C138.951 400.499 142.482 400.409 145.645 401.653L165.239 410.363C169.012 412.036 171.612 415.584 172.081 419.682L173.187 438.358L174.45 459.528L175.396 475.485Z" fill="#FE1C04"/>
<path d="M228.013 434.42L243.233 429.946C244.332 429.625 245.508 429.801 246.462 430.435C250.63 433.2 261.717 441.029 258.918 444.229C257.519 445.828 244.793 442.082 244.793 442.082L226.367 447.225L228.013 434.424V434.42Z" fill="#FFBC96"/>
<path d="M174.449 459.529C169.659 453.428 166.813 445.372 165.867 435.398L173.19 438.359L174.453 459.529H174.449Z" fill="#333333"/>
<path d="M163.502 409.648L165.793 410.638C170.508 412.672 174.738 415.691 178.19 419.496L197.061 440.287L228.013 434.421L232.087 451.043L193.199 463.202C190.13 463.749 186.99 462.69 184.879 460.39L156.828 429.857L163.506 409.648H163.502Z" fill="#FE1C04"/>
<path d="M196.7 440.619C196.606 440.517 187.403 430.489 179.427 421.548C171.545 412.706 159.527 408.407 159.406 408.368L159.731 407.445C159.852 407.488 172.101 411.865 180.158 420.899C188.126 429.836 197.329 439.86 197.419 439.961L196.7 440.622V440.619Z" fill="#333333"/>
<path d="M159.132 433.109L158.43 433.789L184.525 460.737L185.227 460.056L159.132 433.109Z" fill="#333333"/>
<path d="M173.315 561.953L160.91 586.123L192.245 602.217L183.906 583.139L190.709 568.023L173.315 561.953Z" fill="#47B649"/>
<path d="M183.751 582.683L174.848 585.305L175.124 586.243L184.027 583.621L183.751 582.683Z" fill="#333333"/>
<path d="M192.829 577.839L164.441 567.244L183.88 506.733C187.222 497.773 197.516 493.342 206.872 496.834C216.227 500.327 221.103 510.421 217.76 519.381L192.825 577.843L192.829 577.839Z" fill="#333333"/>
<path d="M220.359 573.751L223.127 602.513H258.352L242.226 589.352L238.441 572.773L220.359 573.751Z" fill="#47B649"/>
<path d="M242.003 588.912L233.656 593.516L234.128 594.372L242.475 589.768L242.003 588.912Z" fill="#333333"/>
<path d="M245.771 577.172L214.983 582.061L193.899 520.04L190.06 508.729L137.699 509.151C124.751 509.445 114.449 498.349 115.719 485.443L117.897 468.156L169.699 474.676L203.739 478.423C217.911 480.867 222.263 489.452 225.211 500.481L245.767 577.176L245.771 577.172Z" fill="black"/>
<path d="M193.902 520.045L190.062 508.735L197.147 508.492C197.803 512.755 196.111 517.519 193.902 520.049V520.045Z" fill="#333333"/>
<path d="M661.166 602.023H67.8906V603.001H661.166V602.023Z" fill="#1B1B43"/>
<path d="M634 155.557C635.547 156.45 637.453 156.45 639 155.557L664.744 140.693C666.291 139.8 667.244 138.15 667.244 136.363V106.637C667.244 104.85 666.291 103.2 664.744 102.307L639 87.4434C637.453 86.5502 635.547 86.5502 634 87.4434L608.256 102.307C606.709 103.2 605.756 104.85 605.756 106.637V136.363C605.756 138.15 606.709 139.8 608.256 140.693L634 155.557Z" fill="url(#paint4_linear_357_5297)" fill-opacity="0.7"/>
</g>
<defs>
<linearGradient id="paint0_linear_357_5297" x1="355.491" y1="41.2194" x2="535.012" y2="246.412" gradientUnits="userSpaceOnUse">
<stop stop-color="#52AA32"/>
<stop offset="1" stop-color="#4FE0B5"/>
</linearGradient>
<linearGradient id="paint1_linear_357_5297" x1="25.4909" y1="54.2194" x2="205.012" y2="259.412" gradientUnits="userSpaceOnUse">
<stop stop-color="#52AA32"/>
<stop offset="1" stop-color="#4FE0B5"/>
</linearGradient>
<linearGradient id="paint2_linear_357_5297" x1="417.491" y1="444.219" x2="597.012" y2="649.412" gradientUnits="userSpaceOnUse">
<stop stop-color="#01954B"/>
<stop offset="1" stop-color="#67F035"/>
</linearGradient>
<linearGradient id="paint3_linear_357_5297" x1="70.5" y1="127" x2="567" y2="694.5" gradientUnits="userSpaceOnUse">
<stop stop-color="#47B649"/>
<stop offset="1" stop-color="#3BA514"/>
</linearGradient>
<linearGradient id="paint4_linear_357_5297" x1="608.573" y1="144.755" x2="661.903" y2="83.798" gradientUnits="userSpaceOnUse">
<stop stop-color="#51AC30"/>
<stop offset="1" stop-color="#6ECD56"/>
</linearGradient>
<clipPath id="clip0_357_5297">
<rect width="646" height="523" fill="white" transform="translate(47 80)"/>
</clipPath>
</defs>
</svg>
