<svg width="1912" height="922" viewBox="0 0 1912 922" fill="none" xmlns="http://www.w3.org/2000/svg">
<path d="M315.253 921.427C313.515 921.427 311.776 921.373 310.038 921.292L310.166 918.592C312.671 918.727 315.202 918.754 317.733 918.673L317.81 921.373C316.966 921.373 316.123 921.4 315.253 921.4V921.427ZM325.505 920.86L325.224 918.187C327.704 917.917 330.209 917.512 332.638 917.026L333.124 919.672C330.618 920.185 328.062 920.59 325.505 920.887V920.86ZM302.317 920.617C299.76 920.293 297.178 919.861 294.673 919.348L295.158 916.702C297.613 917.215 300.118 917.62 302.624 917.944L302.317 920.617ZM340.64 917.782L339.95 915.19C342.353 914.488 344.756 913.651 347.108 912.76L347.978 915.298C345.574 916.243 343.095 917.08 340.615 917.809L340.64 917.782ZM287.131 917.512C284.651 916.81 282.171 916 279.742 915.109L280.586 912.544C282.964 913.408 285.392 914.191 287.821 914.893L287.156 917.485L287.131 917.512ZM272.533 912.22C270.181 911.167 267.803 910.034 265.502 908.819L266.627 906.389C268.902 907.577 271.203 908.711 273.53 909.737L272.533 912.22ZM355.162 912.193L354.113 909.737C356.389 908.657 358.639 907.442 360.863 906.173L362.09 908.549C359.815 909.845 357.488 911.086 355.162 912.193ZM258.676 904.985C256.477 903.662 254.253 902.231 252.08 900.746L253.46 898.478C255.608 899.936 257.781 901.34 259.954 902.636L258.676 904.985ZM368.737 904.418L367.357 902.123C369.453 900.719 371.575 899.207 373.62 897.641L375.129 899.828C373.032 901.421 370.859 902.987 368.737 904.418ZM245.714 896.156C243.643 894.59 241.572 892.943 239.553 891.242L241.138 889.109C243.132 890.783 245.177 892.376 247.222 893.942L245.74 896.129L245.714 896.156ZM381.264 894.86L379.654 892.754C381.571 891.134 383.514 889.379 385.432 887.543L387.145 889.568C385.176 891.431 383.207 893.186 381.264 894.86ZM233.57 886.085C231.627 884.33 229.71 882.521 227.818 880.685L229.556 878.714C231.448 880.55 233.34 882.332 235.258 884.06L233.596 886.112L233.57 886.085ZM392.769 884.006L390.979 882.089C392.769 880.226 394.533 878.31 396.297 876.339L398.164 878.202C396.374 880.199 394.584 882.143 392.769 884.033V884.006ZM222.219 875.043C220.404 873.153 218.589 871.209 216.824 869.238L218.665 867.375C220.429 869.319 222.219 871.236 224.009 873.126L222.219 875.043ZM403.328 872.127L401.41 870.345C403.072 868.347 404.708 866.295 406.319 864.189L408.288 865.89C406.651 868.023 404.99 870.102 403.328 872.127ZM211.583 863.271C209.871 861.273 208.183 859.248 206.496 857.169L208.439 855.414C210.101 857.466 211.788 859.491 213.501 861.462L211.609 863.271H211.583ZM413.094 859.518L411.074 857.871C412.608 855.765 414.117 853.605 415.625 851.418L417.696 853.011C416.162 855.225 414.628 857.412 413.094 859.545V859.518ZM201.536 850.932C199.925 848.853 198.315 846.748 196.704 844.615L198.724 842.941C200.309 845.074 201.92 847.152 203.53 849.231L201.562 850.932H201.536ZM422.144 846.342L420.048 844.804C421.48 842.617 422.886 840.376 424.317 838.108L426.465 839.593C425.033 841.888 423.627 844.129 422.17 846.342H422.144ZM192 838.189C190.466 836.056 188.907 833.869 187.398 831.682L189.469 830.089C190.977 832.276 192.511 834.436 194.045 836.569L192 838.216V838.189ZM430.581 832.735L428.408 831.304C429.737 829.036 431.092 826.741 432.396 824.419L434.595 825.796C433.266 828.145 431.911 830.44 430.581 832.735ZM182.873 825.094C181.39 822.907 179.907 820.693 178.45 818.452L180.546 816.913C182.004 819.127 183.487 821.341 184.969 823.528L182.899 825.094H182.873ZM438.507 818.803L436.282 817.453C437.535 815.132 438.813 812.783 440.066 810.407L442.29 811.73C441.038 814.105 439.759 816.481 438.507 818.803ZM174.078 811.757C172.647 809.516 171.215 807.275 169.783 805.007L171.905 803.522C173.311 805.763 174.743 808.004 176.175 810.245L174.053 811.757H174.078ZM445.997 804.602L443.748 803.333C444.949 800.984 446.151 798.608 447.327 796.178L449.602 797.42C448.401 799.85 447.199 802.226 445.997 804.602ZM165.565 798.23C164.159 795.962 162.778 793.694 161.398 791.426L163.545 789.968C164.926 792.236 166.332 794.504 167.712 796.772L165.565 798.257V798.23ZM453.105 790.184L450.829 788.969C451.98 786.566 453.105 784.163 454.255 781.734L456.556 782.921C455.431 785.378 454.281 787.781 453.13 790.184H453.105ZM157.256 784.595C155.875 782.328 154.52 780.033 153.14 777.738L155.313 776.307C156.668 778.602 158.048 780.87 159.403 783.164L157.256 784.622V784.595ZM459.88 775.605L457.579 774.444C458.678 772.014 459.752 769.584 460.851 767.127L463.178 768.261C462.078 770.718 461.005 773.175 459.905 775.605H459.88ZM149.049 770.826L144.984 763.941L147.157 762.51L151.222 769.395L149.049 770.826ZM466.373 760.89L464.047 759.783C465.095 757.326 466.143 754.869 467.192 752.412L469.518 753.519C468.47 756.003 467.422 758.46 466.348 760.917L466.373 760.89ZM140.945 757.056L136.905 750.172L139.079 748.741L143.118 755.625L140.945 757.056ZM472.637 746.068L470.285 744.988C471.308 742.531 472.33 740.047 473.327 737.563L475.679 738.616C474.657 741.127 473.66 743.611 472.637 746.068ZM132.892 743.287L128.852 736.402L131.025 734.971L135.09 741.856L132.917 743.287H132.892ZM478.696 731.164L476.344 730.111C477.341 727.627 478.313 725.143 479.31 722.632L481.662 723.658C480.69 726.169 479.693 728.653 478.696 731.137V731.164ZM124.762 729.544C123.407 727.249 122.026 724.954 120.671 722.686L122.819 721.228C124.174 723.496 125.554 725.791 126.909 728.086L124.736 729.517L124.762 729.544ZM1113.4 720.526C1111.76 720.526 1110.12 720.526 1108.49 720.445L1108.56 717.746C1111.07 717.826 1113.65 717.854 1116.16 717.8L1116.21 720.499C1115.26 720.499 1114.32 720.526 1113.37 720.526H1113.4ZM1123.93 720.121L1123.75 717.422C1126.28 717.233 1128.81 716.963 1131.27 716.612L1131.6 719.284C1129.09 719.635 1126.51 719.905 1123.93 720.121ZM1100.79 720.013C1098.21 719.797 1095.63 719.527 1093.12 719.176L1093.45 716.504C1095.93 716.828 1098.47 717.125 1101.02 717.341L1100.82 720.04L1100.79 720.013ZM1139.19 717.988L1138.71 715.343C1141.19 714.83 1143.67 714.263 1146.09 713.615L1146.73 716.234C1144.28 716.909 1141.72 717.476 1139.22 717.988H1139.19ZM1085.48 717.935C1082.97 717.449 1080.44 716.909 1077.94 716.261L1078.52 713.642C1080.98 714.263 1083.48 714.803 1085.94 715.262L1085.48 717.907V717.935ZM484.576 716.18L482.199 715.154C483.17 712.67 484.116 710.159 485.088 707.648L487.465 708.647C486.519 711.158 485.548 713.669 484.576 716.18ZM116.555 715.883C115.174 713.588 113.768 711.347 112.388 709.079L114.535 707.594C115.941 709.835 117.322 712.103 118.728 714.398L116.581 715.856L116.555 715.883ZM1070.47 714.209C1068.02 713.453 1065.54 712.616 1063.13 711.725L1063.98 709.187C1066.33 710.051 1068.76 710.888 1071.19 711.644L1070.47 714.236V714.209ZM1154.12 714.02L1153.36 711.455C1155.76 710.645 1158.14 709.754 1160.49 708.809L1161.41 711.32C1159.03 712.292 1156.58 713.183 1154.12 714.02ZM1055.92 708.809C1053.55 707.783 1051.19 706.676 1048.87 705.515L1049.97 703.085C1052.24 704.219 1054.57 705.326 1056.89 706.325L1055.92 708.809ZM1168.52 708.188L1167.47 705.731C1169.77 704.624 1172.04 703.463 1174.27 702.248L1175.44 704.651C1173.17 705.893 1170.84 707.108 1168.52 708.215V708.188ZM108.144 702.329C106.712 700.061 105.28 697.847 103.849 695.633L105.971 694.121C107.402 696.335 108.834 698.576 110.266 700.844L108.144 702.329ZM1041.99 701.816C1039.77 700.547 1037.52 699.197 1035.29 697.766L1036.62 695.444C1038.79 696.821 1041.02 698.171 1043.22 699.413L1042.02 701.789L1041.99 701.816ZM490.303 701.141L487.925 700.142C488.871 697.631 489.792 695.12 490.738 692.609L493.115 693.608C492.169 696.119 491.249 698.657 490.303 701.141ZM1182.22 700.682L1180.92 698.36C1183.06 697.01 1185.24 695.579 1187.33 694.094L1188.74 696.335C1186.59 697.847 1184.39 699.305 1182.19 700.682H1182.22ZM1028.82 693.419C1026.7 691.907 1024.58 690.341 1022.51 688.721L1024.02 686.562C1026.06 688.154 1028.13 689.693 1030.26 691.178L1028.82 693.419ZM1195.08 691.664L1193.57 689.504C1195.59 687.938 1197.61 686.291 1199.58 684.591L1201.19 686.696C1199.17 688.424 1197.12 690.098 1195.08 691.664ZM99.5281 688.991C98.0453 686.777 96.5624 684.564 95.0796 682.404L97.1505 680.811C98.6333 682.998 100.142 685.185 101.625 687.426L99.5281 688.991ZM495.928 686.049L493.55 685.077C494.47 682.566 495.391 680.055 496.311 677.517L498.689 678.489C497.768 681.027 496.848 683.538 495.928 686.049ZM1016.4 683.781C1014.4 682.08 1012.44 680.352 1010.49 678.543L1012.18 676.518C1014.1 678.273 1016.04 680.001 1018.01 681.675L1016.4 683.781ZM1207.07 681.432L1205.38 679.407C1207.27 677.652 1209.14 675.816 1210.98 673.953L1212.74 675.897C1210.88 677.787 1208.99 679.623 1207.07 681.405V681.432ZM90.5289 675.897C88.9694 673.737 87.4354 671.577 85.8759 669.498L87.8956 667.824C89.4551 669.93 91.0402 672.09 92.5742 674.277L90.5289 675.897ZM1004.77 673.062C1002.9 671.226 1001.06 669.309 999.244 667.392L1001.06 665.475C1002.85 667.392 1004.69 669.255 1006.53 671.091L1004.77 673.062ZM501.424 670.902L499.047 669.93L501.757 662.343L504.16 663.288L501.45 670.875L501.424 670.902ZM1218.19 670.146L1216.35 668.256C1218.11 666.339 1219.83 664.395 1221.54 662.37L1223.43 664.179C1221.69 666.204 1219.95 668.202 1218.16 670.119L1218.19 670.146ZM81.0695 663.18C79.4333 661.074 77.7971 659.022 76.1353 657.024L78.0527 655.242C79.7145 657.267 81.3763 659.346 83.0381 661.452L81.0695 663.18ZM993.9 661.506C992.162 659.535 990.449 657.51 988.736 655.459L990.654 653.677C992.341 655.701 994.054 657.699 995.767 659.643L993.9 661.479V661.506ZM1228.52 658.05L1226.58 656.295C1228.21 654.271 1229.82 652.192 1231.41 650.059L1233.4 651.733C1231.79 653.866 1230.16 655.971 1228.52 658.023V658.05ZM506.844 655.701L504.441 654.757L507.1 647.197L509.503 648.142L506.819 655.701H506.844ZM71.0477 651.031C69.3092 649.033 67.5451 647.089 65.7555 645.226L67.5707 643.309C69.3603 645.199 71.1499 647.17 72.914 649.195L71.0477 651.031ZM983.751 649.276C982.115 647.197 980.504 645.091 978.919 642.958L980.939 641.284C982.524 643.417 984.109 645.496 985.719 647.548L983.751 649.276ZM1238.13 645.307L1236.09 643.687C1237.59 641.554 1239.1 639.394 1240.59 637.18L1242.68 638.746C1241.17 640.987 1239.67 643.174 1238.13 645.307ZM512.187 640.555L509.784 639.61L512.443 632.023L514.846 632.968L512.187 640.555ZM60.2589 639.637C58.3414 637.774 56.424 635.992 54.5321 634.345L56.1683 632.266C58.0858 633.94 60.0288 635.749 61.9718 637.639L60.2333 639.637H60.2589ZM974.215 636.478C972.681 634.318 971.172 632.131 969.664 629.917L971.735 628.351C973.218 630.538 974.726 632.725 976.234 634.858L974.189 636.478H974.215ZM1247.03 632.05L1244.91 630.538C1246.31 628.324 1247.72 626.083 1249.1 623.788L1251.25 625.246C1249.84 627.541 1248.43 629.809 1247 632.05H1247.03ZM48.5752 629.377C46.5044 627.757 44.408 626.218 42.3627 624.814L43.7433 622.546C45.8652 623.977 47.9872 625.543 50.1092 627.19L48.5752 629.35V629.377ZM517.48 625.327L515.076 624.409L517.735 616.796L520.138 617.714L517.48 625.327ZM965.267 623.249C963.835 621.008 962.403 618.767 960.997 616.499L963.145 615.014C964.551 617.282 965.957 619.523 967.389 621.737L965.267 623.249ZM35.8434 620.765C33.5936 619.469 31.3182 618.308 29.0684 617.255L30.0911 614.771C32.392 615.824 34.7441 617.039 37.045 618.362L35.8178 620.738L35.8434 620.765ZM1255.36 618.389L1253.19 616.985C1254.52 614.717 1255.82 612.395 1257.13 610.073L1259.33 611.45C1258.02 613.799 1256.69 616.121 1255.36 618.416V618.389ZM22.0634 614.447C19.6602 613.61 17.2314 612.908 14.8282 612.368L15.3651 609.722C17.845 610.289 20.376 611.018 22.8559 611.882L22.0634 614.447ZM7.46525 611.099C4.98535 610.802 2.47989 610.667 0 610.667L0 607.967C2.58216 607.967 5.18988 608.129 7.74647 608.399L7.46525 611.072V611.099ZM522.772 610.1L520.369 609.182L523.027 601.541L525.431 602.459L522.772 610.1ZM956.83 609.668C955.475 607.4 954.12 605.078 952.765 602.756L954.938 601.352C956.267 603.674 957.622 605.942 958.977 608.21L956.804 609.668H956.83ZM1263.19 604.376L1260.96 603.053C1262.21 600.731 1263.44 598.355 1264.67 595.979L1266.92 597.275C1265.69 599.678 1264.44 602.054 1263.19 604.376ZM948.828 595.79C947.524 593.468 946.246 591.119 944.967 588.771L947.191 587.421C948.47 589.77 949.748 592.091 951.026 594.413L948.828 595.79ZM528.064 594.818L525.661 593.9L528.294 586.287L530.697 587.205L528.064 594.818ZM1270.52 590.094L1268.25 588.852C1269.42 586.476 1270.6 584.073 1271.75 581.67L1274.03 582.885C1272.85 585.315 1271.7 587.718 1270.52 590.121V590.094ZM941.184 581.697C939.931 579.348 938.704 576.972 937.476 574.569L939.726 573.273C940.953 575.649 942.181 578.025 943.408 580.374L941.184 581.697ZM533.356 579.618L530.953 578.7L533.612 571.086L536.015 572.031L533.356 579.645V579.618ZM1277.48 575.595L1275.18 574.407C1276.3 572.004 1277.4 569.574 1278.5 567.117L1280.8 568.278C1279.7 570.735 1278.6 573.192 1277.48 575.595ZM933.872 567.414C932.67 565.038 931.494 562.635 930.318 560.232L932.593 558.991C933.769 561.393 934.945 563.769 936.147 566.172L933.897 567.441L933.872 567.414ZM538.674 564.39L536.271 563.445L538.929 555.832L541.333 556.777L538.674 564.363V564.39ZM1284.07 560.907L1281.75 559.773C1282.8 557.344 1283.87 554.887 1284.89 552.403L1287.22 553.51C1286.17 555.994 1285.12 558.451 1284.05 560.907H1284.07ZM926.815 552.997C925.665 550.594 924.515 548.164 923.364 545.734L925.665 544.519C926.815 546.949 927.94 549.352 929.116 551.755L926.841 552.97L926.815 552.997ZM544.017 549.19L541.614 548.245L544.298 540.658L546.701 541.603L544.017 549.19ZM1290.31 546.058L1287.96 544.978C1288.96 542.521 1289.98 540.037 1290.98 537.526L1293.33 538.579C1292.33 541.09 1291.33 543.574 1290.31 546.058ZM919.964 538.471C918.839 536.041 917.714 533.611 916.615 531.181L918.916 529.993C920.04 532.423 921.14 534.853 922.265 537.283L919.964 538.471ZM549.411 534.016L547.008 533.071L549.744 525.485L552.121 526.457L549.386 534.016H549.411ZM1296.29 531.1L1293.92 530.074C1294.89 527.59 1295.83 525.08 1296.81 522.569L1299.18 523.568C1298.24 526.079 1297.27 528.589 1296.29 531.1ZM913.266 523.865C912.166 521.435 911.067 518.978 909.968 516.548L912.268 515.387C913.368 517.844 914.467 520.274 915.566 522.704L913.266 523.865ZM554.883 518.897L552.505 517.925L555.292 510.365L557.669 511.337L554.883 518.897ZM1302.02 516.062L1299.64 515.063C1300.56 512.552 1301.51 510.041 1302.4 507.53L1304.78 508.502C1303.86 511.04 1302.94 513.551 1302 516.062H1302.02ZM906.695 509.177L903.448 501.806L905.775 500.672L909.022 508.016L906.695 509.15V509.177ZM560.481 503.804L558.104 502.805C559.05 500.294 559.996 497.756 560.942 495.272L563.319 496.271C562.373 498.782 561.427 501.266 560.481 503.804ZM1307.54 500.888L1305.14 499.943C1306.03 497.432 1306.93 494.894 1307.82 492.357L1310.23 493.302C1309.33 495.839 1308.44 498.377 1307.54 500.915V500.888ZM900.227 494.463L897.006 487.119L899.332 485.985L902.553 493.329L900.227 494.463ZM566.183 488.766L563.805 487.74C564.777 485.229 565.748 482.718 566.72 480.234L569.072 481.26C568.1 483.744 567.129 486.255 566.183 488.766ZM1312.86 485.688L1310.46 484.77C1311.33 482.232 1312.2 479.694 1313.04 477.156L1315.44 478.074C1314.57 480.639 1313.73 483.177 1312.84 485.715L1312.86 485.688ZM893.784 479.802L890.563 472.458L892.89 471.324L896.111 478.668L893.784 479.802ZM572.037 473.808L569.685 472.755C570.682 470.244 571.679 467.76 572.676 465.276L575.029 466.329C574.031 468.813 573.034 471.297 572.037 473.781V473.808ZM1318.03 470.406L1315.62 469.515C1316.47 466.977 1317.31 464.412 1318.13 461.875L1320.56 462.766C1319.71 465.33 1318.87 467.868 1318.03 470.433V470.406ZM887.316 465.087L884.069 457.744L886.396 456.61L889.643 463.953L887.316 465.087ZM578.02 458.905L575.668 457.825C576.69 455.341 577.713 452.857 578.761 450.4L581.113 451.48C580.091 453.937 579.068 456.421 578.045 458.905H578.02ZM1323.01 455.071L1320.58 454.207C1321.4 451.642 1322.22 449.104 1323.04 446.539L1325.46 447.403C1324.65 449.968 1323.83 452.533 1323.01 455.098V455.071ZM880.771 450.427C879.672 447.97 878.573 445.54 877.473 443.11L879.774 441.949C880.874 444.379 881.973 446.836 883.072 449.266L880.771 450.427ZM584.207 444.109L581.88 443.002C582.954 440.518 584.002 438.061 585.076 435.631L587.402 436.765C586.329 439.195 585.28 441.652 584.207 444.136V444.109ZM1327.89 439.708L1325.46 438.871C1326.26 436.306 1327.08 433.741 1327.87 431.177L1330.3 432.013C1329.5 434.578 1328.69 437.143 1327.89 439.708ZM874.15 435.82C873.025 433.39 871.9 430.961 870.801 428.531L873.102 427.343C874.226 429.773 875.351 432.202 876.476 434.632L874.175 435.82H874.15ZM590.649 429.422L588.348 428.261C589.448 425.804 590.573 423.374 591.672 420.944L593.973 422.132C592.848 424.535 591.749 426.965 590.649 429.422ZM1332.67 424.292L1330.25 423.455L1332.6 415.787L1335.03 416.624L1332.67 424.319V424.292ZM867.4 421.295C866.25 418.865 865.099 416.462 863.949 414.059L866.224 412.817C867.375 415.22 868.551 417.623 869.701 420.053L867.426 421.268L867.4 421.295ZM597.373 414.896L595.098 413.681C596.248 411.251 597.424 408.821 598.575 406.445L600.85 407.687C599.674 410.063 598.524 412.466 597.373 414.896ZM1337.35 408.902L1334.92 408.092L1337.25 400.37L1339.68 401.18L1337.35 408.902ZM860.421 406.877C859.219 404.474 858.043 402.098 856.842 399.722L859.091 398.454C860.293 400.829 861.495 403.205 862.696 405.635L860.421 406.877ZM604.404 400.532L602.154 399.264C603.381 396.861 604.583 394.485 605.835 392.136L608.06 393.432C606.832 395.781 605.605 398.13 604.404 400.532ZM1911.44 399.237C1908.83 399.156 1906.27 398.994 1903.74 398.805L1903.92 396.105C1906.42 396.294 1908.96 396.456 1911.51 396.537L1911.44 399.237ZM1896.04 398.022C1893.49 397.698 1890.93 397.293 1888.4 396.861L1888.84 394.188C1891.32 394.62 1893.85 395.025 1896.35 395.322L1896.04 397.995V398.022ZM1880.83 395.295C1878.3 394.701 1875.8 394.053 1873.34 393.351L1874.03 390.759C1876.41 391.461 1878.89 392.109 1881.4 392.676L1880.83 395.322V395.295ZM1341.95 393.486L1339.53 392.676L1341.83 384.927L1344.26 385.737L1341.95 393.486ZM853.135 392.649C851.882 390.273 850.629 387.924 849.376 385.602L851.601 384.252C852.853 386.601 854.132 388.95 855.384 391.326L853.16 392.622L853.135 392.649ZM1865.95 390.975C1863.52 390.138 1861.1 389.193 1858.69 388.194L1859.64 385.683C1861.99 386.655 1864.39 387.573 1866.77 388.41L1865.98 390.975H1865.95ZM611.792 386.385L609.568 385.035C610.846 382.659 612.15 380.337 613.454 378.015L615.653 379.392C614.349 381.687 613.071 384.009 611.792 386.358V386.385ZM1851.61 385.008C1849.28 383.901 1846.96 382.686 1844.68 381.444L1845.86 379.041C1848.11 380.283 1850.38 381.471 1852.66 382.551L1851.61 385.008ZM845.541 378.582C844.238 376.26 842.908 373.938 841.579 371.67L843.752 370.239C845.081 372.534 846.411 374.856 847.74 377.205L845.541 378.582ZM1346.56 377.961L1344.13 377.151L1346.4 369.375L1348.83 370.185L1346.56 377.961ZM1837.96 377.475C1835.76 376.098 1833.56 374.667 1831.41 373.155L1832.82 370.914C1834.94 372.399 1837.09 373.83 1839.24 375.153L1837.93 377.475H1837.96ZM619.641 372.507L617.468 371.076C618.823 368.754 620.203 366.46 621.61 364.219L623.757 365.704C622.377 367.945 621.022 370.212 619.667 372.507H619.641ZM1825.1 368.484C1823.05 366.892 1821.01 365.218 1819.01 363.49L1820.63 361.384C1822.59 363.085 1824.61 364.732 1826.63 366.298L1825.12 368.457L1825.1 368.484ZM837.514 364.84C836.133 362.572 834.727 360.304 833.295 358.09L835.417 356.578C836.849 358.792 838.255 361.06 839.661 363.355L837.514 364.813V364.84ZM1351.11 362.437L1348.65 361.654L1350.9 353.905L1353.36 354.688L1351.11 362.437ZM628.001 358.954L625.879 357.442C627.336 355.174 628.819 352.96 630.302 350.773L632.373 352.339C630.89 354.499 629.433 356.686 627.976 358.927L628.001 358.954ZM1813.16 358.171C1811.24 356.362 1809.35 354.499 1807.51 352.609L1809.3 350.665C1811.11 352.555 1812.98 354.364 1814.87 356.146L1813.16 358.171ZM828.949 351.448C827.466 349.234 825.958 347.074 824.424 344.941L826.469 343.321C828.003 345.454 829.537 347.641 831.046 349.882L828.975 351.448H828.949ZM1355.63 346.939L1353.18 346.156L1355.43 338.407L1357.88 339.19L1355.63 346.939ZM1802.09 346.831C1800.33 344.86 1798.59 342.862 1796.9 340.81L1798.82 339.028C1800.5 341.053 1802.22 343.024 1803.96 344.968L1802.09 346.831ZM636.949 345.913L634.929 344.266C636.515 342.079 638.1 339.946 639.71 337.867L641.704 339.568C640.119 341.62 638.534 343.726 636.975 345.886L636.949 345.913ZM819.745 338.65C818.135 336.544 816.499 334.492 814.862 332.468L816.805 330.686C818.467 332.711 820.129 334.79 821.765 336.922L819.771 338.623L819.745 338.65ZM1791.91 334.628C1790.3 332.549 1788.69 330.416 1787.13 328.256L1789.15 326.609C1790.71 328.742 1792.27 330.848 1793.88 332.927L1791.91 334.628ZM646.562 333.44L644.644 331.658C646.357 329.579 648.07 327.581 649.809 325.61L651.675 327.446C649.962 329.39 648.249 331.361 646.562 333.413V333.44ZM1360.16 331.496L1357.7 330.713L1359.95 322.964L1362.41 323.747L1360.16 331.496ZM809.749 326.501C807.985 324.53 806.195 322.586 804.431 320.777L806.221 318.833C808.036 320.696 809.851 322.64 811.615 324.665L809.749 326.501ZM656.993 321.749L655.203 319.832C657.07 317.915 658.961 316.025 660.828 314.27L662.541 316.295C660.7 318.023 658.834 319.886 656.993 321.776V321.749ZM1782.56 321.749C1781.07 319.562 1779.59 317.348 1778.16 315.08L1780.28 313.568C1781.71 315.809 1783.17 317.996 1784.65 320.183L1782.58 321.749H1782.56ZM1364.68 316.025L1362.23 315.215L1364.5 307.466L1366.93 308.276L1364.66 316.025H1364.68ZM798.858 315.323C796.941 313.541 794.972 311.813 793.029 310.193L794.614 308.087C796.583 309.734 798.577 311.489 800.545 313.325L798.858 315.35V315.323ZM668.319 311.084L666.708 308.978C668.753 307.25 670.824 305.576 672.844 304.064L674.327 306.251C672.332 307.763 670.287 309.383 668.293 311.084H668.319ZM1773.89 308.276C1772.51 306.008 1771.16 303.713 1769.8 301.392L1771.97 299.988C1773.3 302.283 1774.66 304.577 1776.01 306.818L1773.87 308.276H1773.89ZM786.944 305.414C784.848 303.875 782.726 302.418 780.604 301.068L781.933 298.746C784.107 300.123 786.28 301.608 788.427 303.2L786.97 305.414H786.944ZM680.616 301.824L679.261 299.529C681.459 298.071 683.709 296.721 685.933 295.452L687.135 297.828C684.962 299.043 682.763 300.393 680.616 301.824ZM1369.23 300.528L1366.78 299.718L1369.08 291.969L1371.53 292.779L1369.23 300.501V300.528ZM774.008 297.18C771.758 295.965 769.457 294.831 767.156 293.832L768.153 291.348C770.505 292.374 772.858 293.535 775.159 294.777L774.008 297.18ZM1765.89 294.399C1764.61 292.077 1763.33 289.701 1762.08 287.325L1764.3 286.002C1765.56 288.351 1766.81 290.7 1768.09 293.022L1765.86 294.372L1765.89 294.399ZM693.936 294.372L692.913 291.888C695.291 290.781 697.694 289.782 700.097 288.891L700.941 291.429C698.614 292.293 696.262 293.265 693.961 294.345L693.936 294.372ZM760.126 291.078C757.748 290.268 755.319 289.539 752.891 288.918L753.479 286.299C755.958 286.92 758.464 287.676 760.918 288.513L760.126 291.078ZM708.125 289.161L707.486 286.542C709.965 285.867 712.522 285.273 715.053 284.841L715.488 287.514C713.033 287.946 710.553 288.513 708.125 289.188V289.161ZM745.502 287.379C743.048 286.974 740.517 286.677 738.037 286.461L738.241 283.761C740.798 283.977 743.38 284.274 745.911 284.706L745.528 287.379H745.502ZM722.953 286.488L722.748 283.788C725.305 283.572 727.913 283.437 730.495 283.437V286.137C727.989 286.137 725.433 286.245 722.953 286.461V286.488ZM1373.84 285.084L1371.41 284.274L1373.73 276.552L1376.16 277.362L1373.84 285.084ZM1758.42 280.197C1757.22 277.821 1756.05 275.418 1754.87 272.988L1757.15 271.746C1758.32 274.149 1759.5 276.525 1760.7 278.901L1758.45 280.17L1758.42 280.197ZM1378.49 269.641L1376.06 268.804L1378.41 261.082L1380.84 261.919L1378.49 269.641ZM1751.39 265.753C1750.27 263.323 1749.14 260.893 1748.02 258.436L1750.32 257.275C1751.42 259.705 1752.54 262.135 1753.67 264.538L1751.37 265.726L1751.39 265.753ZM1383.22 254.224L1380.79 253.387C1381.58 250.822 1382.4 248.257 1383.19 245.692L1385.62 246.529C1384.83 249.094 1384.01 251.659 1383.22 254.224ZM1744.75 251.092C1743.67 248.635 1742.6 246.178 1741.55 243.721L1743.88 242.614C1744.92 245.071 1746 247.528 1747.07 249.958L1744.75 251.092ZM1388.05 238.835L1385.62 237.971L1388.08 230.276L1390.5 231.14L1388.05 238.808V238.835ZM1738.38 236.297C1737.33 233.813 1736.31 231.356 1735.29 228.872L1737.64 227.792C1738.66 230.276 1739.68 232.733 1740.71 235.217L1738.38 236.297ZM1393.01 223.499L1390.58 222.608C1391.42 220.043 1392.27 217.505 1393.11 214.94L1395.52 215.831C1394.67 218.369 1393.83 220.907 1392.98 223.472L1393.01 223.499ZM1732.27 221.393C1731.27 218.909 1730.28 216.425 1729.28 213.914L1731.63 212.861C1732.63 215.345 1733.62 217.829 1734.62 220.313L1732.27 221.366V221.393ZM1398.1 208.217L1395.69 207.3C1396.56 204.735 1397.43 202.197 1398.3 199.659L1400.71 200.577C1399.84 203.088 1398.97 205.626 1398.1 208.19V208.217ZM1726.29 206.436L1723.35 198.93L1725.7 197.904L1728.64 205.41L1726.29 206.436ZM1403.36 193.017L1400.96 192.072C1401.86 189.534 1402.78 186.996 1403.67 184.485L1406.07 185.457C1405.18 187.968 1404.26 190.479 1403.36 193.044V193.017ZM1720.41 191.424L1717.49 183.945L1719.87 182.919L1722.78 190.398L1720.41 191.424ZM1408.81 177.87L1406.43 176.898C1407.38 174.361 1408.3 171.85 1409.24 169.339L1411.62 170.338C1410.68 172.822 1409.73 175.332 1408.81 177.87ZM1714.58 176.439L1711.64 168.961L1713.99 167.935L1716.93 175.44L1714.58 176.466V176.439ZM1414.51 162.832L1412.13 161.806C1413.1 159.295 1414.1 156.784 1415.1 154.327L1417.45 155.38C1416.45 157.837 1415.48 160.348 1414.51 162.859V162.832ZM1708.7 161.455C1707.73 158.944 1706.73 156.46 1705.73 153.976L1708.08 152.923C1709.08 155.407 1710.08 157.891 1711.05 160.402L1708.7 161.428V161.455ZM1420.47 147.928L1418.12 146.848C1419.14 144.337 1420.19 141.881 1421.23 139.424L1423.56 140.531C1422.51 142.961 1421.49 145.444 1420.47 147.928ZM1702.72 146.551C1701.72 144.067 1700.7 141.584 1699.67 139.127L1702.03 138.047C1703.05 140.504 1704.07 142.988 1705.09 145.498L1702.74 146.551H1702.72ZM1426.73 133.187L1424.4 132.053C1425.48 129.569 1426.58 127.139 1427.7 124.709L1430 125.87C1428.9 128.273 1427.81 130.73 1426.73 133.187ZM1696.55 131.729C1695.51 129.245 1694.46 126.788 1693.38 124.358L1695.71 123.224C1696.78 125.681 1697.83 128.138 1698.88 130.622L1696.55 131.729ZM1433.35 118.607L1431.08 117.392C1432.23 114.962 1433.4 112.532 1434.58 110.157L1436.86 111.399C1435.68 113.774 1434.53 116.177 1433.38 118.607H1433.35ZM1690.14 117.014C1689.04 114.557 1687.91 112.127 1686.81 109.725L1689.11 108.537C1690.24 110.94 1691.36 113.396 1692.46 115.853L1690.16 117.014H1690.14ZM1440.41 104.271L1438.16 102.975C1439.39 100.572 1440.64 98.1959 1441.89 95.874L1444.12 97.197C1442.86 99.5189 1441.64 101.868 1440.41 104.271ZM1683.36 102.516C1682.19 100.113 1681.01 97.7099 1679.81 95.361L1682.06 94.092C1683.26 96.468 1684.44 98.8709 1685.64 101.301L1683.36 102.543V102.516ZM1447.95 90.2312L1445.75 88.8542C1447.08 86.5053 1448.41 84.1834 1449.77 81.9154L1451.94 83.3464C1450.61 85.6143 1449.28 87.9092 1447.95 90.2312ZM1676.15 88.2872C1674.9 85.9113 1673.62 83.5894 1672.32 81.2944L1674.52 79.9175C1675.82 82.2394 1677.1 84.5883 1678.35 86.9643L1676.13 88.2872H1676.15ZM1456.08 76.5696L1453.96 75.0846C1455.39 72.7897 1456.82 70.5488 1458.28 68.3619L1460.38 69.9008C1458.94 72.0877 1457.51 74.3017 1456.08 76.5696ZM1668.38 74.4097C1667 72.1147 1665.62 69.8468 1664.24 67.6329L1666.36 66.1209C1667.77 68.3619 1669.17 70.6298 1670.55 72.9517L1668.38 74.3827V74.4097ZM1464.85 63.394L1462.8 61.7741C1464.36 59.5871 1465.92 57.4272 1467.51 55.3483L1469.5 57.0222C1467.94 59.1012 1466.38 61.2071 1464.85 63.394ZM1659.87 61.0451C1658.38 58.8582 1656.85 56.6982 1655.32 54.5923L1657.34 52.9453C1658.9 55.0783 1660.43 57.2382 1661.94 59.4791L1659.87 61.0451ZM1474.36 50.8394L1472.42 49.0845C1474.1 47.0055 1475.82 44.9806 1477.56 43.0096L1479.42 44.8456C1477.71 46.7895 1476.02 48.7875 1474.36 50.8394ZM1650.54 48.3285C1648.87 46.2495 1647.16 44.2246 1645.5 42.3077L1647.37 40.4717C1649.08 42.4157 1650.79 44.4676 1652.48 46.5735L1650.54 48.3285ZM1484.74 39.0948L1482.95 37.1778C1484.82 35.2339 1486.71 33.371 1488.58 31.616L1490.26 33.6409C1488.42 35.3689 1486.56 37.2048 1484.74 39.1218V39.0948ZM1640.18 36.5569C1638.34 34.6669 1636.47 32.831 1634.61 31.13L1636.3 29.1051C1638.19 30.86 1640.1 32.723 1641.97 34.6399L1640.18 36.5839V36.5569ZM1496.04 28.4571L1494.46 26.3512C1496.48 24.6502 1498.55 23.0033 1500.62 21.4373L1502.1 23.6513C1500.08 25.1632 1498.06 26.7832 1496.07 28.4571H1496.04ZM1628.75 26.0542C1626.73 24.4072 1624.66 22.8413 1622.62 21.3833L1624.05 19.1424C1626.15 20.6273 1628.27 22.2203 1630.31 23.9212L1628.75 26.0542ZM1508.39 19.2504L1507.03 16.9555C1509.23 15.5245 1511.48 14.1476 1513.73 12.8786L1514.93 15.2545C1512.74 16.4965 1510.54 17.8194 1508.39 19.2234V19.2504ZM1616.2 17.1715C1614.03 15.8485 1611.78 14.6065 1609.53 13.4456L1610.63 11.0157C1612.93 12.1766 1615.23 13.4726 1617.48 14.8225L1616.2 17.1715ZM1521.71 11.7986L1520.66 9.3417C1523.01 8.23474 1525.42 7.20877 1527.82 6.3178L1528.69 8.85572C1526.36 9.74669 1524.01 10.7187 1521.71 11.7986ZM1602.6 10.2867C1600.27 9.31471 1597.9 8.45073 1595.49 7.66776L1596.23 5.07584C1598.69 5.88581 1601.14 6.77679 1603.52 7.77575L1602.57 10.2867H1602.6ZM1535.85 6.4528L1535.16 3.86087C1537.64 3.1319 1540.17 2.51092 1542.67 1.99794L1543.16 4.64385C1540.7 5.15684 1538.22 5.75082 1535.82 6.4528H1535.85ZM1588.18 5.58882C1585.78 4.99484 1583.27 4.50885 1580.77 4.07687L1581.15 1.40395C1583.71 1.83594 1586.26 2.34892 1588.74 2.9429L1588.18 5.56182V5.58882ZM1550.62 3.40189L1550.32 0.728973C1552.87 0.404983 1555.46 0.188991 1558.04 0.0809942L1558.14 2.78091C1555.63 2.88891 1553.08 3.1049 1550.6 3.42889L1550.62 3.40189ZM1573.28 3.1319C1570.8 2.91591 1568.26 2.75391 1565.73 2.69992L1565.78 0C1568.37 0.0539983 1570.95 0.215993 1573.48 0.431986L1573.25 3.1319H1573.28Z" fill="#FE1C04" fill-opacity="0.2"/>
</svg>
