<svg width="60" height="60" viewBox="0 0 60 60" fill="none" xmlns="http://www.w3.org/2000/svg">
<g clip-path="url(#clip0_657_32)">
<path d="M57.1875 28.1252V8.43771V0.937705C57.1875 0.626455 57.0328 0.33583 56.7759 0.161455C56.5181 -0.0129201 56.1909 -0.0485451 55.9022 0.0667674L46.5272 3.81677C46.1709 3.96021 45.9375 4.30427 45.9375 4.68771C45.9375 5.07114 46.1709 5.4152 46.5262 5.55864L55.3125 9.07239V28.1252H54.375C54.1266 28.1252 53.8875 28.2236 53.7122 28.3999L37.0312 45.0808L33.4753 41.5249C33.1088 41.1583 32.5162 41.1583 32.1497 41.5249L21.0938 52.5808L14.2566 45.7436C13.89 45.3771 13.2975 45.3771 12.9309 45.7436L0.274688 58.3999C0.0984375 58.5752 0 58.8133 0 59.0627V60.0002H1.875V59.4508L13.5938 47.7321L20.4309 54.5693C20.7975 54.9358 21.39 54.9358 21.7566 54.5693L32.8125 43.5133L36.3684 47.0693C36.735 47.4358 37.3275 47.4358 37.6941 47.0693L54.7631 30.0002H60V28.1252H57.1875ZM49.3988 4.68771L55.3125 2.32239V7.05396L49.3988 4.68771Z" fill="#50C9C0"/>
<path d="M1.6179 40.9566C3.8904 38.5547 8.61165 40.0631 11.4326 40.9631C12.6017 41.3363 13.7257 41.5228 14.7879 41.5228C15.8688 41.5228 16.8776 41.3091 17.8123 40.9266V46.875C17.8123 47.3934 18.2323 47.8125 18.7498 47.8125H23.4373C23.9548 47.8125 24.3748 47.3934 24.3748 46.875V37.7653C24.582 37.4559 24.9654 37.2141 25.5495 36.9281C25.7379 36.8353 25.9301 36.75 26.1223 36.6647C26.6595 36.4247 27.2154 36.1762 27.7348 35.7909C28.347 35.3372 28.8017 34.5563 28.9826 33.75H30.9373V39.375C30.9373 39.8934 31.3573 40.3125 31.8748 40.3125H36.5623C37.0798 40.3125 37.4998 39.8934 37.4998 39.375V31.875C37.4998 29.2903 35.397 27.1875 32.8123 27.1875H27.1873V24.375H31.8748C34.4595 24.375 36.5623 22.2722 36.5623 19.6875V11.25C36.5623 10.7316 36.1423 10.3125 35.6248 10.3125H31.8748C31.3573 10.3125 30.9373 10.7316 30.9373 11.25V18.75H26.3529C26.8338 17.9212 27.1142 16.9622 27.1142 15.9375C27.1142 12.8353 24.5913 10.3125 21.4892 10.3125C18.387 10.3125 15.8642 12.8353 15.8642 15.9375C15.8642 16.8769 16.0985 17.7609 16.5073 18.5409C13.3404 19.4747 10.4857 21.5728 8.21509 24.6825C7.20634 26.0634 6.45915 27.6366 5.73634 29.1572C5.54322 29.5641 5.35103 29.9681 5.15603 30.3647C4.71634 31.2572 4.30197 32.2322 3.90072 33.1753C2.89572 35.5359 1.8579 37.9763 0.257592 39.6675L0.256655 39.6684C-0.0995954 40.0444 -0.0827204 40.6378 0.293217 40.9941C0.669155 41.3484 1.26353 41.3334 1.6179 40.9566ZM17.8123 28.8206L16.7201 27.7294L17.8123 26.6381V28.8206ZM26.6192 34.2834C26.2638 34.5469 25.8232 34.7428 25.3582 34.9519C25.1454 35.0466 24.9335 35.1412 24.7254 35.2434C24.6101 35.2997 24.4929 35.3653 24.3748 35.4272V33.75H27.0092C26.9042 33.9713 26.7701 34.1719 26.6192 34.2834ZM31.8748 20.625C32.3923 20.625 32.8123 20.2059 32.8123 19.6875V12.1875H34.6873V19.6875C34.6873 21.2381 33.4254 22.5 31.8748 22.5H26.2498C25.7323 22.5 25.3123 22.9191 25.3123 23.4375V28.125C25.3123 28.6434 25.7323 29.0625 26.2498 29.0625H32.8123C34.3629 29.0625 35.6248 30.3244 35.6248 31.875V38.4375H32.8123V32.8125C32.8123 32.2941 32.3923 31.875 31.8748 31.875H23.4373C22.9198 31.875 22.4998 32.2941 22.4998 32.8125V45.9375H19.6873V24.375C19.6873 23.9962 19.4585 23.6531 19.1088 23.5088C18.7582 23.3625 18.356 23.4441 18.087 23.7122L14.7317 27.0666C14.5554 27.2428 14.457 27.48 14.457 27.7294C14.457 27.9787 14.5554 28.2169 14.7317 28.3922L17.3501 31.0106L15.8632 32.4975L13.0845 29.7188C11.9885 28.6219 11.9885 26.8378 13.0845 25.7409L18.2763 20.5491C19.1885 21.1856 20.2948 21.5625 21.4882 21.5625C21.5135 21.5625 21.537 21.5588 21.5623 21.5588V27.1875H23.4373V21.2072C23.846 21.0553 24.2332 20.8622 24.5913 20.625H31.8748ZM21.4882 12.1875C23.5563 12.1875 25.2382 13.8694 25.2382 15.9375C25.2382 18.0056 23.5563 19.6875 21.4882 19.6875C19.4201 19.6875 17.7382 18.0056 17.7382 15.9375C17.7382 13.8694 19.421 12.1875 21.4882 12.1875ZM5.62572 33.9094C6.0354 32.9475 6.42165 32.0391 6.8379 31.1925C7.03665 30.7884 7.23259 30.3769 7.42947 29.9625C8.11478 28.5197 8.82353 27.0272 9.72822 25.7887C10.8757 24.2175 12.641 22.3237 15.0701 21.105L11.7579 24.4172C9.93072 26.2444 9.93072 29.2191 11.7579 31.0463L15.1995 34.4878C15.566 34.8544 16.1585 34.8544 16.5251 34.4878L17.8123 33.2006V38.8425C15.8417 39.9984 13.5907 39.6844 12.0026 39.1781C9.79665 38.4731 6.57822 37.4475 3.77884 37.8891C4.47447 36.6141 5.05572 35.25 5.62572 33.9094Z" fill="#50C9C0"/>
</g>
<defs>
<clipPath id="clip0_657_32">
<rect width="60" height="60" fill="white"/>
</clipPath>
</defs>
</svg>
