<svg width="597" height="415" viewBox="0 0 597 415" fill="none" xmlns="http://www.w3.org/2000/svg">
<path d="M321.865 68.7129L285.272 155.942L311.7 147.827L334.063 92.0415L351.343 130.584L369.64 118.413L348.294 68.7129H321.865Z" fill="#52AA32"/>
<path d="M280.189 167.099C317.799 164.056 422.497 99.2864 438.761 65.6701C424.53 95.0844 408.075 122.432 381.837 146.521L404.508 197.484L390.008 215.484L363.541 161.387C348.707 172.126 330.049 182.972 305.601 194.484H269.008L280.189 167.099Z" fill="#52AA32"/>
<path d="M446.892 52.4844L417.414 62.6272L438.761 64.6558L454.008 81.8987L446.892 52.4844Z" fill="#52AA32"/>
<rect x="299.531" y="92.4766" width="116.523" height="23.9809" transform="rotate(-179.989 299.531 92.4766)" fill="#FE1C04"/>
<rect x="234.008" y="194.484" width="113" height="25" transform="rotate(-90 234.008 194.484)" fill="#FE1C04"/>
<path d="M202.273 20.4844L196.876 53.6235L230.015 59.0205L202.273 20.4844Z" fill="#52AA32"/>
<path fill-rule="evenodd" clip-rule="evenodd" d="M409.773 129.72C409.773 157.081 399.776 182.208 383.151 201.675L391.787 218.948C414.091 195.696 427.773 164.287 427.773 129.72C427.773 118.632 426.365 107.869 423.716 97.5951L409.228 118.706C409.588 122.331 409.773 126.005 409.773 129.72ZM405.246 98.369L413.508 91.4844L420.139 86.0235C401.989 35.8792 353.486 0 296.504 0C256.765 0 221.15 17.4498 197.078 45.0185L208.394 34.1517L220.954 46.4781C240.968 28.7843 267.421 18 296.504 18C348.165 18 391.527 52.0296 405.246 98.369Z" fill="#52AA32"/>
<path fill-rule="evenodd" clip-rule="evenodd" d="M167.188 112.866C169.556 96.34 175.081 81.5465 183.008 68.7496L196.486 81.4369C190.777 91.5082 186.8 102.903 185.006 115.419L184.936 115.906L184.84 116.387C173.526 173.107 210.334 228.26 267.053 239.574C295.968 245.342 324.476 238.604 346.976 223.097L360.339 235.675C333.511 255.431 298.78 264.258 263.532 257.226C197.063 243.967 153.929 179.335 167.188 112.866Z" fill="#FE1C04"/>
<path d="M367.836 248.633L369.537 215.1L336.004 213.4L367.836 248.633Z" fill="#FE1C04"/>
<path d="M49.734 326.354V335.75H32.805V385.484H21.303V335.75H4.374V326.354H49.734ZM55.6603 343.364H65.7043L65.8663 351.464H66.0283C70.8343 345.524 77.2873 342.554 85.3873 342.554V351.14C79.3933 351.14 74.7223 352.598 71.3743 355.514C68.0803 358.376 66.4333 362.237 66.4333 367.097V385.484H55.6603V343.364ZM109.532 342.554C115.958 342.554 120.575 343.823 123.383 346.361C126.191 348.845 127.595 352.895 127.595 358.511V374.144C127.595 377.978 128 381.758 128.81 385.484H118.847C118.523 383.702 118.28 381.623 118.118 379.247H117.956C116.444 381.461 114.392 383.189 111.8 384.431C109.262 385.673 106.481 386.294 103.457 386.294C99.5146 386.294 96.3556 385.214 93.9796 383.054C91.6576 380.84 90.4966 377.789 90.4966 373.901C90.4966 369.203 92.4676 365.45 96.4096 362.642C100.406 359.78 106.13 358.349 113.582 358.349H117.065V358.106C117.065 355.244 116.498 353.246 115.364 352.112C114.23 350.978 112.205 350.411 109.289 350.411C103.997 350.411 99.0016 351.626 94.3036 354.056L92.7646 346.199C97.8946 343.769 103.484 342.554 109.532 342.554ZM100.379 373.091C100.379 374.819 100.892 376.169 101.918 377.141C102.944 378.113 104.348 378.599 106.13 378.599C109.208 378.599 111.8 377.6 113.906 375.602C116.012 373.604 117.065 371.093 117.065 368.069V365.315H113.582C109.316 365.315 106.049 366.044 103.781 367.502C101.513 368.906 100.379 370.769 100.379 373.091ZM176.695 324.734V385.484H166.894L166.651 379.571H166.489C163.303 384.053 159.01 386.294 153.61 386.294C148.588 386.294 144.511 384.404 141.379 380.624C138.301 376.79 136.762 371.39 136.762 364.424C136.762 357.296 138.247 351.869 141.217 348.143C144.241 344.417 148.372 342.554 153.61 342.554C158.686 342.554 162.817 344.633 166.003 348.791H166.165V324.734H176.695ZM146.887 364.424C146.887 368.798 147.778 372.173 149.56 374.549C151.396 376.871 153.745 378.032 156.607 378.032C159.469 378.032 161.764 376.898 163.492 374.63C165.274 372.308 166.165 369.041 166.165 364.829V364.019C166.165 359.915 165.274 356.702 163.492 354.38C161.764 352.004 159.469 350.816 156.607 350.816C153.529 350.816 151.126 351.95 149.398 354.218C147.724 356.486 146.887 359.888 146.887 364.424ZM196.009 361.022H215.773C215.719 357.512 214.828 354.839 213.1 353.003C211.426 351.113 209.05 350.168 205.972 350.168C203.002 350.168 200.626 351.113 198.844 353.003C197.116 354.893 196.171 357.566 196.009 361.022ZM196.009 368.231C196.279 371.417 197.494 373.955 199.654 375.845C201.868 377.681 204.649 378.599 207.997 378.599C211.993 378.599 215.962 377.6 219.904 375.602L222.334 383.054C217.474 385.214 212.344 386.294 206.944 386.294C200.572 386.294 195.388 384.323 191.392 380.381C187.45 376.439 185.479 371.12 185.479 364.424C185.479 357.62 187.315 352.274 190.987 348.386C194.659 344.498 199.627 342.554 205.891 342.554C212.155 342.554 217.015 344.417 220.471 348.143C223.981 351.869 225.736 357.215 225.736 364.181C225.736 365.531 225.655 366.881 225.493 368.231H196.009ZM234.509 343.364H244.553L244.715 351.464H244.877C249.683 345.524 256.136 342.554 264.236 342.554V351.14C258.242 351.14 253.571 352.598 250.223 355.514C246.929 358.376 245.282 362.237 245.282 367.097V385.484H234.509V343.364ZM287.025 377.627H308.652V385.484H273.822V377.627L295.449 351.383V351.221H273.822V343.364H308.652V351.221L287.025 377.465V377.627Z" fill="#52AA32"/>
<path d="M372 323L354 366L367 362L378 334.5L386.5 353.5L395.5 347.5L385 323H372Z" fill="#FE1C04"/>
<path d="M351.5 371.5C370 370 421.5 338.071 429.5 321.5C422.5 336 414.406 349.481 401.5 361.356L411.5 385H399.5L392.5 368.684C385.204 373.978 376.026 379.325 364 385H346L351.5 371.5Z" fill="#FE1C04"/>
<path d="M433.5 315L419 320L429.5 321L437 329.5L433.5 315Z" fill="#FE1C04"/>
<path d="M422.589 342.88H432.633L432.795 350.98H432.957C437.763 345.04 444.216 342.07 452.316 342.07V350.656C446.322 350.656 441.651 352.114 438.303 355.03C435.009 357.892 433.362 361.753 433.362 366.613V385H422.589V342.88ZM468.015 360.538H487.779C487.725 357.028 486.834 354.355 485.106 352.519C483.432 350.629 481.056 349.684 477.978 349.684C475.008 349.684 472.632 350.629 470.85 352.519C469.122 354.409 468.177 357.082 468.015 360.538ZM468.015 367.747C468.285 370.933 469.5 373.471 471.66 375.361C473.874 377.197 476.655 378.115 480.003 378.115C483.999 378.115 487.968 377.116 491.91 375.118L494.34 382.57C489.48 384.73 484.35 385.81 478.95 385.81C472.578 385.81 467.394 383.839 463.398 379.897C459.456 375.955 457.485 370.636 457.485 363.94C457.485 357.136 459.321 351.79 462.993 347.902C466.665 344.014 471.633 342.07 477.897 342.07C484.161 342.07 489.021 343.933 492.477 347.659C495.987 351.385 497.742 356.731 497.742 363.697C497.742 365.047 497.661 366.397 497.499 367.747H468.015ZM506.516 342.88H516.398L516.56 348.793H516.722C518.342 346.687 520.34 345.04 522.716 343.852C525.146 342.664 527.63 342.07 530.168 342.07C535.028 342.07 538.592 343.582 540.86 346.606C543.182 349.576 544.343 354.463 544.343 361.267V385H533.975V362.32C533.975 357.676 533.435 354.544 532.355 352.924C531.275 351.25 529.331 350.413 526.523 350.413C524.147 350.413 521.96 351.628 519.962 354.058C518.018 356.488 517.046 359.323 517.046 362.563V385H506.516V342.88ZM572.094 342.07C578.52 342.07 583.137 343.339 585.945 345.877C588.753 348.361 590.157 352.411 590.157 358.027V373.66C590.157 377.494 590.562 381.274 591.372 385H581.409C581.085 383.218 580.842 381.139 580.68 378.763H580.518C579.006 380.977 576.954 382.705 574.362 383.947C571.824 385.189 569.043 385.81 566.019 385.81C562.077 385.81 558.918 384.73 556.542 382.57C554.22 380.356 553.059 377.305 553.059 373.417C553.059 368.719 555.03 364.966 558.972 362.158C562.968 359.296 568.692 357.865 576.144 357.865H579.627V357.622C579.627 354.76 579.06 352.762 577.926 351.628C576.792 350.494 574.767 349.927 571.851 349.927C566.559 349.927 561.564 351.142 556.866 353.572L555.327 345.715C560.457 343.285 566.046 342.07 572.094 342.07ZM562.941 372.607C562.941 374.335 563.454 375.685 564.48 376.657C565.506 377.629 566.91 378.115 568.692 378.115C571.77 378.115 574.362 377.116 576.468 375.118C578.574 373.12 579.627 370.609 579.627 367.585V364.831H576.144C571.878 364.831 568.611 365.56 566.343 367.018C564.075 368.422 562.941 370.285 562.941 372.607Z" fill="#FE1C04"/>
</svg>
