<svg width="101" height="66" viewBox="0 0 101 66" fill="none" xmlns="http://www.w3.org/2000/svg">
<path d="M8.59472 51.9548V53.5166H5.78085V61.7832H3.86903V53.5166H1.05515V51.9548H8.59472ZM9.57976 54.7822H11.2492L11.2762 56.1285H11.3031C12.1019 55.1412 13.1745 54.6475 14.5209 54.6475V56.0747C13.5246 56.0747 12.7482 56.317 12.1917 56.8017C11.6442 57.2774 11.3704 57.9192 11.3704 58.727V61.7832H9.57976V54.7822ZM18.534 54.6475C19.6022 54.6475 20.3696 54.8585 20.8363 55.2803C21.303 55.6932 21.5364 56.3664 21.5364 57.2999V59.8983C21.5364 60.5356 21.6037 61.1639 21.7384 61.7832H20.0824C20.0285 61.487 19.9881 61.1414 19.9612 60.7465H19.9343C19.6829 61.1145 19.3419 61.4017 18.911 61.6082C18.4892 61.8146 18.0269 61.9178 17.5243 61.9178C16.8691 61.9178 16.344 61.7383 15.9491 61.3793C15.5631 61.0113 15.3701 60.5042 15.3701 59.8579C15.3701 59.077 15.6977 58.4532 16.353 57.9865C17.0172 57.5108 17.9686 57.2729 19.2072 57.2729H19.7862V57.2325C19.7862 56.7568 19.6919 56.4247 19.5034 56.2362C19.3149 56.0477 18.9783 55.9535 18.4937 55.9535C17.614 55.9535 16.7838 56.1555 16.0029 56.5594L15.7471 55.2534C16.5998 54.8495 17.5288 54.6475 18.534 54.6475ZM17.0127 59.7233C17.0127 60.0105 17.0979 60.2349 17.2685 60.3965C17.439 60.558 17.6724 60.6388 17.9686 60.6388C18.4802 60.6388 18.911 60.4728 19.2611 60.1407C19.6111 59.8086 19.7862 59.3912 19.7862 58.8885V58.4308H19.2072C18.4981 58.4308 17.9551 58.552 17.5781 58.7943C17.2012 59.0277 17.0127 59.3373 17.0127 59.7233ZM29.6976 51.6856V61.7832H28.0685L28.0281 60.8004H28.0012C27.4716 61.5453 26.7581 61.9178 25.8605 61.9178C25.0258 61.9178 24.3481 61.6037 23.8275 60.9754C23.3159 60.3381 23.0601 59.4406 23.0601 58.2827C23.0601 57.0979 23.3069 56.1958 23.8006 55.5765C24.3032 54.9572 24.9899 54.6475 25.8605 54.6475C26.7042 54.6475 27.3909 54.9931 27.9204 55.6842H27.9474V51.6856H29.6976ZM24.743 58.2827C24.743 59.0097 24.8911 59.5707 25.1873 59.9656C25.4925 60.3516 25.8829 60.5446 26.3587 60.5446C26.8344 60.5446 27.2158 60.3561 27.5031 59.9791C27.7993 59.5931 27.9474 59.0501 27.9474 58.35V58.2154C27.9474 57.5332 27.7993 56.9992 27.5031 56.6132C27.2158 56.2183 26.8344 56.0208 26.3587 56.0208C25.847 56.0208 25.4476 56.2093 25.1604 56.5863C24.8822 56.9633 24.743 57.5287 24.743 58.2827ZM32.9079 57.7172H36.193C36.184 57.1338 36.0359 56.6895 35.7487 56.3843C35.4705 56.0702 35.0755 55.9131 34.5639 55.9131C34.0703 55.9131 33.6753 56.0702 33.3791 56.3843C33.0919 56.6985 32.9348 57.1428 32.9079 57.7172ZM32.9079 58.9155C32.9528 59.445 33.1547 59.8669 33.5138 60.181C33.8818 60.4862 34.344 60.6388 34.9005 60.6388C35.5647 60.6388 36.2244 60.4728 36.8797 60.1407L37.2836 61.3793C36.4757 61.7383 35.6231 61.9178 34.7255 61.9178C33.6664 61.9178 32.8047 61.5902 32.1405 60.935C31.4853 60.2798 31.1577 59.3957 31.1577 58.2827C31.1577 57.1518 31.4628 56.2632 32.0732 55.6169C32.6835 54.9707 33.5093 54.6475 34.5505 54.6475C35.5916 54.6475 36.3995 54.9572 36.9739 55.5765C37.5573 56.1958 37.849 57.0844 37.849 58.2423C37.849 58.4667 37.8356 58.6911 37.8086 58.9155H32.9079ZM39.3073 54.7822H40.9768L41.0037 56.1285H41.0306C41.8295 55.1412 42.902 54.6475 44.2484 54.6475V56.0747C43.2521 56.0747 42.4757 56.317 41.9192 56.8017C41.3717 57.2774 41.0979 57.9192 41.0979 58.727V61.7832H39.3073V54.7822ZM48.0364 60.4772H51.6311V61.7832H45.8418V60.4772L49.4366 56.1151V56.0881H45.8418V54.7822H51.6311V56.0881L48.0364 60.4503V60.4772Z" fill="#76AF28"/>
<path d="M61.2451 51.5066L58.2575 58.2763L60.4152 57.6466L62.241 53.3171L63.6518 56.3084L65.1456 55.3637L63.4029 51.5066H61.2451Z" fill="#03445E"/>
<path d="M57.8426 59.1422C60.9132 58.9061 69.4611 53.8793 70.7889 51.2704C69.6271 53.5532 68.2836 55.6756 66.1415 57.5452L67.8013 61.2676H65.8096L64.6477 58.6989C63.4366 59.5324 61.9134 60.3741 59.9173 61.2676H56.9297L57.8426 59.1422Z" fill="#03445E"/>
<path d="M71.4528 50.2471L69.0461 51.0343L70.7889 51.1917L72.0338 52.5299L71.4528 50.2471Z" fill="#03445E"/>
<path d="M71.2962 54.9394H72.9656L72.9926 56.2858H73.0195C73.8183 55.2984 74.8909 54.8048 76.2373 54.8048V56.2319C75.241 56.2319 74.4646 56.4742 73.9081 56.9589C73.3606 57.4346 73.0868 58.0764 73.0868 58.8842V61.9404H71.2962V54.9394ZM78.8468 57.8745H82.1319C82.1229 57.291 81.9748 56.8467 81.6876 56.5416C81.4093 56.2274 81.0144 56.0703 80.5028 56.0703C80.0091 56.0703 79.6142 56.2274 79.318 56.5416C79.0308 56.8557 78.8737 57.3 78.8468 57.8745ZM78.8468 59.0727C78.8917 59.6023 79.0936 60.0241 79.4526 60.3383C79.8206 60.6434 80.2829 60.796 80.8394 60.796C81.5036 60.796 82.1633 60.63 82.8185 60.2979L83.2224 61.5365C82.4146 61.8956 81.5619 62.0751 80.6644 62.0751C79.6052 62.0751 78.7436 61.7475 78.0794 61.0922C77.4241 60.437 77.0965 59.5529 77.0965 58.4399C77.0965 57.309 77.4017 56.4204 78.012 55.7741C78.6224 55.1279 79.4481 54.8048 80.4893 54.8048C81.5305 54.8048 82.3383 55.1144 82.9128 55.7338C83.4962 56.3531 83.7879 57.2417 83.7879 58.3995C83.7879 58.6239 83.7744 58.8483 83.7475 59.0727H78.8468ZM85.2462 54.9394H86.8887L86.9156 55.9222H86.9426C87.2118 55.5722 87.5439 55.2984 87.9389 55.101C88.3428 54.9035 88.7556 54.8048 89.1775 54.8048C89.9853 54.8048 90.5777 55.0561 90.9547 55.5587C91.3406 56.0524 91.5336 56.8647 91.5336 57.9956V61.9404H89.8103V58.1706C89.8103 57.3987 89.7205 56.8782 89.541 56.6089C89.3615 56.3306 89.0384 56.1915 88.5716 56.1915C88.1767 56.1915 87.8132 56.3935 87.4811 56.7974C87.158 57.2013 86.9964 57.6725 86.9964 58.211V61.9404H85.2462V54.9394ZM96.1463 54.8048C97.2144 54.8048 97.9819 55.0157 98.4486 55.4376C98.9153 55.8504 99.1487 56.5236 99.1487 57.4571V60.0555C99.1487 60.6928 99.216 61.3211 99.3506 61.9404H97.6946C97.6408 61.6442 97.6004 61.2987 97.5735 60.9037H97.5465C97.2952 61.2717 96.9541 61.559 96.5233 61.7654C96.1015 61.9718 95.6392 62.0751 95.1366 62.0751C94.4813 62.0751 93.9563 61.8956 93.5613 61.5365C93.1754 61.1685 92.9824 60.6614 92.9824 60.0151C92.9824 59.2343 93.31 58.6105 93.9652 58.1437C94.6294 57.668 95.5809 57.4302 96.8195 57.4302H97.3984V57.3898C97.3984 56.9141 97.3042 56.582 97.1157 56.3935C96.9272 56.205 96.5906 56.1107 96.1059 56.1107C95.2263 56.1107 94.3961 56.3127 93.6152 56.7166L93.3594 55.4106C94.2121 55.0067 95.1411 54.8048 96.1463 54.8048ZM94.625 59.8805C94.625 60.1677 94.7102 60.3921 94.8808 60.5537C95.0513 60.7153 95.2847 60.796 95.5809 60.796C96.0925 60.796 96.5233 60.63 96.8734 60.2979C97.2234 59.9658 97.3984 59.5484 97.3984 59.0458V58.588H96.8195C96.1104 58.588 95.5674 58.7092 95.1904 58.9515C94.8134 59.1849 94.625 59.4946 94.625 59.8805Z" fill="#03445E"/>
<path d="M57.906 11.7034L51.8322 25.4363L56.2188 24.1588L59.9306 15.3762L62.7987 21.4442L65.8356 19.528L62.2926 11.7034H57.906Z" fill="#76AF28"/>
<path d="M50.9887 27.1929C57.2311 26.7138 74.6087 16.5168 77.3082 11.2243C74.9462 15.8552 72.215 20.1607 67.8601 23.9532L71.6229 31.9767L69.2163 34.8105L64.8233 26.2936C62.3612 27.9844 59.2644 29.6919 55.2065 31.5044H49.1328L50.9887 27.1929Z" fill="#76AF28"/>
<path d="M78.6579 9.14844L73.7652 10.7453L77.3082 11.0647L79.8389 13.7793L78.6579 9.14844Z" fill="#76AF28"/>
<rect width="19.3403" height="3.77546" transform="matrix(-1 -0.000178283 0.000198156 -1 54.2109 15.4443)" fill="#03445E"/>
<rect x="43.3359" y="31.5039" width="17.7903" height="4.14947" transform="rotate(-90 43.3359 31.5039)" fill="#03445E"/>
<path d="M38.0547 4.10938L37.1589 9.32666L42.6593 10.1764L38.0547 4.10938Z" fill="#76AF28"/>
<path fill-rule="evenodd" clip-rule="evenodd" d="M72.4947 21.3064C72.4947 25.5511 70.8333 29.5003 68.0451 32.5627L69.5154 35.3523C73.2164 31.6919 75.4866 26.7477 75.4866 21.3064C75.4866 19.5624 75.2534 17.8694 74.8145 16.2534L72.4032 19.5863C72.4637 20.1532 72.4947 20.727 72.4947 21.3064ZM71.7301 16.3883L73.1233 15.287L74.2206 14.4299C71.2089 6.53384 63.1577 0.883789 53.6987 0.883789C47.0938 0.883789 41.1753 3.63857 37.1797 7.98923L39.0773 6.26078L41.2288 8.26368C44.5204 5.5464 48.8651 3.87568 53.6987 3.87568C62.3641 3.87568 69.4583 9.2453 71.7301 16.3883Z" fill="#76AF28"/>
<path fill-rule="evenodd" clip-rule="evenodd" d="M32.235 18.6531C32.6282 16.0507 33.5456 13.7211 34.8619 11.7061L37.1223 13.7244C36.1638 15.3048 35.5 17.0897 35.2052 19.0408L35.1924 19.1255L35.1748 19.2094C33.342 27.924 39.2962 36.6466 48.8418 38.4528C53.6484 39.3623 58.3234 38.3209 62.0147 35.9502L64.2955 37.9866C59.8424 41.0976 54.0771 42.4878 48.2261 41.3807C37.1937 39.2932 30.0343 29.1177 32.235 18.6531Z" fill="#03445E"/>
<path d="M65.5391 40.0283L65.8213 34.7491L60.2556 34.4813L65.5391 40.0283Z" fill="#03445E"/>
</svg>
