<svg width="26" height="25" viewBox="0 0 26 25" fill="none" xmlns="http://www.w3.org/2000/svg">
<g clip-path="url(#clip0_502_3587)">
<path d="M13 25C19.9036 25 25.5 19.4036 25.5 12.5C25.5 5.59644 19.9036 0 13 0C6.09644 0 0.5 5.59644 0.5 12.5C0.5 19.4036 6.09644 25 13 25Z" fill="#03A9F4"/>
<path d="M21.0954 7.47868C20.4863 7.74467 19.8421 7.92139 19.1826 8.00335C19.8778 7.59107 20.3975 6.93791 20.6431 6.16782C19.9924 6.55407 19.2803 6.82609 18.5378 6.9721C18.0828 6.4855 17.4919 6.14709 16.842 6.00086C16.1921 5.85464 15.5132 5.90738 14.8936 6.15222C14.2741 6.39706 13.7425 6.82267 13.3681 7.3737C12.9937 7.92472 12.7938 8.57566 12.7944 9.24184C12.7921 9.49611 12.818 9.74986 12.8717 9.99842C11.5509 9.93354 10.2587 9.59077 9.07944 8.99249C7.90016 8.3942 6.86036 7.55387 6.02796 6.52638C5.6001 7.25731 5.46754 8.12406 5.65739 8.94946C5.84723 9.77487 6.34514 10.4966 7.04934 10.9672C6.52372 10.953 6.00923 10.8125 5.54934 10.5576V10.5938C5.55082 11.36 5.81602 12.1023 6.30035 12.6959C6.78468 13.2896 7.45862 13.6984 8.20888 13.8537C7.92495 13.9283 7.63237 13.9648 7.33882 13.9622C7.12744 13.9661 6.91626 13.9474 6.70888 13.9063C6.92383 14.5652 7.33765 15.1414 7.89343 15.5555C8.4492 15.9696 9.11963 16.2013 9.8125 16.2188C8.63836 17.1366 7.19091 17.6351 5.70066 17.6349C5.43513 17.6372 5.16974 17.6218 4.90625 17.5889C6.42578 18.5686 8.19697 19.0862 10.0049 19.079C16.1151 19.079 19.4556 14.0182 19.4556 9.63164C19.4556 9.48526 19.4556 9.34381 19.4441 9.20236C20.0946 8.73285 20.6542 8.14876 21.0954 7.47868Z" fill="white"/>
</g>
<defs>
<clipPath id="clip0_502_3587">
<rect width="25" height="25" fill="white" transform="translate(0.5)"/>
</clipPath>
</defs>
</svg>
