<svg width="1600" height="700" viewBox="0 0 1600 700" fill="none" xmlns="http://www.w3.org/2000/svg">
<mask id="mask0_418_5339" style="mask-type:luminance" maskUnits="userSpaceOnUse" x="0" y="0" width="1600" height="700">
<path d="M1600 0H0V700H1600V0Z" fill="white"/>
</mask>
<g mask="url(#mask0_418_5339)">
<g opacity="0.4">
<path d="M0.843262 236.58L79.4332 168.72L213.196 357.011L323.499 275.523H507.617L686.552 349.728L706.468 461.597L906.597 178.34L1085.04 56.1152L1272.04 131.359L1449.77 3.85156L1600.36 140.477V870.413H0.843262V236.58Z" fill="url(#paint0_linear_418_5339)"/>
<path d="M2.52832 236.855L74.6872 173.453" stroke="#086738" stroke-opacity="0.3"/>
<path d="M81.3486 171.589L213.153 356.64L321.6 276.228H509.714L686.566 348.908L706.17 464.372L906.38 180.352L1088.24 55.6092L1273.01 132.929L1449.87 5.09375L1599.19 142.723" stroke="#086738" stroke-opacity="0.3"/>
<path d="M82.6393 170.964C82.6393 173.264 80.7709 175.13 78.4661 175.13C76.1614 175.13 74.293 173.264 74.293 170.964C74.293 168.663 76.1614 166.797 78.4661 166.797C80.7709 166.797 82.6393 168.663 82.6393 170.964Z" fill="white" stroke="#FE1C04" stroke-width="2"/>
<path d="M217.859 353.167C217.859 355.468 215.99 357.333 213.686 357.333C211.381 357.333 209.513 355.468 209.513 353.167C209.513 350.866 211.381 349 213.686 349C215.99 349 217.859 350.866 217.859 353.167Z" fill="white" stroke="#FE1C04" stroke-width="2"/>
<path d="M327.191 275.479C327.191 277.78 325.322 279.646 323.017 279.646C320.713 279.646 318.844 277.78 318.844 275.479C318.844 273.178 320.713 271.312 323.017 271.312C325.322 271.312 327.191 273.178 327.191 275.479Z" fill="white" stroke="#FE1C04" stroke-width="2"/>
<path d="M514.162 275.479C514.162 277.78 512.293 279.646 509.989 279.646C507.684 279.646 505.815 277.78 505.815 275.479C505.815 273.178 507.684 271.312 509.989 271.312C512.293 271.312 514.162 273.178 514.162 275.479Z" fill="white" stroke="#FE1C04" stroke-width="2"/>
<path d="M690.224 350.26C690.224 352.561 688.356 354.427 686.051 354.427C683.747 354.427 681.878 352.561 681.878 350.26C681.878 347.96 683.747 346.094 686.051 346.094C688.356 346.094 690.224 347.96 690.224 350.26Z" fill="white" stroke="#FE1C04" stroke-width="2"/>
<path d="M710.335 461.057C710.335 463.358 708.466 465.224 706.161 465.224C703.857 465.224 701.988 463.358 701.988 461.057C701.988 458.756 703.857 456.891 706.161 456.891C708.466 456.891 710.335 458.756 710.335 461.057Z" fill="white" stroke="#FE1C04" stroke-width="2"/>
<path d="M909.31 180.714C909.31 183.014 907.441 184.88 905.137 184.88C902.833 184.88 900.964 183.014 900.964 180.714C900.964 178.413 902.833 176.547 905.137 176.547C907.441 176.547 909.31 178.413 909.31 180.714Z" fill="white" stroke="#FE1C04" stroke-width="2"/>
<path d="M1091.98 56.1198C1091.98 58.421 1090.11 60.2865 1087.81 60.2865C1085.5 60.2865 1083.63 58.421 1083.63 56.1198C1083.63 53.8186 1085.5 51.9531 1087.81 51.9531C1090.11 51.9531 1091.98 53.8186 1091.98 56.1198Z" fill="white" stroke="#FE1C04" stroke-width="2"/>
<path d="M1277.82 132.01C1277.82 134.311 1275.95 136.177 1273.65 136.177C1271.35 136.177 1269.48 134.311 1269.48 132.01C1269.48 129.71 1271.35 127.844 1273.65 127.844C1275.95 127.844 1277.82 129.71 1277.82 132.01Z" fill="white" stroke="#FE1C04" stroke-width="2"/>
<path d="M1454.08 4.16667C1454.08 6.46785 1452.21 8.33334 1449.9 8.33334C1447.6 8.33334 1445.73 6.46785 1445.73 4.16667C1445.73 1.86548 1447.6 0 1449.9 0C1452.21 0 1454.08 1.86548 1454.08 4.16667Z" fill="white" stroke="#FE1C04" stroke-width="2"/>
</g>
</g>
<defs>
<linearGradient id="paint0_linear_418_5339" x1="682.944" y1="37.9164" x2="864.296" y2="919.779" gradientUnits="userSpaceOnUse">
<stop offset="0.0677083" stop-color="#52AA32" stop-opacity="0.1"/>
<stop offset="0.2" stop-color="#52AA32" stop-opacity="0.09"/>
<stop offset="0.322917" stop-color="#52AA32" stop-opacity="0.08"/>
<stop offset="0.5" stop-color="#52AA32" stop-opacity="0.07"/>
<stop offset="0.8" stop-color="#52AA32" stop-opacity="0.06"/>
<stop offset="1" stop-color="white" stop-opacity="0"/>
</linearGradient>
</defs>
</svg>
