<svg width="1918" height="679" viewBox="0 0 1918 679" fill="none" xmlns="http://www.w3.org/2000/svg">
<g clip-path="url(#clip0_399_5255)">
<g opacity="0.4">
<path d="M0 230.747L94.2104 164.922L254.56 347.565L386.787 268.521H607.5L822 340.5L845.874 449.013L1085.78 174.254L1299.69 55.6957L1523.86 128.682L1736.92 5L1917.44 137.527V845.565H0V230.747Z" fill="url(#paint0_linear_399_5255)"/>
<path d="M2 231L88.5 169.5" stroke="#086738" stroke-opacity="0.3"/>
<path d="M96.5 167.5L254.5 347L384.5 269H610L822 339.5L845.5 451.5L1085.5 176L1303.5 55L1525 130L1737 6L1916 139.5" stroke="#086738" stroke-opacity="0.3"/>
<path d="M101 167C101 169.761 98.7614 172 96 172C93.2386 172 91 169.761 91 167C91 164.239 93.2386 162 96 162C98.7614 162 101 164.239 101 167Z" fill="white" stroke="#FF0042" stroke-width="2"/>
<path d="M257 344C257 346.761 254.761 349 252 349C249.239 349 247 346.761 247 344C247 341.239 249.239 339 252 339C254.761 339 257 341.239 257 344Z" fill="white" stroke="#FF0042" stroke-width="2"/>
<path d="M388 269C388 271.761 385.761 274 383 274C380.239 274 378 271.761 378 269C378 266.239 380.239 264 383 264C385.761 264 388 266.239 388 269Z" fill="white" stroke="#FF0042" stroke-width="2"/>
<path d="M611 269C611 271.761 608.761 274 606 274C603.239 274 601 271.761 601 269C601 266.239 603.239 264 606 264C608.761 264 611 266.239 611 269Z" fill="white" stroke="#FF0042" stroke-width="2"/>
<path d="M850 447C850 449.761 847.761 452 845 452C842.239 452 840 449.761 840 447C840 444.239 842.239 442 845 442C847.761 442 850 444.239 850 447Z" fill="white" stroke="#FF0042" stroke-width="2"/>
<path d="M1089 177C1089 179.761 1086.76 182 1084 182C1081.24 182 1079 179.761 1079 177C1079 174.239 1081.24 172 1084 172C1086.76 172 1089 174.239 1089 177Z" fill="white" stroke="#FF0042" stroke-width="2"/>
<path d="M1308 56C1308 58.7614 1305.76 61 1303 61C1300.24 61 1298 58.7614 1298 56C1298 53.2386 1300.24 51 1303 51C1305.76 51 1308 53.2386 1308 56Z" fill="white" stroke="#FF0042" stroke-width="2"/>
<path d="M1528 130C1528 132.761 1525.76 135 1523 135C1520.24 135 1518 132.761 1518 130C1518 127.239 1520.24 125 1523 125C1525.76 125 1528 127.239 1528 130Z" fill="white" stroke="#FF0042" stroke-width="2"/>
</g>
<path d="M1742 6C1742 8.76142 1739.76 11 1737 11C1734.24 11 1732 8.76142 1732 6C1732 3.23858 1734.24 1 1737 1C1739.76 1 1742 3.23858 1742 6Z" fill="white" stroke="#F993AD" stroke-width="2"/>
</g>
<defs>
<linearGradient id="paint0_linear_399_5255" x1="817.674" y1="38.0429" x2="962.039" y2="905.603" gradientUnits="userSpaceOnUse">
<stop offset="0.0677083" stop-color="#52AA32" stop-opacity="0.1"/>
<stop offset="0.2" stop-color="#52AA32" stop-opacity="0.09"/>
<stop offset="0.322917" stop-color="#52AA32" stop-opacity="0.08"/>
<stop offset="0.5" stop-color="#52AA32" stop-opacity="0.07"/>
<stop offset="0.8" stop-color="#52AA32" stop-opacity="0.06"/>
<stop offset="1" stop-color="white" stop-opacity="0"/>
</linearGradient>
<clipPath id="clip0_399_5255">
<rect width="1918" height="679" fill="white"/>
</clipPath>
</defs>
</svg>
