<svg width="1775" height="700" viewBox="0 0 1775 700" fill="none" xmlns="http://www.w3.org/2000/svg">
<mask id="mask0_414_5321" style="mask-type:luminance" maskUnits="userSpaceOnUse" x="0" y="0" width="1775" height="700">
<path d="M1775 0H0V700H1775V0Z" fill="white"/>
</mask>
<g mask="url(#mask0_414_5321)">
<g opacity="0.4">
<path d="M0.928711 236.58L88.1149 168.72L236.509 357.011L358.877 275.523H563.134L761.641 349.728L783.735 461.597L1005.75 178.34L1203.72 56.1152L1411.17 131.359L1608.35 3.85156L1775.41 140.477V870.413H0.928711V236.58Z" fill="url(#paint0_linear_414_5321)"/>
<path d="M2.78467 236.855L82.8356 173.453" stroke="#086738" stroke-opacity="0.3"/>
<path d="M90.2354 171.589L236.456 356.64L356.763 276.228H565.451L761.645 348.908L783.393 464.372L1005.5 180.352L1207.25 55.6092L1412.23 132.929L1608.43 5.09375L1774.08 142.723" stroke="#086738" stroke-opacity="0.3"/>
<path d="M91.6699 170.964C91.6699 173.264 89.5971 175.13 87.0403 175.13C84.4834 175.13 82.4106 173.264 82.4106 170.964C82.4106 168.663 84.4834 166.797 87.0403 166.797C89.5971 166.797 91.6699 168.663 91.6699 170.964Z" fill="white" stroke="#FE1C04" stroke-width="2"/>
<path d="M241.672 353.167C241.672 355.468 239.599 357.333 237.043 357.333C234.486 357.333 232.413 355.468 232.413 353.167C232.413 350.866 234.486 349 237.043 349C239.599 349 241.672 350.866 241.672 353.167Z" fill="white" stroke="#FE1C04" stroke-width="2"/>
<path d="M362.967 275.479C362.967 277.78 360.894 279.646 358.337 279.646C355.781 279.646 353.708 277.78 353.708 275.479C353.708 273.178 355.781 271.312 358.337 271.312C360.894 271.312 362.967 273.178 362.967 275.479Z" fill="white" stroke="#FE1C04" stroke-width="2"/>
<path d="M570.386 275.479C570.386 277.78 568.313 279.646 565.757 279.646C563.2 279.646 561.127 277.78 561.127 275.479C561.127 273.178 563.2 271.312 565.757 271.312C568.313 271.312 570.386 273.178 570.386 275.479Z" fill="white" stroke="#FE1C04" stroke-width="2"/>
<path d="M765.734 350.26C765.734 352.561 763.661 354.427 761.105 354.427C758.548 354.427 756.475 352.561 756.475 350.26C756.475 347.96 758.548 346.094 761.105 346.094C763.661 346.094 765.734 347.96 765.734 350.26Z" fill="white" stroke="#FE1C04" stroke-width="2"/>
<path d="M787.981 461.057C787.981 463.358 785.908 465.224 783.351 465.224C780.795 465.224 778.722 463.358 778.722 461.057C778.722 458.756 780.795 456.891 783.351 456.891C785.908 456.891 787.981 458.756 787.981 461.057Z" fill="white" stroke="#FE1C04" stroke-width="2"/>
<path d="M1008.75 180.714C1008.75 183.014 1006.67 184.88 1004.12 184.88C1001.56 184.88 999.487 183.014 999.487 180.714C999.487 178.413 1001.56 176.547 1004.12 176.547C1006.67 176.547 1008.75 178.413 1008.75 180.714Z" fill="white" stroke="#FE1C04" stroke-width="2"/>
<path d="M1211.41 56.1198C1211.41 58.421 1209.34 60.2865 1206.78 60.2865C1204.23 60.2865 1202.15 58.421 1202.15 56.1198C1202.15 53.8186 1204.23 51.9531 1206.78 51.9531C1209.34 51.9531 1211.41 53.8186 1211.41 56.1198Z" fill="white" stroke="#FE1C04" stroke-width="2"/>
<path d="M1417.59 132.01C1417.59 134.311 1415.52 136.177 1412.96 136.177C1410.41 136.177 1408.33 134.311 1408.33 132.01C1408.33 129.71 1410.41 127.844 1412.96 127.844C1415.52 127.844 1417.59 129.71 1417.59 132.01Z" fill="white" stroke="#FE1C04" stroke-width="2"/>
<path d="M1613.07 4.16667C1613.07 6.46785 1611 8.33334 1608.44 8.33334C1605.88 8.33334 1603.81 6.46785 1603.81 4.16667C1603.81 1.86548 1605.88 0 1608.44 0C1611 0 1613.07 1.86548 1613.07 4.16667Z" fill="white" stroke="#FE1C04" stroke-width="2"/>
</g>
</g>
<defs>
<linearGradient id="paint0_linear_414_5321" x1="757.638" y1="37.9164" x2="922.363" y2="926.539" gradientUnits="userSpaceOnUse">
<stop offset="0.0677083" stop-color="#52AA32" stop-opacity="0.1"/>
<stop offset="0.2" stop-color="#52AA32" stop-opacity="0.09"/>
<stop offset="0.322917" stop-color="#52AA32" stop-opacity="0.08"/>
<stop offset="0.5" stop-color="#52AA32" stop-opacity="0.07"/>
<stop offset="0.8" stop-color="#52AA32" stop-opacity="0.06"/>
<stop offset="1" stop-color="white" stop-opacity="0"/>
</linearGradient>
</defs>
</svg>
