<svg width="1852" height="840" viewBox="0 0 1852 840" fill="none" xmlns="http://www.w3.org/2000/svg">
<mask id="mask0_414_5321" style="mask-type:luminance" maskUnits="userSpaceOnUse" x="0" y="0" width="1852" height="840">
<path d="M1852 0H0V840H1852V0Z" fill="white"/>
</mask>
<g mask="url(#mask0_414_5321)">
<g opacity="0.4">
<path d="M0.966309 284.22L91.9348 202.787L246.767 428.737L374.444 330.951H587.562L794.681 419.997L817.733 554.24L1049.38 214.332L1255.93 67.6616L1472.39 157.954L1678.12 4.94531L1852.43 168.896V1044.82H0.966309V284.22Z" fill="url(#paint0_linear_414_5321)"/>
<path d="M2.89746 284.536L86.4209 208.453" stroke="#086738" stroke-opacity="0.3"/>
<path d="M94.1455 205.981L246.709 428.043L372.235 331.548H589.976L794.68 418.765L817.372 557.322L1049.11 216.497L1259.61 66.8061L1473.49 159.59L1678.19 6.1875L1851.03 171.342" stroke="#086738" stroke-opacity="0.3"/>
<path d="M95.6434 204.766C95.6434 207.527 93.4807 209.766 90.8129 209.766C88.1451 209.766 85.9824 207.527 85.9824 204.766C85.9824 202.005 88.1451 199.766 90.8129 199.766C93.4807 199.766 95.6434 202.005 95.6434 204.766Z" fill="white" stroke="#FE1C04" stroke-width="2"/>
<path d="M252.15 424C252.15 426.761 249.987 429 247.32 429C244.652 429 242.489 426.761 242.489 424C242.489 421.239 244.652 419 247.32 419C249.987 419 252.15 421.239 252.15 424Z" fill="white" stroke="#FE1C04" stroke-width="2"/>
<path d="M378.708 331C378.708 333.761 376.545 336 373.878 336C371.21 336 369.047 333.761 369.047 331C369.047 328.239 371.21 326 373.878 326C376.545 326 378.708 328.239 378.708 331Z" fill="white" stroke="#FE1C04" stroke-width="2"/>
<path d="M595.114 331C595.114 333.761 592.95 336 590.283 336C587.616 336 585.453 333.761 585.453 331C585.453 328.239 587.616 326 590.283 326C592.95 326 595.114 328.239 595.114 331Z" fill="white" stroke="#FE1C04" stroke-width="2"/>
<path d="M798.959 420C798.959 422.761 796.796 425 794.128 425C791.461 425 789.298 422.761 789.298 420C789.298 417.239 791.461 415 794.128 415C796.796 415 798.959 417.239 798.959 420Z" fill="white" stroke="#FE1C04" stroke-width="2"/>
<path d="M822.145 553.766C822.145 556.527 819.982 558.766 817.315 558.766C814.647 558.766 812.484 556.527 812.484 553.766C812.484 551.005 814.647 548.766 817.315 548.766C819.982 548.766 822.145 551.005 822.145 553.766Z" fill="white" stroke="#FE1C04" stroke-width="2"/>
<path d="M1052.5 216.547C1052.5 219.308 1050.33 221.547 1047.67 221.547C1045 221.547 1042.84 219.308 1042.84 216.547C1042.84 213.786 1045 211.547 1047.67 211.547C1050.33 211.547 1052.5 213.786 1052.5 216.547Z" fill="white" stroke="#FE1C04" stroke-width="2"/>
<path d="M1263.96 66.8594C1263.96 69.6208 1261.8 71.8594 1259.13 71.8594C1256.46 71.8594 1254.3 69.6208 1254.3 66.8594C1254.3 64.098 1256.46 61.8594 1259.13 61.8594C1261.8 61.8594 1263.96 64.098 1263.96 66.8594Z" fill="white" stroke="#FE1C04" stroke-width="2"/>
<path d="M1479.09 158C1479.09 160.761 1476.92 163 1474.26 163C1471.59 163 1469.43 160.761 1469.43 158C1469.43 155.239 1471.59 153 1474.26 153C1476.92 153 1479.09 155.239 1479.09 158Z" fill="white" stroke="#FE1C04" stroke-width="2"/>
<path d="M1683.03 5C1683.03 7.76142 1680.86 10 1678.2 10C1675.53 10 1673.37 7.76142 1673.37 5C1673.37 2.23858 1675.53 0 1678.2 0C1680.86 0 1683.03 2.23858 1683.03 5Z" fill="white" stroke="#FE1C04" stroke-width="2"/>
</g>
</g>
<defs>
<linearGradient id="paint0_linear_414_5321" x1="790.503" y1="45.8231" x2="1015.43" y2="1100.86" gradientUnits="userSpaceOnUse">
<stop offset="0.0677083" stop-color="#52AA32" stop-opacity="0.1"/>
<stop offset="0.2" stop-color="#52AA32" stop-opacity="0.09"/>
<stop offset="0.322917" stop-color="#52AA32" stop-opacity="0.08"/>
<stop offset="0.5" stop-color="#52AA32" stop-opacity="0.07"/>
<stop offset="0.8" stop-color="#52AA32" stop-opacity="0.06"/>
<stop offset="1" stop-color="white" stop-opacity="0"/>
</linearGradient>
</defs>
</svg>
