<svg width="30" height="29" viewBox="0 0 30 29" fill="none" xmlns="http://www.w3.org/2000/svg">
<g clip-path="url(#clip0_437_12767)">
<path d="M20.2437 18.2432C20.1542 17.9948 19.8803 17.8661 19.632 17.9556C19.3836 18.0451 19.2549 18.319 19.3444 18.5672C19.3466 18.5734 19.349 18.5794 19.3514 18.5854C19.7873 19.7229 19.8188 20.5928 19.4374 20.9752C18.9748 21.4369 17.8224 21.2925 16.3542 20.5899C14.3885 19.5693 12.6017 18.2359 11.0637 16.6421C7.31998 12.8978 5.77527 9.22382 6.73067 8.26842C7.03554 8.02764 7.43184 7.93515 7.81181 8.01605C8.07502 8.03542 8.30415 7.83767 8.32349 7.57443C8.34219 7.32 8.15779 7.09571 7.90453 7.06493C7.24 6.94737 6.5582 7.14113 6.05486 7.5907C4.30366 9.34142 6.98066 13.9082 10.3879 17.316C12.0023 18.9865 13.8781 20.3828 15.9417 21.4498C16.3154 21.6287 16.7005 21.7828 17.0945 21.911L13.6987 23.1986C9.16417 21.4746 5.89983 17.4546 5.14341 12.6627C5.10248 12.4019 4.85791 12.2236 4.59711 12.2645C4.33633 12.3055 4.15807 12.5501 4.19897 12.8108C4.27402 13.2888 4.3744 13.7667 4.49722 14.2342C5.59783 18.4042 8.49665 21.8684 12.4073 23.687L6.81814 25.802C6.79252 25.7592 6.76025 25.7208 6.72255 25.6882C5.30209 24.5478 4.41084 22.8753 4.25635 21.0602L4.03456 18.3746C4.01712 18.1145 3.792 17.9177 3.53177 17.9351C3.52681 17.9355 3.52185 17.9358 3.51695 17.9364C3.25384 17.9573 3.05746 18.1876 3.07837 18.4507C3.07843 18.4518 3.07856 18.4529 3.07867 18.454L3.30426 21.1386C3.47226 23.0787 4.37727 24.8806 5.83311 26.1738L1.84604 27.6832L2.56297 24.7409C2.62552 24.4843 2.46827 24.2256 2.21168 24.1631C1.95507 24.1005 1.69639 24.2578 1.63383 24.5144L0.701357 28.338C0.638506 28.5943 0.795393 28.8531 1.05181 28.9159C1.14585 28.939 1.24461 28.9329 1.33512 28.8986L19.0192 22.2073C19.0474 22.1936 19.074 22.1769 19.0986 22.1576C19.4813 22.0988 19.8361 21.9219 20.1132 21.6514C20.5868 21.1778 20.9945 20.2014 20.2437 18.2432Z" fill="#FE1C04"/>
<path d="M24.7559 17.0069C22.1722 16.0396 19.3796 15.7685 16.658 16.2207L14.9503 16.5074C14.6911 16.5573 14.5214 16.8078 14.5712 17.067C14.6193 17.3174 14.8556 17.486 15.1081 17.45L16.8153 17.1656C19.3712 16.7406 21.994 16.9955 24.4204 17.9045C24.4742 17.9235 24.531 17.9331 24.5881 17.9327C24.8521 17.9331 25.0665 17.7195 25.0669 17.4555C25.0672 17.2557 24.9432 17.0767 24.7559 17.0069Z" fill="#FE1C04"/>
<path d="M26.4545 9.60856C26.341 9.37019 26.0557 9.26897 25.8174 9.38249L15.7804 14.162C15.5421 14.2754 15.4409 14.5606 15.5543 14.799C15.6678 15.0373 15.953 15.1387 16.1914 15.0252C16.1913 15.0252 16.1914 15.0252 16.1914 15.0252L26.2284 10.2457C26.4668 10.1322 26.568 9.84695 26.4545 9.60856Z" fill="#FE1C04"/>
<path d="M12.2958 3.49225C12.2432 3.23357 11.9909 3.06646 11.7323 3.11905C11.4735 3.1716 11.3065 3.42392 11.359 3.6826C11.3602 3.68833 11.3615 3.69401 11.3628 3.69969C11.9678 6.40243 11.7185 9.2264 10.6493 11.7813L9.95434 13.4489C9.8539 13.6919 9.96857 13.9703 10.211 14.0721C10.2691 14.0966 10.3315 14.1091 10.3945 14.1089C10.5874 14.1089 10.7614 13.993 10.8357 13.815L11.5311 12.1493C12.6767 9.41255 12.9439 6.38748 12.2958 3.49225Z" fill="#FE1C04"/>
<path d="M26.9768 17.4531C26.1849 17.4531 25.543 18.0951 25.543 18.887C25.543 19.6789 26.1849 20.3208 26.9768 20.3208C27.7687 20.3208 28.4107 19.6789 28.4107 18.887C28.4107 18.0951 27.7687 17.4531 26.9768 17.4531ZM26.9768 19.3649C26.7129 19.3649 26.4989 19.1509 26.4989 18.887C26.4989 18.623 26.7129 18.409 26.9768 18.409C27.2408 18.409 27.4548 18.623 27.4548 18.887C27.4548 19.1509 27.2408 19.3649 26.9768 19.3649Z" fill="#FE1C04"/>
<path d="M15.5081 4.07812C14.7161 4.07812 14.0742 4.72008 14.0742 5.51198C14.0742 6.30389 14.7161 6.94582 15.5081 6.94582C16.3 6.94582 16.9419 6.30389 16.9419 5.51198C16.9419 4.72008 16.3 4.07812 15.5081 4.07812ZM15.5081 5.98993C15.2441 5.98993 15.0301 5.77592 15.0301 5.51198C15.0301 5.24803 15.2441 5.03404 15.5081 5.03404C15.772 5.03404 15.986 5.24803 15.986 5.51198C15.986 5.77592 15.772 5.98993 15.5081 5.98993Z" fill="#FE1C04"/>
<path d="M11.2059 2.16179C11.7338 2.16179 12.1618 1.73383 12.1618 1.2059C12.1618 0.677969 11.7338 0.25 11.2059 0.25C10.678 0.25 10.25 0.677969 10.25 1.2059C10.25 1.73383 10.678 2.16179 11.2059 2.16179Z" fill="#FE1C04"/>
<path d="M24.5873 2.64062C24.3234 2.64062 24.1094 2.85463 24.1094 3.11857V3.59652C24.1094 3.86048 24.3234 4.07446 24.5873 4.07446C24.8513 4.07446 25.0653 3.86048 25.0653 3.59652V3.11857C25.0653 2.85463 24.8513 2.64062 24.5873 2.64062Z" fill="#FE1C04"/>
<path d="M24.5873 0.25C24.3234 0.25 24.1094 0.464001 24.1094 0.727949V1.2059C24.1094 1.46984 24.3234 1.68385 24.5873 1.68385C24.8513 1.68385 25.0653 1.46984 25.0653 1.2059V0.727949C25.0653 0.464001 24.8513 0.25 24.5873 0.25Z" fill="#FE1C04"/>
<path d="M26.0223 1.67969H25.5443C25.2804 1.67969 25.0664 1.89369 25.0664 2.15763C25.0664 2.42158 25.2804 2.63558 25.5443 2.63558H26.0223C26.2863 2.63558 26.5003 2.42158 26.5003 2.15763C26.5003 1.89369 26.2863 1.67969 26.0223 1.67969Z" fill="#FE1C04"/>
<path d="M23.6317 1.67969H23.1537C22.8898 1.67969 22.6758 1.89369 22.6758 2.15763C22.6758 2.42158 22.8898 2.63558 23.1537 2.63558H23.6317C23.8956 2.63558 24.1096 2.42158 24.1096 2.15763C24.1096 1.89369 23.8956 1.67969 23.6317 1.67969Z" fill="#FE1C04"/>
<path d="M21.241 5.5H18.8412C18.5773 5.5 18.3633 5.71401 18.3633 5.97794V8.37773C18.3633 8.64166 18.5773 8.85567 18.8412 8.85567H21.241C21.5049 8.85567 21.719 8.64166 21.719 8.37773V5.97794C21.719 5.71401 21.5049 5.5 21.241 5.5ZM20.763 7.89979H19.3192V6.45589H20.763V7.89979Z" fill="#FE1C04"/>
<path d="M17.7593 9.48713C17.5838 9.29985 17.2918 9.28453 17.0977 9.45247L12.3182 13.754C12.1222 13.9306 12.1063 14.2327 12.2829 14.4289C12.4595 14.625 12.7616 14.6408 12.9577 14.4643L17.7372 10.1627C17.9299 9.98223 17.9398 9.6798 17.7593 9.48713Z" fill="#FE1C04"/>
<path d="M26.4975 11.2422C26.2335 11.2422 26.0195 11.4562 26.0195 11.7201V12.1981C26.0195 12.462 26.2335 12.676 26.4975 12.676C26.7614 12.676 26.9754 12.462 26.9754 12.1981V11.7201C26.9754 11.4562 26.7614 11.2422 26.4975 11.2422Z" fill="#FE1C04"/>
<path d="M28.5268 11.1596L28.1889 10.8217C27.999 10.6383 27.6965 10.6436 27.5131 10.8334C27.3342 11.0186 27.3342 11.3122 27.5131 11.4975L27.851 11.8354C28.0408 12.0188 28.3434 12.0136 28.5268 11.8237C28.7057 11.6385 28.7057 11.3448 28.5268 11.1596Z" fill="#FE1C04"/>
<path d="M28.8895 9.33594H28.4115C28.1476 9.33594 27.9336 9.54992 27.9336 9.81388C27.9336 10.0778 28.1476 10.2918 28.4115 10.2918H28.8895C29.1534 10.2918 29.3674 10.0778 29.3674 9.81388C29.3674 9.54992 29.1534 9.33594 28.8895 9.33594Z" fill="#FE1C04"/>
<path d="M28.517 7.78259C28.3318 7.60372 28.0381 7.60372 27.8528 7.78259L27.5149 8.12051C27.3283 8.30721 27.3284 8.60981 27.5151 8.79646C27.6047 8.88599 27.7262 8.93637 27.8528 8.93637C27.9796 8.93637 28.1011 8.88593 28.1908 8.79631L28.5287 8.45842C28.7121 8.26854 28.7068 7.96594 28.517 7.78259Z" fill="#FE1C04"/>
<path d="M26.4975 6.94531C26.2335 6.94531 26.0195 7.15933 26.0195 7.42326V7.90123C26.0195 8.16516 26.2335 8.37917 26.4975 8.37917C26.7614 8.37917 26.9754 8.16516 26.9754 7.90123V7.42326C26.9754 7.15933 26.7614 6.94531 26.4975 6.94531Z" fill="#FE1C04"/>
<path d="M25.4838 8.12053L25.1459 7.78261C24.9561 7.59926 24.6535 7.60446 24.4701 7.79431C24.2912 7.97952 24.2912 8.27315 24.4701 8.45841L24.808 8.79633C24.9979 8.97973 25.3004 8.97448 25.4838 8.78463C25.6628 8.59936 25.6628 8.30571 25.4838 8.12053Z" fill="#FE1C04"/>
<path d="M6.40006 2.31853C6.3438 2.14563 6.19425 2.01969 6.01437 1.99353L4.61158 1.78944L3.98595 0.518578C3.8465 0.281814 3.54151 0.202893 3.30475 0.342334C3.23198 0.38517 3.17134 0.44581 3.12851 0.518578L2.5 1.78944L1.09722 1.99353C0.835966 2.03123 0.654763 2.27361 0.692462 2.53486C0.707457 2.63888 0.756327 2.73501 0.831485 2.80843L1.84617 3.7978L1.60719 5.19482C1.56131 5.45476 1.73481 5.70271 1.99475 5.74859C2.09942 5.76706 2.2072 5.75013 2.30118 5.7005L3.5558 5.03901L4.81042 5.69858C5.04406 5.82142 5.33303 5.73163 5.45587 5.49797C5.50482 5.40493 5.52166 5.29841 5.5039 5.19482L5.26493 3.7978L6.28011 2.80843C6.41004 2.68124 6.45652 2.49137 6.40006 2.31853ZM4.4161 3.28875C4.30353 3.3984 4.25209 3.55636 4.27846 3.71127L4.39697 4.40191L3.77805 4.07547C3.63889 4.0024 3.47269 4.0024 3.33355 4.07547L2.71221 4.40142L2.83074 3.71078C2.85757 3.55647 2.80703 3.39874 2.69549 3.28875L2.19316 2.79983L2.88666 2.69898C3.04236 2.6764 3.17696 2.5786 3.24656 2.43754L3.5558 1.81L3.86549 2.43754C3.93503 2.57848 4.06941 2.67622 4.22493 2.69898L4.91794 2.79983L4.4161 3.28875Z" fill="#FE1C04"/>
<path d="M27.7544 24.2082H27.7525L27.5556 23.9128C26.4514 22.2617 24.7152 21.139 22.7565 20.8095C22.4951 20.7722 22.2531 20.9539 22.2158 21.2152C22.1798 21.4677 22.3483 21.704 22.5987 21.7521C24.0116 21.9919 25.2991 22.7096 26.246 23.7852C25.4499 23.9285 24.7536 24.4066 24.3342 25.0982C23.8194 26.0201 24.1495 27.1847 25.0714 27.6994C25.9933 28.2142 27.1579 27.8841 27.6727 26.9622C27.8693 26.5826 27.9754 26.1627 27.9828 25.7353C28.4914 26.4739 28.5321 27.4384 28.0875 28.2173C27.9529 28.4443 28.0277 28.7375 28.2547 28.8722C28.4817 29.007 28.775 28.932 28.9097 28.705C28.9139 28.6976 28.9181 28.6903 28.922 28.6828C29.7972 27.1197 29.2817 25.1445 27.7544 24.2082ZM26.8391 26.4957C26.584 26.9579 26.0025 27.1258 25.5404 26.8707C25.0782 26.6156 24.9102 26.0341 25.1653 25.5719C25.1668 25.5694 25.1682 25.5667 25.1696 25.5642C25.4517 25.1023 25.9274 24.7928 26.4639 24.722C26.547 24.7198 26.6293 24.7389 26.7029 24.7775C27.1063 25.0026 27.1278 25.9786 26.8391 26.4957Z" fill="#FE1C04"/>
</g>
<defs>
<clipPath id="clip0_437_12767">
<rect width="28.6881" height="28.6881" fill="white" transform="translate(0.683594 0.25)"/>
</clipPath>
</defs>
</svg>
