<svg width="30" height="30" viewBox="0 0 30 30" fill="none" xmlns="http://www.w3.org/2000/svg">
<g clip-path="url(#clip0_437_12863)">
<path d="M20.3804 18.4385C20.2909 18.1901 20.017 18.0614 19.7687 18.1509C19.5204 18.2404 19.3916 18.5143 19.4811 18.7626C19.4833 18.7687 19.4857 18.7747 19.4881 18.7807C19.924 19.9182 19.9556 20.7881 19.5741 21.1705C19.1115 21.6322 17.9592 21.4878 16.4909 20.7852C14.5252 19.7646 12.7385 18.4312 11.2005 16.8374C7.4567 13.0931 5.91199 9.41914 6.86739 8.46374C7.17226 8.22296 7.56855 8.13047 7.94853 8.21137C8.21174 8.23073 8.44087 8.03298 8.46021 7.76974C8.47891 7.51531 8.29451 7.29102 8.04125 7.26024C7.37672 7.14268 6.69492 7.33644 6.19158 7.78601C4.44038 9.53673 7.11738 14.1035 10.5247 17.5113C12.139 19.1818 14.0148 20.5781 16.0784 21.6451C16.4521 21.824 16.8372 21.9781 17.2312 22.1063L13.8354 23.3939C9.30089 21.6699 6.03655 17.6499 5.28013 12.858C5.2392 12.5972 4.99463 12.4189 4.73383 12.4598C4.47305 12.5008 4.29478 12.7454 4.33569 13.0062C4.41074 13.4841 4.51112 13.962 4.63393 14.4295C5.73455 18.5995 8.63337 22.0638 12.544 23.8824L6.95486 25.9973C6.92924 25.9545 6.89697 25.9161 6.85927 25.8835C5.43881 24.7431 4.54755 23.0706 4.39307 21.2556L4.17128 18.5699C4.15384 18.3098 3.92872 18.113 3.66849 18.1304C3.66353 18.1308 3.65857 18.1311 3.65367 18.1317C3.39056 18.1526 3.19418 18.3829 3.21509 18.646C3.21515 18.6471 3.21527 18.6482 3.21539 18.6493L3.44098 21.3339C3.60898 23.274 4.51399 25.0759 5.96982 26.3691L1.98276 27.8785L2.69969 24.9362C2.76224 24.6796 2.60499 24.4209 2.34839 24.3584C2.09179 24.2958 1.8331 24.4531 1.77055 24.7097L0.838075 28.5333C0.775225 28.7896 0.932112 29.0484 1.18853 29.1112C1.28257 29.1343 1.38132 29.1282 1.47184 29.0939L19.1559 22.4026C19.1841 22.3889 19.2107 22.3722 19.2353 22.3529C19.618 22.2941 19.9728 22.1172 20.25 21.8468C20.7235 21.3731 21.1313 20.3967 20.3804 18.4385Z" fill="#52AA32"/>
<path d="M24.8926 17.2022C22.3089 16.235 19.5163 15.9638 16.7948 16.416L15.087 16.7027C14.8278 16.7526 14.6581 17.0031 14.7079 17.2623C14.7561 17.5128 14.9923 17.6813 15.2448 17.6453L16.952 17.3609C19.5079 16.9359 22.1307 17.1908 24.5571 18.0998C24.6109 18.1188 24.6677 18.1284 24.7249 18.128C24.9888 18.1284 25.2032 17.9148 25.2036 17.6508C25.204 17.451 25.0799 17.272 24.8926 17.2022Z" fill="#52AA32"/>
<path d="M26.5912 9.80387C26.4777 9.5655 26.1925 9.46429 25.9541 9.57781L15.9172 14.3573C15.6788 14.4708 15.5776 14.7559 15.691 14.9943C15.8045 15.2326 16.0897 15.334 16.3281 15.2205C16.328 15.2205 16.3281 15.2205 16.3281 15.2205L26.3651 10.441C26.6035 10.3275 26.7047 10.0423 26.5912 9.80387Z" fill="#52AA32"/>
<path d="M12.4325 3.68756C12.3799 3.42888 12.1277 3.26177 11.869 3.31436C11.6103 3.36692 11.4432 3.61923 11.4957 3.87791C11.4969 3.88365 11.4982 3.88933 11.4996 3.89501C12.1045 6.59774 11.8552 9.42171 10.786 11.9766L10.0911 13.6442C9.99062 13.8872 10.1053 14.1656 10.3477 14.2674C10.4058 14.2919 10.4682 14.3044 10.5312 14.3043C10.7241 14.3043 10.8981 14.1884 10.9724 14.0103L11.6678 12.3447C12.8134 9.60787 13.0806 6.58279 12.4325 3.68756Z" fill="#52AA32"/>
<path d="M27.1135 17.6484C26.3216 17.6484 25.6797 18.2904 25.6797 19.0823C25.6797 19.8742 26.3216 20.5161 27.1135 20.5161C27.9055 20.5161 28.5474 19.8742 28.5474 19.0823C28.5474 18.2904 27.9055 17.6484 27.1135 17.6484ZM27.1135 19.5602C26.8496 19.5602 26.6356 19.3462 26.6356 19.0823C26.6356 18.8183 26.8496 18.6044 27.1135 18.6044C27.3775 18.6044 27.5915 18.8183 27.5915 19.0823C27.5915 19.3462 27.3775 19.5602 27.1135 19.5602Z" fill="#52AA32"/>
<path d="M15.6448 4.27344C14.8529 4.27344 14.2109 4.91539 14.2109 5.7073C14.2109 6.4992 14.8529 7.14113 15.6448 7.14113C16.4367 7.14113 17.0786 6.4992 17.0786 5.7073C17.0786 4.91539 16.4367 4.27344 15.6448 4.27344ZM15.6448 6.18524C15.3808 6.18524 15.1668 5.97123 15.1668 5.7073C15.1668 5.44334 15.3808 5.22935 15.6448 5.22935C15.9087 5.22935 16.1227 5.44334 16.1227 5.7073C16.1227 5.97123 15.9087 6.18524 15.6448 6.18524Z" fill="#52AA32"/>
<path d="M11.3426 2.35711C11.8705 2.35711 12.2985 1.92914 12.2985 1.40121C12.2985 0.873282 11.8705 0.445312 11.3426 0.445312C10.8147 0.445312 10.3867 0.873282 10.3867 1.40121C10.3867 1.92914 10.8147 2.35711 11.3426 2.35711Z" fill="#52AA32"/>
<path d="M24.724 2.83594C24.4601 2.83594 24.2461 3.04994 24.2461 3.31389V3.79183C24.2461 4.05579 24.4601 4.26977 24.724 4.26977C24.988 4.26977 25.202 4.05579 25.202 3.79183V3.31389C25.202 3.04994 24.988 2.83594 24.724 2.83594Z" fill="#52AA32"/>
<path d="M24.724 0.445312C24.4601 0.445312 24.2461 0.659314 24.2461 0.923262V1.40121C24.2461 1.66516 24.4601 1.87916 24.724 1.87916C24.988 1.87916 25.202 1.66516 25.202 1.40121V0.923262C25.202 0.659314 24.988 0.445312 24.724 0.445312Z" fill="#52AA32"/>
<path d="M26.159 1.875H25.6811C25.4171 1.875 25.2031 2.089 25.2031 2.35295C25.2031 2.61689 25.4171 2.8309 25.6811 2.8309H26.159C26.423 2.8309 26.637 2.61689 26.637 2.35295C26.637 2.089 26.423 1.875 26.159 1.875Z" fill="#52AA32"/>
<path d="M23.7684 1.875H23.2904C23.0265 1.875 22.8125 2.089 22.8125 2.35295C22.8125 2.61689 23.0265 2.8309 23.2904 2.8309H23.7684C24.0323 2.8309 24.2464 2.61689 24.2464 2.35295C24.2464 2.089 24.0323 1.875 23.7684 1.875Z" fill="#52AA32"/>
<path d="M21.3777 5.69531H18.9779C18.714 5.69531 18.5 5.90933 18.5 6.17326V8.57304C18.5 8.83697 18.714 9.05099 18.9779 9.05099H21.3777C21.6417 9.05099 21.8557 8.83697 21.8557 8.57304V6.17326C21.8557 5.90933 21.6417 5.69531 21.3777 5.69531ZM20.8998 8.0951H19.4559V6.6512H20.8998V8.0951Z" fill="#52AA32"/>
<path d="M17.896 9.68244C17.7205 9.49517 17.4285 9.47985 17.2345 9.64779L12.455 13.9493C12.2589 14.1259 12.243 14.4281 12.4196 14.6242C12.5962 14.8203 12.8983 14.8361 13.0944 14.6596L17.8739 10.358C18.0666 10.1775 18.0765 9.87511 17.896 9.68244Z" fill="#52AA32"/>
<path d="M26.6342 11.4375C26.3703 11.4375 26.1562 11.6515 26.1562 11.9154V12.3934C26.1562 12.6573 26.3703 12.8714 26.6342 12.8714C26.8982 12.8714 27.1122 12.6573 27.1122 12.3934V11.9154C27.1122 11.6515 26.8982 11.4375 26.6342 11.4375Z" fill="#52AA32"/>
<path d="M28.6635 11.3549L28.3256 11.017C28.1358 10.8336 27.8332 10.8389 27.6498 11.0287C27.4709 11.2139 27.4709 11.5076 27.6498 11.6928L27.9877 12.0307C28.1776 12.2141 28.4801 12.2089 28.6635 12.019C28.8425 11.8338 28.8425 11.5401 28.6635 11.3549Z" fill="#52AA32"/>
<path d="M29.0262 9.53125H28.5483C28.2843 9.53125 28.0703 9.74523 28.0703 10.0092C28.0703 10.2731 28.2843 10.4871 28.5483 10.4871H29.0262C29.2902 10.4871 29.5041 10.2731 29.5041 10.0092C29.5041 9.74523 29.2902 9.53125 29.0262 9.53125Z" fill="#52AA32"/>
<path d="M28.6537 7.9779C28.4685 7.79903 28.1748 7.79903 27.9896 7.9779L27.6516 8.31582C27.465 8.50252 27.4651 8.80512 27.6518 8.99177C27.7414 9.0813 27.8629 9.13168 27.9896 9.13168C28.1163 9.13168 28.2379 9.08125 28.3275 8.99163L28.6654 8.65374C28.8488 8.46385 28.8435 8.16125 28.6537 7.9779Z" fill="#52AA32"/>
<path d="M26.6342 7.14062C26.3703 7.14062 26.1562 7.35464 26.1562 7.61857V8.09654C26.1562 8.36047 26.3703 8.57448 26.6342 8.57448C26.8982 8.57448 27.1122 8.36047 27.1122 8.09654V7.61857C27.1122 7.35464 26.8982 7.14062 26.6342 7.14062Z" fill="#52AA32"/>
<path d="M25.6206 8.31584L25.2826 7.97792C25.0928 7.79458 24.7902 7.79977 24.6068 7.98963C24.4279 8.17484 24.4279 8.46846 24.6068 8.65373L24.9447 8.99164C25.1346 9.17505 25.4371 9.1698 25.6206 8.97994C25.7995 8.79467 25.7995 8.50102 25.6206 8.31584Z" fill="#52AA32"/>
<path d="M6.53678 2.51384C6.48052 2.34095 6.33097 2.21501 6.15109 2.18884L4.7483 1.98476L4.12267 0.71389C3.98322 0.477127 3.67823 0.398205 3.44147 0.537647C3.3687 0.580483 3.30806 0.641123 3.26523 0.71389L2.63672 1.98476L1.23394 2.18884C0.972684 2.22654 0.791482 2.46892 0.82918 2.73018C0.844176 2.83419 0.893046 2.93032 0.968204 3.00374L1.98289 3.99311L1.74391 5.39013C1.69803 5.65007 1.87153 5.89803 2.13147 5.9439C2.23614 5.96237 2.34392 5.94545 2.4379 5.89582L3.69252 5.23433L4.94714 5.8939C5.18078 6.01674 5.46975 5.92694 5.59259 5.69328C5.64154 5.60024 5.65838 5.49372 5.64062 5.39013L5.40165 3.99311L6.41683 3.00374C6.54676 2.87655 6.59323 2.68668 6.53678 2.51384ZM4.55282 3.48407C4.44025 3.59371 4.38881 3.75167 4.41518 3.90658L4.53369 4.59722L3.91477 4.27078C3.7756 4.19771 3.60941 4.19771 3.47027 4.27078L2.84893 4.59673L2.96746 3.9061C2.99429 3.75178 2.94374 3.59406 2.83221 3.48407L2.32988 2.99514L3.02338 2.89429C3.17908 2.87171 3.31368 2.77391 3.38328 2.63285L3.69252 2.00531L4.00221 2.63285C4.07175 2.77379 4.20613 2.87153 4.36164 2.89429L5.05466 2.99514L4.55282 3.48407Z" fill="#52AA32"/>
<path d="M27.8911 24.4035H27.8892L27.6923 24.1082C26.5882 22.457 24.8519 21.3343 22.8932 21.0049C22.6319 20.9676 22.3898 21.1492 22.3525 21.4105C22.3165 21.663 22.485 21.8993 22.7355 21.9474C24.1483 22.1872 25.4358 22.9049 26.3827 23.9806C25.5866 24.1238 24.8904 24.6019 24.4709 25.2935C23.9562 26.2154 24.2862 27.38 25.2081 27.8947C26.13 28.4095 27.2946 28.0794 27.8094 27.1575C28.006 26.7779 28.1121 26.358 28.1196 25.9306C28.6281 26.6692 28.6688 27.6338 28.2242 28.4126C28.0896 28.6396 28.1644 28.9328 28.3915 29.0675C28.6185 29.2023 28.9117 29.1273 29.0464 28.9003C29.0507 28.893 29.0548 28.8856 29.0587 28.8781C29.934 27.315 29.4184 25.3398 27.8911 24.4035ZM26.9758 26.691C26.7207 27.1532 26.1392 27.3211 25.6771 27.066C25.2149 26.8109 25.0469 26.2294 25.3021 25.7672C25.3035 25.7647 25.3049 25.7621 25.3063 25.7595C25.5884 25.2977 26.0641 24.9881 26.6006 24.9173C26.6837 24.9151 26.766 24.9342 26.8396 24.9728C27.243 25.1979 27.2645 26.1739 26.9758 26.691Z" fill="#52AA32"/>
</g>
<defs>
<clipPath id="clip0_437_12863">
<rect width="28.6881" height="28.6881" fill="white" transform="translate(0.820312 0.445312)"/>
</clipPath>
</defs>
</svg>
