<svg width="60" height="60" viewBox="0 0 60 60" fill="none" xmlns="http://www.w3.org/2000/svg">
<g clip-path="url(#clip0_657_38)">
<path d="M40.9107 37.6271C40.7235 37.1076 40.1508 36.8384 39.6315 37.0256C39.112 37.2128 38.8428 37.7855 39.0299 38.3048C39.0345 38.3176 39.0394 38.3302 39.0445 38.3428C39.9562 40.7218 40.0222 42.5412 39.2245 43.3409C38.2569 44.3065 35.8468 44.0046 32.776 42.5352C28.6648 40.4005 24.9279 37.6118 21.7113 34.2784C13.8813 26.4474 10.6506 18.7634 12.6488 16.7652C13.2864 16.2617 14.1153 16.0682 14.91 16.2374C15.4605 16.2779 15.9397 15.8643 15.9801 15.3138C16.0193 14.7816 15.6336 14.3126 15.1039 14.2482C13.7141 14.0023 12.2881 14.4075 11.2354 15.3478C7.57281 19.0094 13.1717 28.5606 20.2979 35.6878C23.6742 39.1817 27.5974 42.102 31.9133 44.3335C32.6949 44.7077 33.5003 45.03 34.3244 45.2981L27.2221 47.991C17.7384 44.3854 10.9112 35.9777 9.32913 25.9556C9.24351 25.4102 8.73201 25.0374 8.18655 25.1229C7.64115 25.2086 7.26831 25.7201 7.35387 26.2655C7.51083 27.2651 7.72077 28.2647 7.97763 29.2424C10.2795 37.9638 16.3423 45.2091 24.5212 49.0126L12.8318 53.4359C12.7782 53.3464 12.7107 53.2662 12.6318 53.198C9.66099 50.8128 7.79697 47.3148 7.47387 43.5188L7.01001 37.902C6.97353 37.3578 6.50271 36.9462 5.95844 36.9827C5.94807 36.9834 5.9377 36.9842 5.92745 36.9854C5.37717 37.0291 4.96645 37.5108 5.01018 38.061C5.01031 38.0633 5.01056 38.0656 5.01081 38.0679L5.48262 43.6827C5.83399 47.7403 7.72677 51.5088 10.7716 54.2136L2.43281 57.3704L3.93223 51.2168C4.06305 50.6801 3.73418 50.1391 3.19752 50.0082C2.66085 49.8774 2.11981 50.2063 1.98899 50.743L0.038746 58.7398C-0.0927026 59.276 0.235419 59.8173 0.771711 59.9486C0.968385 59.9968 1.17493 59.9841 1.36423 59.9124L38.3498 45.9178C38.4087 45.8891 38.4643 45.8542 38.5158 45.8139C39.3162 45.6909 40.0582 45.3208 40.6379 44.7553C41.6284 43.7647 42.4811 41.7225 40.9107 37.6271Z" fill="#50C9C0"/>
<path d="M50.3445 35.0495C44.9407 33.0265 39.1001 32.4594 33.4081 33.4051L29.8365 34.0049C29.2943 34.1091 28.9393 34.633 29.0435 35.1752C29.1443 35.699 29.6384 36.0515 30.1664 35.9761L33.737 35.3814C39.0826 34.4926 44.5681 35.0256 49.6428 36.9268C49.7554 36.9666 49.8742 36.9866 49.9936 36.9858C50.5457 36.9866 50.994 36.5399 50.9949 35.9878C50.9956 35.5698 50.7363 35.1955 50.3445 35.0495Z" fill="#50C9C0"/>
<path d="M53.8984 19.5624C53.661 19.0638 53.0645 18.8521 52.5659 19.0896L31.5741 29.0857C31.0757 29.323 30.8639 29.9193 31.1012 30.4179C31.3385 30.9163 31.935 31.1284 32.4335 30.8911C32.4334 30.8911 32.4337 30.8911 32.4335 30.8911L53.4256 20.8948C53.9242 20.6575 54.1358 20.061 53.8984 19.5624Z" fill="#50C9C0"/>
<path d="M24.2876 6.78417C24.1776 6.24315 23.65 5.89365 23.109 6.00363C22.5679 6.11355 22.2184 6.64125 22.3284 7.18227C22.3308 7.19427 22.3335 7.20615 22.3363 7.21803C23.6016 12.8707 23.0802 18.7769 20.844 24.1204L19.3905 27.6081C19.1805 28.1163 19.4203 28.6986 19.9273 28.9116C20.0488 28.9627 20.1793 28.9888 20.3112 28.9885C20.7146 28.9885 21.0785 28.7461 21.2338 28.3738L22.6882 24.8901C25.0842 19.1662 25.6431 12.8394 24.2876 6.78417Z" fill="#50C9C0"/>
<path d="M54.993 35.9863C53.3368 35.9863 51.9941 37.3289 51.9941 38.9852C51.9941 40.6414 53.3368 41.984 54.993 41.984C56.6492 41.984 57.9918 40.6414 57.9918 38.9852C57.9918 37.3289 56.6492 35.9863 54.993 35.9863ZM54.993 39.9848C54.4409 39.9848 53.9934 39.5372 53.9934 38.9852C53.9934 38.4331 54.4409 37.9856 54.993 37.9856C55.545 37.9856 55.9926 38.4331 55.9926 38.9852C55.9926 39.5372 55.545 39.9848 54.993 39.9848Z" fill="#50C9C0"/>
<path d="M31.0008 7.99707C29.3445 7.99707 28.002 9.33969 28.002 10.9959C28.002 12.6522 29.3445 13.9947 31.0008 13.9947C32.657 13.9947 33.9996 12.6522 33.9996 10.9959C33.9996 9.33969 32.657 7.99707 31.0008 7.99707ZM31.0008 11.9955C30.4488 11.9955 30.0012 11.5479 30.0012 10.9959C30.0012 10.4439 30.4488 9.99633 31.0008 9.99633C31.5528 9.99633 32.0004 10.4439 32.0004 10.9959C32.0004 11.5479 31.5528 11.9955 31.0008 11.9955Z" fill="#50C9C0"/>
<path d="M22.0031 3.99844C23.1072 3.99844 24.0023 3.10336 24.0023 1.99922C24.0023 0.89508 23.1072 0 22.0031 0C20.899 0 20.0039 0.89508 20.0039 1.99922C20.0039 3.10336 20.899 3.99844 22.0031 3.99844Z" fill="#50C9C0"/>
<path d="M49.9937 4.99805C49.4417 4.99805 48.9941 5.44562 48.9941 5.99766V6.99726C48.9941 7.54932 49.4417 7.99686 49.9937 7.99686C50.5458 7.99686 50.9933 7.54932 50.9933 6.99726V5.99766C50.9933 5.44562 50.5458 4.99805 49.9937 4.99805Z" fill="#50C9C0"/>
<path d="M49.9937 0C49.4417 0 48.9941 0.447575 48.9941 0.999612V1.99922C48.9941 2.55125 49.4417 2.99883 49.9937 2.99883C50.5458 2.99883 50.9933 2.55125 50.9933 1.99922V0.999612C50.9933 0.447575 50.5458 0 49.9937 0Z" fill="#50C9C0"/>
<path d="M52.9914 2.99902H51.9918C51.4398 2.99902 50.9922 3.4466 50.9922 3.99863C50.9922 4.55067 51.4398 4.99824 51.9918 4.99824H52.9914C53.5434 4.99824 53.991 4.55067 53.991 3.99863C53.991 3.4466 53.5434 2.99902 52.9914 2.99902Z" fill="#50C9C0"/>
<path d="M47.9954 2.99902H46.9957C46.4437 2.99902 45.9961 3.4466 45.9961 3.99863C45.9961 4.55067 46.4437 4.99824 46.9957 4.99824H47.9954C48.5474 4.99824 48.995 4.55067 48.995 3.99863C48.995 3.4466 48.5474 2.99902 47.9954 2.99902Z" fill="#50C9C0"/>
<path d="M42.9971 10.9746H37.9781C37.4261 10.9746 36.9785 11.4222 36.9785 11.9742V16.9933C36.9785 17.5453 37.4261 17.9929 37.9781 17.9929H42.9971C43.5492 17.9929 43.9968 17.5453 43.9968 16.9933V11.9742C43.9968 11.4222 43.5492 10.9746 42.9971 10.9746ZM41.9975 15.9937H38.9777V12.9738H41.9975V15.9937Z" fill="#50C9C0"/>
<path d="M35.7142 19.3221C35.3472 18.9304 34.7365 18.8984 34.3306 19.2496L24.3345 28.2461C23.9244 28.6155 23.8913 29.2473 24.2605 29.6576C24.6299 30.0677 25.2618 30.1008 25.672 29.7315L35.6681 20.735C36.0711 20.3576 36.0917 19.725 35.7142 19.3221Z" fill="#50C9C0"/>
<path d="M53.9919 22.9912C53.4398 22.9912 52.9922 23.4388 52.9922 23.9908V24.9905C52.9922 25.5425 53.4398 25.9901 53.9919 25.9901C54.5439 25.9901 54.9914 25.5425 54.9914 24.9905V23.9908C54.9914 23.4388 54.5439 22.9912 53.9919 22.9912Z" fill="#50C9C0"/>
<path d="M58.2328 22.8185L57.5261 22.1117C57.129 21.7281 56.4962 21.7391 56.1126 22.1362C55.7385 22.5236 55.7385 23.1377 56.1126 23.5252L56.8193 24.2319C57.2164 24.6155 57.8492 24.6045 58.2328 24.2074C58.607 23.8199 58.607 23.2058 58.2328 22.8185Z" fill="#50C9C0"/>
<path d="M58.9894 18.9922H57.9898C57.4378 18.9922 56.9902 19.4397 56.9902 19.9918C56.9902 20.5438 57.4378 20.9914 57.9898 20.9914H58.9894C59.5415 20.9914 59.989 20.5438 59.989 19.9918C59.989 19.4397 59.5415 18.9922 58.9894 18.9922Z" fill="#50C9C0"/>
<path d="M58.2087 15.7523C57.8213 15.3782 57.2072 15.3782 56.8197 15.7523L56.113 16.459C55.7227 16.8495 55.7228 17.4824 56.1133 17.8727C56.3006 18.06 56.5548 18.1653 56.8197 18.1653C57.0848 18.1653 57.339 18.0599 57.5264 17.8724L58.2332 17.1657C58.6168 16.7686 58.6058 16.1357 58.2087 15.7523Z" fill="#50C9C0"/>
<path d="M53.9919 13.9941C53.4398 13.9941 52.9922 14.4417 52.9922 14.9937V15.9934C52.9922 16.5454 53.4398 16.993 53.9919 16.993C54.5439 16.993 54.9914 16.5454 54.9914 15.9934V14.9937C54.9914 14.4417 54.5439 13.9941 53.9919 13.9941Z" fill="#50C9C0"/>
<path d="M51.8695 16.459L51.1628 15.7523C50.7657 15.3688 50.1329 15.3797 49.7494 15.7768C49.3752 16.1641 49.3752 16.7782 49.7494 17.1657L50.4561 17.8725C50.8532 18.256 51.4859 18.2451 51.8695 17.848C52.2437 17.4605 52.2437 16.8463 51.8695 16.459Z" fill="#50C9C0"/>
<path d="M11.9574 4.32216C11.8397 3.96055 11.5269 3.69715 11.1507 3.64242L8.21683 3.21559L6.90835 0.557623C6.61669 0.0624413 5.97882 -0.10262 5.48364 0.189017C5.33145 0.278607 5.20462 0.405432 5.11504 0.557623L3.80054 3.21559L0.866687 3.64242C0.320276 3.72127 -0.0587015 4.2282 0.0201428 4.7746C0.0515055 4.99215 0.153716 5.19319 0.310905 5.34676L2.43308 7.41598L1.93327 10.3378C1.83731 10.8815 2.20017 11.4 2.74383 11.496C2.96274 11.5346 3.18816 11.4992 3.38471 11.3954L6.00871 10.0119L8.63269 11.3914C9.12133 11.6483 9.72571 11.4605 9.98263 10.9718C10.085 10.7772 10.1202 10.5545 10.0831 10.3378L9.58327 7.41598L11.7065 5.34676C11.9782 5.08074 12.0754 4.68364 11.9574 4.32216ZM7.80799 6.35134C7.57255 6.58066 7.46497 6.91102 7.52011 7.23502L7.76797 8.67946L6.47353 7.99672C6.18247 7.8439 5.83488 7.8439 5.54387 7.99672L4.24438 8.67844L4.49228 7.234C4.54838 6.91126 4.44267 6.58138 4.20939 6.35134L3.1588 5.32876L4.60923 5.11785C4.93486 5.07061 5.21637 4.86607 5.36194 4.57106L6.00871 3.25857L6.65641 4.57106C6.80185 4.86582 7.08289 5.07024 7.40815 5.11785L8.85757 5.32876L7.80799 6.35134Z" fill="#50C9C0"/>
<path d="M56.6134 50.1057H56.6094L56.1976 49.4879C53.8884 46.0347 50.2572 43.6866 46.1605 42.9975C45.6139 42.9195 45.1077 43.2993 45.0297 43.8459C44.9544 44.3739 45.3068 44.8681 45.8306 44.9687C48.7855 45.4702 51.4783 46.9714 53.4586 49.221C51.7937 49.5205 50.3375 50.5205 49.4602 51.967C48.3837 53.8951 49.074 56.3308 51.0021 57.4074C52.9302 58.4839 55.3659 57.7936 56.4425 55.8654C56.8537 55.0716 57.0757 54.1933 57.0912 53.2995C58.1548 54.8442 58.2399 56.8615 57.3102 58.4904C57.0285 58.9652 57.1851 59.5785 57.6599 59.8602C58.1347 60.142 58.748 59.9852 59.0296 59.5104C59.0386 59.4951 59.0472 59.4798 59.0555 59.464C60.886 56.1948 59.8077 52.0638 56.6134 50.1057ZM54.6992 54.8898C54.1656 55.8565 52.9495 56.2077 51.9829 55.6741C51.0162 55.1406 50.665 53.9244 51.1986 52.9578C51.2016 52.9524 51.2046 52.947 51.2075 52.9416C51.7974 51.9757 52.7924 51.3282 53.9145 51.1803C54.0883 51.1755 54.2604 51.2155 54.4143 51.2962C55.258 51.7671 55.3029 53.8083 54.6992 54.8898Z" fill="#50C9C0"/>
</g>
<defs>
<clipPath id="clip0_657_38">
<rect width="60" height="60" fill="white"/>
</clipPath>
</defs>
</svg>
