<svg width="26" height="25" viewBox="0 0 26 25" fill="none" xmlns="http://www.w3.org/2000/svg">
<g clip-path="url(#clip0_502_3580)">
<path fill-rule="evenodd" clip-rule="evenodd" d="M19.25 12.9719C19.25 13.9836 19.125 14.9953 19.125 14.9953C19.125 14.9953 19.0031 15.8562 18.6281 16.2359C18.1531 16.7336 17.6203 16.7359 17.3758 16.7648C15.6266 16.8914 13 16.8953 13 16.8953C13 16.8953 9.75 16.8656 8.75 16.7703C8.47188 16.718 7.84687 16.7336 7.37187 16.2359C6.99687 15.8562 6.875 14.9953 6.875 14.9953C6.875 14.9953 6.75 13.9836 6.75 12.9719V12.0234C6.75 11.0117 6.875 10.0008 6.875 10.0008C6.875 10.0008 6.99687 9.13906 7.37187 8.75937C7.84687 8.26172 8.37969 8.25937 8.62422 8.23047C10.3734 8.10391 12.9977 8.10391 12.9977 8.10391H13.0023C13.0023 8.10391 15.6266 8.10391 17.3758 8.23047C17.6203 8.25937 18.1531 8.26172 18.6281 8.75937C19.0031 9.13906 19.125 10.0008 19.125 10.0008C19.125 10.0008 19.25 11.0117 19.25 12.0234V12.9719ZM13 0C6.09609 0 0.5 5.59609 0.5 12.5C0.5 19.4031 6.09609 25 13 25C19.9039 25 25.5 19.4031 25.5 12.5C25.5 5.59609 19.9039 0 13 0Z" fill="#EA412C"/>
<path fill-rule="evenodd" clip-rule="evenodd" d="M11.7078 14.1199L15.0852 12.3699L11.707 10.6074L11.7078 14.1199Z" fill="#EA412C"/>
</g>
<defs>
<clipPath id="clip0_502_3580">
<rect width="25" height="25" fill="white" transform="translate(0.5)"/>
</clipPath>
</defs>
</svg>
